  0
SECTION
  2
HEADER
  9
$ACADVER
  1
AC1024
  9
$ACADMAINTVER
 70
     6
  9
$DWGCODEPAGE
  3
ANSI_1252
  9
$INSBASE
 10
0.0
 20
0.0
 30
0.0
  9
$EXTMIN
 10
1.000000000000000E+20
 20
1.000000000000000E+20
 30
1.000000000000000E+20
  9
$EXTMAX
 10
-1.000000000000000E+20
 20
-1.000000000000000E+20
 30
-1.000000000000000E+20
  9
$LIMMIN
 10
0.0
 20
0.0
  9
$LIMMAX
 10
12.0
 20
9.0
  9
$ORTHOMODE
 70
     0
  9
$REGENMODE
 70
     1
  9
$FILLMODE
 70
     1
  9
$QTEXTMODE
 70
     0
  9
$MIRRTEXT
 70
     1
  9
$LTSCALE
 40
1.0
  9
$ATTMODE
 70
     1
  9
$TEXTSIZE
 40
0.2
  9
$TRACEWID
 40
0.05
  9
$TEXTSTYLE
  7
Standard
  9
$CLAYER
  8
0
  9
$CELTYPE
  6
ByLayer
  9
$CECOLOR
 62
   256
  9
$CELTSCALE
 40
1.0
  9
$DISPSILH
 70
     0
  9
$DIMSCALE
 40
1.0
  9
$DIMASZ
 40
0.18
  9
$DIMEXO
 40
0.0625
  9
$DIMDLI
 40
0.38
  9
$DIMRND
 40
0.0
  9
$DIMDLE
 40
0.0
  9
$DIMEXE
 40
0.18
  9
$DIMTP
 40
0.0
  9
$DIMTM
 40
0.0
  9
$DIMTXT
 40
0.18
  9
$DIMCEN
 40
0.09
  9
$DIMTSZ
 40
0.0
  9
$DIMTOL
 70
     0
  9
$DIMLIM
 70
     0
  9
$DIMTIH
 70
     1
  9
$DIMTOH
 70
     1
  9
$DIMSE1
 70
     0
  9
$DIMSE2
 70
     0
  9
$DIMTAD
 70
     0
  9
$DIMZIN
 70
     0
  9
$DIMBLK
  1

  9
$DIMASO
 70
     1
  9
$DIMSHO
 70
     1
  9
$DIMPOST
  1

  9
$DIMAPOST
  1

  9
$DIMALT
 70
     0
  9
$DIMALTD
 70
     2
  9
$DIMALTF
 40
25.4
  9
$DIMLFAC
 40
1.0
  9
$DIMTOFL
 70
     0
  9
$DIMTVP
 40
0.0
  9
$DIMTIX
 70
     0
  9
$DIMSOXD
 70
     0
  9
$DIMSAH
 70
     0
  9
$DIMBLK1
  1

  9
$DIMBLK2
  1

  9
$DIMSTYLE
  2
Standard
  9
$DIMCLRD
 70
     0
  9
$DIMCLRE
 70
     0
  9
$DIMCLRT
 70
     0
  9
$DIMTFAC
 40
1.0
  9
$DIMGAP
 40
0.09
  9
$DIMJUST
 70
     0
  9
$DIMSD1
 70
     0
  9
$DIMSD2
 70
     0
  9
$DIMTOLJ
 70
     1
  9
$DIMTZIN
 70
     0
  9
$DIMALTZ
 70
     0
  9
$DIMALTTZ
 70
     0
  9
$DIMUPT
 70
     0
  9
$DIMDEC
 70
     4
  9
$DIMTDEC
 70
     4
  9
$DIMALTU
 70
     2
  9
$DIMALTTD
 70
     2
  9
$DIMTXSTY
  7
Standard
  9
$DIMAUNIT
 70
     0
  9
$DIMADEC
 70
     0
  9
$DIMALTRND
 40
0.0
  9
$DIMAZIN
 70
     0
  9
$DIMDSEP
 70
    46
  9
$DIMATFIT
 70
     3
  9
$DIMFRAC
 70
     0
  9
$DIMLDRBLK
  1

  9
$DIMLUNIT
 70
     2
  9
$DIMLWD
 70
    -2
  9
$DIMLWE
 70
    -2
  9
$DIMTMOVE
 70
     0
  9
$DIMFXL
 40
1.0
  9
$DIMFXLON
 70
     0
  9
$DIMJOGANG
 40
0.7853981633974483
  9
$DIMTFILL
 70
     0
  9
$DIMTFILLCLR
 70
     0
  9
$DIMARCSYM
 70
     0
  9
$DIMLTYPE
  6

  9
$DIMLTEX1
  6

  9
$DIMLTEX2
  6

  9
$DIMTXTDIRECTION
 70
     0
  9
$LUNITS
 70
     2
  9
$LUPREC
 70
     4
  9
$SKETCHINC
 40
0.1
  9
$FILLETRAD
 40
0.5
  9
$AUNITS
 70
     0
  9
$AUPREC
 70
     0
  9
$MENU
  1
.
  9
$ELEVATION
 40
0.0
  9
$PELEVATION
 40
0.0
  9
$THICKNESS
 40
0.0
  9
$LIMCHECK
 70
     0
  9
$CHAMFERA
 40
0.5
  9
$CHAMFERB
 40
0.5
  9
$CHAMFERC
 40
1.0
  9
$CHAMFERD
 40
0.0
  9
$SKPOLY
 70
     0
  9
$TDCREATE
 40
2457238.340418797
  9
$TDUCREATE
 40
2457238.632085463
  9
$TDUPDATE
 40
2457238.340418981
  9
$TDUUPDATE
 40
2457238.632085648
  9
$TDINDWG
 40
0.0000000116
  9
$TDUSRTIMER
 40
0.0000000116
  9
$USRTIMER
 70
     1
  9
$ANGBASE
 50
0.0
  9
$ANGDIR
 70
     0
  9
$PDMODE
 70
     0
  9
$PDSIZE
 40
0.0
  9
$PLINEWID
 40
0.0
  9
$SPLFRAME
 70
     0
  9
$SPLINETYPE
 70
     6
  9
$SPLINESEGS
 70
     8
  9
$HANDSEED
  5
AB
  9
$SURFTAB1
 70
     6
  9
$SURFTAB2
 70
     6
  9
$SURFTYPE
 70
     6
  9
$SURFU
 70
     6
  9
$SURFV
 70
     6
  9
$UCSBASE
  2

  9
$UCSNAME
  2

  9
$UCSORG
 10
0.0
 20
0.0
 30
0.0
  9
$UCSXDIR
 10
1.0
 20
0.0
 30
0.0
  9
$UCSYDIR
 10
0.0
 20
1.0
 30
0.0
  9
$UCSORTHOREF
  2

  9
$UCSORTHOVIEW
 70
     0
  9
$UCSORGTOP
 10
0.0
 20
0.0
 30
0.0
  9
$UCSORGBOTTOM
 10
0.0
 20
0.0
 30
0.0
  9
$UCSORGLEFT
 10
0.0
 20
0.0
 30
0.0
  9
$UCSORGRIGHT
 10
0.0
 20
0.0
 30
0.0
  9
$UCSORGFRONT
 10
0.0
 20
0.0
 30
0.0
  9
$UCSORGBACK
 10
0.0
 20
0.0
 30
0.0
  9
$PUCSBASE
  2

  9
$PUCSNAME
  2

  9
$PUCSORG
 10
0.0
 20
0.0
 30
0.0
  9
$PUCSXDIR
 10
1.0
 20
0.0
 30
0.0
  9
$PUCSYDIR
 10
0.0
 20
1.0
 30
0.0
  9
$PUCSORTHOREF
  2

  9
$PUCSORTHOVIEW
 70
     0
  9
$PUCSORGTOP
 10
0.0
 20
0.0
 30
0.0
  9
$PUCSORGBOTTOM
 10
0.0
 20
0.0
 30
0.0
  9
$PUCSORGLEFT
 10
0.0
 20
0.0
 30
0.0
  9
$PUCSORGRIGHT
 10
0.0
 20
0.0
 30
0.0
  9
$PUCSORGFRONT
 10
0.0
 20
0.0
 30
0.0
  9
$PUCSORGBACK
 10
0.0
 20
0.0
 30
0.0
  9
$USERI1
 70
     0
  9
$USERI2
 70
     0
  9
$USERI3
 70
     0
  9
$USERI4
 70
     0
  9
$USERI5
 70
     0
  9
$USERR1
 40
0.0
  9
$USERR2
 40
0.0
  9
$USERR3
 40
0.0
  9
$USERR4
 40
0.0
  9
$USERR5
 40
0.0
  9
$WORLDVIEW
 70
     1
  9
$SHADEDGE
 70
     3
  9
$SHADEDIF
 70
    70
  9
$TILEMODE
 70
     1
  9
$MAXACTVP
 70
    64
  9
$PINSBASE
 10
0.0
 20
0.0
 30
0.0
  9
$PLIMCHECK
 70
     0
  9
$PEXTMIN
 10
1.000000000000000E+20
 20
1.000000000000000E+20
 30
1.000000000000000E+20
  9
$PEXTMAX
 10
-1.000000000000000E+20
 20
-1.000000000000000E+20
 30
-1.000000000000000E+20
  9
$PLIMMIN
 10
0.0
 20
0.0
  9
$PLIMMAX
 10
12.0
 20
9.0
  9
$UNITMODE
 70
     0
  9
$VISRETAIN
 70
     1
  9
$PLINEGEN
 70
     0
  9
$PSLTSCALE
 70
     1
  9
$TREEDEPTH
 70
  3020
  9
$CMLSTYLE
  2
Standard
  9
$CMLJUST
 70
     0
  9
$CMLSCALE
 40
1.0
  9
$PROXYGRAPHICS
 70
     1
  9
$MEASUREMENT
 70
     0
  9
$CELWEIGHT
370
    -1
  9
$ENDCAPS
280
     0
  9
$JOINSTYLE
280
     0
  9
$LWDISPLAY
290
     1
  9
$INSUNITS
 70
     1
  9
$HYPERLINKBASE
  1

  9
$STYLESHEET
  1

  9
$XEDIT
290
     1
  9
$CEPSNTYPE
380
     0
  9
$PSTYLEMODE
290
     1
  9
$FINGERPRINTGUID
  2
{188E3687-BCC7-4C98-A7CD-DC9133BEDFD9}
  9
$VERSIONGUID
  2
{FAEB1C32-E019-11D5-929B-00C0DF256EC4}
  9
$EXTNAMES
290
     1
  9
$PSVPSCALE
 40
0.0
  9
$OLESTARTUP
290
     0
  9
$SORTENTS
280
   127
  9
$INDEXCTL
280
     0
  9
$HIDETEXT
280
     1
  9
$XCLIPFRAME
280
     2
  9
$HALOGAP
280
     0
  9
$OBSCOLOR
 70
   257
  9
$OBSLTYPE
280
     0
  9
$INTERSECTIONDISPLAY
280
     0
  9
$INTERSECTIONCOLOR
 70
   257
  9
$DIMASSOC
280
     2
  9
$PROJECTNAME
  1

  9
$CAMERADISPLAY
290
     0
  9
$LENSLENGTH
 40
50.0
  9
$CAMERAHEIGHT
 40
0.0
  9
$STEPSPERSEC
 40
2.0
  9
$STEPSIZE
 40
6.0
  9
$3DDWFPREC
 40
2.0
  9
$PSOLWIDTH
 40
0.25
  9
$PSOLHEIGHT
 40
4.0
  9
$LOFTANG1
 40
1.570796326794897
  9
$LOFTANG2
 40
1.570796326794897
  9
$LOFTMAG1
 40
0.0
  9
$LOFTMAG2
 40
0.0
  9
$LOFTPARAM
 70
     7
  9
$LOFTNORMALS
280
     1
  9
$LATITUDE
 40
37.795
  9
$LONGITUDE
 40
-122.394
  9
$NORTHDIRECTION
 40
0.0
  9
$TIMEZONE
 70
 -8000
  9
$LIGHTGLYPHDISPLAY
280
     1
  9
$TILEMODELIGHTSYNCH
280
     1
  9
$CMATERIAL
347
3C
  9
$SOLIDHIST
280
     1
  9
$SHOWHIST
280
     1
  9
$DWFFRAME
280
     2
  9
$DGNFRAME
280
     2
  9
$REALWORLDSCALE
290
     1
  9
$INTERFERECOLOR
 62
   256
  9
$CSHADOW
280
     0
  9
$SHADOWPLANELOCATION
 40
0.0
  0
ENDSEC
  0
SECTION
  2
CLASSES
  0
CLASS
  1
ACDBDICTIONARYWDFLT
  2
AcDbDictionaryWithDefault
  3
ObjectDBX Classes
 90
        0
 91
        4
280
     0
281
     0
  0
CLASS
  1
VISUALSTYLE
  2
AcDbVisualStyle
  3
ObjectDBX Classes
 90
     4095
 91
        4
280
     0
281
     0
  0
CLASS
  1
MATERIAL
  2
AcDbMaterial
  3
ObjectDBX Classes
 90
     1153
 91
        4
280
     0
281
     0
  0
CLASS
  1
SUN
  2
AcDbSun
  3
SCENEOE
 90
     1024
 91
        4
280
     0
281
     0
  0
ENDSEC
  0
SECTION
  2
TABLES
  0
TABLE
  2
VPORT
  5
8
330
0
100
AcDbSymbolTable
 70
     1
  0
VPORT
  5
29
330
8
100
AcDbSymbolTableRecord
100
AcDbViewportTableRecord
  2
*Active
 70
     0
 10
0.0
 20
0.0
 11
1.0
 21
1.0
 12
0.0
 22
0.0
 13
0.0
 23
0.0
 14
0.5
 24
0.5
 15
0.5
 25
0.5
 16
0.0
 26
0.0
 36
1.0
 17
4.430555555555556
 27
-5.736111111111111
 37
0.0
 40
104.0
 41
0.3835470085470085
 42
50.0
 43
0.0
 44
0.0
 50
0.0
 51
0.0
 71
     0
 72
   100
 73
     1
 74
     3
 75
     0
 76
     0
 77
     0
 78
     0
281
     0
 65
     1
110
0.0
120
0.0
130
0.0
111
1.0
121
0.0
131
0.0
112
0.0
122
1.0
132
0.0
 79
     0
146
0.0
 60
     3
 61
     5
292
     1
282
     1
141
0.0
142
0.0
 63
   250
361
3F
  0
ENDTAB
  0
TABLE
  2
LTYPE
  5
5
330
0
100
AcDbSymbolTable
 70
     1
  0
LTYPE
  5
14
330
5
100
AcDbSymbolTableRecord
100
AcDbLinetypeTableRecord
  2
ByBlock
 70
     0
  3

 72
    65
 73
     0
 40
0.0
  0
LTYPE
  5
15
330
5
100
AcDbSymbolTableRecord
100
AcDbLinetypeTableRecord
  2
ByLayer
 70
     0
  3

 72
    65
 73
     0
 40
0.0
  0
LTYPE
  5
16
330
5
100
AcDbSymbolTableRecord
100
AcDbLinetypeTableRecord
  2
Continuous
 70
     0
  3
Solid line
 72
    65
 73
     0
 40
0.0
  0
ENDTAB
  0
TABLE
  2
LAYER
  5
2
330
0
100
AcDbSymbolTable
 70
     2
  0
LAYER
  5
10
330
2
100
AcDbSymbolTableRecord
100
AcDbLayerTableRecord
  2
0
 70
     0
 62
     7
  6
Continuous
370
    -3
390
F
347
3E
  0
LAYER
  5
40
330
2
100
AcDbSymbolTableRecord
100
AcDbLayerTableRecord
  2
Layer 1
 70
     0
 62
     7
  6
Continuous
370
    -3
390
F
347
3E
  0
ENDTAB
  0
TABLE
  2
STYLE
  5
3
330
0
100
AcDbSymbolTable
 70
     1
  0
STYLE
  5
11
330
3
100
AcDbSymbolTableRecord
100
AcDbTextStyleTableRecord
  2
Standard
 70
     0
 40
0.0
 41
1.0
 50
0.0
 71
     0
 42
0.2
  3
txt
  4

  0
ENDTAB
  0
TABLE
  2
VIEW
  5
6
330
0
100
AcDbSymbolTable
 70
     0
  0
ENDTAB
  0
TABLE
  2
UCS
  5
7
330
0
100
AcDbSymbolTable
 70
     0
  0
ENDTAB
  0
TABLE
  2
APPID
  5
9
330
0
100
AcDbSymbolTable
 70
     1
  0
APPID
  5
12
330
9
100
AcDbSymbolTableRecord
100
AcDbRegAppTableRecord
  2
ACAD
 70
     0
  0
ENDTAB
  0
TABLE
  2
DIMSTYLE
  5
A
330
0
100
AcDbSymbolTable
 70
     1
100
AcDbDimStyleTable
  0
DIMSTYLE
105
27
330
A
100
AcDbSymbolTableRecord
100
AcDbDimStyleTableRecord
  2
Standard
 70
     0
178
     0
340
11
  0
ENDTAB
  0
TABLE
  2
BLOCK_RECORD
  5
1
330
0
100
AcDbSymbolTable
 70
     1
  0
BLOCK_RECORD
  5
1F
330
1
100
AcDbSymbolTableRecord
100
AcDbBlockTableRecord
  2
*Model_Space
340
22
 70
     0
280
     1
281
     0
  0
BLOCK_RECORD
  5
1B
330
1
100
AcDbSymbolTableRecord
100
AcDbBlockTableRecord
  2
*Paper_Space
340
1E
 70
     0
280
     1
281
     0
  0
BLOCK_RECORD
  5
23
330
1
100
AcDbSymbolTableRecord
100
AcDbBlockTableRecord
  2
*Paper_Space0
340
26
 70
     0
280
     1
281
     0
  0
ENDTAB
  0
ENDSEC
  0
SECTION
  2
BLOCKS
  0
BLOCK
  5
20
330
1F
100
AcDbEntity
  8
0
100
AcDbBlockBegin
  2
*Model_Space
 70
     0
 10
0.0
 20
0.0
 30
0.0
  3
*Model_Space
  1

  0
ENDBLK
  5
21
330
1F
100
AcDbEntity
  8
0
100
AcDbBlockEnd
  0
BLOCK
  5
1C
330
1B
100
AcDbEntity
 67
     1
  8
0
100
AcDbBlockBegin
  2
*Paper_Space
 70
     0
 10
0.0
 20
0.0
 30
0.0
  3
*Paper_Space
  1

  0
ENDBLK
  5
1D
330
1B
100
AcDbEntity
 67
     1
  8
0
100
AcDbBlockEnd
  0
BLOCK
  5
24
330
23
100
AcDbEntity
  8
0
100
AcDbBlockBegin
  2
*Paper_Space0
 70
     0
 10
0.0
 20
0.0
 30
0.0
  3
*Paper_Space0
  1

  0
ENDBLK
  5
25
330
23
100
AcDbEntity
  8
0
100
AcDbBlockEnd
  0
ENDSEC
  0
SECTION
  2
ENTITIES
  0
POLYLINE
  5
41
330
1F
100
AcDbEntity
  8
Layer 1
370
     0
100
AcDb2dPolyline
 66
     1
 10
0.0
 20
0.0
 30
0.0
  0
VERTEX
  5
42
330
41
100
AcDbEntity
  8
Layer 1
370
     0
100
AcDbVertex
100
AcDb2dVertex
 10
22.27765523372333
 20
44.79007226273013
 30
0.0
  0
VERTEX
  5
43
330
41
100
AcDbEntity
  8
Layer 1
370
     0
100
AcDbVertex
100
AcDb2dVertex
 10
22.27765523372333
 20
-55.8307618035211
 30
0.0
  0
VERTEX
  5
44
330
41
100
AcDbEntity
  8
Layer 1
370
     0
100
AcDbVertex
100
AcDb2dVertex
 10
-13.76293060770222
 20
-15.86445436586862
 30
0.0
  0
VERTEX
  5
45
330
41
100
AcDbEntity
  8
Layer 1
370
     0
100
AcDbVertex
100
AcDb2dVertex
 10
-0.5217920748924977
 20
6.420095090804807
 30
0.0
  0
VERTEX
  5
46
330
41
100
AcDbEntity
  8
Layer 1
370
     0
100
AcDbVertex
100
AcDb2dVertex
 10
6.238040505909541
 20
17.79581808402555
 30
0.0
  0
VERTEX
  5
47
330
41
100
AcDbEntity
  8
Layer 1
370
     0
100
AcDbVertex
100
AcDb2dVertex
 10
16.45815852260001
 20
34.99612910671014
 30
0.0
  0
VERTEX
  5
48
330
41
100
AcDbEntity
  8
Layer 1
370
     0
100
AcDbVertex
100
AcDb2dVertex
 10
22.27765523372333
 20
44.79007226273013
 30
0.0
  0
SEQEND
  5
49
330
41
100
AcDbEntity
  8
Layer 1
370
     0
  0
SPLINE
  5
4A
330
1F
100
AcDbEntity
  8
Layer 1
370
     0
100
AcDbSpline
210
0.0
220
0.0
230
1.0
 70
    11
 71
     3
 72
    17
 73
    13
 74
     0
 42
0.0000000001
 43
0.0000000001
 12
1.0
 22
0.0
 32
0.0
 13
1.0
 23
0.0
 33
0.0
 40
0.0
 40
0.0
 40
0.0
 40
0.0
 40
1.0
 40
1.0
 40
1.0
 40
2.0
 40
2.0
 40
2.0
 40
3.0
 40
3.0
 40
3.0
 40
4.0
 40
4.0
 40
4.0
 40
4.0
 10
-5.210339378243336
 20
-13.31608932203244
 30
0.0
 10
-4.515368973497781
 20
-13.48791076742979
 30
0.0
 10
-3.972667198610136
 20
-14.03126530543182
 30
0.0
 10
-3.800994109686245
 20
-14.7265917728632
 30
0.0
 10
-3.800994109686245
 20
-14.7265917728632
 30
0.0
 10
-1.576720901209999
 20
-14.7265917728632
 30
0.0
 10
-1.576720901209999
 20
-14.7265917728632
 30
0.0
 10
-1.791429557902221
 20
-12.81381349084326
 30
0.0
 10
-3.295662237235281
 20
-11.3087068820698
 30
0.0
 10
-5.210339378243336
 20
-11.09283968711326
 30
0.0
 10
-5.210339378243336
 20
-11.09283968711326
 30
0.0
 10
-5.210339378243336
 20
-13.31608932203244
 30
0.0
 10
-5.210339378243336
 20
-13.31608932203244
 30
0.0
  0
SPLINE
  5
4B
330
1F
100
AcDbEntity
  8
Layer 1
370
     0
100
AcDbSpline
210
0.0
220
0.0
230
1.0
 70
    11
 71
     3
 72
    17
 73
    13
 74
     0
 42
0.0000000001
 43
0.0000000001
 12
1.0
 22
0.0
 32
0.0
 13
1.0
 23
0.0
 33
0.0
 40
0.0
 40
0.0
 40
0.0
 40
0.0
 40
1.0
 40
1.0
 40
1.0
 40
2.0
 40
2.0
 40
2.0
 40
3.0
 40
3.0
 40
3.0
 40
4.0
 40
4.0
 40
4.0
 40
4.0
 10
-7.539629821088889
 20
-14.7265917728632
 30
0.0
 10
-7.368684898577359
 20
-14.03126530543182
 30
0.0
 10
-6.826264992743745
 20
-13.48791076742979
 30
0.0
 10
-6.131012718944311
 20
-13.31608932203244
 30
0.0
 10
-6.131012718944311
 20
-13.31608932203244
 30
0.0
 10
-6.131012718944311
 20
-11.09283968711326
 30
0.0
 10
-6.131012718944311
 20
-11.09283968711326
 30
0.0
 10
-8.044814582364854
 20
-11.30682280992591
 30
0.0
 10
-9.548911168409164
 20
-12.81381349084326
 30
0.0
 10
-9.763755918389304
 20
-14.7265917728632
 30
0.0
 10
-9.763755918389304
 20
-14.7265917728632
 30
0.0
 10
-7.539629821088889
 20
-14.7265917728632
 30
0.0
 10
-7.539629821088889
 20
-14.7265917728632
 30
0.0
  0
SPLINE
  5
4C
330
1F
100
AcDbEntity
  8
Layer 1
370
     0
100
AcDbSpline
210
0.0
220
0.0
230
1.0
 70
    11
 71
     3
 72
    17
 73
    13
 74
     0
 42
0.0000000001
 43
0.0000000001
 12
1.0
 22
0.0
 32
0.0
 13
1.0
 23
0.0
 33
0.0
 40
0.0
 40
0.0
 40
0.0
 40
0.0
 40
1.0
 40
1.0
 40
1.0
 40
2.0
 40
2.0
 40
2.0
 40
3.0
 40
3.0
 40
3.0
 40
4.0
 40
4.0
 40
4.0
 40
4.0
 10
-6.131012718944311
 20
-17.05481538012138
 30
0.0
 10
-6.824247403727642
 20
-16.8839285531886
 30
0.0
 10
-7.366799581158059
 20
-16.34348171707693
 30
0.0
 10
-7.538770619672505
 20
-15.64808107357723
 30
0.0
 10
-7.538770619672505
 20
-15.64808107357723
 30
0.0
 10
-9.763755918389304
 20
-15.64808107357723
 30
0.0
 10
-9.763755918389304
 20
-15.64808107357723
 30
0.0
 10
-9.548911168409164
 20
-17.56100770773431
 30
0.0
 10
-8.044814582364854
 20
-19.06611431650834
 30
0.0
 10
-6.131012718944311
 20
-19.28009743932027
 30
0.0
 10
-6.131012718944311
 20
-19.28009743932027
 30
0.0
 10
-6.131012718944311
 20
-17.05481538012138
 30
0.0
 10
-6.131012718944311
 20
-17.05481538012138
 30
0.0
  0
SPLINE
  5
4D
330
1F
100
AcDbEntity
  8
Layer 1
370
     0
100
AcDbSpline
210
0.0
220
0.0
230
1.0
 70
    11
 71
     3
 72
    17
 73
    13
 74
     0
 42
0.0000000001
 43
0.0000000001
 12
1.0
 22
0.0
 32
0.0
 13
1.0
 23
0.0
 33
0.0
 40
0.0
 40
0.0
 40
0.0
 40
0.0
 40
1.0
 40
1.0
 40
1.0
 40
2.0
 40
2.0
 40
2.0
 40
3.0
 40
3.0
 40
3.0
 40
4.0
 40
4.0
 40
4.0
 40
4.0
 10
-3.80272982964958
 20
-15.64808107357723
 30
0.0
 10
-3.973675993117644
 20
-16.34348171707693
 30
0.0
 10
-4.51609589895194
 20
-16.8839285531886
 30
0.0
 10
-5.210339378243336
 20
-17.05481538012138
 30
0.0
 10
-5.210339378243336
 20
-17.05481538012138
 30
0.0
 10
-5.210339378243336
 20
-19.28009743932027
 30
0.0
 10
-5.210339378243336
 20
-19.28009743932027
 30
0.0
 10
-3.297546309330831
 20
-19.06328079068584
 30
0.0
 10
-1.791429557902221
 20
-17.56100770773431
 30
0.0
 10
-1.576720901209999
 20
-15.64808107357723
 30
0.0
 10
-1.576720901209999
 20
-15.64808107357723
 30
0.0
 10
-3.80272982964958
 20
-15.64808107357723
 30
0.0
 10
-3.80272982964958
 20
-15.64808107357723
 30
0.0
  0
SPLINE
  5
4E
330
1F
100
AcDbEntity
  8
Layer 1
370
     0
100
AcDbSpline
210
0.0
220
0.0
230
1.0
 70
    11
 71
     3
 72
    68
 73
    64
 74
     0
 42
0.0000000001
 43
0.0000000001
 12
1.0
 22
0.0
 32
0.0
 13
1.0
 23
0.0
 33
0.0
 40
0.0
 40
0.0
 40
0.0
 40
0.0
 40
1.0
 40
1.0
 40
1.0
 40
2.0
 40
2.0
 40
2.0
 40
3.0
 40
3.0
 40
3.0
 40
4.0
 40
4.0
 40
4.0
 40
5.0
 40
5.0
 40
5.0
 40
6.0
 40
6.0
 40
6.0
 40
7.0
 40
7.0
 40
7.0
 40
8.0
 40
8.0
 40
8.0
 40
9.0
 40
9.0
 40
9.0
 40
10.0
 40
10.0
 40
10.0
 40
11.0
 40
11.0
 40
11.0
 40
12.0
 40
12.0
 40
12.0
 40
13.0
 40
13.0
 40
13.0
 40
14.0
 40
14.0
 40
14.0
 40
15.0
 40
15.0
 40
15.0
 40
16.0
 40
16.0
 40
16.0
 40
17.0
 40
17.0
 40
17.0
 40
18.0
 40
18.0
 40
18.0
 40
19.0
 40
19.0
 40
19.0
 40
20.0
 40
20.0
 40
20.0
 40
21.0
 40
21.0
 40
21.0
 40
21.0
 10
-5.502316792805989
 20
-16.16117011176215
 30
0.0
 10
-5.510721842447916
 20
-16.08696831597222
 30
0.0
 10
-5.538126627604166
 20
-16.0191413031684
 30
0.0
 10
-5.576783921983506
 20
-15.95566304524739
 30
0.0
 10
-5.607443067762587
 20
-15.90512932671441
 30
0.0
 10
-5.648818122016059
 20
-15.86341349283854
 30
0.0
 10
-5.690867953830295
 20
-15.82251824273003
 30
0.0
 10
-5.695477803548177
 20
-15.81804741753472
 30
0.0
 10
-5.700230068630642
 20
-15.81376647949219
 30
0.0
 10
-5.704977247450087
 20
-15.80949062771267
 30
0.0
 10
-5.698866102430555
 20
-15.82598029242621
 30
0.0
 10
-5.690184699164496
 20
-15.84002007378472
 30
0.0
 10
-5.682589213053385
 20
-15.85453626844618
 30
0.0
 10
-5.658849928114149
 20
-15.89915296766493
 30
0.0
 10
-5.636067708333333
 20
-15.94420199924045
 30
0.0
 10
-5.630371941460504
 20
-15.99540201822917
 30
0.0
 10
-5.627511766221788
 20
-16.02009752061632
 30
0.0
 10
-5.628606160481771
 20
-16.04471503363715
 30
0.0
 10
-5.642027113172743
 20
-16.06600782606337
 30
0.0
 10
-5.654652065700954
 20
-16.08621893988715
 30
0.0
 10
-5.668211195203993
 20
-16.10595364040799
 30
0.0
 10
-5.680018107096354
 20
-16.12685139973958
 30
0.0
 10
-5.712438795301649
 20
-16.18409220377604
 30
0.0
 10
-5.737402174207899
 20
-16.24370998806424
 30
0.0
 10
-5.740509880913629
 20
-16.31071980794271
 30
0.0
 10
-5.742137485080295
 20
-16.34421793619791
 30
0.0
 10
-5.735221015082465
 20
-16.37555948893229
 30
0.0
 10
-5.71921624077691
 20
-16.40479871961805
 30
0.0
 10
-5.700580173068576
 20
-16.43868679470486
 30
0.0
 10
-5.672379387749566
 20
-16.46357727050781
 30
0.0
 10
-5.642170376247829
 20
-16.48613823784722
 30
0.0
 10
-5.639928181966146
 20
-16.48733350965712
 30
0.0
 10
-5.6376953125
 20
-16.48834567599826
 30
0.0
 10
-5.635448879665798
 20
-16.48988681369358
 30
0.0
 10
-5.626516554090712
 20
-16.49601576063368
 30
0.0
 10
-5.618097941080729
 20
-16.5029059516059
 30
0.0
 10
-5.609390258789062
 20
-16.50938924153646
 30
0.0
 10
-5.606559753417969
 20
-16.5108167860243
 30
0.0
 10
-5.603608025444879
 20
-16.5121832953559
 30
0.0
 10
-5.60025872124566
 20
-16.51330905490451
 30
0.0
 10
-5.614358690049913
 20
-16.49587673611111
 30
0.0
 10
-5.625758700900607
 20
-16.48022121853299
 30
0.0
 10
-5.635249667697482
 20
-16.46345689561632
 30
0.0
 10
-5.654115464952256
 20
-16.43103535970052
 30
0.0
 10
-5.66496107313368
 20
-16.39686075846354
 30
0.0
 10
-5.657361348470052
 20
-16.35880194769965
 30
0.0
 10
-5.648818122016059
 20
-16.31412082248264
 30
0.0
 10
-5.630917867024739
 20
-16.27252875434028
 30
0.0
 10
-5.611373053656684
 20
-16.23177761501736
 30
0.0
 10
-5.605412801106771
 20
-16.2191653781467
 30
0.0
 10
-5.598215738932291
 20
-16.20708211263021
 30
0.0
 10
-5.590355767144097
 20
-16.19236585828993
 30
0.0
 10
-5.56268310546875
 20
-16.25164116753472
 30
0.0
 10
-5.563090006510416
 20
-16.3067152235243
 30
0.0
 10
-5.594285753038194
 20
-16.36158074273003
 30
0.0
 10
-5.590754191080729
 20
-16.36070590549045
 30
0.0
 10
-5.588451809353298
 20
-16.35948689778646
 30
0.0
 10
-5.586686028374566
 20
-16.35785929361979
 30
0.0
 10
-5.579224480523004
 20
-16.35115051269531
 30
0.0
 10
-5.571490817599826
 20
-16.34483167860243
 30
0.0
 10
-5.564851548936631
 20
-16.33737013075087
 30
0.0
 10
-5.520222134060329
 20
-16.28711276584201
 30
0.0
 10
-5.494578891330295
 20
-16.22966512044271
 30
0.0
 10
-5.502316792805989
 20
-16.16117011176215
 30
0.0
  0
SPLINE
  5
4F
330
1F
100
AcDbEntity
  8
Layer 1
370
     0
100
AcDbSpline
210
0.0
220
0.0
230
1.0
 70
    11
 71
     3
 72
   140
 73
   136
 74
     0
 42
0.0000000001
 43
0.0000000001
 12
1.0
 22
0.0
 32
0.0
 13
1.0
 23
0.0
 33
0.0
 40
0.0
 40
0.0
 40
0.0
 40
0.0
 40
1.0
 40
1.0
 40
1.0
 40
2.0
 40
2.0
 40
2.0
 40
3.0
 40
3.0
 40
3.0
 40
4.0
 40
4.0
 40
4.0
 40
5.0
 40
5.0
 40
5.0
 40
6.0
 40
6.0
 40
6.0
 40
7.0
 40
7.0
 40
7.0
 40
8.0
 40
8.0
 40
8.0
 40
9.0
 40
9.0
 40
9.0
 40
10.0
 40
10.0
 40
10.0
 40
11.0
 40
11.0
 40
11.0
 40
12.0
 40
12.0
 40
12.0
 40
13.0
 40
13.0
 40
13.0
 40
14.0
 40
14.0
 40
14.0
 40
15.0
 40
15.0
 40
15.0
 40
16.0
 40
16.0
 40
16.0
 40
17.0
 40
17.0
 40
17.0
 40
18.0
 40
18.0
 40
18.0
 40
19.0
 40
19.0
 40
19.0
 40
20.0
 40
20.0
 40
20.0
 40
21.0
 40
21.0
 40
21.0
 40
22.0
 40
22.0
 40
22.0
 40
23.0
 40
23.0
 40
23.0
 40
24.0
 40
24.0
 40
24.0
 40
25.0
 40
25.0
 40
25.0
 40
26.0
 40
26.0
 40
26.0
 40
27.0
 40
27.0
 40
27.0
 40
28.0
 40
28.0
 40
28.0
 40
29.0
 40
29.0
 40
29.0
 40
30.0
 40
30.0
 40
30.0
 40
31.0
 40
31.0
 40
31.0
 40
32.0
 40
32.0
 40
32.0
 40
33.0
 40
33.0
 40
33.0
 40
34.0
 40
34.0
 40
34.0
 40
35.0
 40
35.0
 40
35.0
 40
36.0
 40
36.0
 40
36.0
 40
37.0
 40
37.0
 40
37.0
 40
38.0
 40
38.0
 40
38.0
 40
39.0
 40
39.0
 40
39.0
 40
40.0
 40
40.0
 40
40.0
 40
41.0
 40
41.0
 40
41.0
 40
42.0
 40
42.0
 40
42.0
 40
43.0
 40
43.0
 40
43.0
 40
44.0
 40
44.0
 40
44.0
 40
45.0
 40
45.0
 40
45.0
 40
45.0
 10
-5.053336487521253
 20
-15.56569786336568
 30
0.0
 10
-4.943069137760694
 20
-15.86564167401846
 30
0.0
 10
-4.961151286567504
 20
-16.1705496361029
 30
0.0
 10
-5.149416837810969
 20
-16.38363161656096
 30
0.0
 10
-5.170338117689576
 20
-16.40774259095138
 30
0.0
 10
-5.193734981368189
 20
-16.43042967186195
 30
0.0
 10
-5.218906301966942
 20
-16.45170584312513
 30
0.0
 10
-5.236988450773891
 20
-16.46694886086
 30
0.0
 10
-5.257554839268058
 20
-16.48255109792265
 30
0.0
 10
-5.280241920178885
 20
-16.49779844360152
 30
0.0
 10
-5.296904503449721
 20
-16.50914198405707
 30
0.0
 10
-5.314281197432781
 20
-16.5201306331286
 30
0.0
 10
-5.333068801063884
 20
-16.5311236101439
 30
0.0
 10
-5.390154378555697
 20
-16.5201306331286
 30
0.0
 10
-5.435892087648477
 20
-16.47758694649082
 30
0.0
 10
-5.45148999676764
 20
-16.42227582591876
 30
0.0
 10
-5.434472522113057
 20
-16.40242354813598
 30
0.0
 10
-5.419225176434161
 20
-16.38186148758541
 30
0.0
 10
-5.40575228767486
 20
-16.36023042493874
 30
0.0
 10
-5.396533767579032
 20
-16.34605208135569
 30
0.0
 10
-5.388025030251381
 20
-16.33186940982846
 30
0.0
 10
-5.381290749844589
 20
-16.31768673830124
 30
0.0
 10
-5.367462969701667
 20
-16.2896762866314
 30
0.0
 10
-5.357534666837775
 20
-16.2616658349611
 30
0.0
 10
-5.351505841254581
 20
-16.23294992846695
 30
0.0
 10
-5.314986652256809
 20
-16.05851215736639
 30
0.0
 10
-5.413196350850297
 20
-15.87344062857819
 30
0.0
 10
-5.533037112090697
 20
-15.73197746057945
 30
0.0
 10
-5.676980191833473
 20
-15.54974506286251
 30
0.0
 10
-5.85248263708556
 20
-15.41927054393515
 30
0.0
 10
-5.751433807420136
 20
-15.13633987999376
 30
0.0
 10
-5.877653957684439
 20
-15.23206966684332
 30
0.0
 10
-5.992526239549306
 20
-15.33878810276416
 30
0.0
 10
-6.012733408715702
 20
-15.52775910883237
 30
0.0
 10
-6.030815557522638
 20
-15.6926234684536
 30
0.0
 10
-5.908849775922779
 20
-15.80572562134209
 30
0.0
 10
-5.850353288782356
 20
-15.9471887893411
 30
0.0
 10
-5.818443359832498
 20
-16.01809781903249
 30
0.0
 10
-5.835460834487081
 20
-16.10389497507554
 30
0.0
 10
-5.884743129475964
 20
-16.15140714108793
 30
0.0
 10
-5.874105043844716
 20
-16.04007511717514
 30
0.0
 10
-5.955652159167357
 20
-15.9971765391539
 30
0.0
 10
-6.034005252034452
 20
-15.97448945824307
 30
0.0
 10
-5.943243944560574
 20
-16.05532246285429
 30
0.0
 10
-6.040034077617646
 20
-16.18650676454985
 30
0.0
 10
-6.039324294850417
 20
-16.31307747825334
 30
0.0
 10
-6.038973731410275
 20
-16.35065701345959
 30
0.0
 10
-6.030460666138475
 20
-16.38540607348068
 30
0.0
 10
-6.015568211843755
 20
-16.41696111104693
 30
0.0
 10
-5.990041999861533
 20
-16.47014288331583
 30
0.0
 10
-5.946788530455832
 20
-16.51339635272054
 30
0.0
 10
-5.895381215106946
 20
-16.54211658715874
 30
0.0
 10
-5.895381215106946
 20
-16.54211658715874
 30
0.0
 10
-5.895381215106946
 20
-16.5442416075189
 30
0.0
 10
-5.895381215106946
 20
-16.5442416075189
 30
0.0
 10
-5.895381215106946
 20
-16.58501516518001
 30
0.0
 10
-5.914528038065693
 20
-16.62117946279404
 30
0.0
 10
-5.94430429076792
 20
-16.64457632647307
 30
0.0
 10
-6.017697560147085
 20
-16.62791374320098
 30
0.0
 10
-6.085062003943196
 20
-16.60522233434709
 30
0.0
 10
-6.146397622155001
 20
-16.57721621062041
 30
0.0
 10
-6.49455905364472
 20
-16.42050569694235
 30
0.0
 10
-6.658717958441811
 20
-16.10354008369126
 30
0.0
 10
-6.687788756320274
 20
-15.75254384907362
 30
0.0
 10
-6.698422514007916
 20
-15.63625200167293
 30
0.0
 10
-6.668291369921247
 20
-15.51322587386499
 30
0.0
 10
-6.641700483787367
 20
-15.40189384995251
 30
0.0
 10
-6.641700483787367
 20
-15.62454924189029
 30
0.0
 10
-6.499527533020277
 20
-15.85500358838749
 30
0.0
 10
-6.229359975070135
 20
-15.84862419936346
 30
0.0
 10
-6.361959514356941
 20
-15.78019940935999
 30
0.0
 10
-6.420815220825274
 20
-15.72417850601957
 30
0.0
 10
-6.474351884478336
 20
-15.65858851914388
 30
0.0
 10
-6.548805500064999
 20
-15.56250384091027
 30
0.0
 10
-6.581070320399173
 20
-15.45437016739652
 30
0.0
 10
-6.565113191952364
 20
-15.33311416856471
 30
0.0
 10
-6.538522305818333
 20
-15.10549895313973
 30
0.0
 10
-6.293534724353612
 20
-14.95339769950874
 30
0.0
 10
-6.279352052826248
 20
-14.72081400470804
 30
0.0
 10
-6.269073186522923
 20
-14.5552441902625
 30
0.0
 10
-6.34671649662222
 20
-14.46341388069249
 30
0.0
 10
-6.479670927293328
 20
-14.40810708806445
 30
0.0
 10
-6.383590577003613
 20
-14.41803106298418
 30
0.0
 10
-6.255950861204168
 20
-14.45774427443681
 30
0.0
 10
-6.165540117170419
 20
-14.51837010988099
 30
0.0
 10
-6.026916080242914
 20
-14.6144504601707
 30
0.0
 10
-5.96487067926292
 20
-14.73606135038694
 30
0.0
 10
-5.955652159167357
 20
-14.86015215234708
 30
0.0
 10
-5.950337444295415
 20
-14.93106118203832
 30
0.0
 10
-5.953522810863748
 20
-15.01969746915307
 30
0.0
 10
-5.99075178262875
 20
-15.08032330459693
 30
0.0
 10
-5.845389137349861
 20
-14.9498487856693
 30
0.0
 10
-5.871980023484588
 20
-14.82257261714166
 30
0.0
 10
-5.909559558689996
 20
-14.72648793890777
 30
0.0
 10
-5.962741330958756
 20
-14.57970572809376
 30
0.0
 10
-6.076903830055699
 20
-14.45880894858874
 30
0.0
 10
-6.098534892702357
 20
-14.29217013204778
 30
0.0
 10
-6.141078579339856
 20
-13.96350608695709
 30
0.0
 10
-5.770935521763337
 20
-13.83445113356548
 30
0.0
 10
-5.69967160068778
 20
-13.54408073439173
 30
0.0
 10
-5.655353457131114
 20
-13.3639690290916
 30
0.0
 10
-5.783343736370145
 20
-13.18280130552729
 30
0.0
 10
-5.84361900837444
 20
-13.13245433638604
 30
0.0
 10
-5.640815894219309
 20
-13.25548046419423
 30
0.0
 10
-5.41816483022597
 20
-13.45898903317311
 30
0.0
 10
-5.413196350850297
 20
-13.74156480573103
 30
0.0
 10
-5.413196350850297
 20
-13.87805949435425
 30
0.0
 10
-5.46425310275889
 20
-13.98726216996291
 30
0.0
 10
-5.538706718346248
 20
-14.0985898659318
 30
0.0
 10
-5.575580798727501
 20
-14.1521222016407
 30
0.0
 10
-5.606780944909588
 20
-14.22587036240429
 30
0.0
 10
-5.589053687486802
 20
-14.28224615712821
 30
0.0
 10
-5.578415601855694
 20
-14.31628110643821
 30
0.0
 10
-5.547925238441116
 20
-14.34641657846805
 30
0.0
 10
-5.488364077149172
 20
-14.35244540405223
 30
0.0
 10
-5.30116320005738
 20
-14.37158789906668
 30
0.0
 10
-5.314281197432781
 20
-14.08227784610138
 30
0.0
 10
-5.390154378555697
 20
-13.99719047282681
 30
0.0
 10
-5.203663284231387
 20
-14.12872533796207
 30
0.0
 10
-5.029935295898895
 20
-14.3928597423857
 30
0.0
 10
-5.163244617954584
 20
-14.61516024293888
 30
0.0
 10
-5.274927205307082
 20
-14.81724924638221
 30
0.0
 10
-5.602171684862494
 20
-14.97360919661999
 30
0.0
 10
-5.586218884358749
 20
-15.22108101777182
 30
0.0
 10
-5.585863992975002
 20
-15.23135988407527
 30
0.0
 10
-5.584444427439166
 20
-15.24164307832249
 30
0.0
 10
-5.582669970519027
 20
-15.25192194462612
 30
0.0
 10
-5.516725092259308
 20
-15.03210568376057
 30
0.0
 10
-5.097299739694714
 20
-14.72755261305931
 30
0.0
 10
-4.981007892293746
 20
-14.73818637074737
 30
0.0
 10
-5.09410571723889
 20
-14.79704207721529
 30
0.0
 10
-5.228124822062783
 20
-14.95339769950874
 30
0.0
 10
-5.206852978743894
 20
-15.1455584000886
 30
0.0
 10
-5.196219221055975
 20
-15.28737645947209
 30
0.0
 10
-5.106518259789722
 20
-15.42919451885458
 30
0.0
 10
-5.053336487521253
 20
-15.56569786336568
 30
0.0
  0
SPLINE
  5
50
330
1F
100
AcDbEntity
  8
Layer 1
370
     0
100
AcDbSpline
210
0.0
220
0.0
230
1.0
 70
    11
 71
     3
 72
    32
 73
    28
 74
     0
 42
0.0000000001
 43
0.0000000001
 12
1.0
 22
0.0
 32
0.0
 13
1.0
 23
0.0
 33
0.0
 40
0.0
 40
0.0
 40
0.0
 40
0.0
 40
1.0
 40
1.0
 40
1.0
 40
2.0
 40
2.0
 40
2.0
 40
3.0
 40
3.0
 40
3.0
 40
4.0
 40
4.0
 40
4.0
 40
5.0
 40
5.0
 40
5.0
 40
6.0
 40
6.0
 40
6.0
 40
7.0
 40
7.0
 40
7.0
 40
8.0
 40
8.0
 40
8.0
 40
9.0
 40
9.0
 40
9.0
 40
9.0
 10
9.279005797151006
 20
11.59037296294132
 30
0.0
 10
9.819005121035287
 20
11.95105441440048
 30
0.0
 10
9.940469895854323
 20
12.71439510303925
 30
0.0
 10
9.791832543795357
 20
13.34653220588562
 30
0.0
 10
9.643195191736393
 20
13.97866930873209
 30
0.0
 10
9.286582409437818
 20
14.539643366685
 30
0.0
 10
9.048996959322771
 20
15.14399718119764
 30
0.0
 10
8.811411509207725
 20
15.74835099571014
 30
0.0
 10
8.70492651458825
 20
16.4686065510782
 30
0.0
 10
9.044926837866543
 20
17.02186070550707
 30
0.0
 10
8.950398220421498
 20
16.56434537242986
 30
0.0
 10
9.11908428930974
 20
16.09768829190694
 30
0.0
 10
9.369151050529581
 20
15.70307132008514
 30
0.0
 10
9.61921781174937
 20
15.30845434826334
 30
0.0
 10
9.947608697250365
 20
14.96972160399083
 30
0.0
 10
10.21923912457702
 20
14.58962576019986
 30
0.0
 10
10.49086955190367
 20
14.20952991640903
 30
0.0
 10
10.7104228760751
 20
13.76474645498133
 30
0.0
 10
10.69324262496623
 20
13.29788375729757
 30
0.0
 10
10.67895074479515
 20
12.90950713936036
 30
0.0
 10
10.49820551305945
 20
12.53862523225353
 30
0.0
 10
10.2373071343835
 20
12.25057539770437
 30
0.0
 10
9.976408755707526
 20
11.96252556315507
 30
0.0
 10
9.639537647110652
 20
11.75174161169131
 30
0.0
 10
9.285286418767226
 20
11.59190814086383
 30
0.0
 10
9.285286418767226
 20
11.59190814086383
 30
0.0
 10
9.279005797151006
 20
11.59037296294132
 30
0.0
 10
9.279005797151006
 20
11.59037296294132
 30
0.0
  0
SPLINE
  5
51
330
1F
100
AcDbEntity
  8
Layer 1
370
     0
100
AcDbSpline
210
0.0
220
0.0
230
1.0
 70
    11
 71
     3
 72
    32
 73
    28
 74
     0
 42
0.0000000001
 43
0.0000000001
 12
1.0
 22
0.0
 32
0.0
 13
1.0
 23
0.0
 33
0.0
 40
0.0
 40
0.0
 40
0.0
 40
0.0
 40
1.0
 40
1.0
 40
1.0
 40
2.0
 40
2.0
 40
2.0
 40
3.0
 40
3.0
 40
3.0
 40
4.0
 40
4.0
 40
4.0
 40
5.0
 40
5.0
 40
5.0
 40
6.0
 40
6.0
 40
6.0
 40
7.0
 40
7.0
 40
7.0
 40
8.0
 40
8.0
 40
8.0
 40
9.0
 40
9.0
 40
9.0
 40
9.0
 10
18.35343491791279
 20
22.14802929300278
 30
0.0
 10
18.89343424179709
 20
22.8468424131818
 30
0.0
 10
19.0148990166161
 20
24.32579977633111
 30
0.0
 10
18.86626166455709
 20
25.5505528082207
 30
0.0
 10
18.71762431249805
 20
26.77530584011
 30
0.0
 10
18.36101153019957
 20
27.86218189151625
 30
0.0
 10
18.12342608008445
 20
29.03310535626014
 30
0.0
 10
17.88584062996945
 20
30.20402882100403
 30
0.0
 10
17.77935563535
 20
31.59950959756333
 30
0.0
 10
18.1193559586282
 20
32.6714284898275
 30
0.0
 10
18.0248273411832
 20
31.78500165489097
 30
0.0
 10
18.19351341007152
 20
30.88086286656556
 30
0.0
 10
18.44358017129126
 20
30.1163003523618
 30
0.0
 10
18.6936469325111
 20
29.35173783815791
 30
0.0
 10
19.02203781801209
 20
28.69544990049403
 30
0.0
 10
19.29366824533875
 20
27.95902178229736
 30
0.0
 10
19.56529867266542
 20
27.22259366410069
 30
0.0
 10
19.7848519968368
 20
26.36083457661041
 30
0.0
 10
19.76767174572791
 20
25.45629740913597
 30
0.0
 10
19.75337986555681
 20
24.70382545615055
 30
0.0
 10
19.5726346338211
 20
23.98524915655236
 30
0.0
 10
19.31173625514513
 20
23.42715834585514
 30
0.0
 10
19.05083787646931
 20
22.86906753515778
 30
0.0
 10
18.71396676787236
 20
22.46067783224916
 30
0.0
 10
18.35971553952888
 20
22.15100366961611
 30
0.0
 10
18.35971553952888
 20
22.15100366961611
 30
0.0
 10
18.35343491791279
 20
22.14802929300278
 30
0.0
 10
18.35343491791279
 20
22.14802929300278
 30
0.0
  0
SPLINE
  5
52
330
1F
100
AcDbEntity
  8
Layer 1
370
     0
100
AcDbSpline
210
0.0
220
0.0
230
1.0
 70
    11
 71
     3
 72
    41
 73
    37
 74
     0
 42
0.0000000001
 43
0.0000000001
 12
1.0
 22
0.0
 32
0.0
 13
1.0
 23
0.0
 33
0.0
 40
0.0
 40
0.0
 40
0.0
 40
0.0
 40
1.0
 40
1.0
 40
1.0
 40
2.0
 40
2.0
 40
2.0
 40
3.0
 40
3.0
 40
3.0
 40
4.0
 40
4.0
 40
4.0
 40
5.0
 40
5.0
 40
5.0
 40
6.0
 40
6.0
 40
6.0
 40
7.0
 40
7.0
 40
7.0
 40
8.0
 40
8.0
 40
8.0
 40
9.0
 40
9.0
 40
9.0
 40
10.0
 40
10.0
 40
10.0
 40
11.0
 40
11.0
 40
11.0
 40
12.0
 40
12.0
 40
12.0
 40
12.0
 10
13.74862679675511
 20
3.511414846142138
 30
0.0
 10
13.72614718388617
 20
3.485428897101049
 30
0.0
 10
13.70294104079274
 20
3.45965046549145
 30
0.0
 10
13.67897712977927
 20
3.434068967140774
 30
0.0
 10
13.4361558272325
 20
3.174856990133119
 30
0.0
 10
13.16131616156099
 20
2.947583892806607
 30
0.0
 10
12.91275819486906
 20
2.693867572502843
 30
0.0
 10
12.2941269214865
 20
2.062420148437973
 30
0.0
 10
11.65712772911214
 20
1.148827458908828
 30
0.0
 10
11.83680726322965
 20
0.2157664365539504
 30
0.0
 10
11.85712533246874
 20
0.1102563763815851
 30
0.0
 10
11.88852719182306
 20
0.0069279660007548
 30
0.0
 10
11.93095374633789
 20
-0.0918066932086832
 30
0.0
 10
11.81632437196832
 20
0.3257158008802131
 30
0.0
 10
12.0634673395514
 20
0.704802177970224
 30
0.0
 10
12.37752695633309
 20
1.002848287902149
 30
0.0
 10
12.69158657311472
 20
1.300894397833973
 30
0.0
 10
13.08947820702338
 20
1.491498377058684
 30
0.0
 10
13.45229949552875
 20
1.727772876626179
 30
0.0
 10
14.13065861617376
 20
2.169530035565761
 30
0.0
 10
14.70955781125028
 20
2.807513114195343
 30
0.0
 10
14.93922576402611
 20
3.583768939821589
 30
0.0
 10
15.16889370380098
 20
4.360024721505902
 30
0.0
 10
15.01446596155056
 20
5.253232261899787
 30
0.0
 10
14.41563672738195
 20
5.797959216327298
 30
0.0
 10
14.44745580976723
 20
5.76901488660173
 30
0.0
 10
14.44467378720833
 20
5.642441505825748
 30
0.0
 10
14.44738468741459
 20
5.602509852745621
 30
0.0
 10
14.45331321413889
 20
5.515182450618946
 30
0.0
 10
14.45110769054791
 20
5.427306580073542
 30
0.0
 10
14.44518216158986
 20
5.340046192932832
 30
0.0
 10
14.43130554891
 20
5.135696741057422
 30
0.0
 10
14.39573668271055
 20
4.932791733291323
 30
0.0
 10
14.34643588832152
 20
4.734169648981176
 30
0.0
 10
14.23084192300194
 20
4.268466933422006
 30
0.0
 10
14.05897023027374
 20
3.87016518119756
 30
0.0
 10
13.74862679675511
 20
3.511414846142138
 30
0.0
  0
SPLINE
  5
53
330
1F
100
AcDbEntity
  8
Layer 1
370
     0
100
AcDbSpline
210
0.0
220
0.0
230
1.0
 70
    11
 71
     3
 72
    50
 73
    46
 74
     0
 42
0.0000000001
 43
0.0000000001
 12
1.0
 22
0.0
 32
0.0
 13
1.0
 23
0.0
 33
0.0
 40
0.0
 40
0.0
 40
0.0
 40
0.0
 40
1.0
 40
1.0
 40
1.0
 40
2.0
 40
2.0
 40
2.0
 40
3.0
 40
3.0
 40
3.0
 40
4.0
 40
4.0
 40
4.0
 40
5.0
 40
5.0
 40
5.0
 40
6.0
 40
6.0
 40
6.0
 40
7.0
 40
7.0
 40
7.0
 40
8.0
 40
8.0
 40
8.0
 40
9.0
 40
9.0
 40
9.0
 40
10.0
 40
10.0
 40
10.0
 40
11.0
 40
11.0
 40
11.0
 40
12.0
 40
12.0
 40
12.0
 40
13.0
 40
13.0
 40
13.0
 40
14.0
 40
14.0
 40
14.0
 40
15.0
 40
15.0
 40
15.0
 40
15.0
 10
9.587244643878547
 20
-11.91357405195688
 30
0.0
 10
9.587244643878547
 20
-11.91357405195688
 30
0.0
 10
9.587244643878547
 20
-11.91370664807341
 30
0.0
 10
9.587244643878547
 20
-11.91370664807341
 30
0.0
 10
9.550389237600786
 20
-12.26595138852533
 30
0.0
 10
9.48767758861143
 20
-12.61872019934228
 30
0.0
 10
9.395864249107413
 20
-12.97407147738007
 30
0.0
 10
9.23577653782311
 20
-13.5936110463323
 30
0.0
 10
8.987493466784144
 20
-14.22077804903195
 30
0.0
 10
8.633821739555009
 20
-14.86617386069598
 30
0.0
 10
7.123836107501448
 20
-17.62196314798931
 30
0.0
 10
7.452680790446871
 20
-19.5814369866732
 30
0.0
 10
8.091743559024103
 20
-21.92148062192735
 30
0.0
 10
7.389059910944574
 20
-21.50664420040084
 30
0.0
 10
6.178305829158236
 20
-20.34502645091778
 30
0.0
 10
5.782215972860386
 20
-18.92413909503097
 30
0.0
 10
5.03905893875372
 20
-16.25835731441751
 30
0.0
 10
7.368236006558062
 20
-14.55130228278611
 30
0.0
 10
7.648203235332478
 20
-12.45824101380938
 30
0.0
 10
7.683505372817308
 20
-12.19457679325994
 30
0.0
 10
7.6207874097272
 20
-12.34056511749299
 30
0.0
 10
5.894846902650139
 20
-14.43000209261944
 30
0.0
 10
5.424667387749701
 20
-14.9992372206236
 30
0.0
 10
4.976599853795758
 20
-15.56433661261374
 30
0.0
 10
4.679047854337164
 20
-16.24762334308404
 30
0.0
 10
3.813946591784025
 20
-18.23218941828473
 30
0.0
 10
4.388094090198138
 20
-19.89889734590459
 30
0.0
 10
4.395595241929843
 20
-20.01579660782459
 30
0.0
 10
4.367794256176719
 20
-19.9956230558189
 30
0.0
 10
3.331871311005973
 20
-18.51525055644333
 30
0.0
 10
3.211221473220159
 20
-17.18928307764665
 30
0.0
 10
3.153157002408054
 20
-16.55099062936501
 30
0.0
 10
3.202425930827619
 20
-15.90455930517265
 30
0.0
 10
3.3475176527493
 20
-15.2806251220743
 30
0.0
 10
4.072704756024033
 20
-12.15991869405507
 30
0.0
 10
6.296493167638143
 20
-11.45736132799132
 30
0.0
 10
7.329959927603845
 20
-10.20380395698839
 30
0.0
 10
8.017388708188566
 20
-9.369862781805496
 30
0.0
 10
8.111140476633357
 20
-8.43351320600257
 30
0.0
 10
7.939801037751496
 20
-7.479313667282693
 30
0.0
 10
8.546927084561906
 20
-8.381788092377974
 30
0.0
 10
9.11602961644947
 20
-9.322923756575214
 30
0.0
 10
9.405947868059885
 20
-10.36841887853507
 30
0.0
 10
9.54418247652984
 20
-10.8667908534373
 30
0.0
 10
9.611295053765817
 20
-11.39516112116548
 30
0.0
 10
9.587244643878547
 20
-11.91357405195688
 30
0.0
  0
SPLINE
  5
54
330
1F
100
AcDbEntity
  8
Layer 1
370
     0
100
AcDbSpline
210
0.0
220
0.0
230
1.0
 70
    11
 71
     3
 72
    41
 73
    37
 74
     0
 42
0.0000000001
 43
0.0000000001
 12
1.0
 22
0.0
 32
0.0
 13
1.0
 23
0.0
 33
0.0
 40
0.0
 40
0.0
 40
0.0
 40
0.0
 40
1.0
 40
1.0
 40
1.0
 40
2.0
 40
2.0
 40
2.0
 40
3.0
 40
3.0
 40
3.0
 40
4.0
 40
4.0
 40
4.0
 40
5.0
 40
5.0
 40
5.0
 40
6.0
 40
6.0
 40
6.0
 40
7.0
 40
7.0
 40
7.0
 40
8.0
 40
8.0
 40
8.0
 40
9.0
 40
9.0
 40
9.0
 40
10.0
 40
10.0
 40
10.0
 40
11.0
 40
11.0
 40
11.0
 40
12.0
 40
12.0
 40
12.0
 40
12.0
 10
10.6861444302716
 20
1.809612560483957
 30
0.0
 10
10.23755914005334
 20
0.5538578824082631
 30
0.0
 10
10.25708865377909
 20
-0.8005672486233885
 30
0.0
 10
10.95085047745043
 20
-1.963605670782992
 30
0.0
 10
11.93789596845019
 20
-3.617903233311305
 30
0.0
 10
13.77167815987213
 20
-4.351882721928127
 30
0.0
 10
12.97368947455488
 20
-7.470391842874506
 30
0.0
 10
12.59557902024022
 20
-8.948049278912574
 30
0.0
 10
11.70409744461035
 20
-10.05393246077299
 30
0.0
 10
11.67163665247843
 20
-10.08910200214132
 30
0.0
 10
11.62068817325017
 20
-9.204471225862436
 30
0.0
 10
11.36692837314776
 20
-8.3301367930105
 30
0.0
 10
10.77951103856855
 20
-7.711817800461731
 30
0.0
 10
10.18261553853093
 20
-7.083522034265216
 30
0.0
 10
9.33987080335252
 20
-6.730846474416467
 30
0.0
 10
8.628783087129149
 20
-6.224720783751056
 30
0.0
 10
8.458087686527278
 20
-6.103294311568965
 30
0.0
 10
8.291793214172028
 20
-5.976311430696468
 30
0.0
 10
8.13273470131556
 20
-5.840141533182987
 30
0.0
 10
7.403411862027244
 20
-5.215430715688399
 30
0.0
 10
6.856421311086175
 20
-4.393650498616049
 30
0.0
 10
6.529906531330147
 20
-3.491434951652839
 30
0.0
 10
6.234292960812354
 20
-2.537753169197155
 30
0.0
 10
6.145977633142794
 20
-1.691531067988965
 30
0.0
 10
6.212698736130151
 20
-0.9262557388350766
 30
0.0
 10
6.717018593971109
 20
4.863332693282978
 30
0.0
 10
16.09749928310973
 20
6.02714774983911
 30
0.0
 10
11.83444574120075
 20
14.12070735943069
 30
0.0
 10
11.69013065367555
 20
14.39484983023167
 30
0.0
 10
11.52305954692383
 20
14.83205711083666
 30
0.0
 10
11.2921086825377
 20
15.04089599427611
 30
0.0
 10
12.90062585732974
 20
13.58625661264715
 30
0.0
 10
14.07297757814624
 20
11.49138951084617
 30
0.0
 10
14.02448528412305
 20
9.279364268993124
 30
0.0
 10
13.9515511059639
 20
5.958485060860615
 30
0.0
 10
11.56973969402194
 20
4.282719555665759
 30
0.0
 10
10.6861444302716
 20
1.809612560483957
 30
0.0
  0
SPLINE
  5
55
330
1F
100
AcDbEntity
  8
Layer 1
370
     0
100
AcDbSpline
210
0.0
220
0.0
230
1.0
 70
    11
 71
     3
 72
    50
 73
    46
 74
     0
 42
0.0000000001
 43
0.0000000001
 12
1.0
 22
0.0
 32
0.0
 13
1.0
 23
0.0
 33
0.0
 40
0.0
 40
0.0
 40
0.0
 40
0.0
 40
1.0
 40
1.0
 40
1.0
 40
2.0
 40
2.0
 40
2.0
 40
3.0
 40
3.0
 40
3.0
 40
4.0
 40
4.0
 40
4.0
 40
5.0
 40
5.0
 40
5.0
 40
6.0
 40
6.0
 40
6.0
 40
7.0
 40
7.0
 40
7.0
 40
8.0
 40
8.0
 40
8.0
 40
9.0
 40
9.0
 40
9.0
 40
10.0
 40
10.0
 40
10.0
 40
11.0
 40
11.0
 40
11.0
 40
12.0
 40
12.0
 40
12.0
 40
13.0
 40
13.0
 40
13.0
 40
14.0
 40
14.0
 40
14.0
 40
15.0
 40
15.0
 40
15.0
 40
15.0
 10
13.89528018676722
 20
-27.33626028249374
 30
0.0
 10
16.59154765801764
 20
-25.96043922910374
 30
0.0
 10
19.24735932807736
 20
-23.92633125285874
 30
0.0
 10
17.64393972303388
 20
-21.33996081890056
 30
0.0
 10
17.34640350882723
 20
-20.86001970418763
 30
0.0
 10
16.99345474613791
 20
-20.4840907716939
 30
0.0
 10
16.52749620761167
 20
-20.15700140876652
 30
0.0
 10
18.55862909357959
 20
-24.52292783685028
 30
0.0
 10
9.380369494544235
 20
-24.31980719511375
 30
0.0
 10
13.27699712387102
 20
-18.04798440710791
 30
0.0
 10
14.86430061570096
 20
-15.49313052075735
 30
0.0
 10
18.47499074352625
 20
-12.88462904012769
 30
0.0
 10
16.97657084064068
 20
-7.558728677949804
 30
0.0
 10
16.51411662804986
 20
-5.915029333587856
 30
0.0
 10
15.54914839044222
 20
-3.688645826551313
 30
0.0
 10
13.94359884301874
 20
-2.860081108186313
 30
0.0
 10
14.02285166362445
 20
-4.084581834606322
 30
0.0
 10
14.53957188779792
 20
-5.082603670091581
 30
0.0
 10
14.08903152638277
 20
-7.723520394318408
 30
0.0
 10
13.80229558156771
 20
-9.404277196183253
 30
0.0
 10
13.31027752792559
 20
-10.85909089921744
 30
0.0
 10
12.3450219730904
 20
-12.57863329176411
 30
0.0
 10
12.24326312595831
 20
-12.75991031273937
 30
0.0
 10
11.83965988599503
 20
-13.4765927321605
 30
0.0
 10
11.56577741808802
 20
-13.20271026426576
 30
0.0
 10
11.46879767902636
 20
-13.1057305252084
 30
0.0
 10
11.4288948165758
 20
-10.64355611992687
 30
0.0
 10
10.80937708227081
 20
-10.2206714852866
 30
0.0
 10
10.92858672848949
 20
-10.30204434177687
 30
0.0
 10
10.97616512136389
 20
-10.61904075319686
 30
0.0
 10
10.97915472383501
 20
-10.76246223036161
 30
0.0
 10
11.00887563511997
 20
-12.18827621076702
 30
0.0
 10
10.71433608195123
 20
-12.71225044117702
 30
0.0
 10
10.58185477461054
 20
-13.19612833886466
 30
0.0
 10
9.651907577272596
 20
-16.59270148935083
 30
0.0
 10
7.568212980158604
 20
-18.4229499270968
 30
0.0
 10
9.531889269295535
 20
-22.83423696820278
 30
0.0
 10
9.655298369124036
 20
-23.11143862083362
 30
0.0
 10
9.87800301788593
 20
-23.2263868256114
 30
0.0
 10
10.15631595225487
 20
-23.34788275290207
 30
0.0
 10
11.53491146108859
 20
-23.94964181404596
 30
0.0
 10
12.56185575494414
 20
-24.80755762990652
 30
0.0
 10
13.29583524356086
 20
-25.97065287897334
 30
0.0
 10
13.55650341448639
 20
-26.38371258823236
 30
0.0
 10
13.7138791448909
 20
-26.84503828069111
 30
0.0
 10
13.89528018676722
 20
-27.33626028249374
 30
0.0
  0
SPLINE
  5
56
330
1F
100
AcDbEntity
  8
Layer 1
370
     0
100
AcDbSpline
210
0.0
220
0.0
230
1.0
 70
    11
 71
     3
 72
    38
 73
    34
 74
     0
 42
0.0000000001
 43
0.0000000001
 12
1.0
 22
0.0
 32
0.0
 13
1.0
 23
0.0
 33
0.0
 40
0.0
 40
0.0
 40
0.0
 40
0.0
 40
1.0
 40
1.0
 40
1.0
 40
2.0
 40
2.0
 40
2.0
 40
3.0
 40
3.0
 40
3.0
 40
4.0
 40
4.0
 40
4.0
 40
5.0
 40
5.0
 40
5.0
 40
6.0
 40
6.0
 40
6.0
 40
7.0
 40
7.0
 40
7.0
 40
8.0
 40
8.0
 40
8.0
 40
9.0
 40
9.0
 40
9.0
 40
10.0
 40
10.0
 40
10.0
 40
11.0
 40
11.0
 40
11.0
 40
11.0
 10
9.419569580472599
 20
-32.07362174131529
 30
0.0
 10
9.985696785300053
 20
-30.44739574478277
 30
0.0
 10
11.30733119809333
 20
-29.53673051906167
 30
0.0
 10
12.84469701603062
 20
-28.62271061838985
 30
0.0
 10
12.89326102084823
 20
-27.83490853822056
 30
0.0
 10
11.9798425878104
 20
-25.79634048438457
 30
0.0
 10
9.399918927096046
 20
-24.64272424525221
 30
0.0
 10
6.903616147083564
 20
-23.52644596987041
 30
0.0
 10
4.945193104319868
 20
-21.59588166119195
 30
0.0
 10
5.06414777049862
 20
-18.86468370370027
 30
0.0
 10
5.068199185647245
 20
-18.77159577441555
 30
0.0
 10
5.077884734383082
 20
-18.67990132549916
 30
0.0
 10
5.091049683173929
 20
-18.5894971361832
 30
0.0
 10
4.877593435757186
 20
-19.35890474093041
 30
0.0
 10
4.879683656272037
 20
-20.19112218302237
 30
0.0
 10
5.094787135035959
 20
-21.10725810951696
 30
0.0
 10
5.340783729486753
 20
-22.15489729445972
 30
0.0
 10
5.85864232255522
 20
-23.14868964543514
 30
0.0
 10
6.77390517332449
 20
-24.32955243498776
 30
0.0
 10
6.77390517332449
 20
-24.32955243498776
 30
0.0
 10
2.888151989206385
 20
-21.90778860419237
 30
0.0
 10
2.252035573778054
 20
-17.5527133352268
 30
0.0
 10
1.950466674462228
 20
-15.48806726817793
 30
0.0
 10
2.106623317029023
 20
-13.38737686981146
 30
0.0
 10
2.84825593356028
 20
-11.15701692157742
 30
0.0
 10
2.490940041592504
 20
-11.93729711388215
 30
0.0
 10
2.202343375925832
 20
-12.77118329171049
 30
0.0
 10
1.985528152678474
 20
-13.65158762899243
 30
0.0
 10
0.7127581921397197
 20
-18.81974988311584
 30
0.0
 10
2.245178406827638
 20
-23.08750063384307
 30
0.0
 10
6.079182094989392
 20
-26.55232565677514
 30
0.0
 10
8.229860816512907
 20
-28.4959301672018
 30
0.0
 10
9.02258403631754
 20
-30.21151296937069
 30
0.0
 10
9.419569580472599
 20
-32.07362174131529
 30
0.0
  0
SPLINE
  5
57
330
1F
100
AcDbEntity
  8
Layer 1
370
     0
100
AcDbSpline
210
0.0
220
0.0
230
1.0
 70
    11
 71
     3
 72
    26
 73
    22
 74
     0
 42
0.0000000001
 43
0.0000000001
 12
1.0
 22
0.0
 32
0.0
 13
1.0
 23
0.0
 33
0.0
 40
0.0
 40
0.0
 40
0.0
 40
0.0
 40
1.0
 40
1.0
 40
1.0
 40
2.0
 40
2.0
 40
2.0
 40
3.0
 40
3.0
 40
3.0
 40
4.0
 40
4.0
 40
4.0
 40
5.0
 40
5.0
 40
5.0
 40
6.0
 40
6.0
 40
6.0
 40
7.0
 40
7.0
 40
7.0
 40
7.0
 10
15.99476888646667
 20
1.10163108766119
 30
0.0
 10
17.7490389862343
 20
2.658370574656601
 30
0.0
 10
18.30021357833223
 20
5.398843201532145
 30
0.0
 10
17.97074078665486
 20
7.567112372375909
 30
0.0
 10
17.64126799497737
 20
9.735381543219647
 30
0.0
 10
16.65089628395041
 20
11.77632018801036
 30
0.0
 10
15.89685623636418
 20
13.86160881611633
 30
0.0
 10
14.3377626830393
 20
18.17325883826125
 30
0.0
 10
13.84243140481014
 20
23.07083659476084
 30
0.0
 10
16.26143102529264
 20
27.066542133285
 30
0.0
 10
14.89454752664028
 20
24.28956852811167
 30
0.0
 10
15.49452284926332
 20
21.14846857638639
 30
0.0
 10
16.36679497792708
 20
18.22249150501583
 30
0.0
 10
17.23906710659083
 20
15.29651443364556
 30
0.0
 10
18.54734796741847
 20
12.44987167173925
 30
0.0
 10
18.92587712426805
 20
9.444012821421602
 30
0.0
 10
19.30440628111751
 20
6.438153971103954
 30
0.0
 10
18.57421657924584
 20
3.111621769891725
 30
0.0
 10
15.99476888646667
 20
1.10163108766119
 30
0.0
 10
15.99476888646667
 20
1.10163108766119
 30
0.0
 10
15.99476888646667
 20
1.10163108766119
 30
0.0
 10
15.99476888646667
 20
1.10163108766119
 30
0.0
  0
SPLINE
  5
58
330
1F
100
AcDbEntity
  8
Layer 1
370
     0
100
AcDbSpline
210
0.0
220
0.0
230
1.0
 70
    11
 71
     3
 72
    26
 73
    22
 74
     0
 42
0.0000000001
 43
0.0000000001
 12
1.0
 22
0.0
 32
0.0
 13
1.0
 23
0.0
 33
0.0
 40
0.0
 40
0.0
 40
0.0
 40
0.0
 40
1.0
 40
1.0
 40
1.0
 40
2.0
 40
2.0
 40
2.0
 40
3.0
 40
3.0
 40
3.0
 40
4.0
 40
4.0
 40
4.0
 40
5.0
 40
5.0
 40
5.0
 40
6.0
 40
6.0
 40
6.0
 40
7.0
 40
7.0
 40
7.0
 40
7.0
 10
2.548415331352923
 20
-8.468135050241042
 30
0.0
 10
0.5709956700108402
 20
-5.682096404317563
 30
0.0
 10
0.1364785822494367
 20
-1.869514868054795
 30
0.0
 10
1.436285204631809
 20
1.290026633034939
 30
0.0
 10
1.983349696006119
 20
2.619819693451189
 30
0.0
 10
2.804294840018605
 20
3.816213447808284
 30
0.0
 10
3.481300146530278
 20
5.084792556972843
 30
0.0
 10
4.158305453041963
 20
6.353371666137415
 30
0.0
 10
4.702193536043473
 20
7.753298022127561
 30
0.0
 10
4.618722415180097
 20
9.188798531788127
 30
0.0
 10
5.417898490440999
 20
7.312951090368819
 30
0.0
 10
5.172872092497224
 20
5.318790922871181
 30
0.0
 10
4.56285712205517
 20
3.373188764518823
 30
0.0
 10
3.952842151613051
 20
1.427586606166314
 30
0.0
 10
3.009502705124027
 20
-0.4023762731234102
 30
0.0
 10
2.427269623250279
 20
-2.356472141068682
 30
0.0
 10
1.845036541376531
 20
-4.310568009013953
 30
0.0
 10
1.678462883460977
 20
-6.575451034425214
 30
0.0
 10
2.557065726768605
 20
-8.415435563295079
 30
0.0
 10
2.557065726768605
 20
-8.415435563295079
 30
0.0
 10
2.548415331352923
 20
-8.468135050241042
 30
0.0
 10
2.548415331352923
 20
-8.468135050241042
 30
0.0
  0
SPLINE
  5
59
330
1F
100
AcDbEntity
  8
Layer 1
370
     0
100
AcDbSpline
210
0.0
220
0.0
230
1.0
 70
     8
 71
     3
 72
     8
 73
     4
 74
     0
 42
0.0000000001
 43
0.0000000001
 12
1.0
 22
0.0
 32
0.0
 13
1.0
 23
0.0
 33
0.0
 40
0.0
 40
0.0
 40
0.0
 40
0.0
 40
1.0
 40
1.0
 40
1.0
 40
1.0
 10
10.01113321285326
 20
-33.93968221753791
 30
0.0
 10
10.24971529944724
 20
-33.5172173520082
 30
0.0
 10
10.50756499086644
 20
-33.10626132425973
 30
0.0
 10
10.78700991722399
 20
-32.70849520048584
 30
0.0
  0
SPLINE
  5
5A
330
1F
100
AcDbEntity
  8
Layer 1
370
     0
100
AcDbSpline
210
0.0
220
0.0
230
1.0
 70
     8
 71
     3
 72
     8
 73
     4
 74
     0
 42
0.0000000001
 43
0.0000000001
 12
1.0
 22
0.0
 32
0.0
 13
1.0
 23
0.0
 33
0.0
 40
0.0
 40
0.0
 40
0.0
 40
0.0
 40
1.0
 40
1.0
 40
1.0
 40
1.0
 10
14.15121130737541
 20
-29.31558637227236
 30
0.0
 10
13.88870635573006
 20
-29.5180901921132
 30
0.0
 10
13.62943422368618
 20
-29.72434408269181
 30
0.0
 10
13.37533460300475
 20
-29.93628773576903
 30
0.0
  0
SPLINE
  5
5B
330
1F
100
AcDbEntity
  8
Layer 1
370
     0
100
AcDbSpline
210
0.0
220
0.0
230
1.0
 70
     8
 71
     3
 72
    11
 73
     7
 74
     0
 42
0.0000000001
 43
0.0000000001
 12
1.0
 22
0.0
 32
0.0
 13
1.0
 23
0.0
 33
0.0
 40
0.0
 40
0.0
 40
0.0
 40
0.0
 40
1.0
 40
1.0
 40
1.0
 40
2.0
 40
2.0
 40
2.0
 40
2.0
 10
16.73940668037221
 20
-27.38960176645625
 30
0.0
 10
16.96363504793529
 20
-27.21839164035848
 30
0.0
 10
17.18579441095347
 20
-27.04485388414736
 30
0.0
 10
17.40472095437013
 20
-26.86769536998291
 30
0.0
 10
17.44170441061179
 20
-26.83782411686459
 30
0.0
 10
17.47855855406945
 20
-26.8076942381782
 30
0.0
 10
17.51528338474292
 20
-26.77756435949181
 30
0.0
  0
SPLINE
  5
5C
330
1F
100
AcDbEntity
  8
Layer 1
370
     0
100
AcDbSpline
210
0.0
220
0.0
230
1.0
 70
     8
 71
     3
 72
     8
 73
     4
 74
     0
 42
0.0000000001
 43
0.0000000001
 12
1.0
 22
0.0
 32
0.0
 13
1.0
 23
0.0
 33
0.0
 40
0.0
 40
0.0
 40
0.0
 40
0.0
 40
1.0
 40
1.0
 40
1.0
 40
1.0
 10
18.42150737544792
 20
-25.9819027991596
 30
0.0
 10
18.69034865351235
 20
-25.72844974239832
 30
0.0
 10
18.9503966622607
 20
-25.46503960126473
 30
0.0
 10
19.19738407981875
 20
-25.19154306297388
 30
0.0
  0
SPLINE
  5
5D
330
1F
100
AcDbEntity
  8
Layer 1
370
     0
100
AcDbSpline
210
0.0
220
0.0
230
1.0
 70
     8
 71
     3
 72
     8
 73
     4
 74
     0
 42
0.0000000001
 43
0.0000000001
 12
1.0
 22
0.0
 32
0.0
 13
1.0
 23
0.0
 33
0.0
 40
0.0
 40
0.0
 40
0.0
 40
0.0
 40
1.0
 40
1.0
 40
1.0
 40
1.0
 10
15.83318268966721
 20
-28.06564900153126
 30
0.0
 10
15.57468643432763
 20
-28.25548016853402
 30
0.0
 10
15.31541430228375
 20
-28.44466477161624
 30
0.0
 10
15.0573059852964
 20
-28.63488387697124
 30
0.0
  0
SPLINE
  5
5E
330
1F
100
AcDbEntity
  8
Layer 1
370
     0
100
AcDbSpline
210
0.0
220
0.0
230
1.0
 70
     8
 71
     3
 72
    11
 73
     7
 74
     0
 42
0.0000000001
 43
0.0000000001
 12
1.0
 22
0.0
 32
0.0
 13
1.0
 23
0.0
 33
0.0
 40
0.0
 40
0.0
 40
0.0
 40
0.0
 40
1.0
 40
1.0
 40
1.0
 40
2.0
 40
2.0
 40
2.0
 40
2.0
 10
11.693233907929
 20
-31.55515447943862
 30
0.0
 10
11.80159802097276
 20
-31.43179008344375
 30
0.0
 10
11.9125483896978
 20
-31.31010675364152
 30
0.0
 10
12.02634363967218
 20
-31.19010449003223
 30
0.0
 10
12.17065670668512
 20
-31.03790334319152
 30
0.0
 10
12.31833190608369
 20
-30.88971089265654
 30
0.0
 10
12.46911061229972
 20
-30.7448805745075
 30
0.0
  0
SPLINE
  5
5F
330
1F
100
AcDbEntity
  8
Layer 1
370
     0
100
AcDbSpline
210
0.0
220
0.0
230
1.0
 70
     8
 71
     3
 72
     8
 73
     4
 74
     0
 42
0.0000000001
 43
0.0000000001
 12
1.0
 22
0.0
 32
0.0
 13
1.0
 23
0.0
 33
0.0
 40
0.0
 40
0.0
 40
0.0
 40
0.0
 40
1.0
 40
1.0
 40
1.0
 40
1.0
 10
8.329032517777502
 20
-38.00760377855375
 30
0.0
 10
8.552355695852182
 20
-37.25616719037084
 30
0.0
 10
8.808265695510475
 20
-36.52024813627501
 30
0.0
 10
9.104909222148232
 20
-35.80670019382223
 30
0.0
  0
SPLINE
  5
60
330
1F
100
AcDbEntity
  8
Layer 1
370
     0
100
AcDbSpline
210
0.0
220
0.0
230
1.0
 70
    11
 71
     3
 72
    17
 73
    13
 74
     0
 42
0.0000000001
 43
0.0000000001
 12
1.0
 22
0.0
 32
0.0
 13
1.0
 23
0.0
 33
0.0
 40
0.0
 40
0.0
 40
0.0
 40
0.0
 40
1.0
 40
1.0
 40
1.0
 40
2.0
 40
2.0
 40
2.0
 40
3.0
 40
3.0
 40
3.0
 40
4.0
 40
4.0
 40
4.0
 40
4.0
 10
19.19738496379278
 20
-25.19154078989764
 30
0.0
 10
19.19738496379278
 20
-25.19154078989764
 30
0.0
 10
19.19738496379278
 20
-37.02469604407987
 30
0.0
 10
19.19738496379278
 20
-37.02469604407987
 30
0.0
 10
19.19738496379278
 20
-37.02469604407987
 30
0.0
 10
18.42150825942207
 20
-37.02469604407987
 30
0.0
 10
18.42150825942207
 20
-37.02469604407987
 30
0.0
 10
18.42150825942207
 20
-37.02469604407987
 30
0.0
 10
18.42150825942207
 20
-25.98190204146749
 30
0.0
 10
18.42150825942207
 20
-25.98190204146749
 30
0.0
 10
18.69034688556417
 20
-25.72844772188611
 30
0.0
 10
18.95039628341459
 20
-25.46503606536806
 30
0.0
 10
19.19738496379278
 20
-25.19154078989764
 30
0.0
  0
POLYLINE
  5
61
330
1F
100
AcDbEntity
  8
Layer 1
370
     0
100
AcDb2dPolyline
 66
     1
 10
0.0
 20
0.0
 30
0.0
  0
VERTEX
  5
62
330
61
100
AcDbEntity
  8
Layer 1
370
     0
100
AcDbVertex
100
AcDb2dVertex
 10
19.19738496379278
 20
-40.67235206715112
 30
0.0
  0
VERTEX
  5
63
330
61
100
AcDbEntity
  8
Layer 1
370
     0
100
AcDbVertex
100
AcDb2dVertex
 10
19.19738496379278
 20
-47.03738870244474
 30
0.0
  0
VERTEX
  5
64
330
61
100
AcDbEntity
  8
Layer 1
370
     0
100
AcDbVertex
100
AcDb2dVertex
 10
18.42150825942207
 20
-47.03738870244474
 30
0.0
  0
VERTEX
  5
65
330
61
100
AcDbEntity
  8
Layer 1
370
     0
100
AcDbVertex
100
AcDb2dVertex
 10
18.42150825942207
 20
-40.67235206715112
 30
0.0
  0
VERTEX
  5
66
330
61
100
AcDbEntity
  8
Layer 1
370
     0
100
AcDbVertex
100
AcDb2dVertex
 10
19.19738496379278
 20
-40.67235206715112
 30
0.0
  0
SEQEND
  5
67
330
61
100
AcDbEntity
  8
Layer 1
370
     0
  0
POLYLINE
  5
68
330
1F
100
AcDbEntity
  8
Layer 1
370
     0
100
AcDb2dPolyline
 66
     1
 10
0.0
 20
0.0
 30
0.0
  0
VERTEX
  5
69
330
68
100
AcDbEntity
  8
Layer 1
370
     0
100
AcDbVertex
100
AcDb2dVertex
 10
18.42150825942207
 20
-47.95124113715332
 30
0.0
  0
VERTEX
  5
6A
330
68
100
AcDbEntity
  8
Layer 1
370
     0
100
AcDbVertex
100
AcDb2dVertex
 10
19.19738496379278
 20
-47.95124113715332
 30
0.0
  0
VERTEX
  5
6B
330
68
100
AcDbEntity
  8
Layer 1
370
     0
100
AcDbVertex
100
AcDb2dVertex
 10
19.19738496379278
 20
-50.32956085136167
 30
0.0
  0
VERTEX
  5
6C
330
68
100
AcDbEntity
  8
Layer 1
370
     0
100
AcDbVertex
100
AcDb2dVertex
 10
18.42150825942207
 20
-49.46923936310223
 30
0.0
  0
VERTEX
  5
6D
330
68
100
AcDbEntity
  8
Layer 1
370
     0
100
AcDbVertex
100
AcDb2dVertex
 10
18.42150825942207
 20
-47.95124113715332
 30
0.0
  0
SEQEND
  5
6E
330
68
100
AcDbEntity
  8
Layer 1
370
     0
  0
SPLINE
  5
6F
330
1F
100
AcDbEntity
  8
Layer 1
370
     0
100
AcDbSpline
210
0.0
220
0.0
230
1.0
 70
    11
 71
     3
 72
    20
 73
    16
 74
     0
 42
0.0000000001
 43
0.0000000001
 12
1.0
 22
0.0
 32
0.0
 13
1.0
 23
0.0
 33
0.0
 40
0.0
 40
0.0
 40
0.0
 40
0.0
 40
1.0
 40
1.0
 40
1.0
 40
2.0
 40
2.0
 40
2.0
 40
3.0
 40
3.0
 40
3.0
 40
4.0
 40
4.0
 40
4.0
 40
5.0
 40
5.0
 40
5.0
 40
5.0
 10
17.51528325846096
 20
-26.77756082359542
 30
0.0
 10
17.51528325846096
 20
-26.77756082359542
 30
0.0
 10
17.51528325846096
 20
-33.9176975288632
 30
0.0
 10
17.51528325846096
 20
-33.9176975288632
 30
0.0
 10
17.51528325846096
 20
-33.9176975288632
 30
0.0
 10
16.73940655409013
 20
-33.9176975288632
 30
0.0
 10
16.73940655409013
 20
-33.9176975288632
 30
0.0
 10
16.73940655409013
 20
-33.9176975288632
 30
0.0
 10
16.73940655409013
 20
-27.38959924081584
 30
0.0
 10
16.73940655409013
 20
-27.38959924081584
 30
0.0
 10
16.96363605819152
 20
-27.21839239805043
 30
0.0
 10
17.18579453723555
 20
-27.04485565209555
 30
0.0
 10
17.40472019667805
 20
-26.86769461229071
 30
0.0
 10
17.44170504202179
 20
-26.83782260148028
 30
0.0
 10
17.47855729124932
 20
-26.80769171253779
 30
0.0
 10
17.51528325846096
 20
-26.77756082359542
 30
0.0
  0
POLYLINE
  5
70
330
1F
100
AcDbEntity
  8
Layer 1
370
     0
100
AcDb2dPolyline
 66
     1
 10
0.0
 20
0.0
 30
0.0
  0
VERTEX
  5
71
330
70
100
AcDbEntity
  8
Layer 1
370
     0
100
AcDbVertex
100
AcDb2dVertex
 10
16.73940655409013
 20
-36.31257281532806
 30
0.0
  0
VERTEX
  5
72
330
70
100
AcDbEntity
  8
Layer 1
370
     0
100
AcDbVertex
100
AcDb2dVertex
 10
17.51528325846096
 20
-36.31257281532806
 30
0.0
  0
VERTEX
  5
73
330
70
100
AcDbEntity
  8
Layer 1
370
     0
100
AcDbVertex
100
AcDb2dVertex
 10
17.51528325846096
 20
-48.46422394127042
 30
0.0
  0
VERTEX
  5
74
330
70
100
AcDbEntity
  8
Layer 1
370
     0
100
AcDbVertex
100
AcDb2dVertex
 10
16.73940655409013
 20
-47.6039024530107
 30
0.0
  0
VERTEX
  5
75
330
70
100
AcDbEntity
  8
Layer 1
370
     0
100
AcDbVertex
100
AcDb2dVertex
 10
16.73940655409013
 20
-36.31257281532806
 30
0.0
  0
SEQEND
  5
76
330
70
100
AcDbEntity
  8
Layer 1
370
     0
  0
SPLINE
  5
77
330
1F
100
AcDbEntity
  8
Layer 1
370
     0
100
AcDbSpline
210
0.0
220
0.0
230
1.0
 70
    11
 71
     3
 72
    17
 73
    13
 74
     0
 42
0.0000000001
 43
0.0000000001
 12
1.0
 22
0.0
 32
0.0
 13
1.0
 23
0.0
 33
0.0
 40
0.0
 40
0.0
 40
0.0
 40
0.0
 40
1.0
 40
1.0
 40
1.0
 40
2.0
 40
2.0
 40
2.0
 40
3.0
 40
3.0
 40
3.0
 40
4.0
 40
4.0
 40
4.0
 40
4.0
 10
15.83318471017944
 20
-28.06565001178751
 30
0.0
 10
15.83318471017944
 20
-28.06565001178751
 30
0.0
 10
15.83318471017944
 20
-46.5988870311789
 30
0.0
 10
15.83318471017944
 20
-46.5988870311789
 30
0.0
 10
15.83318471017944
 20
-46.5988870311789
 30
0.0
 10
15.05730800580876
 20
-45.73856554291943
 30
0.0
 10
15.05730800580876
 20
-45.73856554291943
 30
0.0
 10
15.05730800580876
 20
-45.73856554291943
 30
0.0
 10
15.05730800580876
 20
-28.6348851397914
 30
0.0
 10
15.05730800580876
 20
-28.6348851397914
 30
0.0
 10
15.31541581766793
 20
-28.44466653956457
 30
0.0
 10
15.57468542407153
 20
-28.25547713776556
 30
0.0
 10
15.83318471017944
 20
-28.06565001178751
 30
0.0
  0
SPLINE
  5
78
330
1F
100
AcDbEntity
  8
Layer 1
370
     0
100
AcDbSpline
210
0.0
220
0.0
230
1.0
 70
    11
 71
     3
 72
    17
 73
    13
 74
     0
 42
0.0000000001
 43
0.0000000001
 12
1.0
 22
0.0
 32
0.0
 13
1.0
 23
0.0
 33
0.0
 40
0.0
 40
0.0
 40
0.0
 40
0.0
 40
1.0
 40
1.0
 40
1.0
 40
2.0
 40
2.0
 40
2.0
 40
3.0
 40
3.0
 40
3.0
 40
4.0
 40
4.0
 40
4.0
 40
4.0
 10
14.15121244391361
 20
-29.31558940304098
 30
0.0
 10
14.15121244391361
 20
-29.31558940304098
 30
0.0
 10
14.15121244391361
 20
-38.7075743838082
 30
0.0
 10
14.15121244391361
 20
-38.7075743838082
 30
0.0
 10
14.15121244391361
 20
-38.7075743838082
 30
0.0
 10
13.37533573954291
 20
-38.7075743838082
 30
0.0
 10
13.37533573954291
 20
-38.7075743838082
 30
0.0
 10
13.37533573954291
 20
-38.7075743838082
 30
0.0
 10
13.37533573954291
 20
-29.93629076653749
 30
0.0
 10
13.37533573954291
 20
-29.93629076653749
 30
0.0
 10
13.62943409740415
 20
-29.72434534551207
 30
0.0
 10
13.88870686085811
 20
-29.51808892929304
 30
0.0
 10
14.15121244391361
 20
-29.31558940304098
 30
0.0
  0
POLYLINE
  5
79
330
1F
100
AcDbEntity
  8
Layer 1
370
     0
100
AcDb2dPolyline
 66
     1
 10
0.0
 20
0.0
 30
0.0
  0
VERTEX
  5
7A
330
79
100
AcDbEntity
  8
Layer 1
370
     0
100
AcDbVertex
100
AcDb2dVertex
 10
13.37533573954291
 20
-40.14268740876196
 30
0.0
  0
VERTEX
  5
7B
330
79
100
AcDbEntity
  8
Layer 1
370
     0
100
AcDbVertex
100
AcDb2dVertex
 10
14.15121244391361
 20
-40.14268740876196
 30
0.0
  0
VERTEX
  5
7C
330
79
100
AcDbEntity
  8
Layer 1
370
     0
100
AcDbVertex
100
AcDb2dVertex
 10
14.15121244391361
 20
-44.73380899921987
 30
0.0
  0
VERTEX
  5
7D
330
79
100
AcDbEntity
  8
Layer 1
370
     0
100
AcDbVertex
100
AcDb2dVertex
 10
13.37533573954291
 20
-43.87336122894471
 30
0.0
  0
VERTEX
  5
7E
330
79
100
AcDbEntity
  8
Layer 1
370
     0
100
AcDbVertex
100
AcDb2dVertex
 10
13.37533573954291
 20
-40.14268740876196
 30
0.0
  0
SEQEND
  5
7F
330
79
100
AcDbEntity
  8
Layer 1
370
     0
  0
SPLINE
  5
80
330
1F
100
AcDbEntity
  8
Layer 1
370
     0
100
AcDbSpline
210
0.0
220
0.0
230
1.0
 70
    11
 71
     3
 72
    20
 73
    16
 74
     0
 42
0.0000000001
 43
0.0000000001
 12
1.0
 22
0.0
 32
0.0
 13
1.0
 23
0.0
 33
0.0
 40
0.0
 40
0.0
 40
0.0
 40
0.0
 40
1.0
 40
1.0
 40
1.0
 40
2.0
 40
2.0
 40
2.0
 40
3.0
 40
3.0
 40
3.0
 40
4.0
 40
4.0
 40
4.0
 40
5.0
 40
5.0
 40
5.0
 40
5.0
 10
12.46911073858175
 20
-30.74488082707153
 30
0.0
 10
12.46911073858175
 20
-30.74488082707153
 30
0.0
 10
12.46911073858175
 20
-33.93968322779417
 30
0.0
 10
12.46911073858175
 20
-33.93968322779417
 30
0.0
 10
12.46911073858175
 20
-33.93968322779417
 30
0.0
 10
11.69323087716063
 20
-33.93968322779417
 30
0.0
 10
11.69323087716063
 20
-33.93968322779417
 30
0.0
 10
11.69323087716063
 20
-33.93968322779417
 30
0.0
 10
11.69323087716063
 20
-31.555156752515
 30
0.0
 10
11.69323087716063
 20
-31.555156752515
 30
0.0
 10
11.80159978892099
 20
-31.43179185139181
 30
0.0
 10
11.91255116790214
 20
-31.31010650107737
 30
0.0
 10
12.0263438922362
 20
-31.19010701567251
 30
0.0
 10
12.17065582271102
 20
-31.03790561626778
 30
0.0
 10
12.31833316890384
 20
-30.88970735676013
 30
0.0
 10
12.46911073858175
 20
-30.74488082707153
 30
0.0
  0
POLYLINE
  5
81
330
1F
100
AcDbEntity
  8
Layer 1
370
     0
100
AcDb2dPolyline
 66
     1
 10
0.0
 20
0.0
 30
0.0
  0
VERTEX
  5
82
330
81
100
AcDbEntity
  8
Layer 1
370
     0
100
AcDbVertex
100
AcDb2dVertex
 10
11.69323087716063
 20
-35.37479625274778
 30
0.0
  0
VERTEX
  5
83
330
81
100
AcDbEntity
  8
Layer 1
370
     0
100
AcDbVertex
100
AcDb2dVertex
 10
12.46911073858175
 20
-35.37479625274778
 30
0.0
  0
VERTEX
  5
84
330
81
100
AcDbEntity
  8
Layer 1
370
     0
100
AcDbVertex
100
AcDb2dVertex
 10
12.46911073858175
 20
-42.86847208912862
 30
0.0
  0
VERTEX
  5
85
330
81
100
AcDbEntity
  8
Layer 1
370
     0
100
AcDbVertex
100
AcDb2dVertex
 10
11.69323087716063
 20
-42.00802431885333
 30
0.0
  0
VERTEX
  5
86
330
81
100
AcDbEntity
  8
Layer 1
370
     0
100
AcDbVertex
100
AcDb2dVertex
 10
11.69323087716063
 20
-35.37479625274778
 30
0.0
  0
SEQEND
  5
87
330
81
100
AcDbEntity
  8
Layer 1
370
     0
  0
SPLINE
  5
88
330
1F
100
AcDbEntity
  8
Layer 1
370
     0
100
AcDbSpline
210
0.0
220
0.0
230
1.0
 70
    11
 71
     3
 72
    17
 73
    13
 74
     0
 42
0.0000000001
 43
0.0000000001
 12
1.0
 22
0.0
 32
0.0
 13
1.0
 23
0.0
 33
0.0
 40
0.0
 40
0.0
 40
0.0
 40
0.0
 40
1.0
 40
1.0
 40
1.0
 40
2.0
 40
2.0
 40
2.0
 40
3.0
 40
3.0
 40
3.0
 40
4.0
 40
4.0
 40
4.0
 40
4.0
 10
10.78701219030028
 20
-32.70849671586999
 30
0.0
 10
10.78701219030028
 20
-32.70849671586999
 30
0.0
 10
10.78701219030028
 20
-37.55979082914362
 30
0.0
 10
10.78701219030028
 20
-37.55979082914362
 30
0.0
 10
10.78701219030028
 20
-37.55979082914362
 30
0.0
 10
10.01113548592952
 20
-37.55979082914362
 30
0.0
 10
10.01113548592952
 20
-37.55979082914362
 30
0.0
 10
10.01113548592952
 20
-37.55979082914362
 30
0.0
 10
10.01113548592952
 20
-33.93968322779417
 30
0.0
 10
10.01113548592952
 20
-33.93968322779417
 30
0.0
 10
10.24971378406306
 20
-33.51721937252028
 30
0.0
 10
10.50756271779018
 20
-33.10625980887557
 30
0.0
 10
10.78701219030028
 20
-32.70849671586999
 30
0.0
  0
POLYLINE
  5
89
330
1F
100
AcDbEntity
  8
Layer 1
370
     0
100
AcDb2dPolyline
 66
     1
 10
0.0
 20
0.0
 30
0.0
  0
VERTEX
  5
8A
330
89
100
AcDbEntity
  8
Layer 1
370
     0
100
AcDbVertex
100
AcDb2dVertex
 10
10.01113548592952
 20
-38.99490385409707
 30
0.0
  0
VERTEX
  5
8B
330
89
100
AcDbEntity
  8
Layer 1
370
     0
100
AcDbVertex
100
AcDb2dVertex
 10
10.78701219030028
 20
-38.99490385409707
 30
0.0
  0
VERTEX
  5
8C
330
89
100
AcDbEntity
  8
Layer 1
370
     0
100
AcDbVertex
100
AcDb2dVertex
 10
10.78701219030028
 20
-41.00313517903734
 30
0.0
  0
VERTEX
  5
8D
330
89
100
AcDbEntity
  8
Layer 1
370
     0
100
AcDbVertex
100
AcDb2dVertex
 10
10.01113548592952
 20
-40.14268740876196
 30
0.0
  0
VERTEX
  5
8E
330
89
100
AcDbEntity
  8
Layer 1
370
     0
100
AcDbVertex
100
AcDb2dVertex
 10
10.01113548592952
 20
-38.99490385409707
 30
0.0
  0
SEQEND
  5
8F
330
89
100
AcDbEntity
  8
Layer 1
370
     0
  0
SPLINE
  5
90
330
1F
100
AcDbEntity
  8
Layer 1
370
     0
100
AcDbSpline
210
0.0
220
0.0
230
1.0
 70
    11
 71
     3
 72
    17
 73
    13
 74
     0
 42
0.0000000001
 43
0.0000000001
 12
1.0
 22
0.0
 32
0.0
 13
1.0
 23
0.0
 33
0.0
 40
0.0
 40
0.0
 40
0.0
 40
0.0
 40
1.0
 40
1.0
 40
1.0
 40
2.0
 40
2.0
 40
2.0
 40
3.0
 40
3.0
 40
3.0
 40
4.0
 40
4.0
 40
4.0
 40
4.0
 10
9.104910484968388
 20
-35.80669968869415
 30
0.0
 10
9.104910484968388
 20
-35.80669968869415
 30
0.0
 10
9.104910484968388
 20
-39.13779826894597
 30
0.0
 10
9.104910484968388
 20
-39.13779826894597
 30
0.0
 10
9.104910484968388
 20
-39.13779826894597
 30
0.0
 10
8.329033780597632
 20
-38.27735049867068
 30
0.0
 10
8.329033780597632
 20
-38.27735049867068
 30
0.0
 10
8.329033780597632
 20
-38.27735049867068
 30
0.0
 10
8.329033780597632
 20
-38.00760579906611
 30
0.0
 10
8.329033780597632
 20
-38.00760579906611
 30
0.0
 10
8.552357211236387
 20
-37.25616466473043
 30
0.0
 10
8.808267716022732
 20
-36.52024990422331
 30
0.0
 10
9.104910484968388
 20
-35.80669968869415
 30
0.0
  0
POLYLINE
  5
91
330
1F
100
AcDbEntity
  8
Layer 1
370
     0
100
AcDb2dPolyline
 66
     1
 10
0.0
 20
0.0
 30
0.0
  0
VERTEX
  5
92
330
91
100
AcDbEntity
  8
Layer 1
370
     0
100
AcDbVertex
100
AcDb2dVertex
 10
15.83318268966721
 20
-46.59888652605084
 30
0.0
  0
VERTEX
  5
93
330
91
100
AcDbEntity
  8
Layer 1
370
     0
100
AcDbVertex
100
AcDb2dVertex
 10
15.0573059852964
 20
-45.73856857368792
 30
0.0
  0
SEQEND
  5
94
330
91
100
AcDbEntity
  8
Layer 1
370
     0
  0
POLYLINE
  5
95
330
1F
100
AcDbEntity
  8
Layer 1
370
     0
100
AcDb2dPolyline
 66
     1
 10
0.0
 20
0.0
 30
0.0
  0
VERTEX
  5
96
330
95
100
AcDbEntity
  8
Layer 1
370
     0
100
AcDbVertex
100
AcDb2dVertex
 10
12.46911061229972
 20
-42.86847133143652
 30
0.0
  0
VERTEX
  5
97
330
95
100
AcDbEntity
  8
Layer 1
370
     0
100
AcDbVertex
100
AcDb2dVertex
 10
11.693233907929
 20
-42.00802406628918
 30
0.0
  0
SEQEND
  5
98
330
95
100
AcDbEntity
  8
Layer 1
370
     0
  0
POLYLINE
  5
99
330
1F
100
AcDbEntity
  8
Layer 1
370
     0
100
AcDb2dPolyline
 66
     1
 10
0.0
 20
0.0
 30
0.0
  0
VERTEX
  5
9A
330
99
100
AcDbEntity
  8
Layer 1
370
     0
100
AcDbVertex
100
AcDb2dVertex
 10
9.104909222148232
 20
-39.13779751125389
 30
0.0
  0
VERTEX
  5
9B
330
99
100
AcDbEntity
  8
Layer 1
370
     0
100
AcDbVertex
100
AcDb2dVertex
 10
8.329032517777502
 20
-38.27735024610666
 30
0.0
  0
SEQEND
  5
9C
330
99
100
AcDbEntity
  8
Layer 1
370
     0
  0
POLYLINE
  5
9D
330
1F
100
AcDbEntity
  8
Layer 1
370
     0
100
AcDb2dPolyline
 66
     1
 10
0.0
 20
0.0
 30
0.0
  0
VERTEX
  5
9E
330
9D
100
AcDbEntity
  8
Layer 1
370
     0
100
AcDbVertex
100
AcDb2dVertex
 10
10.78700991722399
 20
-41.00313442134514
 30
0.0
  0
VERTEX
  5
9F
330
9D
100
AcDbEntity
  8
Layer 1
370
     0
100
AcDbVertex
100
AcDb2dVertex
 10
10.01113321285326
 20
-40.14268715619806
 30
0.0
  0
SEQEND
  5
A0
330
9D
100
AcDbEntity
  8
Layer 1
370
     0
  0
POLYLINE
  5
A1
330
1F
100
AcDbEntity
  8
Layer 1
370
     0
100
AcDb2dPolyline
 66
     1
 10
0.0
 20
0.0
 30
0.0
  0
VERTEX
  5
A2
330
A1
100
AcDbEntity
  8
Layer 1
370
     0
100
AcDbVertex
100
AcDb2dVertex
 10
14.15121130737541
 20
-44.73380824152764
 30
0.0
  0
VERTEX
  5
A3
330
A1
100
AcDbEntity
  8
Layer 1
370
     0
100
AcDbVertex
100
AcDb2dVertex
 10
13.37533460300475
 20
-43.87336097638055
 30
0.0
  0
SEQEND
  5
A4
330
A1
100
AcDbEntity
  8
Layer 1
370
     0
  0
POLYLINE
  5
A5
330
1F
100
AcDbEntity
  8
Layer 1
370
     0
100
AcDb2dPolyline
 66
     1
 10
0.0
 20
0.0
 30
0.0
  0
VERTEX
  5
A6
330
A5
100
AcDbEntity
  8
Layer 1
370
     0
100
AcDbVertex
100
AcDb2dVertex
 10
17.51528338474292
 20
-48.46422343614237
 30
0.0
  0
VERTEX
  5
A7
330
A5
100
AcDbEntity
  8
Layer 1
370
     0
100
AcDbVertex
100
AcDb2dVertex
 10
16.73940668037221
 20
-47.60390548377917
 30
0.0
  0
SEQEND
  5
A8
330
A5
100
AcDbEntity
  8
Layer 1
370
     0
  0
ENDSEC
  0
SECTION
  2
OBJECTS
  0
DICTIONARY
  5
C
330
0
100
AcDbDictionary
281
     1
  3
ACAD_GROUP
350
D
  3
ACAD_LAYOUT
350
1A
  3
ACAD_MATERIAL
350
3B
  3
ACAD_MLEADERSTYLE
350
AA
  3
ACAD_MLINESTYLE
350
17
  3
ACAD_PLOTSETTINGS
350
19
  3
ACAD_PLOTSTYLENAME
350
E
  3
ACAD_TABLESTYLE
350
A9
  3
ACAD_VISUALSTYLE
350
2A
  0
SUN
  5
3F
330
29
100
AcDbSun
 90
        1
290
     0
 63
     7
421
 16777215
 40
1.0
291
     1
 91
  2455826
 92
 54000000
292
     0
 70
     2
 71
   256
280
     1
  0
DICTIONARY
  5
D
102
{ACAD_REACTORS
330
C
102
}
330
C
100
AcDbDictionary
281
     1
  0
DICTIONARY
  5
1A
102
{ACAD_REACTORS
330
C
102
}
330
C
100
AcDbDictionary
281
     1
  3
Layout1
350
1E
  3
Layout2
350
26
  3
Model
350
22
  0
DICTIONARY
  5
3B
102
{ACAD_REACTORS
330
C
102
}
330
C
100
AcDbDictionary
281
     1
  3
ByBlock
350
3D
  3
ByLayer
350
3C
  3
Global
350
3E
  0
DICTIONARY
  5
AA
102
{ACAD_REACTORS
330
C
102
}
330
C
100
AcDbDictionary
281
     1
  0
DICTIONARY
  5
17
102
{ACAD_REACTORS
330
C
102
}
330
C
100
AcDbDictionary
281
     1
  3
Standard
350
18
  0
DICTIONARY
  5
19
102
{ACAD_REACTORS
330
C
102
}
330
C
100
AcDbDictionary
281
     1
  0
ACDBDICTIONARYWDFLT
  5
E
102
{ACAD_REACTORS
330
C
102
}
330
C
100
AcDbDictionary
281
     1
  3
Normal
350
F
100
AcDbDictionaryWithDefault
340
F
  0
DICTIONARY
  5
A9
102
{ACAD_REACTORS
330
C
102
}
330
C
100
AcDbDictionary
281
     1
  0
DICTIONARY
  5
2A
102
{ACAD_REACTORS
330
C
102
}
330
C
100
AcDbDictionary
281
     1
  3
2dWireframe
350
2F
  3
3D Hidden
350
31
  3
3dWireframe
350
30
  3
Basic
350
32
  3
Brighten
350
36
  3
ColorChange
350
3A
  3
Conceptual
350
34
  3
Dim
350
35
  3
Facepattern
350
39
  3
Flat
350
2B
  3
FlatWithEdges
350
2C
  3
Gouraud
350
2D
  3
GouraudWithEdges
350
2E
  3
Linepattern
350
38
  3
Realistic
350
33
  3
Thicken
350
37
  0
LAYOUT
  5
1E
102
{ACAD_REACTORS
330
1A
102
}
330
1A
100
AcDbPlotSettings
  1

  2
none_device
  4

  6

 40
0.0
 41
0.0
 42
0.0
 43
0.0
 44
0.0
 45
0.0
 46
0.0
 47
0.0
 48
0.0
 49
0.0
140
0.0
141
0.0
142
1.0
143
1.0
 70
   688
 72
     0
 73
     0
 74
     5
  7

 75
    16
 76
     0
 77
     2
 78
   300
147
1.0
148
0.0
149
0.0
100
AcDbLayout
  1
Layout1
 70
     1
 71
     1
 10
0.0
 20
0.0
 11
12.0
 21
9.0
 12
0.0
 22
0.0
 32
0.0
 14
1.000000000000000E+20
 24
1.000000000000000E+20
 34
1.000000000000000E+20
 15
-1.000000000000000E+20
 25
-1.000000000000000E+20
 35
-1.000000000000000E+20
146
0.0
 13
0.0
 23
0.0
 33
0.0
 16
1.0
 26
0.0
 36
0.0
 17
0.0
 27
1.0
 37
0.0
 76
     0
330
1B
  0
LAYOUT
  5
26
102
{ACAD_REACTORS
330
1A
102
}
330
1A
100
AcDbPlotSettings
  1

  2
none_device
  4

  6

 40
0.0
 41
0.0
 42
0.0
 43
0.0
 44
0.0
 45
0.0
 46
0.0
 47
0.0
 48
0.0
 49
0.0
140
0.0
141
0.0
142
1.0
143
1.0
 70
   688
 72
     0
 73
     0
 74
     5
  7

 75
    16
 76
     0
 77
     2
 78
   300
147
1.0
148
0.0
149
0.0
100
AcDbLayout
  1
Layout2
 70
     1
 71
     2
 10
0.0
 20
0.0
 11
0.0
 21
0.0
 12
0.0
 22
0.0
 32
0.0
 14
0.0
 24
0.0
 34
0.0
 15
0.0
 25
0.0
 35
0.0
146
0.0
 13
0.0
 23
0.0
 33
0.0
 16
1.0
 26
0.0
 36
0.0
 17
0.0
 27
1.0
 37
0.0
 76
     0
330
23
  0
LAYOUT
  5
22
102
{ACAD_REACTORS
330
1A
102
}
330
1A
100
AcDbPlotSettings
  1

  2
none_device
  4

  6

 40
0.0
 41
0.0
 42
0.0
 43
0.0
 44
0.0
 45
0.0
 46
0.0
 47
0.0
 48
0.0
 49
0.0
140
0.0
141
0.0
142
1.0
143
1.0
 70
  1712
 72
     0
 73
     0
 74
     0
  7

 75
     0
 76
     0
 77
     2
 78
   300
147
1.0
148
0.0
149
0.0
100
AcDbLayout
  1
Model
 70
     1
 71
     0
 10
0.0
 20
0.0
 11
12.0
 21
9.0
 12
0.0
 22
0.0
 32
0.0
 14
1.000000000000000E+20
 24
1.000000000000000E+20
 34
1.000000000000000E+20
 15
-1.000000000000000E+20
 25
-1.000000000000000E+20
 35
-1.000000000000000E+20
146
0.0
 13
0.0
 23
0.0
 33
0.0
 16
1.0
 26
0.0
 36
0.0
 17
0.0
 27
1.0
 37
0.0
 76
     0
330
1F
331
29
  0
MATERIAL
  5
3D
102
{ACAD_REACTORS
330
3B
102
}
330
3B
100
AcDbMaterial
  1
ByBlock
 72
     1
 94
      127
  0
MATERIAL
  5
3C
102
{ACAD_REACTORS
330
3B
102
}
330
3B
100
AcDbMaterial
  1
ByLayer
 72
     1
 94
      127
  0
MATERIAL
  5
3E
102
{ACAD_REACTORS
330
3B
102
}
330
3B
100
AcDbMaterial
  1
Global
 72
     1
 94
      127
  0
MLINESTYLE
  5
18
102
{ACAD_REACTORS
330
17
102
}
330
17
100
AcDbMlineStyle
  2
Standard
 70
     0
  3

 62
   256
 51
90.0
 52
90.0
 71
     2
 49
0.5
 62
   256
  6
BYLAYER
 49
-0.5
 62
   256
  6
BYLAYER
  0
ACDBPLACEHOLDER
  5
F
102
{ACAD_REACTORS
330
E
102
}
330
E
  0
VISUALSTYLE
  5
2F
102
{ACAD_REACTORS
330
2A
102
}
330
2A
100
AcDbVisualStyle
  2
2dWireframe
 70
     4
177
     2
291
     0
 71
     0
176
     1
 72
     2
176
     1
 73
     0
176
     1
 90
        0
176
     1
 40
-0.6
176
     1
 41
-30.0
176
     1
 62
     5
 63
     7
421
 16777215
176
     1
 74
     1
176
     1
 91
        4
176
     1
 64
     7
176
     1
 65
   257
176
     1
 75
     1
176
     1
175
     1
176
     1
 42
1.0
176
     1
 92
        0
176
     1
 66
   257
176
     1
 43
1.0
176
     1
 76
     1
176
     1
 77
     6
176
     1
 78
     2
176
     1
 67
     7
176
     1
 79
     5
176
     1
170
     0
176
     1
171
     0
176
     1
290
     0
176
     1
 93
        1
176
     1
 44
0.0
176
     1
173
     0
176
     1
  0
VISUALSTYLE
  5
31
102
{ACAD_REACTORS
330
2A
102
}
330
2A
100
AcDbVisualStyle
  2
3D Hidden
 70
     6
177
     2
291
     0
 71
     1
176
     1
 72
     2
176
     1
 73
     2
176
     1
 90
        0
176
     1
 40
-0.6
176
     1
 41
-30.0
176
     1
 62
     5
 63
     7
421
 16777215
176
     1
 74
     2
176
     1
 91
        2
176
     1
 64
     7
176
     1
 65
   257
176
     1
 75
     2
176
     1
175
     1
176
     1
 42
40.0
176
     1
 92
        0
176
     1
 66
   257
176
     1
 43
1.0
176
     1
 76
     1
176
     1
 77
     6
176
     1
 78
     2
176
     1
 67
     7
176
     1
 79
     3
176
     1
170
     0
176
     1
171
     0
176
     1
290
     0
176
     1
 93
        1
176
     1
 44
0.0
176
     1
173
     0
176
     1
  0
VISUALSTYLE
  5
30
102
{ACAD_REACTORS
330
2A
102
}
330
2A
100
AcDbVisualStyle
  2
3dWireframe
 70
     5
177
     2
291
     0
 71
     0
176
     1
 72
     2
176
     1
 73
     0
176
     1
 90
        0
176
     1
 40
-0.6
176
     1
 41
-30.0
176
     1
 62
     5
 63
     7
421
 16777215
176
     1
 74
     1
176
     1
 91
        4
176
     1
 64
     7
176
     1
 65
   257
176
     1
 75
     1
176
     1
175
     1
176
     1
 42
1.0
176
     1
 92
        0
176
     1
 66
   257
176
     1
 43
1.0
176
     1
 76
     1
176
     1
 77
     6
176
     1
 78
     2
176
     1
 67
     7
176
     1
 79
     5
176
     1
170
     0
176
     1
171
     0
176
     1
290
     0
176
     1
 93
        1
176
     1
 44
0.0
176
     1
173
     0
176
     1
  0
VISUALSTYLE
  5
32
102
{ACAD_REACTORS
330
2A
102
}
330
2A
100
AcDbVisualStyle
  2
Basic
 70
     7
177
     2
291
     1
 71
     1
176
     1
 72
     0
176
     1
 73
     1
176
     1
 90
        0
176
     1
 40
-0.6
176
     1
 41
-30.0
176
     1
 62
     5
 63
     7
421
 16777215
176
     1
 74
     0
176
     1
 91
        4
176
     1
 64
     7
176
     1
 65
   257
176
     1
 75
     1
176
     1
175
     1
176
     1
 42
1.0
176
     1
 92
        8
176
     1
 66
     7
176
     1
 43
1.0
176
     1
 76
     1
176
     1
 77
     6
176
     1
 78
     2
176
     1
 67
     7
176
     1
 79
     5
176
     1
170
     0
176
     1
171
     0
176
     1
290
     0
176
     1
 93
        1
176
     1
 44
0.0
176
     1
173
     0
176
     1
  0
VISUALSTYLE
  5
36
102
{ACAD_REACTORS
330
2A
102
}
330
2A
100
AcDbVisualStyle
  2
Brighten
 70
    12
177
     2
291
     1
 71
     2
176
     1
 72
     2
176
     1
 73
     0
176
     1
 90
        0
176
     1
 40
-0.6
176
     1
 41
-30.0
176
     1
 62
     5
 63
     7
421
 16777215
176
     1
 74
     1
176
     1
 91
        4
176
     1
 64
     7
176
     1
 65
   257
176
     1
 75
     1
176
     1
175
     1
176
     1
 42
1.0
176
     1
 92
        8
176
     1
 66
     7
176
     1
 43
1.0
176
     1
 76
     1
176
     1
 77
     6
176
     1
 78
     2
176
     1
 67
     7
176
     1
 79
     5
176
     1
170
     0
176
     1
171
     0
176
     1
290
     0
176
     1
 93
        1
176
     1
 44
50.0
176
     1
173
     0
176
     1
  0
VISUALSTYLE
  5
3A
102
{ACAD_REACTORS
330
2A
102
}
330
2A
100
AcDbVisualStyle
  2
ColorChange
 70
    16
177
     2
291
     1
 71
     2
176
     1
 72
     2
176
     1
 73
     3
176
     1
 90
        0
176
     1
 40
-0.6
176
     1
 41
-30.0
176
     1
 62
     5
 63
     8
421
  8421504
176
     1
 74
     1
176
     1
 91
        4
176
     1
 64
     7
176
     1
 65
   257
176
     1
 75
     1
176
     1
175
     1
176
     1
 42
1.0
176
     1
 92
        8
176
     1
 66
     8
424
  8421504
176
     1
 43
1.0
176
     1
 76
     1
176
     1
 77
     6
176
     1
 78
     2
176
     1
 67
     7
176
     1
 79
     5
176
     1
170
     0
176
     1
171
     0
176
     1
290
     0
176
     1
 93
        1
176
     1
 44
0.0
176
     1
173
     0
176
     1
  0
VISUALSTYLE
  5
34
102
{ACAD_REACTORS
330
2A
102
}
330
2A
100
AcDbVisualStyle
  2
Conceptual
 70
     9
177
     2
291
     0
 71
     3
176
     1
 72
     2
176
     1
 73
     0
176
     1
 90
        0
176
     1
 40
-0.6
176
     1
 41
-30.0
176
     1
 62
     5
 63
     7
421
 16777215
176
     1
 74
     2
176
     1
 91
        2
176
     1
 64
     7
176
     1
 65
   257
176
     1
 75
     1
176
     1
175
     1
176
     1
 42
40.0
176
     1
 92
        8
176
     1
 66
     7
176
     1
 43
1.0
176
     1
 76
     1
176
     1
 77
     6
176
     1
 78
     2
176
     1
 67
     7
176
     1
 79
     3
176
     1
170
     0
176
     1
171
     0
176
     1
290
     0
176
     1
 93
        1
176
     1
 44
0.0
176
     1
173
     0
176
     1
  0
VISUALSTYLE
  5
35
102
{ACAD_REACTORS
330
2A
102
}
330
2A
100
AcDbVisualStyle
  2
Dim
 70
    11
177
     2
291
     1
 71
     2
176
     1
 72
     2
176
     1
 73
     0
176
     1
 90
        0
176
     1
 40
-0.6
176
     1
 41
-30.0
176
     1
 62
     5
 63
     7
421
 16777215
176
     1
 74
     1
176
     1
 91
        4
176
     1
 64
     7
176
     1
 65
   257
176
     1
 75
     1
176
     1
175
     1
176
     1
 42
1.0
176
     1
 92
        8
176
     1
 66
     7
176
     1
 43
1.0
176
     1
 76
     1
176
     1
 77
     6
176
     1
 78
     2
176
     1
 67
     7
176
     1
 79
     5
176
     1
170
     0
176
     1
171
     0
176
     1
290
     0
176
     1
 93
        1
176
     1
 44
-50.0
176
     1
173
     0
176
     1
  0
VISUALSTYLE
  5
39
102
{ACAD_REACTORS
330
2A
102
}
330
2A
100
AcDbVisualStyle
  2
Facepattern
 70
    15
177
     2
291
     1
 71
     2
176
     1
 72
     2
176
     1
 73
     0
176
     1
 90
        0
176
     1
 40
-0.6
176
     1
 41
-30.0
176
     1
 62
     5
 63
     7
421
 16777215
176
     1
 74
     1
176
     1
 91
        4
176
     1
 64
     7
176
     1
 65
   257
176
     1
 75
     1
176
     1
175
     1
176
     1
 42
1.0
176
     1
 92
        8
176
     1
 66
     7
176
     1
 43
1.0
176
     1
 76
     1
176
     1
 77
     6
176
     1
 78
     2
176
     1
 67
     7
176
     1
 79
     5
176
     1
170
     0
176
     1
171
     0
176
     1
290
     0
176
     1
 93
        1
176
     1
 44
0.0
176
     1
173
     0
176
     1
  0
VISUALSTYLE
  5
2B
102
{ACAD_REACTORS
330
2A
102
}
330
2A
100
AcDbVisualStyle
  2
Flat
 70
     0
177
     2
291
     1
 71
     2
176
     1
 72
     1
176
     1
 73
     1
176
     1
 90
        2
176
     1
 40
-0.6
176
     1
 41
30.0
176
     1
 62
     5
 63
     7
421
 16777215
176
     1
 74
     0
176
     1
 91
        4
176
     1
 64
     7
176
     1
 65
   257
176
     1
 75
     1
176
     1
175
     1
176
     1
 42
1.0
176
     1
 92
        8
176
     1
 66
     7
176
     1
 43
1.0
176
     1
 76
     1
176
     1
 77
     6
176
     1
 78
     2
176
     1
 67
     7
176
     1
 79
     5
176
     1
170
     0
176
     1
171
     0
176
     1
290
     0
176
     1
 93
       13
176
     1
 44
0.0
176
     1
173
     0
176
     1
  0
VISUALSTYLE
  5
2C
102
{ACAD_REACTORS
330
2A
102
}
330
2A
100
AcDbVisualStyle
  2
FlatWithEdges
 70
     1
177
     2
291
     1
 71
     2
176
     1
 72
     1
176
     1
 73
     1
176
     1
 90
        2
176
     1
 40
-0.6
176
     1
 41
30.0
176
     1
 62
     5
 63
     7
421
 16777215
176
     1
 74
     1
176
     1
 91
        4
176
     1
 64
     7
176
     1
 65
   257
176
     1
 75
     1
176
     1
175
     1
176
     1
 42
1.0
176
     1
 92
        0
176
     1
 66
   257
176
     1
 43
1.0
176
     1
 76
     1
176
     1
 77
     6
176
     1
 78
     2
176
     1
 67
     7
176
     1
 79
     5
176
     1
170
     0
176
     1
171
     0
176
     1
290
     0
176
     1
 93
       13
176
     1
 44
0.0
176
     1
173
     0
176
     1
  0
VISUALSTYLE
  5
2D
102
{ACAD_REACTORS
330
2A
102
}
330
2A
100
AcDbVisualStyle
  2
Gouraud
 70
     2
177
     2
291
     1
 71
     2
176
     1
 72
     2
176
     1
 73
     1
176
     1
 90
        2
176
     1
 40
-0.6
176
     1
 41
30.0
176
     1
 62
     5
 63
     7
421
 16777215
176
     1
 74
     0
176
     1
 91
        4
176
     1
 64
     7
176
     1
 65
   257
176
     1
 75
     1
176
     1
175
     1
176
     1
 42
1.0
176
     1
 92
        0
176
     1
 66
     7
176
     1
 43
1.0
176
     1
 76
     1
176
     1
 77
     6
176
     1
 78
     2
176
     1
 67
     7
176
     1
 79
     5
176
     1
170
     0
176
     1
171
     0
176
     1
290
     0
176
     1
 93
       13
176
     1
 44
0.0
176
     1
173
     0
176
     1
  0
VISUALSTYLE
  5
2E
102
{ACAD_REACTORS
330
2A
102
}
330
2A
100
AcDbVisualStyle
  2
GouraudWithEdges
 70
     3
177
     2
291
     1
 71
     2
176
     1
 72
     2
176
     1
 73
     1
176
     1
 90
        2
176
     1
 40
-0.6
176
     1
 41
30.0
176
     1
 62
     5
 63
     7
421
 16777215
176
     1
 74
     1
176
     1
 91
        4
176
     1
 64
     7
176
     1
 65
   257
176
     1
 75
     1
176
     1
175
     1
176
     1
 42
1.0
176
     1
 92
        0
176
     1
 66
   257
176
     1
 43
1.0
176
     1
 76
     1
176
     1
 77
     6
176
     1
 78
     2
176
     1
 67
     7
176
     1
 79
     5
176
     1
170
     0
176
     1
171
     0
176
     1
290
     0
176
     1
 93
       13
176
     1
 44
0.0
176
     1
173
     0
176
     1
  0
VISUALSTYLE
  5
38
102
{ACAD_REACTORS
330
2A
102
}
330
2A
100
AcDbVisualStyle
  2
Linepattern
 70
    14
177
     2
291
     1
 71
     2
176
     1
 72
     2
176
     1
 73
     0
176
     1
 90
        0
176
     1
 40
-0.6
176
     1
 41
-30.0
176
     1
 62
     5
 63
     7
421
 16777215
176
     1
 74
     1
176
     1
 91
        4
176
     1
 64
     7
176
     1
 65
   257
176
     1
 75
     7
176
     1
175
     7
176
     1
 42
1.0
176
     1
 92
        8
176
     1
 66
     7
176
     1
 43
1.0
176
     1
 76
     1
176
     1
 77
     6
176
     1
 78
     2
176
     1
 67
     7
176
     1
 79
     5
176
     1
170
     0
176
     1
171
     0
176
     1
290
     0
176
     1
 93
        1
176
     1
 44
0.0
176
     1
173
     0
176
     1
  0
VISUALSTYLE
  5
33
102
{ACAD_REACTORS
330
2A
102
}
330
2A
100
AcDbVisualStyle
  2
Realistic
 70
     8
177
     2
291
     0
 71
     2
176
     1
 72
     2
176
     1
 73
     0
176
     1
 90
        0
176
     1
 40
-0.6
176
     1
 41
-30.0
176
     1
 62
     5
 63
     7
421
 16777215
176
     1
 74
     1
176
     1
 91
        0
176
     1
 64
     7
176
     1
 65
   257
176
     1
 75
     1
176
     1
175
     1
176
     1
 42
1.0
176
     1
 92
        8
176
     1
 66
     8
424
  7895160
176
     1
 43
1.0
176
     1
 76
     1
176
     1
 77
     6
176
     1
 78
     2
176
     1
 67
     7
176
     1
 79
     5
176
     1
170
     0
176
     1
171
     0
176
     1
290
     0
176
     1
 93
       13
176
     1
 44
0.0
176
     1
173
     0
176
     1
  0
VISUALSTYLE
  5
37
102
{ACAD_REACTORS
330
2A
102
}
330
2A
100
AcDbVisualStyle
  2
Thicken
 70
    13
177
     2
291
     1
 71
     2
176
     1
 72
     2
176
     1
 73
     0
176
     1
 90
        0
176
     1
 40
-0.6
176
     1
 41
-30.0
176
     1
 62
     5
 63
     7
421
 16777215
176
     1
 74
     1
176
     1
 91
        4
176
     1
 64
     7
176
     1
 65
   257
176
     1
 75
     1
176
     1
175
     1
176
     1
 42
1.0
176
     1
 92
       12
176
     1
 66
     7
176
     1
 43
1.0
176
     1
 76
     1
176
     1
 77
     6
176
     1
 78
     2
176
     1
 67
     7
176
     1
 79
     5
176
     1
170
     0
176
     1
171
     0
176
     1
290
     0
176
     1
 93
        1
176
     1
 44
0.0
176
     1
173
     0
176
     1
  0
ENDSEC
  0
EOF
