  0
SECTION
  2
HEADER
  9
$ACADVER
  1
AC1024
  9
$ACADMAINTVER
 70
     6
  9
$DWGCODEPAGE
  3
ANSI_1252
  9
$INSBASE
 10
0.0
 20
0.0
 30
0.0
  9
$EXTMIN
 10
1.000000000000000E+20
 20
1.000000000000000E+20
 30
1.000000000000000E+20
  9
$EXTMAX
 10
-1.000000000000000E+20
 20
-1.000000000000000E+20
 30
-1.000000000000000E+20
  9
$LIMMIN
 10
0.0
 20
0.0
  9
$LIMMAX
 10
12.0
 20
9.0
  9
$ORTHOMODE
 70
     0
  9
$REGENMODE
 70
     1
  9
$FILLMODE
 70
     1
  9
$QTEXTMODE
 70
     0
  9
$MIRRTEXT
 70
     1
  9
$LTSCALE
 40
1.0
  9
$ATTMODE
 70
     1
  9
$TEXTSIZE
 40
0.2
  9
$TRACEWID
 40
0.05
  9
$TEXTSTYLE
  7
Standard
  9
$CLAYER
  8
0
  9
$CELTYPE
  6
ByLayer
  9
$CECOLOR
 62
   256
  9
$CELTSCALE
 40
1.0
  9
$DISPSILH
 70
     0
  9
$DIMSCALE
 40
1.0
  9
$DIMASZ
 40
0.18
  9
$DIMEXO
 40
0.0625
  9
$DIMDLI
 40
0.38
  9
$DIMRND
 40
0.0
  9
$DIMDLE
 40
0.0
  9
$DIMEXE
 40
0.18
  9
$DIMTP
 40
0.0
  9
$DIMTM
 40
0.0
  9
$DIMTXT
 40
0.18
  9
$DIMCEN
 40
0.09
  9
$DIMTSZ
 40
0.0
  9
$DIMTOL
 70
     0
  9
$DIMLIM
 70
     0
  9
$DIMTIH
 70
     1
  9
$DIMTOH
 70
     1
  9
$DIMSE1
 70
     0
  9
$DIMSE2
 70
     0
  9
$DIMTAD
 70
     0
  9
$DIMZIN
 70
     0
  9
$DIMBLK
  1

  9
$DIMASO
 70
     1
  9
$DIMSHO
 70
     1
  9
$DIMPOST
  1

  9
$DIMAPOST
  1

  9
$DIMALT
 70
     0
  9
$DIMALTD
 70
     2
  9
$DIMALTF
 40
25.4
  9
$DIMLFAC
 40
1.0
  9
$DIMTOFL
 70
     0
  9
$DIMTVP
 40
0.0
  9
$DIMTIX
 70
     0
  9
$DIMSOXD
 70
     0
  9
$DIMSAH
 70
     0
  9
$DIMBLK1
  1

  9
$DIMBLK2
  1

  9
$DIMSTYLE
  2
Standard
  9
$DIMCLRD
 70
     0
  9
$DIMCLRE
 70
     0
  9
$DIMCLRT
 70
     0
  9
$DIMTFAC
 40
1.0
  9
$DIMGAP
 40
0.09
  9
$DIMJUST
 70
     0
  9
$DIMSD1
 70
     0
  9
$DIMSD2
 70
     0
  9
$DIMTOLJ
 70
     1
  9
$DIMTZIN
 70
     0
  9
$DIMALTZ
 70
     0
  9
$DIMALTTZ
 70
     0
  9
$DIMUPT
 70
     0
  9
$DIMDEC
 70
     4
  9
$DIMTDEC
 70
     4
  9
$DIMALTU
 70
     2
  9
$DIMALTTD
 70
     2
  9
$DIMTXSTY
  7
Standard
  9
$DIMAUNIT
 70
     0
  9
$DIMADEC
 70
     0
  9
$DIMALTRND
 40
0.0
  9
$DIMAZIN
 70
     0
  9
$DIMDSEP
 70
    46
  9
$DIMATFIT
 70
     3
  9
$DIMFRAC
 70
     0
  9
$DIMLDRBLK
  1

  9
$DIMLUNIT
 70
     2
  9
$DIMLWD
 70
    -2
  9
$DIMLWE
 70
    -2
  9
$DIMTMOVE
 70
     0
  9
$DIMFXL
 40
1.0
  9
$DIMFXLON
 70
     0
  9
$DIMJOGANG
 40
0.7853981633974483
  9
$DIMTFILL
 70
     0
  9
$DIMTFILLCLR
 70
     0
  9
$DIMARCSYM
 70
     0
  9
$DIMLTYPE
  6

  9
$DIMLTEX1
  6

  9
$DIMLTEX2
  6

  9
$DIMTXTDIRECTION
 70
     0
  9
$LUNITS
 70
     2
  9
$LUPREC
 70
     4
  9
$SKETCHINC
 40
0.1
  9
$FILLETRAD
 40
0.5
  9
$AUNITS
 70
     0
  9
$AUPREC
 70
     0
  9
$MENU
  1
.
  9
$ELEVATION
 40
0.0
  9
$PELEVATION
 40
0.0
  9
$THICKNESS
 40
0.0
  9
$LIMCHECK
 70
     0
  9
$CHAMFERA
 40
0.5
  9
$CHAMFERB
 40
0.5
  9
$CHAMFERC
 40
1.0
  9
$CHAMFERD
 40
0.0
  9
$SKPOLY
 70
     0
  9
$TDCREATE
 40
2457238.340897049
  9
$TDUCREATE
 40
2457238.632563715
  9
$TDUPDATE
 40
2457238.340897049
  9
$TDUUPDATE
 40
2457238.632563715
  9
$TDINDWG
 40
0.0000000116
  9
$TDUSRTIMER
 40
0.0000000116
  9
$USRTIMER
 70
     1
  9
$ANGBASE
 50
0.0
  9
$ANGDIR
 70
     0
  9
$PDMODE
 70
     0
  9
$PDSIZE
 40
0.0
  9
$PLINEWID
 40
0.0
  9
$SPLFRAME
 70
     0
  9
$SPLINETYPE
 70
     6
  9
$SPLINESEGS
 70
     8
  9
$HANDSEED
  5
5B
  9
$SURFTAB1
 70
     6
  9
$SURFTAB2
 70
     6
  9
$SURFTYPE
 70
     6
  9
$SURFU
 70
     6
  9
$SURFV
 70
     6
  9
$UCSBASE
  2

  9
$UCSNAME
  2

  9
$UCSORG
 10
0.0
 20
0.0
 30
0.0
  9
$UCSXDIR
 10
1.0
 20
0.0
 30
0.0
  9
$UCSYDIR
 10
0.0
 20
1.0
 30
0.0
  9
$UCSORTHOREF
  2

  9
$UCSORTHOVIEW
 70
     0
  9
$UCSORGTOP
 10
0.0
 20
0.0
 30
0.0
  9
$UCSORGBOTTOM
 10
0.0
 20
0.0
 30
0.0
  9
$UCSORGLEFT
 10
0.0
 20
0.0
 30
0.0
  9
$UCSORGRIGHT
 10
0.0
 20
0.0
 30
0.0
  9
$UCSORGFRONT
 10
0.0
 20
0.0
 30
0.0
  9
$UCSORGBACK
 10
0.0
 20
0.0
 30
0.0
  9
$PUCSBASE
  2

  9
$PUCSNAME
  2

  9
$PUCSORG
 10
0.0
 20
0.0
 30
0.0
  9
$PUCSXDIR
 10
1.0
 20
0.0
 30
0.0
  9
$PUCSYDIR
 10
0.0
 20
1.0
 30
0.0
  9
$PUCSORTHOREF
  2

  9
$PUCSORTHOVIEW
 70
     0
  9
$PUCSORGTOP
 10
0.0
 20
0.0
 30
0.0
  9
$PUCSORGBOTTOM
 10
0.0
 20
0.0
 30
0.0
  9
$PUCSORGLEFT
 10
0.0
 20
0.0
 30
0.0
  9
$PUCSORGRIGHT
 10
0.0
 20
0.0
 30
0.0
  9
$PUCSORGFRONT
 10
0.0
 20
0.0
 30
0.0
  9
$PUCSORGBACK
 10
0.0
 20
0.0
 30
0.0
  9
$USERI1
 70
     0
  9
$USERI2
 70
     0
  9
$USERI3
 70
     0
  9
$USERI4
 70
     0
  9
$USERI5
 70
     0
  9
$USERR1
 40
0.0
  9
$USERR2
 40
0.0
  9
$USERR3
 40
0.0
  9
$USERR4
 40
0.0
  9
$USERR5
 40
0.0
  9
$WORLDVIEW
 70
     1
  9
$SHADEDGE
 70
     3
  9
$SHADEDIF
 70
    70
  9
$TILEMODE
 70
     1
  9
$MAXACTVP
 70
    64
  9
$PINSBASE
 10
0.0
 20
0.0
 30
0.0
  9
$PLIMCHECK
 70
     0
  9
$PEXTMIN
 10
1.000000000000000E+20
 20
1.000000000000000E+20
 30
1.000000000000000E+20
  9
$PEXTMAX
 10
-1.000000000000000E+20
 20
-1.000000000000000E+20
 30
-1.000000000000000E+20
  9
$PLIMMIN
 10
0.0
 20
0.0
  9
$PLIMMAX
 10
12.0
 20
9.0
  9
$UNITMODE
 70
     0
  9
$VISRETAIN
 70
     1
  9
$PLINEGEN
 70
     0
  9
$PSLTSCALE
 70
     1
  9
$TREEDEPTH
 70
  3020
  9
$CMLSTYLE
  2
Standard
  9
$CMLJUST
 70
     0
  9
$CMLSCALE
 40
1.0
  9
$PROXYGRAPHICS
 70
     1
  9
$MEASUREMENT
 70
     0
  9
$CELWEIGHT
370
    -1
  9
$ENDCAPS
280
     0
  9
$JOINSTYLE
280
     0
  9
$LWDISPLAY
290
     1
  9
$INSUNITS
 70
     1
  9
$HYPERLINKBASE
  1

  9
$STYLESHEET
  1

  9
$XEDIT
290
     1
  9
$CEPSNTYPE
380
     0
  9
$PSTYLEMODE
290
     1
  9
$FINGERPRINTGUID
  2
{5670B936-7322-47EB-9425-A382C895C10B}
  9
$VERSIONGUID
  2
{FAEB1C32-E019-11D5-929B-00C0DF256EC4}
  9
$EXTNAMES
290
     1
  9
$PSVPSCALE
 40
0.0
  9
$OLESTARTUP
290
     0
  9
$SORTENTS
280
   127
  9
$INDEXCTL
280
     0
  9
$HIDETEXT
280
     1
  9
$XCLIPFRAME
280
     2
  9
$HALOGAP
280
     0
  9
$OBSCOLOR
 70
   257
  9
$OBSLTYPE
280
     0
  9
$INTERSECTIONDISPLAY
280
     0
  9
$INTERSECTIONCOLOR
 70
   257
  9
$DIMASSOC
280
     2
  9
$PROJECTNAME
  1

  9
$CAMERADISPLAY
290
     0
  9
$LENSLENGTH
 40
50.0
  9
$CAMERAHEIGHT
 40
0.0
  9
$STEPSPERSEC
 40
2.0
  9
$STEPSIZE
 40
6.0
  9
$3DDWFPREC
 40
2.0
  9
$PSOLWIDTH
 40
0.25
  9
$PSOLHEIGHT
 40
4.0
  9
$LOFTANG1
 40
1.570796326794897
  9
$LOFTANG2
 40
1.570796326794897
  9
$LOFTMAG1
 40
0.0
  9
$LOFTMAG2
 40
0.0
  9
$LOFTPARAM
 70
     7
  9
$LOFTNORMALS
280
     1
  9
$LATITUDE
 40
37.795
  9
$LONGITUDE
 40
-122.394
  9
$NORTHDIRECTION
 40
0.0
  9
$TIMEZONE
 70
 -8000
  9
$LIGHTGLYPHDISPLAY
280
     1
  9
$TILEMODELIGHTSYNCH
280
     1
  9
$CMATERIAL
347
3C
  9
$SOLIDHIST
280
     1
  9
$SHOWHIST
280
     1
  9
$DWFFRAME
280
     2
  9
$DGNFRAME
280
     2
  9
$REALWORLDSCALE
290
     1
  9
$INTERFERECOLOR
 62
   256
  9
$CSHADOW
280
     0
  9
$SHADOWPLANELOCATION
 40
0.0
  0
ENDSEC
  0
SECTION
  2
CLASSES
  0
CLASS
  1
ACDBDICTIONARYWDFLT
  2
AcDbDictionaryWithDefault
  3
ObjectDBX Classes
 90
        0
 91
        4
280
     0
281
     0
  0
CLASS
  1
VISUALSTYLE
  2
AcDbVisualStyle
  3
ObjectDBX Classes
 90
     4095
 91
        4
280
     0
281
     0
  0
CLASS
  1
MATERIAL
  2
AcDbMaterial
  3
ObjectDBX Classes
 90
     1153
 91
        4
280
     0
281
     0
  0
CLASS
  1
SUN
  2
AcDbSun
  3
SCENEOE
 90
     1024
 91
        4
280
     0
281
     0
  0
ENDSEC
  0
SECTION
  2
TABLES
  0
TABLE
  2
VPORT
  5
8
330
0
100
AcDbSymbolTable
 70
     1
  0
VPORT
  5
29
330
8
100
AcDbSymbolTableRecord
100
AcDbViewportTableRecord
  2
*Active
 70
     0
 10
0.0
 20
0.0
 11
1.0
 21
1.0
 12
0.0
 22
0.0
 13
0.0
 23
0.0
 14
0.5
 24
0.5
 15
0.5
 25
0.5
 16
0.0
 26
0.0
 36
1.0
 17
4.255023995200922
 27
-5.338390655202319
 37
0.0
 40
36.07611810971145
 41
0.8060046189376409
 42
50.0
 43
0.0
 44
0.0
 50
0.0
 51
0.0
 71
     0
 72
   100
 73
     1
 74
     3
 75
     0
 76
     0
 77
     0
 78
     0
281
     0
 65
     1
110
0.0
120
0.0
130
0.0
111
1.0
121
0.0
131
0.0
112
0.0
122
1.0
132
0.0
 79
     0
146
0.0
 60
     3
 61
     5
292
     1
282
     1
141
0.0
142
0.0
 63
   250
361
3F
  0
ENDTAB
  0
TABLE
  2
LTYPE
  5
5
330
0
100
AcDbSymbolTable
 70
     1
  0
LTYPE
  5
14
330
5
100
AcDbSymbolTableRecord
100
AcDbLinetypeTableRecord
  2
ByBlock
 70
     0
  3

 72
    65
 73
     0
 40
0.0
  0
LTYPE
  5
15
330
5
100
AcDbSymbolTableRecord
100
AcDbLinetypeTableRecord
  2
ByLayer
 70
     0
  3

 72
    65
 73
     0
 40
0.0
  0
LTYPE
  5
16
330
5
100
AcDbSymbolTableRecord
100
AcDbLinetypeTableRecord
  2
Continuous
 70
     0
  3
Solid line
 72
    65
 73
     0
 40
0.0
  0
ENDTAB
  0
TABLE
  2
LAYER
  5
2
330
0
100
AcDbSymbolTable
 70
     2
  0
LAYER
  5
10
330
2
100
AcDbSymbolTableRecord
100
AcDbLayerTableRecord
  2
0
 70
     0
 62
     7
  6
Continuous
370
    -3
390
F
347
3E
  0
LAYER
  5
40
330
2
100
AcDbSymbolTableRecord
100
AcDbLayerTableRecord
  2
Layer 1
 70
     0
 62
     7
  6
Continuous
370
    -3
390
F
347
3E
  0
ENDTAB
  0
TABLE
  2
STYLE
  5
3
330
0
100
AcDbSymbolTable
 70
     1
  0
STYLE
  5
11
330
3
100
AcDbSymbolTableRecord
100
AcDbTextStyleTableRecord
  2
Standard
 70
     0
 40
0.0
 41
1.0
 50
0.0
 71
     0
 42
0.2
  3
txt
  4

  0
ENDTAB
  0
TABLE
  2
VIEW
  5
6
330
0
100
AcDbSymbolTable
 70
     0
  0
ENDTAB
  0
TABLE
  2
UCS
  5
7
330
0
100
AcDbSymbolTable
 70
     0
  0
ENDTAB
  0
TABLE
  2
APPID
  5
9
330
0
100
AcDbSymbolTable
 70
     1
  0
APPID
  5
12
330
9
100
AcDbSymbolTableRecord
100
AcDbRegAppTableRecord
  2
ACAD
 70
     0
  0
ENDTAB
  0
TABLE
  2
DIMSTYLE
  5
A
330
0
100
AcDbSymbolTable
 70
     1
100
AcDbDimStyleTable
  0
DIMSTYLE
105
27
330
A
100
AcDbSymbolTableRecord
100
AcDbDimStyleTableRecord
  2
Standard
 70
     0
178
     0
340
11
  0
ENDTAB
  0
TABLE
  2
BLOCK_RECORD
  5
1
330
0
100
AcDbSymbolTable
 70
     1
  0
BLOCK_RECORD
  5
1F
330
1
100
AcDbSymbolTableRecord
100
AcDbBlockTableRecord
  2
*Model_Space
340
22
 70
     0
280
     1
281
     0
  0
BLOCK_RECORD
  5
1B
330
1
100
AcDbSymbolTableRecord
100
AcDbBlockTableRecord
  2
*Paper_Space
340
1E
 70
     0
280
     1
281
     0
  0
BLOCK_RECORD
  5
23
330
1
100
AcDbSymbolTableRecord
100
AcDbBlockTableRecord
  2
*Paper_Space0
340
26
 70
     0
280
     1
281
     0
  0
ENDTAB
  0
ENDSEC
  0
SECTION
  2
BLOCKS
  0
BLOCK
  5
20
330
1F
100
AcDbEntity
  8
0
100
AcDbBlockBegin
  2
*Model_Space
 70
     0
 10
0.0
 20
0.0
 30
0.0
  3
*Model_Space
  1

  0
ENDBLK
  5
21
330
1F
100
AcDbEntity
  8
0
100
AcDbBlockEnd
  0
BLOCK
  5
1C
330
1B
100
AcDbEntity
 67
     1
  8
0
100
AcDbBlockBegin
  2
*Paper_Space
 70
     0
 10
0.0
 20
0.0
 30
0.0
  3
*Paper_Space
  1

  0
ENDBLK
  5
1D
330
1B
100
AcDbEntity
 67
     1
  8
0
100
AcDbBlockEnd
  0
BLOCK
  5
24
330
23
100
AcDbEntity
  8
0
100
AcDbBlockBegin
  2
*Paper_Space0
 70
     0
 10
0.0
 20
0.0
 30
0.0
  3
*Paper_Space0
  1

  0
ENDBLK
  5
25
330
23
100
AcDbEntity
  8
0
100
AcDbBlockEnd
  0
ENDSEC
  0
SECTION
  2
ENTITIES
  0
POLYLINE
  5
41
330
1F
100
AcDbEntity
  8
Layer 1
370
     0
100
AcDb2dPolyline
 66
     1
 10
0.0
 20
0.0
 30
0.0
  0
VERTEX
  5
42
330
41
100
AcDbEntity
  8
Layer 1
370
     0
100
AcDbVertex
100
AcDb2dVertex
 10
18.09709883045737
 20
11.41089198842378
 30
0.0
  0
VERTEX
  5
43
330
41
100
AcDbEntity
  8
Layer 1
370
     0
100
AcDbVertex
100
AcDb2dVertex
 10
18.09709883045737
 20
7.160085055402533
 30
0.0
  0
VERTEX
  5
44
330
41
100
AcDbEntity
  8
Layer 1
370
     0
100
AcDbVertex
100
AcDb2dVertex
 10
15.97060563539111
 20
4.358696999167806
 30
0.0
  0
VERTEX
  5
45
330
41
100
AcDbEntity
  8
Layer 1
370
     0
100
AcDbVertex
100
AcDb2dVertex
 10
0.3215354174905972
 20
-16.25752908614236
 30
0.0
  0
VERTEX
  5
46
330
41
100
AcDbEntity
  8
Layer 1
370
     0
100
AcDbVertex
100
AcDb2dVertex
 10
-4.367804031178833
 20
-22.43483406239915
 30
0.0
  0
VERTEX
  5
47
330
41
100
AcDbEntity
  8
Layer 1
370
     0
100
AcDbVertex
100
AcDb2dVertex
 10
-9.58294749496661
 20
-16.1106221360143
 30
0.0
  0
VERTEX
  5
48
330
41
100
AcDbEntity
  8
Layer 1
370
     0
100
AcDbVertex
100
AcDb2dVertex
 10
11.00417773328983
 20
4.358696999167806
 30
0.0
  0
VERTEX
  5
49
330
41
100
AcDbEntity
  8
Layer 1
370
     0
100
AcDbVertex
100
AcDb2dVertex
 10
18.09709883045737
 20
11.41089198842378
 30
0.0
  0
SEQEND
  5
4A
330
41
100
AcDbEntity
  8
Layer 1
370
     0
  0
SPLINE
  5
4B
330
1F
100
AcDbEntity
  8
Layer 1
370
     0
100
AcDbSpline
210
0.0
220
0.0
230
1.0
 70
    11
 71
     3
 72
    35
 73
    31
 74
     0
 42
0.0000000001
 43
0.0000000001
 12
1.0
 22
0.0
 32
0.0
 13
1.0
 23
0.0
 33
0.0
 40
0.0
 40
0.0
 40
0.0
 40
0.0
 40
1.0
 40
1.0
 40
1.0
 40
2.0
 40
2.0
 40
2.0
 40
3.0
 40
3.0
 40
3.0
 40
4.0
 40
4.0
 40
4.0
 40
5.0
 40
5.0
 40
5.0
 40
6.0
 40
6.0
 40
6.0
 40
7.0
 40
7.0
 40
7.0
 40
8.0
 40
8.0
 40
8.0
 40
9.0
 40
9.0
 40
9.0
 40
10.0
 40
10.0
 40
10.0
 40
10.0
 10
-4.011301908739521
 20
-19.18857830788986
 30
0.0
 10
-3.903157009776237
 20
-19.3197217702025
 30
0.0
 10
-3.899360537097019
 20
-19.50800824264249
 30
0.0
 10
-4.002131122276561
 20
-19.64340445271111
 30
0.0
 10
-4.002131122276561
 20
-19.64340445271111
 30
0.0
 10
-4.125113310662388
 20
-19.80542865627389
 30
0.0
 10
-4.125113310662388
 20
-19.80542865627389
 30
0.0
 10
-4.192850948129628
 20
-19.8946703335111
 30
0.0
 10
-4.29768209354471
 20
-19.94803302995181
 30
0.0
 10
-4.409697105492594
 20
-19.95029169860082
 30
0.0
 10
-4.521712117440479
 20
-19.95255036724999
 30
0.0
 10
-4.628609185961838
 20
-19.90345695463694
 30
0.0
 10
-4.699889235852121
 20
-19.81701842750125
 30
0.0
 10
-4.699889235852121
 20
-19.81701842750125
 30
0.0
 10
-7.469657516272655
 20
-16.45822882178054
 30
0.0
 10
-7.469657516272655
 20
-16.45822882178054
 30
0.0
 10
-7.590048521992141
 20
-16.31223536034501
 30
0.0
 10
-7.579522851962338
 20
-16.09859529209848
 30
0.0
 10
-7.445364048498201
 20
-15.96514305160346
 30
0.0
 10
-7.445364048498201
 20
-15.96514305160346
 30
0.0
 10
-7.304397186410837
 20
-15.82491860791917
 30
0.0
 10
-7.304397186410837
 20
-15.82491860791917
 30
0.0
 10
-7.231267941294554
 20
-15.75217450649249
 30
0.0
 10
-7.130873732020063
 20
-15.71360852859208
 30
0.0
 10
-7.027850305190706
 20
-15.71868438398693
 30
0.0
 10
-6.924826878361348
 20
-15.72376023938194
 30
0.0
 10
-6.828709895983492
 20
-15.77200811607958
 30
0.0
 10
-6.763085515458518
 20
-15.8515884620475
 30
0.0
 10
-6.763085515458518
 20
-15.8515884620475
 30
0.0
 10
-4.011301908739521
 20
-19.18857830788986
 30
0.0
 10
-4.011301908739521
 20
-19.18857830788986
 30
0.0
  0
SPLINE
  5
4C
330
1F
100
AcDbEntity
  8
Layer 1
370
     0
100
AcDbSpline
210
0.0
220
0.0
230
1.0
 70
    11
 71
     3
 72
    35
 73
    31
 74
     0
 42
0.0000000001
 43
0.0000000001
 12
1.0
 22
0.0
 32
0.0
 13
1.0
 23
0.0
 33
0.0
 40
0.0
 40
0.0
 40
0.0
 40
0.0
 40
1.0
 40
1.0
 40
1.0
 40
2.0
 40
2.0
 40
2.0
 40
3.0
 40
3.0
 40
3.0
 40
4.0
 40
4.0
 40
4.0
 40
5.0
 40
5.0
 40
5.0
 40
6.0
 40
6.0
 40
6.0
 40
7.0
 40
7.0
 40
7.0
 40
8.0
 40
8.0
 40
8.0
 40
9.0
 40
9.0
 40
9.0
 40
10.0
 40
10.0
 40
10.0
 40
10.0
 10
-2.444543864940265
 20
-17.12418861716959
 30
0.0
 10
-2.336264279996259
 20
-17.2553366838936
 30
0.0
 10
-2.332414995069409
 20
-17.44373821179195
 30
0.0
 10
-2.435247407464102
 20
-17.57919956746999
 30
0.0
 10
-2.435247407464102
 20
-17.57919956746999
 30
0.0
 10
-2.55814953894373
 20
-17.74109880680776
 30
0.0
 10
-2.55814953894373
 20
-17.74109880680776
 30
0.0
 10
-2.625865523269858
 20
-17.83030121706237
 30
0.0
 10
-2.730645295683189
 20
-17.88365287270264
 30
0.0
 10
-2.842615295369708
 20
-17.88594278507528
 30
0.0
 10
-2.954585295056227
 20
-17.88823269744777
 30
0.0
 10
-3.06145874650373
 20
-17.83920958818029
 30
0.0
 10
-3.132765164067084
 20
-17.75285034233626
 30
0.0
 10
-3.132765164067084
 20
-17.75285034233626
 30
0.0
 10
-5.675277471364122
 20
-14.67361213474679
 30
0.0
 10
-5.675277471364122
 20
-14.67361213474679
 30
0.0
 10
-5.795817268076449
 20
-14.52762631335807
 30
0.0
 10
-5.785353218618044
 20
-14.31386254241847
 30
0.0
 10
-5.651131453972779
 20
-14.18034767233459
 30
0.0
 10
-5.651131453972779
 20
-14.18034767233459
 30
0.0
 10
-5.510144822580754
 20
-14.04010356346306
 30
0.0
 10
-5.510144822580754
 20
-14.04010356346306
 30
0.0
 10
-5.437042440307664
 20
-13.9673861834032
 30
0.0
 10
-5.336693719231675
 20
-13.92882058453946
 30
0.0
 10
-5.233706634545544
 20
-13.93386400050612
 30
0.0
 10
-5.130719549859413
 20
-13.93890741647278
 30
0.0
 10
-5.034619169981523
 20
-13.98709339186639
 30
0.0
 10
-4.96897167232492
 20
-14.06660554004624
 30
0.0
 10
-4.96897167232492
 20
-14.06660554004624
 30
0.0
 10
-2.444543864940265
 20
-17.12418861716959
 30
0.0
 10
-2.444543864940265
 20
-17.12418861716959
 30
0.0
  0
SPLINE
  5
4D
330
1F
100
AcDbEntity
  8
Layer 1
370
     0
100
AcDbSpline
210
0.0
220
0.0
230
1.0
 70
    11
 71
     3
 72
    35
 73
    31
 74
     0
 42
0.0000000001
 43
0.0000000001
 12
1.0
 22
0.0
 32
0.0
 13
1.0
 23
0.0
 33
0.0
 40
0.0
 40
0.0
 40
0.0
 40
0.0
 40
1.0
 40
1.0
 40
1.0
 40
2.0
 40
2.0
 40
2.0
 40
3.0
 40
3.0
 40
3.0
 40
4.0
 40
4.0
 40
4.0
 40
5.0
 40
5.0
 40
5.0
 40
6.0
 40
6.0
 40
6.0
 40
7.0
 40
7.0
 40
7.0
 40
8.0
 40
8.0
 40
8.0
 40
9.0
 40
9.0
 40
9.0
 40
10.0
 40
10.0
 40
10.0
 40
10.0
 10
-0.8778316586825288
 20
-15.05967750858402
 30
0.0
 10
-0.7693924950752564
 20
-15.19082361635444
 30
0.0
 10
-0.7654717389398229
 20
-15.37935395723111
 30
0.0
 10
-0.8683647642056433
 20
-15.51489501794264
 30
0.0
 10
-0.8683647642056433
 20
-15.51489501794264
 30
0.0
 10
-0.9913278584082769
 20
-15.67687439578223
 30
0.0
 10
-0.9913278584082769
 20
-15.67687439578223
 30
0.0
 10
-1.059017768364747
 20
-15.76604236582943
 30
0.0
 10
-1.163744546999674
 20
-15.81938912372028
 30
0.0
 10
-1.275670584468407
 20
-15.82171569389986
 30
0.0
 10
-1.387596621937127
 20
-15.8240422640793
 30
0.0
 10
-1.494449783322175
 20
-15.77509354966583
 30
0.0
 10
-1.565786633032038
 20
-15.68881548370624
 30
0.0
 10
-1.565786633032038
 20
-15.68881548370624
 30
0.0
 10
-3.880745482118843
 20
-12.88899781461221
 30
0.0
 10
-3.880745482118843
 20
-12.88899781461221
 30
0.0
 10
-4.001443628235367
 20
-12.74301992724837
 30
0.0
 10
-3.991044775458072
 20
-12.52912420421613
 30
0.0
 10
-3.856755451436306
 20
-12.39554290489261
 30
0.0
 10
-3.856755451436306
 20
-12.39554290489261
 30
0.0
 10
-3.715847132725546
 20
-12.25537750875269
 30
0.0
 10
-3.715847132725546
 20
-12.25537750875269
 30
0.0
 10
-3.642777716952057
 20
-12.18269334289711
 30
0.0
 10
-3.54248505754688
 20
-12.14412851807237
 30
0.0
 10
-3.43954288598598
 20
-12.1491321969119
 30
0.0
 10
-3.336600714425117
 20
-12.15413587575143
 30
0.0
 10
-3.240521023907478
 20
-12.2022457116934
 30
0.0
 10
-3.174845283261207
 20
-12.28167382118977
 30
0.0
 10
-3.174845283261207
 20
-12.28167382118977
 30
0.0
 10
-0.8778316586825288
 20
-15.05967750858402
 30
0.0
 10
-0.8778316586825288
 20
-15.05967750858402
 30
0.0
  0
SPLINE
  5
4E
330
1F
100
AcDbEntity
  8
Layer 1
370
     0
100
AcDbSpline
210
0.0
220
0.0
230
1.0
 70
    11
 71
     3
 72
    35
 73
    31
 74
     0
 42
0.0000000001
 43
0.0000000001
 12
1.0
 22
0.0
 32
0.0
 13
1.0
 23
0.0
 33
0.0
 40
0.0
 40
0.0
 40
0.0
 40
0.0
 40
1.0
 40
1.0
 40
1.0
 40
2.0
 40
2.0
 40
2.0
 40
3.0
 40
3.0
 40
3.0
 40
4.0
 40
4.0
 40
4.0
 40
5.0
 40
5.0
 40
5.0
 40
6.0
 40
6.0
 40
6.0
 40
7.0
 40
7.0
 40
7.0
 40
8.0
 40
8.0
 40
8.0
 40
9.0
 40
9.0
 40
9.0
 40
10.0
 40
10.0
 40
10.0
 40
10.0
 10
0.6889478046925888
 20
-12.99527801191051
 30
0.0
 10
0.7975769410772575
 20
-13.12642715757761
 30
0.0
 10
0.8015760982767813
 20
-13.31511652971934
 30
0.0
 10
0.6986012686554406
 20
-13.45075049355344
 30
0.0
 10
0.6986012686554406
 20
-13.45075049355344
 30
0.0
 10
0.575696224999913
 20
-13.61263566789656
 30
0.0
 10
0.575696224999913
 20
-13.61263566789656
 30
0.0
 10
0.5080380086241753
 20
-13.70175212583811
 30
0.0
 10
0.403382282953468
 20
-13.75508658829403
 30
0.0
 10
0.2915174002763605
 20
-13.75745836881288
 30
0.0
 10
0.179652517599253
 20
-13.75983014933172
 30
0.0
 10
0.0728302434065426
 20
-13.7109794836513
 30
0.0
 10
0.0014555986898965
 20
-13.62481082687423
 30
0.0
 10
0.0014555986898965
 20
-13.62481082687423
 30
0.0
 10
-2.086241204834664
 20
-11.10439156550082
 30
0.0
 10
-2.086241204834664
 20
-11.10439156550082
 30
0.0
 10
-2.207146986643124
 20
-10.9584253213762
 30
0.0
 10
-2.196835125191279
 20
-10.74435762197178
 30
0.0
 10
-2.062459023251095
 20
-10.61068856898671
 30
0.0
 10
-2.062459023251095
 20
-10.61068856898671
 30
0.0
 10
-1.921522244441462
 20
-10.47049335955403
 30
0.0
 10
-1.921522244441462
 20
-10.47049335955403
 30
0.0
 10
-1.84849135356775
 20
-10.39784673652513
 30
0.0
 10
-1.748263459492629
 20
-10.35928195055817
 30
0.0
 10
-1.645372888782693
 20
-10.36423909876001
 30
0.0
 10
-1.54248231807277
 20
-10.36919624696182
 30
0.0
 10
-1.446426052085396
 20
-10.41721777580026
 30
0.0
 10
-1.380717263677853
 20
-10.49654871544756
 30
0.0
 10
-1.380717263677853
 20
-10.49654871544756
 30
0.0
 10
0.6889478046925888
 20
-12.99527801191051
 30
0.0
 10
0.6889478046925888
 20
-12.99527801191051
 30
0.0
  0
SPLINE
  5
4F
330
1F
100
AcDbEntity
  8
Layer 1
370
     0
100
AcDbSpline
210
0.0
220
0.0
230
1.0
 70
    11
 71
     3
 72
    35
 73
    31
 74
     0
 42
0.0000000001
 43
0.0000000001
 12
1.0
 22
0.0
 32
0.0
 13
1.0
 23
0.0
 33
0.0
 40
0.0
 40
0.0
 40
0.0
 40
0.0
 40
1.0
 40
1.0
 40
1.0
 40
2.0
 40
2.0
 40
2.0
 40
3.0
 40
3.0
 40
3.0
 40
4.0
 40
4.0
 40
4.0
 40
5.0
 40
5.0
 40
5.0
 40
6.0
 40
6.0
 40
6.0
 40
7.0
 40
7.0
 40
7.0
 40
8.0
 40
8.0
 40
8.0
 40
9.0
 40
9.0
 40
9.0
 40
10.0
 40
10.0
 40
10.0
 40
10.0
 10
2.255526750005755
 20
-10.93075325743113
 30
0.0
 10
2.364382272683719
 20
-11.06189903200811
 30
0.0
 10
2.368483137879341
 20
-11.25077096095561
 30
0.0
 10
2.265422500853927
 20
-11.38651794656782
 30
0.0
 10
2.265422500853927
 20
-11.38651794656782
 30
0.0
 10
2.142423708266935
 20
-11.54852660292325
 30
0.0
 10
2.142423708266935
 20
-11.54852660292325
 30
0.0
 10
2.074803554066269
 20
-11.63759292702434
 30
0.0
 10
1.970225057009164
 20
-11.69092028087274
 30
0.0
 10
1.85842427943122
 20
-11.69334545632475
 30
0.0
 10
1.746623501853277
 20
-11.69577063177677
 30
0.0
 10
1.639830916148374
 20
-11.64702832619264
 30
0.0
 10
1.568412143116802
 20
-11.56097802577672
 30
0.0
 10
1.568412143116802
 20
-11.56097802577672
 30
0.0
 10
-0.2916744104555846
 20
-9.319816494427691
 30
0.0
 10
-0.2916744104555846
 20
-9.319816494427691
 30
0.0
 10
-0.4128201801305901
 20
-9.173851653082085
 30
0.0
 10
-0.4025922444320713
 20
-8.95957310488542
 30
0.0
 10
-0.2680945408143821
 20
-8.825810628305614
 30
0.0
 10
-0.2680945408143821
 20
-8.825810628305614
 30
0.0
 10
-0.1271375193360756
 20
-8.685624143502512
 30
0.0
 10
-0.1271375193360756
 20
-8.685624143502512
 30
0.0
 10
-0.0541506567872021
 20
-8.613036261109553
 30
0.0
 10
0.045994039118783
 20
-8.574482596222044
 30
0.0
 10
0.148814352386858
 20
-8.579388302540286
 30
0.0
 10
0.2516346656549204
 20
-8.584294008858503
 30
0.0
 10
0.3476539148105581
 20
-8.632206940160485
 30
0.0
 10
0.413398425324696
 20
-8.71141389763443
 30
0.0
 10
0.413398425324696
 20
-8.71141389763443
 30
0.0
 10
2.255526750005755
 20
-10.93075325743113
 30
0.0
 10
2.255526750005755
 20
-10.93075325743113
 30
0.0
  0
SPLINE
  5
50
330
1F
100
AcDbEntity
  8
Layer 1
370
     0
100
AcDbSpline
210
0.0
220
0.0
230
1.0
 70
    11
 71
     3
 72
    35
 73
    31
 74
     0
 42
0.0000000001
 43
0.0000000001
 12
1.0
 22
0.0
 32
0.0
 13
1.0
 23
0.0
 33
0.0
 40
0.0
 40
0.0
 40
0.0
 40
0.0
 40
1.0
 40
1.0
 40
1.0
 40
2.0
 40
2.0
 40
2.0
 40
3.0
 40
3.0
 40
3.0
 40
4.0
 40
4.0
 40
4.0
 40
5.0
 40
5.0
 40
5.0
 40
6.0
 40
6.0
 40
6.0
 40
7.0
 40
7.0
 40
7.0
 40
8.0
 40
8.0
 40
8.0
 40
9.0
 40
9.0
 40
9.0
 40
10.0
 40
10.0
 40
10.0
 40
10.0
 10
3.822045215191527
 20
-8.866363125759511
 30
0.0
 10
3.931162883608017
 20
-8.997499062418228
 30
0.0
 10
3.93538844626111
 20
-9.186576594936165
 30
0.0
 10
3.832238126629843
 20
-9.32245636165655
 30
0.0
 10
3.832238126629843
 20
-9.32245636165655
 30
0.0
 10
3.709336465846061
 20
-9.484354541483299
 30
0.0
 10
3.709336465846061
 20
-9.484354541483299
 30
0.0
 10
3.64176730488268
 20
-9.573363299401004
 30
0.0
 10
3.537285638900496
 20
-9.626687381435733
 30
0.0
 10
3.425563122179495
 20
-9.629183329526615
 30
0.0
 10
3.313840605458495
 20
-9.631679277617472
 30
0.0
 10
3.207081786107652
 20
-9.583074434833305
 30
0.0
 10
3.135605005142515
 20
-9.497172046727908
 30
0.0
 10
3.135605005142515
 20
-9.497172046727908
 30
0.0
 10
1.503107701921433
 20
-7.535200410222942
 30
0.0
 10
1.503107701921433
 20
-7.535200410222942
 30
0.0
 10
1.381677333190105
 20
-7.389262687207342
 30
0.0
 10
1.391771537365533
 20
-7.174758749116285
 30
0.0
 10
1.526370113359727
 20
-7.040869329110314
 30
0.0
 10
1.526370113359727
 20
-7.040869329110314
 30
0.0
 10
1.66729239318248
 20
-6.900689522808332
 30
0.0
 10
1.66729239318248
 20
-6.900689522808332
 30
0.0
 10
1.740221386281696
 20
-6.8281447687829
 30
0.0
 10
1.840276535615089
 20
-6.789581986622756
 30
0.0
 10
1.943028695915725
 20
-6.794416541889429
 30
0.0
 10
2.045780856216374
 20
-6.799251097156103
 30
0.0
 10
2.141773195427997
 20
-6.847038039815565
 30
0.0
 10
2.207568531009403
 20
-6.926109862779286
 30
0.0
 10
2.207568531009403
 20
-6.926109862779286
 30
0.0
 10
3.822045215191527
 20
-8.866363125759511
 30
0.0
 10
3.822045215191527
 20
-8.866363125759511
 30
0.0
  0
SPLINE
  5
51
330
1F
100
AcDbEntity
  8
Layer 1
370
     0
100
AcDbSpline
210
0.0
220
0.0
230
1.0
 70
    11
 71
     3
 72
    35
 73
    31
 74
     0
 42
0.0000000001
 43
0.0000000001
 12
1.0
 22
0.0
 32
0.0
 13
1.0
 23
0.0
 33
0.0
 40
0.0
 40
0.0
 40
0.0
 40
0.0
 40
1.0
 40
1.0
 40
1.0
 40
2.0
 40
2.0
 40
2.0
 40
3.0
 40
3.0
 40
3.0
 40
4.0
 40
4.0
 40
4.0
 40
5.0
 40
5.0
 40
5.0
 40
6.0
 40
6.0
 40
6.0
 40
7.0
 40
7.0
 40
7.0
 40
8.0
 40
8.0
 40
8.0
 40
9.0
 40
9.0
 40
9.0
 40
10.0
 40
10.0
 40
10.0
 40
10.0
 10
5.388302380610765
 20
-6.802072520344861
 30
0.0
 10
5.497748725390466
 20
-6.933205753584994
 30
0.0
 10
5.502118466554192
 20
-7.12255145092806
 30
0.0
 10
5.398838034717679
 20
-7.258594016492351
 30
0.0
 10
5.398838034717679
 20
-7.258594016492351
 30
0.0
 10
5.276047787537309
 20
-7.420335209433258
 30
0.0
 10
5.276047787537309
 20
-7.420335209433258
 30
0.0
 10
5.208535835707607
 20
-7.509262985681339
 30
0.0
 10
5.104174056101656
 20
-7.562572580269816
 30
0.0
 10
4.992552484054259
 20
-7.56514895018664
 30
0.0
 10
4.880930912006836
 20
-7.567725320103464
 30
0.0
 10
4.774220671702728
 20
-7.519287540097113
 30
0.0
 10
4.702677665188654
 20
-7.433569331721022
 30
0.0
 10
4.702677665188654
 20
-7.433569331721022
 30
0.0
 10
3.298038761910005
 20
-5.750621744373827
 30
0.0
 10
3.298038761910005
 20
-5.750621744373827
 30
0.0
 10
3.176251575208791
 20
-5.604704205317931
 30
0.0
 10
3.186197410894932
 20
-5.389903603412058
 30
0.0
 10
3.320947334332724
 20
-5.255864410702505
 30
0.0
 10
3.320947334332724
 20
-5.255864410702505
 30
0.0
 10
3.46180532683771
 20
-5.115749365585063
 30
0.0
 10
3.46180532683771
 20
-5.115749365585063
 30
0.0
 10
3.534667038368815
 20
-5.043271958964699
 30
0.0
 10
3.634608118833246
 20
-5.004710646434331
 30
0.0
 10
3.737268749076684
 20
-5.009464431839281
 30
0.0
 10
3.839929379320135
 20
-5.014218217244244
 30
0.0
 10
3.935879197764456
 20
-5.061850419890801
 30
0.0
 10
4.00173122265672
 20
-5.14075108082117
 30
0.0
 10
4.00173122265672
 20
-5.14075108082117
 30
0.0
 10
5.388302380610765
 20
-6.802072520344861
 30
0.0
 10
5.388302380610765
 20
-6.802072520344861
 30
0.0
  0
SPLINE
  5
52
330
1F
100
AcDbEntity
  8
Layer 1
370
     0
100
AcDbSpline
210
0.0
220
0.0
230
1.0
 70
    11
 71
     3
 72
    35
 73
    31
 74
     0
 42
0.0000000001
 43
0.0000000001
 12
1.0
 22
0.0
 32
0.0
 13
1.0
 23
0.0
 33
0.0
 40
0.0
 40
0.0
 40
0.0
 40
0.0
 40
1.0
 40
1.0
 40
1.0
 40
2.0
 40
2.0
 40
2.0
 40
3.0
 40
3.0
 40
3.0
 40
4.0
 40
4.0
 40
4.0
 40
5.0
 40
5.0
 40
5.0
 40
6.0
 40
6.0
 40
6.0
 40
7.0
 40
7.0
 40
7.0
 40
8.0
 40
8.0
 40
8.0
 40
9.0
 40
9.0
 40
9.0
 40
10.0
 40
10.0
 40
10.0
 40
10.0
 10
6.954480034870508
 20
-4.737647355191572
 30
0.0
 10
7.064367492253723
 20
-4.868765855395572
 30
0.0
 10
7.068943470096378
 20
-5.058460863065989
 30
0.0
 10
6.96550604366919
 20
-5.194725360276417
 30
0.0
 10
6.96550604366919
 20
-5.194725360276417
 30
0.0
 10
6.842746123114188
 20
-5.356444569945564
 30
0.0
 10
6.842746123114188
 20
-5.356444569945564
 30
0.0
 10
6.775314610677797
 20
-5.44527625742718
 30
0.0
 10
6.671109108411176
 20
-5.498577041199547
 30
0.0
 10
6.559615376802791
 20
-5.501265048329135
 30
0.0
 10
6.448121645194406
 20
-5.503953055458724
 30
0.0
 10
6.341468641839911
 20
-5.455735868389651
 30
0.0
 10
6.269834666770318
 20
-5.370256916676251
 30
0.0
 10
6.269834666770318
 20
-5.370256916676251
 30
0.0
 10
5.093076218454093
 20
-3.966061791607975
 30
0.0
 10
5.093076218454093
 20
-3.966061791607975
 30
0.0
 10
4.970816672055131
 20
-3.82017266772521
 30
0.0
 10
4.980564717808798
 20
-3.604980119667731
 30
0.0
 10
5.115513783192783
 20
-3.47074233473015
 30
0.0
 10
5.115513783192783
 20
-3.47074233473015
 30
0.0
 10
5.256339949455423
 20
-3.330658425541476
 30
0.0
 10
5.256339949455423
 20
-3.330658425541476
 30
0.0
 10
5.329109587173207
 20
-3.2582723371299
 30
0.0
 10
5.428895108952323
 20
-3.219712557255409
 30
0.0
 10
5.53143098084302
 20
-3.224355933690668
 30
0.0
 10
5.633966852733717
 20
-3.228999310125914
 30
0.0
 10
5.729858697050354
 20
-3.276420414860568
 30
0.0
 10
5.795787832261945
 20
-3.35508753060377
 30
0.0
 10
5.795787832261945
 20
-3.35508753060377
 30
0.0
 10
6.954480034870508
 20
-4.737647355191572
 30
0.0
 10
6.954480034870508
 20
-4.737647355191572
 30
0.0
  0
SPLINE
  5
53
330
1F
100
AcDbEntity
  8
Layer 1
370
     0
100
AcDbSpline
210
0.0
220
0.0
230
1.0
 70
    11
 71
     3
 72
    35
 73
    31
 74
     0
 42
0.0000000001
 43
0.0000000001
 12
1.0
 22
0.0
 32
0.0
 13
1.0
 23
0.0
 33
0.0
 40
0.0
 40
0.0
 40
0.0
 40
0.0
 40
1.0
 40
1.0
 40
1.0
 40
2.0
 40
2.0
 40
2.0
 40
3.0
 40
3.0
 40
3.0
 40
4.0
 40
4.0
 40
4.0
 40
5.0
 40
5.0
 40
5.0
 40
6.0
 40
6.0
 40
6.0
 40
7.0
 40
7.0
 40
7.0
 40
8.0
 40
8.0
 40
8.0
 40
9.0
 40
9.0
 40
9.0
 40
10.0
 40
10.0
 40
10.0
 40
10.0
 10
8.52029673489503
 20
-2.673321606788552
 30
0.0
 10
8.63074404802243
 20
-2.804427702892958
 30
0.0
 10
8.63557282485946
 20
-2.994573901717293
 30
0.0
 10
8.531922483496448
 20
-3.131117023653688
 30
0.0
 10
8.531922483496448
 20
-3.131117023653688
 30
0.0
 10
8.409276609135734
 20
-3.292683790898397
 30
0.0
 10
8.409276609135734
 20
-3.292683790898397
 30
0.0
 10
8.341945476450467
 20
-3.381382032886424
 30
0.0
 10
8.23794419138206
 20
-3.434662754237807
 30
0.0
 10
8.126620956189146
 20
-3.437490627401732
 30
0.0
 10
8.01529772099626
 20
-3.44031850056567
 30
0.0
 10
7.908725402480614
 20
-3.392386846204431
 30
0.0
 10
7.836977724797785
 20
-3.307221534559555
 30
0.0
 10
7.836977724797785
 20
-3.307221534559555
 30
0.0
 10
6.888523204319249
 20
-2.181395202247472
 30
0.0
 10
6.888523204319249
 20
-2.181395202247472
 30
0.0
 10
6.765651124643934
 20
-2.035544642397074
 30
0.0
 10
6.775141919838688
 20
-1.819844021926706
 30
0.0
 10
6.910349167165956
 20
-1.685348914050627
 30
0.0
 10
6.910349167165956
 20
-1.685348914050627
 30
0.0
 10
7.051145434428841
 20
-1.545294223725983
 30
0.0
 10
7.051145434428841
 20
-1.545294223725983
 30
0.0
 10
7.123799731564784
 20
-1.473022598320376
 30
0.0
 10
7.223390430708782
 20
-1.434464968981211
 30
0.0
 10
7.325769803061272
 20
-1.438970393245401
 30
0.0
 10
7.428149175413737
 20
-1.443475817509579
 30
0.0
 10
7.52396781647907
 20
-1.490632854743113
 30
0.0
 10
7.589992607318638
 20
-1.569007351396522
 30
0.0
 10
7.589992607318638
 20
-1.569007351396522
 30
0.0
 10
8.52029673489503
 20
-2.673321606788552
 30
0.0
 10
8.52029673489503
 20
-2.673321606788552
 30
0.0
  0
SPLINE
  5
54
330
1F
100
AcDbEntity
  8
Layer 1
370
     0
100
AcDbSpline
210
0.0
220
0.0
230
1.0
 70
    11
 71
     3
 72
    35
 73
    31
 74
     0
 42
0.0000000001
 43
0.0000000001
 12
1.0
 22
0.0
 32
0.0
 13
1.0
 23
0.0
 33
0.0
 40
0.0
 40
0.0
 40
0.0
 40
0.0
 40
1.0
 40
1.0
 40
1.0
 40
2.0
 40
2.0
 40
2.0
 40
3.0
 40
3.0
 40
3.0
 40
4.0
 40
4.0
 40
4.0
 40
5.0
 40
5.0
 40
5.0
 40
6.0
 40
6.0
 40
6.0
 40
7.0
 40
7.0
 40
7.0
 40
8.0
 40
8.0
 40
8.0
 40
9.0
 40
9.0
 40
9.0
 40
10.0
 40
10.0
 40
10.0
 40
10.0
 10
10.08563494479414
 20
-0.6089516465728037
 30
0.0
 10
10.1968924349037
 20
-0.7400356147754412
 30
0.0
 10
10.20208958187876
 20
-0.9308331678751579
 30
0.0
 10
10.09813298294405
 20
-1.06777936666563
 30
0.0
 10
10.09813298294405
 20
-1.06777936666563
 30
0.0
 10
9.975524575426384
 20
-1.229296341262385
 30
0.0
 10
9.975524575426384
 20
-1.229296341262385
 30
0.0
 10
9.908334004664386
 20
-1.317809175990659
 30
0.0
 10
9.804617480021811
 20
-1.371062422869045
 30
0.0
 10
9.693532122885774
 20
-1.374085358680203
 30
0.0
 10
9.582446765749738
 20
-1.377108294491349
 30
0.0
 10
9.475987550668606
 20
-1.32957450323363
 30
0.0
 10
9.404082632944462
 20
-1.244846836453272
 30
0.0
 10
9.404082632944462
 20
-1.244846836453272
 30
0.0
 10
8.684441075945642
 20
-0.3968721502626901
 30
0.0
 10
8.684441075945642
 20
-0.3968721502626901
 30
0.0
 10
8.560720688051383
 20
-0.2510888000938394
 30
0.0
 10
8.569839341612754
 20
-0.0346952988940959
 30
0.0
 10
8.705385739470684
 20
0.100162750902339
 30
0.0
 10
8.705385739470684
 20
0.100162750902339
 30
0.0
 10
8.846143470458072
 20
0.2402056690079538
 30
0.0
 10
8.846143470458072
 20
0.2402056690079538
 30
0.0
 10
8.918628528518866
 20
0.3123226247068184
 30
0.0
 10
9.017941201426966
 20
0.3508860348969544
 30
0.0
 10
9.120100048363357
 20
0.3465838338351735
 30
0.0
 10
9.222258895299747
 20
0.3422816327733926
 30
0.0
 10
9.317977650494614
 20
0.2955048916557088
 30
0.0
 10
9.384142711265035
 20
0.2175489831266254
 30
0.0
 10
9.384142711265035
 20
0.2175489831266254
 30
0.0
 10
10.08563494479414
 20
-0.6089516465728037
 30
0.0
 10
10.08563494479414
 20
-0.6089516465728037
 30
0.0
  0
SPLINE
  5
55
330
1F
100
AcDbEntity
  8
Layer 1
370
     0
100
AcDbSpline
210
0.0
220
0.0
230
1.0
 70
    11
 71
     3
 72
    35
 73
    31
 74
     0
 42
0.0000000001
 43
0.0000000001
 12
1.0
 22
0.0
 32
0.0
 13
1.0
 23
0.0
 33
0.0
 40
0.0
 40
0.0
 40
0.0
 40
0.0
 40
1.0
 40
1.0
 40
1.0
 40
2.0
 40
2.0
 40
2.0
 40
3.0
 40
3.0
 40
3.0
 40
4.0
 40
4.0
 40
4.0
 40
5.0
 40
5.0
 40
5.0
 40
6.0
 40
6.0
 40
6.0
 40
7.0
 40
7.0
 40
7.0
 40
8.0
 40
8.0
 40
8.0
 40
9.0
 40
9.0
 40
9.0
 40
10.0
 40
10.0
 40
10.0
 40
10.0
 10
11.65008123130706
 20
1.455242805025642
 30
0.0
 10
11.76254634715608
 20
1.324186471356686
 30
0.0
 10
11.76828043474489
 20
1.132406520931909
 30
0.0
 10
11.6638462071623
 20
0.9948650472343085
 30
0.0
 10
11.6638462071623
 20
0.9948650472343085
 30
0.0
 10
11.54139157886966
 20
0.8335904304124773
 30
0.0
 10
11.54139157886966
 20
0.8335904304124773
 30
0.0
 10
11.47440776605663
 20
0.7453717252863169
 30
0.0
 10
11.37112429302526
 20
0.6921737375467197
 30
0.0
 10
11.26040655539532
 20
0.6888641020360258
 30
0.0
 10
11.14968881776538
 20
0.6855544665253445
 30
0.0
 10
11.043412153224
 20
0.732488167369436
 30
0.0
 10
10.97127848674621
 20
0.8165482962866311
 30
0.0
 10
10.97127848674621
 20
0.8165482962866311
 30
0.0
 10
10.4812802811172
 20
1.387562003832588
 30
0.0
 10
10.4812802811172
 20
1.387562003832588
 30
0.0
 10
10.35626113417629
 20
1.53325161205742
 30
0.0
 10
10.36482903429482
 20
1.750721230144285
 30
0.0
 10
10.50092267968042
 20
1.886123478028859
 30
0.0
 10
10.50092267968042
 20
1.886123478028859
 30
0.0
 10
10.64162840381927
 20
2.026114373890613
 30
0.0
 10
10.64162840381927
 20
2.026114373890613
 30
0.0
 10
10.71386784116165
 20
2.097986812712848
 30
0.0
 10
10.81276578455206
 20
2.136543815112557
 30
0.0
 10
10.91458963141149
 20
2.132532832621892
 30
0.0
 10
11.01641347827096
 20
2.128521850131228
 30
0.0
 10
11.11197205954926
 20
2.082304935641206
 30
0.0
 10
11.17833412152423
 20
2.004972791611534
 30
0.0
 10
11.17833412152423
 20
2.004972791611534
 30
0.0
 10
11.65008123130706
 20
1.455242805025642
 30
0.0
 10
11.65008123130706
 20
1.455242805025642
 30
0.0
  0
SPLINE
  5
56
330
1F
100
AcDbEntity
  8
Layer 1
370
     0
100
AcDbSpline
210
0.0
220
0.0
230
1.0
 70
    11
 71
     3
 72
    35
 73
    31
 74
     0
 42
0.0000000001
 43
0.0000000001
 12
1.0
 22
0.0
 32
0.0
 13
1.0
 23
0.0
 33
0.0
 40
0.0
 40
0.0
 40
0.0
 40
0.0
 40
1.0
 40
1.0
 40
1.0
 40
2.0
 40
2.0
 40
2.0
 40
3.0
 40
3.0
 40
3.0
 40
4.0
 40
4.0
 40
4.0
 40
5.0
 40
5.0
 40
5.0
 40
6.0
 40
6.0
 40
6.0
 40
7.0
 40
7.0
 40
7.0
 40
8.0
 40
8.0
 40
8.0
 40
9.0
 40
9.0
 40
9.0
 40
10.0
 40
10.0
 40
10.0
 40
10.0
 10
13.21282791626741
 20
3.519370980700033
 30
0.0
 10
13.32724890106558
 20
3.388406130578321
 30
0.0
 10
13.33389564004099
 20
3.195067947857486
 30
0.0
 10
13.22873900932318
 20
3.056554277970122
 30
0.0
 10
13.22873900932318
 20
3.056554277970122
 30
0.0
 10
13.10652107888083
 20
2.895567244094562
 30
0.0
 10
13.10652107888083
 20
2.895567244094562
 30
0.0
 10
13.03989170039537
 20
2.807802167624017
 30
0.0
 10
12.93731480991929
 20
2.754667519824946
 30
0.0
 10
12.82718857263239
 20
2.750873500021637
 30
0.0
 10
12.71706233534549
 20
2.747079480218329
 30
0.0
 10
12.61107185327774
 20
2.793028658312361
 30
0.0
 10
12.53856033622305
 20
2.876000114968633
 30
0.0
 10
12.53856033622305
 20
2.876000114968633
 30
0.0
 10
12.27988295724941
 20
3.171992252621483
 30
0.0
 10
12.27988295724941
 20
3.171992252621483
 30
0.0
 10
12.15270357734981
 20
3.317517526888612
 30
0.0
 10
12.160361451652
 20
3.536785796837446
 30
0.0
 10
12.29738342381718
 20
3.67308392325938
 30
0.0
 10
12.29738342381718
 20
3.67308392325938
 30
0.0
 10
12.4380660186615
 20
3.813023334395161
 30
0.0
 10
12.4380660186615
 20
3.813023334395161
 30
0.0
 10
12.50990703394973
 20
3.884484835272044
 30
0.0
 10
12.60812497839907
 20
3.923019415129589
 30
0.0
 10
12.7093935158577
 20
3.919475278252005
 30
0.0
 10
12.81066205331634
 20
3.915931141374421
 30
0.0
 10
12.90594577201296
 20
3.870624503803406
 30
0.0
 10
12.97261520169574
 20
3.794315495613091
 30
0.0
 10
12.97261520169574
 20
3.794315495613091
 30
0.0
 10
13.21282791626741
 20
3.519370980700033
 30
0.0
 10
13.21282791626741
 20
3.519370980700033
 30
0.0
  0
SPLINE
  5
57
330
1F
100
AcDbEntity
  8
Layer 1
370
     0
100
AcDbSpline
210
0.0
220
0.0
230
1.0
 70
    11
 71
     3
 72
    35
 73
    31
 74
     0
 42
0.0000000001
 43
0.0000000001
 12
1.0
 22
0.0
 32
0.0
 13
1.0
 23
0.0
 33
0.0
 40
0.0
 40
0.0
 40
0.0
 40
0.0
 40
1.0
 40
1.0
 40
1.0
 40
2.0
 40
2.0
 40
2.0
 40
3.0
 40
3.0
 40
3.0
 40
4.0
 40
4.0
 40
4.0
 40
5.0
 40
5.0
 40
5.0
 40
6.0
 40
6.0
 40
6.0
 40
7.0
 40
7.0
 40
7.0
 40
8.0
 40
8.0
 40
8.0
 40
9.0
 40
9.0
 40
9.0
 40
10.0
 40
10.0
 40
10.0
 40
10.0
 10
14.77141049124584
 20
5.583050933113049
 30
0.0
 10
14.88973274684001
 20
5.452329679521666
 30
0.0
 10
14.89822338083374
 20
5.255889753305433
 30
0.0
 10
14.79162153699751
 20
5.115446707197419
 30
0.0
 10
14.79162153699751
 20
5.115446707197419
 30
0.0
 10
14.669920570385
 20
4.955111258482146
 30
0.0
 10
14.669920570385
 20
4.955111258482146
 30
0.0
 10
14.60396897204626
 20
4.868223048737693
 30
0.0
 10
14.50274559341501
 20
4.815222561304191
 30
0.0
 10
14.39376384855862
 20
4.810515799777236
 30
0.0
 10
14.28478210370208
 20
4.805809038250282
 30
0.0
 10
14.17936613251666
 20
4.849885075603146
 30
0.0
 10
14.10616893299279
 20
4.930763653099903
 30
0.0
 10
14.10616893299279
 20
4.930763653099903
 30
0.0
 10
14.08288190041708
 20
4.956494447188902
 30
0.0
 10
14.08288190041708
 20
4.956494447188902
 30
0.0
 10
13.95153736290584
 20
5.101622395047141
 30
0.0
 10
13.9573919515282
 20
5.32433983026437
 30
0.0
 10
14.09617980166096
 20
5.462366789366771
 30
0.0
 10
14.09617980166096
 20
5.462366789366771
 30
0.0
 10
14.23660036085751
 20
5.602017506362497
 30
0.0
 10
14.23660036085751
 20
5.602017506362497
 30
0.0
 10
14.30765045773806
 20
5.672678077925272
 30
0.0
 10
14.40453058007291
 20
5.7111713053443
 30
0.0
 10
14.50470101921029
 20
5.70854152144889
 30
0.0
 10
14.60487145834764
 20
5.705911737553479
 30
0.0
 10
14.69959838773876
 20
5.662388232307825
 30
0.0
 10
14.76684305125402
 20
5.588096995482513
 30
0.0
 10
14.76684305125402
 20
5.588096995482513
 30
0.0
 10
14.77141049124584
 20
5.583050933113049
 30
0.0
 10
14.77141049124584
 20
5.583050933113049
 30
0.0
  0
SPLINE
  5
58
330
1F
100
AcDbEntity
  8
Layer 1
370
     0
100
AcDbSpline
210
0.0
220
0.0
230
1.0
 70
    11
 71
     3
 72
    29
 73
    25
 74
     0
 42
0.0000000001
 43
0.0000000001
 12
1.0
 22
0.0
 32
0.0
 13
1.0
 23
0.0
 33
0.0
 40
0.0
 40
0.0
 40
0.0
 40
0.0
 40
1.0
 40
1.0
 40
1.0
 40
2.0
 40
2.0
 40
2.0
 40
3.0
 40
3.0
 40
3.0
 40
4.0
 40
4.0
 40
4.0
 40
5.0
 40
5.0
 40
5.0
 40
6.0
 40
6.0
 40
6.0
 40
7.0
 40
7.0
 40
7.0
 40
8.0
 40
8.0
 40
8.0
 40
8.0
 10
16.42944991462279
 20
7.530334652417233
 30
0.0
 10
16.49301931234736
 20
7.46676609861634
 30
0.0
 10
16.49989352349833
 20
7.366024570154296
 30
0.0
 10
16.44554849825487
 20
7.294409993490818
 30
0.0
 10
16.44554849825487
 20
7.294409993490818
 30
0.0
 10
16.12270799766262
 20
6.868978490309511
 30
0.0
 10
16.12270799766262
 20
6.868978490309511
 30
0.0
 10
16.08481018835027
 20
6.819037662088022
 30
0.0
 10
16.02716549568277
 20
6.78792764739852
 30
0.0
 10
15.96461858064056
 20
6.783659897075268
 30
0.0
 10
15.90207166559834
 20
6.779392146752027
 30
0.0
 10
15.84073546783
 20
6.802383763703207
 30
0.0
 10
15.7964052846918
 20
6.846713946841355
 30
0.0
 10
15.75564224970918
 20
6.887476981824054
 30
0.0
 10
15.73277442218485
 20
6.942784642619623
 30
0.0
 10
15.73284802708501
 20
7.000432232545954
 30
0.0
 10
15.73292163198499
 20
7.058079822472286
 30
0.0
 10
15.75593061923918
 20
7.113328907386871
 30
0.0
 10
15.79679761427805
 20
7.153987716499753
 30
0.0
 10
15.79679761427805
 20
7.153987716499753
 30
0.0
 10
16.1753967557025
 20
7.530658186319796
 30
0.0
 10
16.1753967557025
 20
7.530658186319796
 30
0.0
 10
16.24569332430403
 20
7.600596647939723
 30
0.0
 10
16.35933170546514
 20
7.600451930711667
 30
0.0
 10
16.42944991462279
 20
7.530334652417233
 30
0.0
  0
ENDSEC
  0
SECTION
  2
OBJECTS
  0
DICTIONARY
  5
C
330
0
100
AcDbDictionary
281
     1
  3
ACAD_GROUP
350
D
  3
ACAD_LAYOUT
350
1A
  3
ACAD_MATERIAL
350
3B
  3
ACAD_MLEADERSTYLE
350
5A
  3
ACAD_MLINESTYLE
350
17
  3
ACAD_PLOTSETTINGS
350
19
  3
ACAD_PLOTSTYLENAME
350
E
  3
ACAD_TABLESTYLE
350
59
  3
ACAD_VISUALSTYLE
350
2A
  0
SUN
  5
3F
330
29
100
AcDbSun
 90
        1
290
     0
 63
     7
421
 16777215
 40
1.0
291
     1
 91
  2455826
 92
 54000000
292
     0
 70
     2
 71
   256
280
     1
  0
DICTIONARY
  5
D
102
{ACAD_REACTORS
330
C
102
}
330
C
100
AcDbDictionary
281
     1
  0
DICTIONARY
  5
1A
102
{ACAD_REACTORS
330
C
102
}
330
C
100
AcDbDictionary
281
     1
  3
Layout1
350
1E
  3
Layout2
350
26
  3
Model
350
22
  0
DICTIONARY
  5
3B
102
{ACAD_REACTORS
330
C
102
}
330
C
100
AcDbDictionary
281
     1
  3
ByBlock
350
3D
  3
ByLayer
350
3C
  3
Global
350
3E
  0
DICTIONARY
  5
5A
102
{ACAD_REACTORS
330
C
102
}
330
C
100
AcDbDictionary
281
     1
  0
DICTIONARY
  5
17
102
{ACAD_REACTORS
330
C
102
}
330
C
100
AcDbDictionary
281
     1
  3
Standard
350
18
  0
DICTIONARY
  5
19
102
{ACAD_REACTORS
330
C
102
}
330
C
100
AcDbDictionary
281
     1
  0
ACDBDICTIONARYWDFLT
  5
E
102
{ACAD_REACTORS
330
C
102
}
330
C
100
AcDbDictionary
281
     1
  3
Normal
350
F
100
AcDbDictionaryWithDefault
340
F
  0
DICTIONARY
  5
59
102
{ACAD_REACTORS
330
C
102
}
330
C
100
AcDbDictionary
281
     1
  0
DICTIONARY
  5
2A
102
{ACAD_REACTORS
330
C
102
}
330
C
100
AcDbDictionary
281
     1
  3
2dWireframe
350
2F
  3
3D Hidden
350
31
  3
3dWireframe
350
30
  3
Basic
350
32
  3
Brighten
350
36
  3
ColorChange
350
3A
  3
Conceptual
350
34
  3
Dim
350
35
  3
Facepattern
350
39
  3
Flat
350
2B
  3
FlatWithEdges
350
2C
  3
Gouraud
350
2D
  3
GouraudWithEdges
350
2E
  3
Linepattern
350
38
  3
Realistic
350
33
  3
Thicken
350
37
  0
LAYOUT
  5
1E
102
{ACAD_REACTORS
330
1A
102
}
330
1A
100
AcDbPlotSettings
  1

  2
none_device
  4

  6

 40
0.0
 41
0.0
 42
0.0
 43
0.0
 44
0.0
 45
0.0
 46
0.0
 47
0.0
 48
0.0
 49
0.0
140
0.0
141
0.0
142
1.0
143
1.0
 70
   688
 72
     0
 73
     0
 74
     5
  7

 75
    16
 76
     0
 77
     2
 78
   300
147
1.0
148
0.0
149
0.0
100
AcDbLayout
  1
Layout1
 70
     1
 71
     1
 10
0.0
 20
0.0
 11
12.0
 21
9.0
 12
0.0
 22
0.0
 32
0.0
 14
1.000000000000000E+20
 24
1.000000000000000E+20
 34
1.000000000000000E+20
 15
-1.000000000000000E+20
 25
-1.000000000000000E+20
 35
-1.000000000000000E+20
146
0.0
 13
0.0
 23
0.0
 33
0.0
 16
1.0
 26
0.0
 36
0.0
 17
0.0
 27
1.0
 37
0.0
 76
     0
330
1B
  0
LAYOUT
  5
26
102
{ACAD_REACTORS
330
1A
102
}
330
1A
100
AcDbPlotSettings
  1

  2
none_device
  4

  6

 40
0.0
 41
0.0
 42
0.0
 43
0.0
 44
0.0
 45
0.0
 46
0.0
 47
0.0
 48
0.0
 49
0.0
140
0.0
141
0.0
142
1.0
143
1.0
 70
   688
 72
     0
 73
     0
 74
     5
  7

 75
    16
 76
     0
 77
     2
 78
   300
147
1.0
148
0.0
149
0.0
100
AcDbLayout
  1
Layout2
 70
     1
 71
     2
 10
0.0
 20
0.0
 11
0.0
 21
0.0
 12
0.0
 22
0.0
 32
0.0
 14
0.0
 24
0.0
 34
0.0
 15
0.0
 25
0.0
 35
0.0
146
0.0
 13
0.0
 23
0.0
 33
0.0
 16
1.0
 26
0.0
 36
0.0
 17
0.0
 27
1.0
 37
0.0
 76
     0
330
23
  0
LAYOUT
  5
22
102
{ACAD_REACTORS
330
1A
102
}
330
1A
100
AcDbPlotSettings
  1

  2
none_device
  4

  6

 40
0.0
 41
0.0
 42
0.0
 43
0.0
 44
0.0
 45
0.0
 46
0.0
 47
0.0
 48
0.0
 49
0.0
140
0.0
141
0.0
142
1.0
143
1.0
 70
  1712
 72
     0
 73
     0
 74
     0
  7

 75
     0
 76
     0
 77
     2
 78
   300
147
1.0
148
0.0
149
0.0
100
AcDbLayout
  1
Model
 70
     1
 71
     0
 10
0.0
 20
0.0
 11
12.0
 21
9.0
 12
0.0
 22
0.0
 32
0.0
 14
1.000000000000000E+20
 24
1.000000000000000E+20
 34
1.000000000000000E+20
 15
-1.000000000000000E+20
 25
-1.000000000000000E+20
 35
-1.000000000000000E+20
146
0.0
 13
0.0
 23
0.0
 33
0.0
 16
1.0
 26
0.0
 36
0.0
 17
0.0
 27
1.0
 37
0.0
 76
     0
330
1F
331
29
  0
MATERIAL
  5
3D
102
{ACAD_REACTORS
330
3B
102
}
330
3B
100
AcDbMaterial
  1
ByBlock
 72
     1
 94
      127
  0
MATERIAL
  5
3C
102
{ACAD_REACTORS
330
3B
102
}
330
3B
100
AcDbMaterial
  1
ByLayer
 72
     1
 94
      127
  0
MATERIAL
  5
3E
102
{ACAD_REACTORS
330
3B
102
}
330
3B
100
AcDbMaterial
  1
Global
 72
     1
 94
      127
  0
MLINESTYLE
  5
18
102
{ACAD_REACTORS
330
17
102
}
330
17
100
AcDbMlineStyle
  2
Standard
 70
     0
  3

 62
   256
 51
90.0
 52
90.0
 71
     2
 49
0.5
 62
   256
  6
BYLAYER
 49
-0.5
 62
   256
  6
BYLAYER
  0
ACDBPLACEHOLDER
  5
F
102
{ACAD_REACTORS
330
E
102
}
330
E
  0
VISUALSTYLE
  5
2F
102
{ACAD_REACTORS
330
2A
102
}
330
2A
100
AcDbVisualStyle
  2
2dWireframe
 70
     4
177
     2
291
     0
 71
     0
176
     1
 72
     2
176
     1
 73
     0
176
     1
 90
        0
176
     1
 40
-0.6
176
     1
 41
-30.0
176
     1
 62
     5
 63
     7
421
 16777215
176
     1
 74
     1
176
     1
 91
        4
176
     1
 64
     7
176
     1
 65
   257
176
     1
 75
     1
176
     1
175
     1
176
     1
 42
1.0
176
     1
 92
        0
176
     1
 66
   257
176
     1
 43
1.0
176
     1
 76
     1
176
     1
 77
     6
176
     1
 78
     2
176
     1
 67
     7
176
     1
 79
     5
176
     1
170
     0
176
     1
171
     0
176
     1
290
     0
176
     1
 93
        1
176
     1
 44
0.0
176
     1
173
     0
176
     1
  0
VISUALSTYLE
  5
31
102
{ACAD_REACTORS
330
2A
102
}
330
2A
100
AcDbVisualStyle
  2
3D Hidden
 70
     6
177
     2
291
     0
 71
     1
176
     1
 72
     2
176
     1
 73
     2
176
     1
 90
        0
176
     1
 40
-0.6
176
     1
 41
-30.0
176
     1
 62
     5
 63
     7
421
 16777215
176
     1
 74
     2
176
     1
 91
        2
176
     1
 64
     7
176
     1
 65
   257
176
     1
 75
     2
176
     1
175
     1
176
     1
 42
40.0
176
     1
 92
        0
176
     1
 66
   257
176
     1
 43
1.0
176
     1
 76
     1
176
     1
 77
     6
176
     1
 78
     2
176
     1
 67
     7
176
     1
 79
     3
176
     1
170
     0
176
     1
171
     0
176
     1
290
     0
176
     1
 93
        1
176
     1
 44
0.0
176
     1
173
     0
176
     1
  0
VISUALSTYLE
  5
30
102
{ACAD_REACTORS
330
2A
102
}
330
2A
100
AcDbVisualStyle
  2
3dWireframe
 70
     5
177
     2
291
     0
 71
     0
176
     1
 72
     2
176
     1
 73
     0
176
     1
 90
        0
176
     1
 40
-0.6
176
     1
 41
-30.0
176
     1
 62
     5
 63
     7
421
 16777215
176
     1
 74
     1
176
     1
 91
        4
176
     1
 64
     7
176
     1
 65
   257
176
     1
 75
     1
176
     1
175
     1
176
     1
 42
1.0
176
     1
 92
        0
176
     1
 66
   257
176
     1
 43
1.0
176
     1
 76
     1
176
     1
 77
     6
176
     1
 78
     2
176
     1
 67
     7
176
     1
 79
     5
176
     1
170
     0
176
     1
171
     0
176
     1
290
     0
176
     1
 93
        1
176
     1
 44
0.0
176
     1
173
     0
176
     1
  0
VISUALSTYLE
  5
32
102
{ACAD_REACTORS
330
2A
102
}
330
2A
100
AcDbVisualStyle
  2
Basic
 70
     7
177
     2
291
     1
 71
     1
176
     1
 72
     0
176
     1
 73
     1
176
     1
 90
        0
176
     1
 40
-0.6
176
     1
 41
-30.0
176
     1
 62
     5
 63
     7
421
 16777215
176
     1
 74
     0
176
     1
 91
        4
176
     1
 64
     7
176
     1
 65
   257
176
     1
 75
     1
176
     1
175
     1
176
     1
 42
1.0
176
     1
 92
        8
176
     1
 66
     7
176
     1
 43
1.0
176
     1
 76
     1
176
     1
 77
     6
176
     1
 78
     2
176
     1
 67
     7
176
     1
 79
     5
176
     1
170
     0
176
     1
171
     0
176
     1
290
     0
176
     1
 93
        1
176
     1
 44
0.0
176
     1
173
     0
176
     1
  0
VISUALSTYLE
  5
36
102
{ACAD_REACTORS
330
2A
102
}
330
2A
100
AcDbVisualStyle
  2
Brighten
 70
    12
177
     2
291
     1
 71
     2
176
     1
 72
     2
176
     1
 73
     0
176
     1
 90
        0
176
     1
 40
-0.6
176
     1
 41
-30.0
176
     1
 62
     5
 63
     7
421
 16777215
176
     1
 74
     1
176
     1
 91
        4
176
     1
 64
     7
176
     1
 65
   257
176
     1
 75
     1
176
     1
175
     1
176
     1
 42
1.0
176
     1
 92
        8
176
     1
 66
     7
176
     1
 43
1.0
176
     1
 76
     1
176
     1
 77
     6
176
     1
 78
     2
176
     1
 67
     7
176
     1
 79
     5
176
     1
170
     0
176
     1
171
     0
176
     1
290
     0
176
     1
 93
        1
176
     1
 44
50.0
176
     1
173
     0
176
     1
  0
VISUALSTYLE
  5
3A
102
{ACAD_REACTORS
330
2A
102
}
330
2A
100
AcDbVisualStyle
  2
ColorChange
 70
    16
177
     2
291
     1
 71
     2
176
     1
 72
     2
176
     1
 73
     3
176
     1
 90
        0
176
     1
 40
-0.6
176
     1
 41
-30.0
176
     1
 62
     5
 63
     8
421
  8421504
176
     1
 74
     1
176
     1
 91
        4
176
     1
 64
     7
176
     1
 65
   257
176
     1
 75
     1
176
     1
175
     1
176
     1
 42
1.0
176
     1
 92
        8
176
     1
 66
     8
424
  8421504
176
     1
 43
1.0
176
     1
 76
     1
176
     1
 77
     6
176
     1
 78
     2
176
     1
 67
     7
176
     1
 79
     5
176
     1
170
     0
176
     1
171
     0
176
     1
290
     0
176
     1
 93
        1
176
     1
 44
0.0
176
     1
173
     0
176
     1
  0
VISUALSTYLE
  5
34
102
{ACAD_REACTORS
330
2A
102
}
330
2A
100
AcDbVisualStyle
  2
Conceptual
 70
     9
177
     2
291
     0
 71
     3
176
     1
 72
     2
176
     1
 73
     0
176
     1
 90
        0
176
     1
 40
-0.6
176
     1
 41
-30.0
176
     1
 62
     5
 63
     7
421
 16777215
176
     1
 74
     2
176
     1
 91
        2
176
     1
 64
     7
176
     1
 65
   257
176
     1
 75
     1
176
     1
175
     1
176
     1
 42
40.0
176
     1
 92
        8
176
     1
 66
     7
176
     1
 43
1.0
176
     1
 76
     1
176
     1
 77
     6
176
     1
 78
     2
176
     1
 67
     7
176
     1
 79
     3
176
     1
170
     0
176
     1
171
     0
176
     1
290
     0
176
     1
 93
        1
176
     1
 44
0.0
176
     1
173
     0
176
     1
  0
VISUALSTYLE
  5
35
102
{ACAD_REACTORS
330
2A
102
}
330
2A
100
AcDbVisualStyle
  2
Dim
 70
    11
177
     2
291
     1
 71
     2
176
     1
 72
     2
176
     1
 73
     0
176
     1
 90
        0
176
     1
 40
-0.6
176
     1
 41
-30.0
176
     1
 62
     5
 63
     7
421
 16777215
176
     1
 74
     1
176
     1
 91
        4
176
     1
 64
     7
176
     1
 65
   257
176
     1
 75
     1
176
     1
175
     1
176
     1
 42
1.0
176
     1
 92
        8
176
     1
 66
     7
176
     1
 43
1.0
176
     1
 76
     1
176
     1
 77
     6
176
     1
 78
     2
176
     1
 67
     7
176
     1
 79
     5
176
     1
170
     0
176
     1
171
     0
176
     1
290
     0
176
     1
 93
        1
176
     1
 44
-50.0
176
     1
173
     0
176
     1
  0
VISUALSTYLE
  5
39
102
{ACAD_REACTORS
330
2A
102
}
330
2A
100
AcDbVisualStyle
  2
Facepattern
 70
    15
177
     2
291
     1
 71
     2
176
     1
 72
     2
176
     1
 73
     0
176
     1
 90
        0
176
     1
 40
-0.6
176
     1
 41
-30.0
176
     1
 62
     5
 63
     7
421
 16777215
176
     1
 74
     1
176
     1
 91
        4
176
     1
 64
     7
176
     1
 65
   257
176
     1
 75
     1
176
     1
175
     1
176
     1
 42
1.0
176
     1
 92
        8
176
     1
 66
     7
176
     1
 43
1.0
176
     1
 76
     1
176
     1
 77
     6
176
     1
 78
     2
176
     1
 67
     7
176
     1
 79
     5
176
     1
170
     0
176
     1
171
     0
176
     1
290
     0
176
     1
 93
        1
176
     1
 44
0.0
176
     1
173
     0
176
     1
  0
VISUALSTYLE
  5
2B
102
{ACAD_REACTORS
330
2A
102
}
330
2A
100
AcDbVisualStyle
  2
Flat
 70
     0
177
     2
291
     1
 71
     2
176
     1
 72
     1
176
     1
 73
     1
176
     1
 90
        2
176
     1
 40
-0.6
176
     1
 41
30.0
176
     1
 62
     5
 63
     7
421
 16777215
176
     1
 74
     0
176
     1
 91
        4
176
     1
 64
     7
176
     1
 65
   257
176
     1
 75
     1
176
     1
175
     1
176
     1
 42
1.0
176
     1
 92
        8
176
     1
 66
     7
176
     1
 43
1.0
176
     1
 76
     1
176
     1
 77
     6
176
     1
 78
     2
176
     1
 67
     7
176
     1
 79
     5
176
     1
170
     0
176
     1
171
     0
176
     1
290
     0
176
     1
 93
       13
176
     1
 44
0.0
176
     1
173
     0
176
     1
  0
VISUALSTYLE
  5
2C
102
{ACAD_REACTORS
330
2A
102
}
330
2A
100
AcDbVisualStyle
  2
FlatWithEdges
 70
     1
177
     2
291
     1
 71
     2
176
     1
 72
     1
176
     1
 73
     1
176
     1
 90
        2
176
     1
 40
-0.6
176
     1
 41
30.0
176
     1
 62
     5
 63
     7
421
 16777215
176
     1
 74
     1
176
     1
 91
        4
176
     1
 64
     7
176
     1
 65
   257
176
     1
 75
     1
176
     1
175
     1
176
     1
 42
1.0
176
     1
 92
        0
176
     1
 66
   257
176
     1
 43
1.0
176
     1
 76
     1
176
     1
 77
     6
176
     1
 78
     2
176
     1
 67
     7
176
     1
 79
     5
176
     1
170
     0
176
     1
171
     0
176
     1
290
     0
176
     1
 93
       13
176
     1
 44
0.0
176
     1
173
     0
176
     1
  0
VISUALSTYLE
  5
2D
102
{ACAD_REACTORS
330
2A
102
}
330
2A
100
AcDbVisualStyle
  2
Gouraud
 70
     2
177
     2
291
     1
 71
     2
176
     1
 72
     2
176
     1
 73
     1
176
     1
 90
        2
176
     1
 40
-0.6
176
     1
 41
30.0
176
     1
 62
     5
 63
     7
421
 16777215
176
     1
 74
     0
176
     1
 91
        4
176
     1
 64
     7
176
     1
 65
   257
176
     1
 75
     1
176
     1
175
     1
176
     1
 42
1.0
176
     1
 92
        0
176
     1
 66
     7
176
     1
 43
1.0
176
     1
 76
     1
176
     1
 77
     6
176
     1
 78
     2
176
     1
 67
     7
176
     1
 79
     5
176
     1
170
     0
176
     1
171
     0
176
     1
290
     0
176
     1
 93
       13
176
     1
 44
0.0
176
     1
173
     0
176
     1
  0
VISUALSTYLE
  5
2E
102
{ACAD_REACTORS
330
2A
102
}
330
2A
100
AcDbVisualStyle
  2
GouraudWithEdges
 70
     3
177
     2
291
     1
 71
     2
176
     1
 72
     2
176
     1
 73
     1
176
     1
 90
        2
176
     1
 40
-0.6
176
     1
 41
30.0
176
     1
 62
     5
 63
     7
421
 16777215
176
     1
 74
     1
176
     1
 91
        4
176
     1
 64
     7
176
     1
 65
   257
176
     1
 75
     1
176
     1
175
     1
176
     1
 42
1.0
176
     1
 92
        0
176
     1
 66
   257
176
     1
 43
1.0
176
     1
 76
     1
176
     1
 77
     6
176
     1
 78
     2
176
     1
 67
     7
176
     1
 79
     5
176
     1
170
     0
176
     1
171
     0
176
     1
290
     0
176
     1
 93
       13
176
     1
 44
0.0
176
     1
173
     0
176
     1
  0
VISUALSTYLE
  5
38
102
{ACAD_REACTORS
330
2A
102
}
330
2A
100
AcDbVisualStyle
  2
Linepattern
 70
    14
177
     2
291
     1
 71
     2
176
     1
 72
     2
176
     1
 73
     0
176
     1
 90
        0
176
     1
 40
-0.6
176
     1
 41
-30.0
176
     1
 62
     5
 63
     7
421
 16777215
176
     1
 74
     1
176
     1
 91
        4
176
     1
 64
     7
176
     1
 65
   257
176
     1
 75
     7
176
     1
175
     7
176
     1
 42
1.0
176
     1
 92
        8
176
     1
 66
     7
176
     1
 43
1.0
176
     1
 76
     1
176
     1
 77
     6
176
     1
 78
     2
176
     1
 67
     7
176
     1
 79
     5
176
     1
170
     0
176
     1
171
     0
176
     1
290
     0
176
     1
 93
        1
176
     1
 44
0.0
176
     1
173
     0
176
     1
  0
VISUALSTYLE
  5
33
102
{ACAD_REACTORS
330
2A
102
}
330
2A
100
AcDbVisualStyle
  2
Realistic
 70
     8
177
     2
291
     0
 71
     2
176
     1
 72
     2
176
     1
 73
     0
176
     1
 90
        0
176
     1
 40
-0.6
176
     1
 41
-30.0
176
     1
 62
     5
 63
     7
421
 16777215
176
     1
 74
     1
176
     1
 91
        0
176
     1
 64
     7
176
     1
 65
   257
176
     1
 75
     1
176
     1
175
     1
176
     1
 42
1.0
176
     1
 92
        8
176
     1
 66
     8
424
  7895160
176
     1
 43
1.0
176
     1
 76
     1
176
     1
 77
     6
176
     1
 78
     2
176
     1
 67
     7
176
     1
 79
     5
176
     1
170
     0
176
     1
171
     0
176
     1
290
     0
176
     1
 93
       13
176
     1
 44
0.0
176
     1
173
     0
176
     1
  0
VISUALSTYLE
  5
37
102
{ACAD_REACTORS
330
2A
102
}
330
2A
100
AcDbVisualStyle
  2
Thicken
 70
    13
177
     2
291
     1
 71
     2
176
     1
 72
     2
176
     1
 73
     0
176
     1
 90
        0
176
     1
 40
-0.6
176
     1
 41
-30.0
176
     1
 62
     5
 63
     7
421
 16777215
176
     1
 74
     1
176
     1
 91
        4
176
     1
 64
     7
176
     1
 65
   257
176
     1
 75
     1
176
     1
175
     1
176
     1
 42
1.0
176
     1
 92
       12
176
     1
 66
     7
176
     1
 43
1.0
176
     1
 76
     1
176
     1
 77
     6
176
     1
 78
     2
176
     1
 67
     7
176
     1
 79
     5
176
     1
170
     0
176
     1
171
     0
176
     1
290
     0
176
     1
 93
        1
176
     1
 44
0.0
176
     1
173
     0
176
     1
  0
ENDSEC
  0
EOF
