  0
SECTION
  2
HEADER
  9
$ACADVER
  1
AC1024
  9
$ACADMAINTVER
 70
     6
  9
$DWGCODEPAGE
  3
ANSI_1252
  9
$INSBASE
 10
0.0
 20
0.0
 30
0.0
  9
$EXTMIN
 10
1.000000000000000E+20
 20
1.000000000000000E+20
 30
1.000000000000000E+20
  9
$EXTMAX
 10
-1.000000000000000E+20
 20
-1.000000000000000E+20
 30
-1.000000000000000E+20
  9
$LIMMIN
 10
0.0
 20
0.0
  9
$LIMMAX
 10
12.0
 20
9.0
  9
$ORTHOMODE
 70
     0
  9
$REGENMODE
 70
     1
  9
$FILLMODE
 70
     1
  9
$QTEXTMODE
 70
     0
  9
$MIRRTEXT
 70
     1
  9
$LTSCALE
 40
1.0
  9
$ATTMODE
 70
     1
  9
$TEXTSIZE
 40
0.2
  9
$TRACEWID
 40
0.05
  9
$TEXTSTYLE
  7
Standard
  9
$CLAYER
  8
0
  9
$CELTYPE
  6
ByLayer
  9
$CECOLOR
 62
   256
  9
$CELTSCALE
 40
1.0
  9
$DISPSILH
 70
     0
  9
$DIMSCALE
 40
1.0
  9
$DIMASZ
 40
0.18
  9
$DIMEXO
 40
0.0625
  9
$DIMDLI
 40
0.38
  9
$DIMRND
 40
0.0
  9
$DIMDLE
 40
0.0
  9
$DIMEXE
 40
0.18
  9
$DIMTP
 40
0.0
  9
$DIMTM
 40
0.0
  9
$DIMTXT
 40
0.18
  9
$DIMCEN
 40
0.09
  9
$DIMTSZ
 40
0.0
  9
$DIMTOL
 70
     0
  9
$DIMLIM
 70
     0
  9
$DIMTIH
 70
     1
  9
$DIMTOH
 70
     1
  9
$DIMSE1
 70
     0
  9
$DIMSE2
 70
     0
  9
$DIMTAD
 70
     0
  9
$DIMZIN
 70
     0
  9
$DIMBLK
  1

  9
$DIMASO
 70
     1
  9
$DIMSHO
 70
     1
  9
$DIMPOST
  1

  9
$DIMAPOST
  1

  9
$DIMALT
 70
     0
  9
$DIMALTD
 70
     2
  9
$DIMALTF
 40
25.4
  9
$DIMLFAC
 40
1.0
  9
$DIMTOFL
 70
     0
  9
$DIMTVP
 40
0.0
  9
$DIMTIX
 70
     0
  9
$DIMSOXD
 70
     0
  9
$DIMSAH
 70
     0
  9
$DIMBLK1
  1

  9
$DIMBLK2
  1

  9
$DIMSTYLE
  2
Standard
  9
$DIMCLRD
 70
     0
  9
$DIMCLRE
 70
     0
  9
$DIMCLRT
 70
     0
  9
$DIMTFAC
 40
1.0
  9
$DIMGAP
 40
0.09
  9
$DIMJUST
 70
     0
  9
$DIMSD1
 70
     0
  9
$DIMSD2
 70
     0
  9
$DIMTOLJ
 70
     1
  9
$DIMTZIN
 70
     0
  9
$DIMALTZ
 70
     0
  9
$DIMALTTZ
 70
     0
  9
$DIMUPT
 70
     0
  9
$DIMDEC
 70
     4
  9
$DIMTDEC
 70
     4
  9
$DIMALTU
 70
     2
  9
$DIMALTTD
 70
     2
  9
$DIMTXSTY
  7
Standard
  9
$DIMAUNIT
 70
     0
  9
$DIMADEC
 70
     0
  9
$DIMALTRND
 40
0.0
  9
$DIMAZIN
 70
     0
  9
$DIMDSEP
 70
    46
  9
$DIMATFIT
 70
     3
  9
$DIMFRAC
 70
     0
  9
$DIMLDRBLK
  1

  9
$DIMLUNIT
 70
     2
  9
$DIMLWD
 70
    -2
  9
$DIMLWE
 70
    -2
  9
$DIMTMOVE
 70
     0
  9
$DIMFXL
 40
1.0
  9
$DIMFXLON
 70
     0
  9
$DIMJOGANG
 40
0.7853981633974483
  9
$DIMTFILL
 70
     0
  9
$DIMTFILLCLR
 70
     0
  9
$DIMARCSYM
 70
     0
  9
$DIMLTYPE
  6

  9
$DIMLTEX1
  6

  9
$DIMLTEX2
  6

  9
$DIMTXTDIRECTION
 70
     0
  9
$LUNITS
 70
     2
  9
$LUPREC
 70
     4
  9
$SKETCHINC
 40
0.1
  9
$FILLETRAD
 40
0.5
  9
$AUNITS
 70
     0
  9
$AUPREC
 70
     0
  9
$MENU
  1
.
  9
$ELEVATION
 40
0.0
  9
$PELEVATION
 40
0.0
  9
$THICKNESS
 40
0.0
  9
$LIMCHECK
 70
     0
  9
$CHAMFERA
 40
0.5
  9
$CHAMFERB
 40
0.5
  9
$CHAMFERC
 40
1.0
  9
$CHAMFERD
 40
0.0
  9
$SKPOLY
 70
     0
  9
$TDCREATE
 40
2457238.340066609
  9
$TDUCREATE
 40
2457238.631733275
  9
$TDUPDATE
 40
2457238.340067153
  9
$TDUUPDATE
 40
2457238.631733819
  9
$TDINDWG
 40
0.0000000116
  9
$TDUSRTIMER
 40
0.0000000116
  9
$USRTIMER
 70
     1
  9
$ANGBASE
 50
0.0
  9
$ANGDIR
 70
     0
  9
$PDMODE
 70
     0
  9
$PDSIZE
 40
0.0
  9
$PLINEWID
 40
0.0
  9
$SPLFRAME
 70
     0
  9
$SPLINETYPE
 70
     6
  9
$SPLINESEGS
 70
     8
  9
$HANDSEED
  5
68
  9
$SURFTAB1
 70
     6
  9
$SURFTAB2
 70
     6
  9
$SURFTYPE
 70
     6
  9
$SURFU
 70
     6
  9
$SURFV
 70
     6
  9
$UCSBASE
  2

  9
$UCSNAME
  2

  9
$UCSORG
 10
0.0
 20
0.0
 30
0.0
  9
$UCSXDIR
 10
1.0
 20
0.0
 30
0.0
  9
$UCSYDIR
 10
0.0
 20
1.0
 30
0.0
  9
$UCSORTHOREF
  2

  9
$UCSORTHOVIEW
 70
     0
  9
$UCSORGTOP
 10
0.0
 20
0.0
 30
0.0
  9
$UCSORGBOTTOM
 10
0.0
 20
0.0
 30
0.0
  9
$UCSORGLEFT
 10
0.0
 20
0.0
 30
0.0
  9
$UCSORGRIGHT
 10
0.0
 20
0.0
 30
0.0
  9
$UCSORGFRONT
 10
0.0
 20
0.0
 30
0.0
  9
$UCSORGBACK
 10
0.0
 20
0.0
 30
0.0
  9
$PUCSBASE
  2

  9
$PUCSNAME
  2

  9
$PUCSORG
 10
0.0
 20
0.0
 30
0.0
  9
$PUCSXDIR
 10
1.0
 20
0.0
 30
0.0
  9
$PUCSYDIR
 10
0.0
 20
1.0
 30
0.0
  9
$PUCSORTHOREF
  2

  9
$PUCSORTHOVIEW
 70
     0
  9
$PUCSORGTOP
 10
0.0
 20
0.0
 30
0.0
  9
$PUCSORGBOTTOM
 10
0.0
 20
0.0
 30
0.0
  9
$PUCSORGLEFT
 10
0.0
 20
0.0
 30
0.0
  9
$PUCSORGRIGHT
 10
0.0
 20
0.0
 30
0.0
  9
$PUCSORGFRONT
 10
0.0
 20
0.0
 30
0.0
  9
$PUCSORGBACK
 10
0.0
 20
0.0
 30
0.0
  9
$USERI1
 70
     0
  9
$USERI2
 70
     0
  9
$USERI3
 70
     0
  9
$USERI4
 70
     0
  9
$USERI5
 70
     0
  9
$USERR1
 40
0.0
  9
$USERR2
 40
0.0
  9
$USERR3
 40
0.0
  9
$USERR4
 40
0.0
  9
$USERR5
 40
0.0
  9
$WORLDVIEW
 70
     1
  9
$SHADEDGE
 70
     3
  9
$SHADEDIF
 70
    70
  9
$TILEMODE
 70
     1
  9
$MAXACTVP
 70
    64
  9
$PINSBASE
 10
0.0
 20
0.0
 30
0.0
  9
$PLIMCHECK
 70
     0
  9
$PEXTMIN
 10
1.000000000000000E+20
 20
1.000000000000000E+20
 30
1.000000000000000E+20
  9
$PEXTMAX
 10
-1.000000000000000E+20
 20
-1.000000000000000E+20
 30
-1.000000000000000E+20
  9
$PLIMMIN
 10
0.0
 20
0.0
  9
$PLIMMAX
 10
12.0
 20
9.0
  9
$UNITMODE
 70
     0
  9
$VISRETAIN
 70
     1
  9
$PLINEGEN
 70
     0
  9
$PSLTSCALE
 70
     1
  9
$TREEDEPTH
 70
  3020
  9
$CMLSTYLE
  2
Standard
  9
$CMLJUST
 70
     0
  9
$CMLSCALE
 40
1.0
  9
$PROXYGRAPHICS
 70
     1
  9
$MEASUREMENT
 70
     0
  9
$CELWEIGHT
370
    -1
  9
$ENDCAPS
280
     0
  9
$JOINSTYLE
280
     0
  9
$LWDISPLAY
290
     1
  9
$INSUNITS
 70
     1
  9
$HYPERLINKBASE
  1

  9
$STYLESHEET
  1

  9
$XEDIT
290
     1
  9
$CEPSNTYPE
380
     0
  9
$PSTYLEMODE
290
     1
  9
$FINGERPRINTGUID
  2
{795923AA-9669-4A63-BE8C-377AF5B79497}
  9
$VERSIONGUID
  2
{FAEB1C32-E019-11D5-929B-00C0DF256EC4}
  9
$EXTNAMES
290
     1
  9
$PSVPSCALE
 40
0.0
  9
$OLESTARTUP
290
     0
  9
$SORTENTS
280
   127
  9
$INDEXCTL
280
     0
  9
$HIDETEXT
280
     1
  9
$XCLIPFRAME
280
     2
  9
$HALOGAP
280
     0
  9
$OBSCOLOR
 70
   257
  9
$OBSLTYPE
280
     0
  9
$INTERSECTIONDISPLAY
280
     0
  9
$INTERSECTIONCOLOR
 70
   257
  9
$DIMASSOC
280
     2
  9
$PROJECTNAME
  1

  9
$CAMERADISPLAY
290
     0
  9
$LENSLENGTH
 40
50.0
  9
$CAMERAHEIGHT
 40
0.0
  9
$STEPSPERSEC
 40
2.0
  9
$STEPSIZE
 40
6.0
  9
$3DDWFPREC
 40
2.0
  9
$PSOLWIDTH
 40
0.25
  9
$PSOLHEIGHT
 40
4.0
  9
$LOFTANG1
 40
1.570796326794897
  9
$LOFTANG2
 40
1.570796326794897
  9
$LOFTMAG1
 40
0.0
  9
$LOFTMAG2
 40
0.0
  9
$LOFTPARAM
 70
     7
  9
$LOFTNORMALS
280
     1
  9
$LATITUDE
 40
37.795
  9
$LONGITUDE
 40
-122.394
  9
$NORTHDIRECTION
 40
0.0
  9
$TIMEZONE
 70
 -8000
  9
$LIGHTGLYPHDISPLAY
280
     1
  9
$TILEMODELIGHTSYNCH
280
     1
  9
$CMATERIAL
347
3C
  9
$SOLIDHIST
280
     1
  9
$SHOWHIST
280
     1
  9
$DWFFRAME
280
     2
  9
$DGNFRAME
280
     2
  9
$REALWORLDSCALE
290
     1
  9
$INTERFERECOLOR
 62
   256
  9
$CSHADOW
280
     0
  9
$SHADOWPLANELOCATION
 40
0.0
  0
ENDSEC
  0
SECTION
  2
CLASSES
  0
CLASS
  1
ACDBDICTIONARYWDFLT
  2
AcDbDictionaryWithDefault
  3
ObjectDBX Classes
 90
        0
 91
        4
280
     0
281
     0
  0
CLASS
  1
VISUALSTYLE
  2
AcDbVisualStyle
  3
ObjectDBX Classes
 90
     4095
 91
        4
280
     0
281
     0
  0
CLASS
  1
MATERIAL
  2
AcDbMaterial
  3
ObjectDBX Classes
 90
     1153
 91
        4
280
     0
281
     0
  0
CLASS
  1
SUN
  2
AcDbSun
  3
SCENEOE
 90
     1024
 91
        4
280
     0
281
     0
  0
ENDSEC
  0
SECTION
  2
TABLES
  0
TABLE
  2
VPORT
  5
8
330
0
100
AcDbSymbolTable
 70
     1
  0
VPORT
  5
29
330
8
100
AcDbSymbolTableRecord
100
AcDbViewportTableRecord
  2
*Active
 70
     0
 10
0.0
 20
0.0
 11
1.0
 21
1.0
 12
0.0
 22
0.0
 13
0.0
 23
0.0
 14
0.5
 24
0.5
 15
0.5
 25
0.5
 16
0.0
 26
0.0
 36
1.0
 17
319.0
 27
-387.0
 37
0.0
 40
3252.0
 41
0.7429274292742928
 42
50.0
 43
0.0
 44
0.0
 50
0.0
 51
0.0
 71
     0
 72
   100
 73
     1
 74
     3
 75
     0
 76
     0
 77
     0
 78
     0
281
     0
 65
     1
110
0.0
120
0.0
130
0.0
111
1.0
121
0.0
131
0.0
112
0.0
122
1.0
132
0.0
 79
     0
146
0.0
 60
     3
 61
     5
292
     1
282
     1
141
0.0
142
0.0
 63
   250
361
3F
  0
ENDTAB
  0
TABLE
  2
LTYPE
  5
5
330
0
100
AcDbSymbolTable
 70
     1
  0
LTYPE
  5
14
330
5
100
AcDbSymbolTableRecord
100
AcDbLinetypeTableRecord
  2
ByBlock
 70
     0
  3

 72
    65
 73
     0
 40
0.0
  0
LTYPE
  5
15
330
5
100
AcDbSymbolTableRecord
100
AcDbLinetypeTableRecord
  2
ByLayer
 70
     0
  3

 72
    65
 73
     0
 40
0.0
  0
LTYPE
  5
16
330
5
100
AcDbSymbolTableRecord
100
AcDbLinetypeTableRecord
  2
Continuous
 70
     0
  3
Solid line
 72
    65
 73
     0
 40
0.0
  0
ENDTAB
  0
TABLE
  2
LAYER
  5
2
330
0
100
AcDbSymbolTable
 70
     2
  0
LAYER
  5
10
330
2
100
AcDbSymbolTableRecord
100
AcDbLayerTableRecord
  2
0
 70
     0
 62
     7
  6
Continuous
370
    -3
390
F
347
3E
  0
LAYER
  5
40
330
2
100
AcDbSymbolTableRecord
100
AcDbLayerTableRecord
  2
Layer 1
 70
     0
 62
     7
  6
Continuous
370
    -3
390
F
347
3E
  0
ENDTAB
  0
TABLE
  2
STYLE
  5
3
330
0
100
AcDbSymbolTable
 70
     1
  0
STYLE
  5
11
330
3
100
AcDbSymbolTableRecord
100
AcDbTextStyleTableRecord
  2
Standard
 70
     0
 40
0.0
 41
1.0
 50
0.0
 71
     0
 42
0.2
  3
txt
  4

  0
ENDTAB
  0
TABLE
  2
VIEW
  5
6
330
0
100
AcDbSymbolTable
 70
     0
  0
ENDTAB
  0
TABLE
  2
UCS
  5
7
330
0
100
AcDbSymbolTable
 70
     0
  0
ENDTAB
  0
TABLE
  2
APPID
  5
9
330
0
100
AcDbSymbolTable
 70
     1
  0
APPID
  5
12
330
9
100
AcDbSymbolTableRecord
100
AcDbRegAppTableRecord
  2
ACAD
 70
     0
  0
ENDTAB
  0
TABLE
  2
DIMSTYLE
  5
A
330
0
100
AcDbSymbolTable
 70
     1
100
AcDbDimStyleTable
  0
DIMSTYLE
105
27
330
A
100
AcDbSymbolTableRecord
100
AcDbDimStyleTableRecord
  2
Standard
 70
     0
178
     0
340
11
  0
ENDTAB
  0
TABLE
  2
BLOCK_RECORD
  5
1
330
0
100
AcDbSymbolTable
 70
     1
  0
BLOCK_RECORD
  5
1F
330
1
100
AcDbSymbolTableRecord
100
AcDbBlockTableRecord
  2
*Model_Space
340
22
 70
     0
280
     1
281
     0
  0
BLOCK_RECORD
  5
1B
330
1
100
AcDbSymbolTableRecord
100
AcDbBlockTableRecord
  2
*Paper_Space
340
1E
 70
     0
280
     1
281
     0
  0
BLOCK_RECORD
  5
23
330
1
100
AcDbSymbolTableRecord
100
AcDbBlockTableRecord
  2
*Paper_Space0
340
26
 70
     0
280
     1
281
     0
  0
ENDTAB
  0
ENDSEC
  0
SECTION
  2
BLOCKS
  0
BLOCK
  5
20
330
1F
100
AcDbEntity
  8
0
100
AcDbBlockBegin
  2
*Model_Space
 70
     0
 10
0.0
 20
0.0
 30
0.0
  3
*Model_Space
  1

  0
ENDBLK
  5
21
330
1F
100
AcDbEntity
  8
0
100
AcDbBlockEnd
  0
BLOCK
  5
1C
330
1B
100
AcDbEntity
 67
     1
  8
0
100
AcDbBlockBegin
  2
*Paper_Space
 70
     0
 10
0.0
 20
0.0
 30
0.0
  3
*Paper_Space
  1

  0
ENDBLK
  5
1D
330
1B
100
AcDbEntity
 67
     1
  8
0
100
AcDbBlockEnd
  0
BLOCK
  5
24
330
23
100
AcDbEntity
  8
0
100
AcDbBlockBegin
  2
*Paper_Space0
 70
     0
 10
0.0
 20
0.0
 30
0.0
  3
*Paper_Space0
  1

  0
ENDBLK
  5
25
330
23
100
AcDbEntity
  8
0
100
AcDbBlockEnd
  0
ENDSEC
  0
SECTION
  2
ENTITIES
  0
POLYLINE
  5
41
330
1F
100
AcDbEntity
  8
Layer 1
370
     0
100
AcDb2dPolyline
 66
     1
 10
0.0
 20
0.0
 30
0.0
  0
VERTEX
  5
42
330
41
100
AcDbEntity
  8
Layer 1
370
     0
100
AcDbVertex
100
AcDb2dVertex
 10
1471.99117682808
 20
1179.81762029948
 30
0.0
  0
VERTEX
  5
43
330
41
100
AcDbEntity
  8
Layer 1
370
     0
100
AcDbVertex
100
AcDb2dVertex
 10
1471.99117682808
 20
787.8851113638402
 30
0.0
  0
VERTEX
  5
44
330
41
100
AcDbEntity
  8
Layer 1
370
     0
100
AcDbVertex
100
AcDb2dVertex
 10
1052.987413627201
 20
82.72120413039102
 30
0.0
  0
VERTEX
  5
45
330
41
100
AcDbEntity
  8
Layer 1
370
     0
100
AcDbVertex
100
AcDb2dVertex
 10
317.138916425487
 20
-1155.70118950289
 30
0.0
  0
VERTEX
  5
46
330
41
100
AcDbEntity
  8
Layer 1
370
     0
100
AcDbVertex
100
AcDb2dVertex
 10
-169.5690293922598
 20
-1974.75324501479
 30
0.0
  0
VERTEX
  5
47
330
41
100
AcDbEntity
  8
Layer 1
370
     0
100
AcDbVertex
100
AcDb2dVertex
 10
-859.3908014388699
 20
-1138.2120182951
 30
0.0
  0
VERTEX
  5
48
330
41
100
AcDbEntity
  8
Layer 1
370
     0
100
AcDbVertex
100
AcDb2dVertex
 10
427.3095411856739
 20
141.1053712005969
 30
0.0
  0
VERTEX
  5
49
330
41
100
AcDbEntity
  8
Layer 1
370
     0
100
AcDbVertex
100
AcDb2dVertex
 10
1471.99117682808
 20
1179.81762029948
 30
0.0
  0
SEQEND
  5
4A
330
41
100
AcDbEntity
  8
Layer 1
370
     0
  0
SPLINE
  5
4B
330
1F
100
AcDbEntity
  8
Layer 1
370
     0
100
AcDbSpline
210
0.0
220
0.0
230
1.0
 70
    11
 71
     3
 72
    35
 73
    31
 74
     0
 42
0.0000000001
 43
0.0000000001
 12
1.0
 22
0.0
 32
0.0
 13
1.0
 23
0.0
 33
0.0
 40
0.0
 40
0.0
 40
0.0
 40
0.0
 40
1.0
 40
1.0
 40
1.0
 40
2.0
 40
2.0
 40
2.0
 40
3.0
 40
3.0
 40
3.0
 40
4.0
 40
4.0
 40
4.0
 40
5.0
 40
5.0
 40
5.0
 40
6.0
 40
6.0
 40
6.0
 40
7.0
 40
7.0
 40
7.0
 40
8.0
 40
8.0
 40
8.0
 40
9.0
 40
9.0
 40
9.0
 40
10.0
 40
10.0
 40
10.0
 40
10.0
 10
-696.9736189925479
 20
-1118.291158744039
 30
0.0
 10
-691.7095540446144
 20
-1113.06418700553
 30
0.0
 10
-684.4887164719521
 20
-1110.29398736495
 30
0.0
 10
-677.0793692605994
 20
-1110.658935625539
 30
0.0
 10
-669.6700220492457
 20
-1111.02388388613
 30
0.0
 10
-662.7563687040383
 20
-1114.4902795245
 30
0.0
 10
-658.0314479044364
 20
-1120.20925992041
 30
0.0
 10
-658.0314479044364
 20
-1120.20925992041
 30
0.0
 10
-467.2349005787846
 20
-1351.146826927619
 30
0.0
 10
-467.2349005787846
 20
-1351.146826927619
 30
0.0
 10
-459.1432082561269
 20
-1360.940902156741
 30
0.0
 10
-459.1775748136579
 20
-1375.11010939082
 30
0.0
 10
-467.3166815319364
 20
-1384.864817795829
 30
0.0
 10
-467.3166815319364
 20
-1384.864817795829
 30
0.0
 10
-476.4797248917139
 20
-1395.84671288223
 30
0.0
 10
-476.4797248917139
 20
-1395.84671288223
 30
0.0
 10
-481.5095011128215
 20
-1401.874892887439
 30
0.0
 10
-488.9619676891716
 20
-1405.350832485979
 30
0.0
 10
-496.8129030302844
 20
-1405.330405070839
 30
0.0
 10
-504.6638383713962
 20
-1405.309977655699
 30
0.0
 10
-512.0981160122192
 20
-1401.795304111331
 30
0.0
 10
-517.0964547985186
 20
-1395.74103186878
 30
0.0
 10
-517.0964547985186
 20
-1395.74103186878
 30
0.0
 10
-708.6721271548422
 20
-1163.69368072183
 30
0.0
 10
-708.6721271548422
 20
-1163.69368072183
 30
0.0
 10
-717.355686818345
 20
-1153.17565933812
 30
0.0
 10
-716.594332760591
 20
-1137.77361524285
 30
0.0
 10
-706.915787382999
 20
-1128.1632696907
 30
0.0
 10
-706.915787382999
 20
-1128.1632696907
 30
0.0
 10
-696.9736189925479
 20
-1118.291158744039
 30
0.0
 10
-696.9736189925479
 20
-1118.291158744039
 30
0.0
  0
SPLINE
  5
4C
330
1F
100
AcDbEntity
  8
Layer 1
370
     0
100
AcDbSpline
210
0.0
220
0.0
230
1.0
 70
    11
 71
     3
 72
    35
 73
    31
 74
     0
 42
0.0000000001
 43
0.0000000001
 12
1.0
 22
0.0
 32
0.0
 13
1.0
 23
0.0
 33
0.0
 40
0.0
 40
0.0
 40
0.0
 40
0.0
 40
1.0
 40
1.0
 40
1.0
 40
2.0
 40
2.0
 40
2.0
 40
3.0
 40
3.0
 40
3.0
 40
4.0
 40
4.0
 40
4.0
 40
5.0
 40
5.0
 40
5.0
 40
6.0
 40
6.0
 40
6.0
 40
7.0
 40
7.0
 40
7.0
 40
8.0
 40
8.0
 40
8.0
 40
9.0
 40
9.0
 40
9.0
 40
10.0
 40
10.0
 40
10.0
 40
10.0
 10
-158.4032504553716
 20
-1724.96405344981
 30
0.0
 10
-151.3016721708027
 20
-1733.559892602711
 30
0.0
 10
-150.3681763181721
 20
-1745.691243859521
 30
0.0
 10
-156.0710542633797
 20
-1755.27237364762
 30
0.0
 10
-156.0710542633797
 20
-1755.27237364762
 30
0.0
 10
-163.7968374389402
 20
-1768.25208880739
 30
0.0
 10
-163.7968374389402
 20
-1768.25208880739
 30
0.0
 10
-168.1883204368532
 20
-1775.630007284601
 30
0.0
 10
-175.8942849535933
 20
-1780.41057460479
 30
0.0
 10
-184.4550536250717
 20
-1781.06787494009
 30
0.0
 10
-193.0158222965492
 20
-1781.725175275391
 30
0.0
 10
-201.3612687045488
 20
-1778.17704375482
 30
0.0
 10
-206.8275983846133
 20
-1771.55601333606
 30
0.0
 10
-206.8275983846133
 20
-1771.55601333606
 30
0.0
 10
-395.8357713445112
 20
-1542.62198706866
 30
0.0
 10
-395.8357713445112
 20
-1542.62198706866
 30
0.0
 10
-403.5614212763294
 20
-1533.26438037512
 30
0.0
 10
-403.9106494104153
 20
-1519.844612695801
 30
0.0
 10
-396.682160385566
 20
-1510.09784829331
 30
0.0
 10
-396.682160385566
 20
-1510.09784829331
 30
0.0
 10
-388.0159977042549
 20
-1498.41255062764
 30
0.0
 10
-388.0159977042549
 20
-1498.41255062764
 30
0.0
 10
-383.1825361395804
 20
-1491.895198113531
 30
0.0
 10
-375.6198035078687
 20
-1487.963440311411
 30
0.0
 10
-367.5085087699981
 20
-1487.75099698751
 30
0.0
 10
-359.3972140321266
 20
-1487.538553663609
 30
0.0
 10
-351.6390373729164
 20
-1491.069040768471
 30
0.0
 10
-346.4710439095188
 20
-1497.32444467652
 30
0.0
 10
-346.4710439095188
 20
-1497.32444467652
 30
0.0
 10
-158.4032504553716
 20
-1724.96405344981
 30
0.0
 10
-158.4032504553716
 20
-1724.96405344981
 30
0.0
  0
SPLINE
  5
4D
330
1F
100
AcDbEntity
  8
Layer 1
370
     0
100
AcDbSpline
210
0.0
220
0.0
230
1.0
 70
    11
 71
     3
 72
    35
 73
    31
 74
     0
 42
0.0000000001
 43
0.0000000001
 12
1.0
 22
0.0
 32
0.0
 13
1.0
 23
0.0
 33
0.0
 40
0.0
 40
0.0
 40
0.0
 40
0.0
 40
1.0
 40
1.0
 40
1.0
 40
2.0
 40
2.0
 40
2.0
 40
3.0
 40
3.0
 40
3.0
 40
4.0
 40
4.0
 40
4.0
 40
5.0
 40
5.0
 40
5.0
 40
6.0
 40
6.0
 40
6.0
 40
7.0
 40
7.0
 40
7.0
 40
8.0
 40
8.0
 40
8.0
 40
9.0
 40
9.0
 40
9.0
 40
10.0
 40
10.0
 40
10.0
 40
10.0
 10
-575.3084856036403
 20
-997.4691466877921
 30
0.0
 10
-570.06015947582
 20
-992.256626976503
 30
0.0
 10
-562.8652487169657
 20
-989.4858466080022
 30
0.0
 10
-555.476362023931
 20
-989.8317401205604
 30
0.0
 10
-548.0874753308963
 20
-990.1776336331186
 30
0.0
 10
-541.1828778543277
 20
-993.6084496242347
 30
0.0
 10
-536.4444608631084
 20
-999.2884754430015
 30
0.0
 10
-536.4444608631084
 20
-999.2884754430015
 30
0.0
 10
-355.1524953759154
 20
-1216.606420784319
 30
0.0
 10
-355.1524953759154
 20
-1216.606420784319
 30
0.0
 10
-346.984702436177
 20
-1226.397301339161
 30
0.0
 10
-346.9844778820598
 20
-1240.627483871211
 30
0.0
 10
-355.1519618150123
 20
-1250.41862219882
 30
0.0
 10
-355.1519618150123
 20
-1250.41862219882
 30
0.0
 10
-364.4314792189243
 20
-1261.542860613139
 30
0.0
 10
-364.4314792189243
 20
-1261.542860613139
 30
0.0
 10
-369.4457393411158
 20
-1267.55393022406
 30
0.0
 10
-376.8696593814857
 20
-1271.028957701859
 30
0.0
 10
-384.6975430302282
 20
-1271.02910618531
 30
0.0
 10
-392.5254266789716
 20
-1271.029254668771
 30
0.0
 10
-399.9494785463348
 20
-1267.55450883519
 30
0.0
 10
-404.9639667072443
 20
-1261.5436294549
 30
0.0
 10
-404.9639667072443
 20
-1261.5436294549
 30
0.0
 10
-587.1277167803173
 20
-1043.1834909892
 30
0.0
 10
-587.1277167803173
 20
-1043.1834909892
 30
0.0
 10
-595.8974904877723
 20
-1032.67114152174
 30
0.0
 10
-595.1732173624168
 20
-1017.19835240602
 30
0.0
 10
-585.4597875934323
 20
-1007.551191977731
 30
0.0
 10
-585.4597875934323
 20
-1007.551191977731
 30
0.0
 10
-575.3084856036403
 20
-997.4691466877921
 30
0.0
 10
-575.3084856036403
 20
-997.4691466877921
 30
0.0
  0
SPLINE
  5
4E
330
1F
100
AcDbEntity
  8
Layer 1
370
     0
100
AcDbSpline
210
0.0
220
0.0
230
1.0
 70
    11
 71
     3
 72
    35
 73
    31
 74
     0
 42
0.0000000001
 43
0.0000000001
 12
1.0
 22
0.0
 32
0.0
 13
1.0
 23
0.0
 33
0.0
 40
0.0
 40
0.0
 40
0.0
 40
0.0
 40
1.0
 40
1.0
 40
1.0
 40
2.0
 40
2.0
 40
2.0
 40
3.0
 40
3.0
 40
3.0
 40
4.0
 40
4.0
 40
4.0
 40
5.0
 40
5.0
 40
5.0
 40
6.0
 40
6.0
 40
6.0
 40
7.0
 40
7.0
 40
7.0
 40
8.0
 40
8.0
 40
8.0
 40
9.0
 40
9.0
 40
9.0
 40
10.0
 40
10.0
 40
10.0
 40
10.0
 10
-63.81750371938779
 20
-1565.829943242779
 30
0.0
 10
-56.64467193866221
 20
-1574.428061154311
 30
0.0
 10
-55.67814120847015
 20
-1586.616474198119
 30
0.0
 10
-61.40620081896941
 20
-1596.237621763441
 30
0.0
 10
-61.40620081896941
 20
-1596.237621763441
 30
0.0
 10
-69.1365425391723
 20
-1609.2219067531
 30
0.0
 10
-69.1365425391723
 20
-1609.2219067531
 30
0.0
 10
-73.51636588100064
 20
-1616.57848638864
 30
0.0
 10
-81.19261914848721
 20
-1621.35337889883
 30
0.0
 10
-89.72749191152889
 20
-1622.030182680141
 30
0.0
 10
-98.26236467457056
 20
-1622.70698646145
 30
0.0
 10
-106.5952331400558
 20
-1619.201595492181
 30
0.0
 10
-112.0797602279044
 20
-1612.627245405491
 30
0.0
 10
-112.0797602279044
 20
-1612.627245405491
 30
0.0
 10
-289.6839262708663
 20
-1399.73159447366
 30
0.0
 10
-289.6839262708663
 20
-1399.73159447366
 30
0.0
 10
-297.4897327812323
 20
-1390.37470665342
 30
0.0
 10
-297.8749122110557
 20
-1376.89020624052
 30
0.0
 10
-290.615949210387
 20
-1367.102999227649
 30
0.0
 10
-290.615949210387
 20
-1367.102999227649
 30
0.0
 10
-281.8800769743393
 20
-1355.32448623559
 30
0.0
 10
-281.8800769743393
 20
-1355.32448623559
 30
0.0
 10
-277.0596753850295
 20
-1348.82517383581
 30
0.0
 10
-269.5241791076951
 20
-1344.89636663407
 30
0.0
 10
-261.4356718617792
 20
-1344.66531753782
 30
0.0
 10
-253.3471646158641
 20
-1344.434268441561
 30
0.0
 10
-245.5996851024383
 20
-1347.926515764309
 30
0.0
 10
-240.4161392465039
 20
-1354.14006430854
 30
0.0
 10
-240.4161392465039
 20
-1354.14006430854
 30
0.0
 10
-63.81750371938779
 20
-1565.829943242779
 30
0.0
 10
-63.81750371938779
 20
-1565.829943242779
 30
0.0
  0
SPLINE
  5
4F
330
1F
100
AcDbEntity
  8
Layer 1
370
     0
100
AcDbSpline
210
0.0
220
0.0
230
1.0
 70
    11
 71
     3
 72
    35
 73
    31
 74
     0
 42
0.0000000001
 43
0.0000000001
 12
1.0
 22
0.0
 32
0.0
 13
1.0
 23
0.0
 33
0.0
 40
0.0
 40
0.0
 40
0.0
 40
0.0
 40
1.0
 40
1.0
 40
1.0
 40
2.0
 40
2.0
 40
2.0
 40
3.0
 40
3.0
 40
3.0
 40
4.0
 40
4.0
 40
4.0
 40
5.0
 40
5.0
 40
5.0
 40
6.0
 40
6.0
 40
6.0
 40
7.0
 40
7.0
 40
7.0
 40
8.0
 40
8.0
 40
8.0
 40
9.0
 40
9.0
 40
9.0
 40
10.0
 40
10.0
 40
10.0
 40
10.0
 10
-452.8981689038519
 20
-875.9061720874888
 30
0.0
 10
-447.6521123533039
 20
-870.6958886463726
 30
0.0
 10
-440.4610267314347
 20
-867.925135039648
 30
0.0
 10
-433.0752026642012
 20
-868.2683051376825
 30
0.0
 10
-425.6893785969678
 20
-868.6114752357189
 30
0.0
 10
-418.7861972439568
 20
-872.0370956434253
 30
0.0
 10
-414.0458741173752
 20
-877.7113796972862
 30
0.0
 10
-414.0458741173752
 20
-877.7113796972862
 30
0.0
 10
-243.1325428093023
 20
-1082.2988655156
 30
0.0
 10
-243.1325428093023
 20
-1082.2988655156
 30
0.0
 10
-234.9530738055473
 20
-1092.08989226582
 30
0.0
 10
-234.9483793148738
 20
-1106.330109741089
 30
0.0
 10
-243.121391038404
 20
-1116.12652731967
 30
0.0
 10
-243.121391038404
 20
-1116.12652731967
 30
0.0
 10
-252.393448206758
 20
-1127.240293811919
 30
0.0
 10
-252.393448206758
 20
-1127.240293811919
 30
0.0
 10
-257.4058434617609
 20
-1133.248301465399
 30
0.0
 10
-264.8256802044725
 20
-1136.72254274507
 30
0.0
 10
-272.6500175739029
 20
-1136.72516685162
 30
0.0
 10
-280.4743549433342
 20
-1136.72779095817
 30
0.0
 10
-287.8965203812159
 20
-1133.25852735178
 30
0.0
 10
-292.9129444091286
 20
-1127.253883138441
 30
0.0
 10
-292.9129444091286
 20
-1127.253883138441
 30
0.0
 10
-464.6982081261394
 20
-921.6274480571974
 30
0.0
 10
-464.6982081261394
 20
-921.6274480571974
 30
0.0
 10
-473.4798812721674
 20
-911.1158121694934
 30
0.0
 10
-472.760593826556
 20
-895.6331541888121
 30
0.0
 10
-463.0421584811438
 20
-885.980989316804
 30
0.0
 10
-463.0421584811438
 20
-885.980989316804
 30
0.0
 10
-452.8981689038519
 20
-875.9061720874888
 30
0.0
 10
-452.8981689038519
 20
-875.9061720874888
 30
0.0
  0
SPLINE
  5
50
330
1F
100
AcDbEntity
  8
Layer 1
370
     0
100
AcDbSpline
210
0.0
220
0.0
230
1.0
 70
    11
 71
     3
 72
    35
 73
    31
 74
     0
 42
0.0000000001
 43
0.0000000001
 12
1.0
 22
0.0
 32
0.0
 13
1.0
 23
0.0
 33
0.0
 40
0.0
 40
0.0
 40
0.0
 40
0.0
 40
1.0
 40
1.0
 40
1.0
 40
2.0
 40
2.0
 40
2.0
 40
3.0
 40
3.0
 40
3.0
 40
4.0
 40
4.0
 40
4.0
 40
5.0
 40
5.0
 40
5.0
 40
6.0
 40
6.0
 40
6.0
 40
7.0
 40
7.0
 40
7.0
 40
8.0
 40
8.0
 40
8.0
 40
9.0
 40
9.0
 40
9.0
 40
10.0
 40
10.0
 40
10.0
 40
10.0
 10
29.63421228408879
 20
-1408.78963667646
 30
0.0
 10
36.81631732154983
 20
-1417.386757295269
 30
0.0
 10
37.78855205787477
 20
-1429.58125563145
 30
0.0
 10
32.05936780413595
 20
-1439.207758812259
 30
0.0
 10
32.05936780413595
 20
-1439.207758812259
 30
0.0
 10
24.33453368738628
 20
-1452.187467074829
 30
0.0
 10
24.33453368738628
 20
-1452.187467074829
 30
0.0
 10
19.95716476221423
 20
-1459.542572795901
 30
0.0
 10
12.28480044586377
 20
-1464.31817134491
 30
0.0
 10
3.752732745084359
 20
-1464.99843572325
 30
0.0
 10
-4.779334955695049
 20
-1465.6787001016
 30
0.0
 10
-13.11147973624247
 20
-1462.17914597856
 30
0.0
 10
-18.59898808368234
 20
-1455.61056995236
 30
0.0
 10
-18.59898808368234
 20
-1455.61056995236
 30
0.0
 10
-184.1382403571888
 20
-1257.45922419899
 30
0.0
 10
-184.1382403571888
 20
-1257.45922419899
 30
0.0
 10
-191.9548501026538
 20
-1248.10270168834
 30
0.0
 10
-192.3451670685254
 20
-1234.60972011338
 30
0.0
 10
-185.0824954524705
 20
-1224.816993097749
 30
0.0
 10
-185.0824954524705
 20
-1224.816993097749
 30
0.0
 10
-176.3494816332859
 20
-1213.041709169749
 30
0.0
 10
-176.3494816332859
 20
-1213.041709169749
 30
0.0
 10
-171.5310859583906
 20
-1206.544756534131
 30
0.0
 10
-163.9994837979793
 20
-1202.61613823281
 30
0.0
 10
-155.9141490394959
 20
-1202.382274442351
 30
0.0
 10
-147.8288142810125
 20
-1202.14841065188
 30
0.0
 10
-140.0827276123509
 20
-1205.635130339761
 30
0.0
 10
-134.8968602869818
 20
-1211.842715257661
 30
0.0
 10
-134.8968602869818
 20
-1211.842715257661
 30
0.0
 10
29.63421228408879
 20
-1408.78963667646
 30
0.0
 10
29.63421228408879
 20
-1408.78963667646
 30
0.0
  0
SPLINE
  5
51
330
1F
100
AcDbEntity
  8
Layer 1
370
     0
100
AcDbSpline
210
0.0
220
0.0
230
1.0
 70
    11
 71
     3
 72
    35
 73
    31
 74
     0
 42
0.0000000001
 43
0.0000000001
 12
1.0
 22
0.0
 32
0.0
 13
1.0
 23
0.0
 33
0.0
 40
0.0
 40
0.0
 40
0.0
 40
0.0
 40
1.0
 40
1.0
 40
1.0
 40
2.0
 40
2.0
 40
2.0
 40
3.0
 40
3.0
 40
3.0
 40
4.0
 40
4.0
 40
4.0
 40
5.0
 40
5.0
 40
5.0
 40
6.0
 40
6.0
 40
6.0
 40
7.0
 40
7.0
 40
7.0
 40
8.0
 40
8.0
 40
8.0
 40
9.0
 40
9.0
 40
9.0
 40
10.0
 40
10.0
 40
10.0
 40
10.0
 10
-330.4849624281023
 20
-754.340565202252
 30
0.0
 10
-325.2415542991439
 20
-749.1329492350487
 30
0.0
 10
-318.0549652026084
 20
-746.3622687169627
 30
0.0
 10
-310.672757393455
 20
-746.7022697922239
 30
0.0
 10
-303.2905495843024
 20
-747.0422708674869
 30
0.0
 10
-296.3890620703833
 20
-750.461803506747
 30
0.0
 10
-291.6465289792377
 20
-756.1293402510564
 30
0.0
 10
-291.6465289792377
 20
-756.1293402510564
 30
0.0
 10
-131.1057956514633
 20
-947.9826152006826
 30
0.0
 10
-131.1057956514633
 20
-947.9826152006826
 30
0.0
 10
-122.9131591407113
 20
-957.7731780844988
 30
0.0
 10
-122.9026396262616
 20
-972.0240852772367
 30
0.0
 10
-131.0808131239464
 20
-981.8267325126035
 30
0.0
 10
-131.0808131239464
 20
-981.8267325126035
 30
0.0
 10
-140.3576981126389
 20
-992.9463340976035
 30
0.0
 10
-140.3576981126389
 20
-992.9463340976035
 30
0.0
 10
-145.3677228138858
 20
-998.9515264306738
 30
0.0
 10
-152.7830706531986
 20
-1002.42548747472
 30
0.0
 10
-160.603725952953
 20
-1002.43124479066
 30
0.0
 10
-168.4243812527075
 20
-1002.43700210661
 30
0.0
 10
-175.8448358895666
 20
-998.9739627051822
 30
0.0
 10
-180.8636968162427
 20
-992.976153316502
 30
0.0
 10
-180.8636968162427
 20
-992.976153316502
 30
0.0
 10
-342.2747623808973
 20
-800.0812278295416
 30
0.0
 10
-342.2747623808973
 20
-800.0812278295416
 30
0.0
 10
-351.0700569324054
 20
-789.5703766607312
 30
0.0
 10
-350.3564215586657
 20
-774.0763792596044
 30
0.0
 10
-340.6321796536758
 20
-764.4185162499161
 30
0.0
 10
-340.6321796536758
 20
-764.4185162499161
 30
0.0
 10
-330.4849624281023
 20
-754.340565202252
 30
0.0
 10
-330.4849624281023
 20
-754.340565202252
 30
0.0
  0
SPLINE
  5
52
330
1F
100
AcDbEntity
  8
Layer 1
370
     0
100
AcDbSpline
210
0.0
220
0.0
230
1.0
 70
    11
 71
     3
 72
    35
 73
    31
 74
     0
 42
0.0000000001
 43
0.0000000001
 12
1.0
 22
0.0
 32
0.0
 13
1.0
 23
0.0
 33
0.0
 40
0.0
 40
0.0
 40
0.0
 40
0.0
 40
1.0
 40
1.0
 40
1.0
 40
2.0
 40
2.0
 40
2.0
 40
3.0
 40
3.0
 40
3.0
 40
4.0
 40
4.0
 40
4.0
 40
5.0
 40
5.0
 40
5.0
 40
6.0
 40
6.0
 40
6.0
 40
7.0
 40
7.0
 40
7.0
 40
8.0
 40
8.0
 40
8.0
 40
9.0
 40
9.0
 40
9.0
 40
10.0
 40
10.0
 40
10.0
 40
10.0
 10
123.0887032637866
 20
-1251.754268910239
 30
0.0
 10
130.2833502118892
 20
-1260.352266598709
 30
0.0
 10
131.2608334250153
 20
-1272.55735862555
 30
0.0
 10
125.526311027329
 20
-1282.190829538431
 30
0.0
 10
125.526311027329
 20
-1282.190829538431
 30
0.0
 10
117.8059396803583
 20
-1295.1603442861
 30
0.0
 10
117.8059396803583
 20
-1295.1603442861
 30
0.0
 10
113.4300412703578
 20
-1302.51145168913
 30
0.0
 10
105.7624425682488
 20
-1307.285503365751
 30
0.0
 10
97.23479357054657
 20
-1307.968489103139
 30
0.0
 10
88.7071445728443
 20
-1308.651474840521
 30
0.0
 10
80.37744627990105
 20
-1305.15865855332
 30
0.0
 10
74.88732244015864
 20
-1298.597728194771
 30
0.0
 10
74.88732244015864
 20
-1298.597728194771
 30
0.0
 10
-78.5878480564952
 20
-1115.18840359878
 30
0.0
 10
-78.5878480564952
 20
-1115.18840359878
 30
0.0
 10
-86.41743399015468
 20
-1105.831717020021
 30
0.0
 10
-86.8131847481136
 20
-1092.32791574076
 30
0.0
 10
-79.54499165906964
 20
-1082.52876430576
 30
0.0
 10
-79.54499165906964
 20
-1082.52876430576
 30
0.0
 10
-70.81700476386413
 20
-1070.761484011889
 30
0.0
 10
-70.81700476386413
 20
-1070.761484011889
 30
0.0
 10
-66.00065300834194
 20
-1064.267963595139
 30
0.0
 10
-58.47373404452901
 20
-1060.3402107867
 30
0.0
 10
-50.39246119942891
 20
-1060.10339685404
 30
0.0
 10
-42.31118835432881
 20
-1059.866582921381
 30
0.0
 10
-34.56718489809009
 20
-1063.34683602738
 30
0.0
 10
-29.37885168463254
 20
-1069.547178768051
 30
0.0
 10
-29.37885168463254
 20
-1069.547178768051
 30
0.0
 10
123.0887032637866
 20
-1251.754268910239
 30
0.0
 10
123.0887032637866
 20
-1251.754268910239
 30
0.0
  0
SPLINE
  5
53
330
1F
100
AcDbEntity
  8
Layer 1
370
     0
100
AcDbSpline
210
0.0
220
0.0
230
1.0
 70
    11
 71
     3
 72
    35
 73
    31
 74
     0
 42
0.0000000001
 43
0.0000000001
 12
1.0
 22
0.0
 32
0.0
 13
1.0
 23
0.0
 33
0.0
 40
0.0
 40
0.0
 40
0.0
 40
0.0
 40
1.0
 40
1.0
 40
1.0
 40
2.0
 40
2.0
 40
2.0
 40
3.0
 40
3.0
 40
3.0
 40
4.0
 40
4.0
 40
4.0
 40
5.0
 40
5.0
 40
5.0
 40
6.0
 40
6.0
 40
6.0
 40
7.0
 40
7.0
 40
7.0
 40
8.0
 40
8.0
 40
8.0
 40
9.0
 40
9.0
 40
9.0
 40
10.0
 40
10.0
 40
10.0
 40
10.0
 10
-208.0607701324734
 20
-632.7728843278255
 30
0.0
 10
-202.8203939272971
 20
-627.5682795881112
 30
0.0
 10
-195.6389270056179
 20
-624.797654861417
 30
0.0
 10
-188.2608305613312
 20
-625.1340268685981
 30
0.0
 10
-180.8827341170454
 20
-625.4703988757792
 30
0.0
 10
-173.9831637095094
 20
-628.8829868548346
 30
0.0
 10
-169.2381046160735
 20
-634.5428338022539
 30
0.0
 10
-169.2381046160735
 20
-634.5428338022539
 30
0.0
 10
-19.07365955456044
 20
-813.6570996642058
 30
0.0
 10
-19.07365955456044
 20
-813.6570996642058
 30
0.0
 10
-10.86595167646738
 20
-823.4471506339396
 30
0.0
 10
-10.8488027020212
 20
-837.7103265681526
 30
0.0
 10
-19.03294523624663
 20
-847.5200858710905
 30
0.0
 10
-19.03294523624663
 20
-847.5200858710905
 30
0.0
 10
-28.31510164270094
 20
-858.6459576137604
 30
0.0
 10
-28.31510164270094
 20
-858.6459576137604
 30
0.0
 10
-33.3224410977009
 20
-864.6479052333452
 30
0.0
 10
-40.73266888171929
 20
-868.1215098800203
 30
0.0
 10
-48.54910906184978
 20
-868.1308134428309
 30
0.0
 10
-56.36554924197935
 20
-868.1401170056433
 30
0.0
 10
-63.78402497380102
 20
-864.6841623084838
 30
0.0
 10
-68.80563792593875
 20
-858.6941517070954
 30
0.0
 10
-68.80563792593875
 20
-858.6941517070954
 30
0.0
 10
-219.8384622912117
 20
-678.5352609823876
 30
0.0
 10
-219.8384622912117
 20
-678.5352609823876
 30
0.0
 10
-228.6492471896727
 20
-668.0253520245733
 30
0.0
 10
-227.9420923444468
 20
-652.5184941399621
 30
0.0
 10
-218.2113058426867
 20
-642.8541312077414
 30
0.0
 10
-218.2113058426867
 20
-642.8541312077414
 30
0.0
 10
-208.0607701324734
 20
-632.7728843278255
 30
0.0
 10
-208.0607701324734
 20
-632.7728843278255
 30
0.0
  0
SPLINE
  5
54
330
1F
100
AcDbEntity
  8
Layer 1
370
     0
100
AcDbSpline
210
0.0
220
0.0
230
1.0
 70
    11
 71
     3
 72
    35
 73
    31
 74
     0
 42
0.0000000001
 43
0.0000000001
 12
1.0
 22
0.0
 32
0.0
 13
1.0
 23
0.0
 33
0.0
 40
0.0
 40
0.0
 40
0.0
 40
0.0
 40
1.0
 40
1.0
 40
1.0
 40
2.0
 40
2.0
 40
2.0
 40
3.0
 40
3.0
 40
3.0
 40
4.0
 40
4.0
 40
4.0
 40
5.0
 40
5.0
 40
5.0
 40
6.0
 40
6.0
 40
6.0
 40
7.0
 40
7.0
 40
7.0
 40
8.0
 40
8.0
 40
8.0
 40
9.0
 40
9.0
 40
9.0
 40
10.0
 40
10.0
 40
10.0
 40
10.0
 10
216.5422257330656
 20
-1094.711504649349
 30
0.0
 10
223.7502881851933
 20
-1103.30939413956
 30
0.0
 10
224.7345300084016
 20
-1115.524723908169
 30
0.0
 10
218.9960574168117
 20
-1125.16577158542
 30
0.0
 10
218.9960574168117
 20
-1125.16577158542
 30
0.0
 10
211.2743861474955
 20
-1138.1387360228
 30
0.0
 10
211.2743861474955
 20
-1138.1387360228
 30
0.0
 10
206.9008436328659
 20
-1145.486602764169
 30
0.0
 10
199.2384040102752
 20
-1150.260175326141
 30
0.0
 10
190.7150545119184
 20
-1150.946858007701
 30
0.0
 10
182.1917050135617
 20
-1151.63354068925
 30
0.0
 10
173.8638886996114
 20
-1148.148221275569
 30
0.0
 10
168.3704298451366
 20
-1141.59528837568
 30
0.0
 10
168.3704298451366
 20
-1141.59528837568
 30
0.0
 10
26.96378790334893
 20
-972.9168180729994
 30
0.0
 10
26.96378790334893
 20
-972.9168180729994
 30
0.0
 10
19.12026345308641
 20
-963.5605835433889
 30
0.0
 10
18.71792993467443
 20
-950.0457956312275
 30
0.0
 10
25.99098955732552
 20
-940.2395423150883
 30
0.0
 10
25.99098955732552
 20
-940.2395423150883
 30
0.0
 10
34.7182946248995
 20
-928.472532459522
 30
0.0
 10
34.7182946248995
 20
-928.472532459522
 30
0.0
 10
39.5320010896603
 20
-921.9822206193767
 30
0.0
 10
47.05371926245789
 20
-918.0547832926623
 30
0.0
 10
55.13072764160643
 20
-917.8142560501801
 30
0.0
 10
63.20773602075406
 20
-917.573728807698
 30
0.0
 10
70.94983045562185
 20
-921.0466212603751
 30
0.0
 10
76.14121758953661
 20
-927.2389889284841
 30
0.0
 10
76.14121758953661
 20
-927.2389889284841
 30
0.0
 10
216.5422257330656
 20
-1094.711504649349
 30
0.0
 10
216.5422257330656
 20
-1094.711504649349
 30
0.0
  0
SPLINE
  5
55
330
1F
100
AcDbEntity
  8
Layer 1
370
     0
100
AcDbSpline
210
0.0
220
0.0
230
1.0
 70
    11
 71
     3
 72
    35
 73
    31
 74
     0
 42
0.0000000001
 43
0.0000000001
 12
1.0
 22
0.0
 32
0.0
 13
1.0
 23
0.0
 33
0.0
 40
0.0
 40
0.0
 40
0.0
 40
0.0
 40
1.0
 40
1.0
 40
1.0
 40
2.0
 40
2.0
 40
2.0
 40
3.0
 40
3.0
 40
3.0
 40
4.0
 40
4.0
 40
4.0
 40
5.0
 40
5.0
 40
5.0
 40
6.0
 40
6.0
 40
6.0
 40
7.0
 40
7.0
 40
7.0
 40
8.0
 40
8.0
 40
8.0
 40
9.0
 40
9.0
 40
9.0
 40
10.0
 40
10.0
 40
10.0
 40
10.0
 10
-85.6438108553084
 20
-511.2033123515048
 30
0.0
 10
-80.40676947899374
 20
-506.0020018847517
 30
0.0
 10
-73.2309251258821
 20
-503.2314283269461
 30
0.0
 10
-65.85734019816573
 20
-503.5638110318869
 30
0.0
 10
-58.48375527044936
 20
-503.8961937368276
 30
0.0
 10
-51.58628861279522
 20
-507.3011568388083
 30
0.0
 10
-46.83846034033922
 20
-512.9525601728528
 30
0.0
 10
-46.83846034033922
 20
-512.9525601728528
 30
0.0
 10
92.94700570542955
 20
-679.341065301669
 30
0.0
 10
92.94700570542955
 20
-679.341065301669
 30
0.0
 10
101.1710450591027
 20
-689.1302490622329
 30
0.0
 10
101.195756621195
 20
-703.4064194038692
 30
0.0
 10
93.00565593214742
 20
-713.2240154788833
 30
0.0
 10
93.00565593214742
 20
-713.2240154788833
 30
0.0
 10
83.73417412176786
 20
-724.3378792623698
 30
0.0
 10
83.73417412176786
 20
-724.3378792623698
 30
0.0
 10
78.73002877064664
 20
-730.3364230682655
 30
0.0
 10
71.32559384850083
 20
-733.8099067068524
 30
0.0
 10
63.51381966636654
 20
-733.8234201720734
 30
0.0
 10
55.70204548423135
 20
-733.8369336372925
 30
0.0
 10
48.28563746408599
 20
-730.3890883416716
 30
0.0
 10
43.2607685517296
 20
-724.407893569718
 30
0.0
 10
43.2607685517296
 20
-724.407893569718
 30
0.0
 10
-97.39710951770758
 20
-556.9802094615661
 30
0.0
 10
-97.39710951770758
 20
-556.9802094615661
 30
0.0
 10
-106.2256638757644
 20
-546.4714172738804
 30
0.0
 10
-105.5259725569413
 20
-530.9498234690382
 30
0.0
 10
-95.78770468935545
 20
-521.2779971556538
 30
0.0
 10
-95.78770468935545
 20
-521.2779971556538
 30
0.0
 10
-85.6438108553084
 20
-511.2033123515048
 30
0.0
 10
-85.6438108553084
 20
-511.2033123515048
 30
0.0
  0
SPLINE
  5
56
330
1F
100
AcDbEntity
  8
Layer 1
370
     0
100
AcDbSpline
210
0.0
220
0.0
230
1.0
 70
    11
 71
     3
 72
    35
 73
    31
 74
     0
 42
0.0000000001
 43
0.0000000001
 12
1.0
 22
0.0
 32
0.0
 13
1.0
 23
0.0
 33
0.0
 40
0.0
 40
0.0
 40
0.0
 40
0.0
 40
1.0
 40
1.0
 40
1.0
 40
2.0
 40
2.0
 40
2.0
 40
3.0
 40
3.0
 40
3.0
 40
4.0
 40
4.0
 40
4.0
 40
5.0
 40
5.0
 40
5.0
 40
6.0
 40
6.0
 40
6.0
 40
7.0
 40
7.0
 40
7.0
 40
8.0
 40
8.0
 40
8.0
 40
9.0
 40
9.0
 40
9.0
 40
10.0
 40
10.0
 40
10.0
 40
10.0
 10
309.9810747925294
 20
-937.6757782222685
 30
0.0
 10
317.2050053534058
 20
-946.2745208404813
 30
0.0
 10
318.1961425800291
 20
-958.5030144524608
 30
0.0
 10
312.4512895896223
 20
-968.1528958756298
 30
0.0
 10
312.4512895896223
 20
-968.1528958756298
 30
0.0
 10
304.7322798932
 20
-981.1188548652062
 30
0.0
 10
304.7322798932
 20
-981.1188548652062
 30
0.0
 10
300.3607558019157
 20
-988.4618955295846
 30
0.0
 10
292.7043363346183
 20
-993.2337593433367
 30
0.0
 10
284.1864730186117
 20
-993.9240300215533
 30
0.0
 10
275.668609702604
 20
-994.61430069977
 30
0.0
 10
267.3437372382941
 20
-991.1375289544321
 30
0.0
 10
261.8468895308124
 20
-984.5942014859229
 30
0.0
 10
261.8468895308124
 20
-984.5942014859229
 30
0.0
 10
132.5202781998887
 20
-830.6466276466963
 30
0.0
 10
132.5202781998887
 20
-830.6466276466963
 30
0.0
 10
124.6603309098646
 20
-821.2903180414978
 30
0.0
 10
124.250990817457
 20
-807.7619410277312
 30
0.0
 10
131.5308726902349
 20
-797.9475321943519
 30
0.0
 10
131.5308726902349
 20
-797.9475321943519
 30
0.0
 10
140.2548919537812
 20
-786.1862023789745
 30
0.0
 10
140.2548919537812
 20
-786.1862023789745
 30
0.0
 10
145.0659357913164
 20
-779.7001697809137
 30
0.0
 10
152.5816897362938
 20
-775.7737386813806
 30
0.0
 10
160.6535579765678
 20
-775.5293930625412
 30
0.0
 10
168.7254262168426
 20
-775.2850474437037
 30
0.0
 10
176.4649170612347
 20
-778.749683068183
 30
0.0
 10
181.6594730287306
 20
-784.9328335572427
 30
0.0
 10
181.6594730287306
 20
-784.9328335572427
 30
0.0
 10
309.9810747925294
 20
-937.6757782222685
 30
0.0
 10
309.9810747925294
 20
-937.6757782222685
 30
0.0
  0
SPLINE
  5
57
330
1F
100
AcDbEntity
  8
Layer 1
370
     0
100
AcDbSpline
210
0.0
220
0.0
230
1.0
 70
    11
 71
     3
 72
    35
 73
    31
 74
     0
 42
0.0000000001
 43
0.0000000001
 12
1.0
 22
0.0
 32
0.0
 13
1.0
 23
0.0
 33
0.0
 40
0.0
 40
0.0
 40
0.0
 40
0.0
 40
1.0
 40
1.0
 40
1.0
 40
2.0
 40
2.0
 40
2.0
 40
3.0
 40
3.0
 40
3.0
 40
4.0
 40
4.0
 40
4.0
 40
5.0
 40
5.0
 40
5.0
 40
6.0
 40
6.0
 40
6.0
 40
7.0
 40
7.0
 40
7.0
 40
8.0
 40
8.0
 40
8.0
 40
9.0
 40
9.0
 40
9.0
 40
10.0
 40
10.0
 40
10.0
 40
10.0
 10
36.77739149692661
 20
-389.6295222757872
 30
0.0
 10
42.01042257607696
 20
-384.4322072070017
 30
0.0
 10
49.17948738873929
 20
-381.6617219940927
 30
0.0
 10
56.54762009913702
 20
-381.9893171124149
 30
0.0
 10
63.91575280953384
 20
-382.3169122307372
 30
0.0
 10
70.81065862761261
 20
-385.7126967296317
 30
0.0
 10
75.56179667253764
 20
-391.3539187140641
 30
0.0
 10
75.56179667253764
 20
-391.3539187140641
 30
0.0
 10
204.971221894918
 20
-545.0070619514008
 30
0.0
 10
204.971221894918
 20
-545.0070619514008
 30
0.0
 10
213.2145217101106
 20
-554.7946715097896
 30
0.0
 10
213.2488283420707
 20
-569.0856297031933
 30
0.0
 10
205.0526152036327
 20
-578.9127036776736
 30
0.0
 10
205.0526152036327
 20
-578.9127036776736
 30
0.0
 10
195.7794265599969
 20
-590.031046898026
 30
0.0
 10
195.7794265599969
 20
-590.031046898026
 30
0.0
 10
190.7792418060408
 20
-596.0261552039283
 30
0.0
 10
183.3814784739043
 20
-599.5000117178279
 30
0.0
 10
175.5748901879197
 20
-599.5187335318424
 30
0.0
 10
167.768301901935
 20
-599.5374553458569
 30
0.0
 10
160.3539617066463
 20
-596.0991213210727
 30
0.0
 10
155.3250796134307
 20
-590.1280647926415
 30
0.0
 10
155.3250796134307
 20
-590.1280647926415
 30
0.0
 10
25.04111230096169
 20
-435.4350496947882
 30
0.0
 10
25.04111230096169
 20
-435.4350496947882
 30
0.0
 10
16.1916166231822
 20
-424.9275774652415
 30
0.0
 10
16.8825334887988
 20
-409.3885956986342
 30
0.0
 10
26.62966076320208
 20
-399.707993635624
 30
0.0
 10
26.62966076320208
 20
-399.707993635624
 30
0.0
 10
36.77739149692661
 20
-389.6295222757872
 30
0.0
 10
36.77739149692661
 20
-389.6295222757872
 30
0.0
  0
SPLINE
  5
58
330
1F
100
AcDbEntity
  8
Layer 1
370
     0
100
AcDbSpline
210
0.0
220
0.0
230
1.0
 70
    11
 71
     3
 72
    35
 73
    31
 74
     0
 42
0.0000000001
 43
0.0000000001
 12
1.0
 22
0.0
 32
0.0
 13
1.0
 23
0.0
 33
0.0
 40
0.0
 40
0.0
 40
0.0
 40
0.0
 40
1.0
 40
1.0
 40
1.0
 40
2.0
 40
2.0
 40
2.0
 40
3.0
 40
3.0
 40
3.0
 40
4.0
 40
4.0
 40
4.0
 40
5.0
 40
5.0
 40
5.0
 40
6.0
 40
6.0
 40
6.0
 40
7.0
 40
7.0
 40
7.0
 40
8.0
 40
8.0
 40
8.0
 40
9.0
 40
9.0
 40
9.0
 40
10.0
 40
10.0
 40
10.0
 40
10.0
 10
403.4173082666366
 20
-780.6327373214172
 30
0.0
 10
410.6589097496035
 20
-789.2310308758333
 30
0.0
 10
411.659253701624
 20
-801.4727255673315
 30
0.0
 10
405.9096400009803
 20
-811.1326109900165
 30
0.0
 10
405.9096400009803
 20
-811.1326109900165
 30
0.0
 10
398.1926830293505
 20
-824.0978159653296
 30
0.0
 10
398.1926830293505
 20
-824.0978159653296
 30
0.0
 10
393.8246466745004
 20
-831.4365230345102
 30
0.0
 10
386.1754987191089
 20
-836.2079654384543
 30
0.0
 10
377.6635980044684
 20
-836.9036013120312
 30
0.0
 10
369.151697289828
 20
-837.5992371856082
 30
0.0
 10
360.8293297943983
 20
-834.1330683598535
 30
0.0
 10
355.3276998209894
 20
-827.6009606846692
 30
0.0
 10
355.3276998209894
 20
-827.6009606846692
 30
0.0
 10
238.0755006086047
 20
-688.3869469997571
 30
0.0
 10
238.0755006086047
 20
-688.3869469997571
 30
0.0
 10
230.1950396056809
 20
-679.0304435544167
 30
0.0
 10
229.7770932052736
 20
-665.4849630487697
 30
0.0
 10
237.0657220669145
 20
-655.6604166644047
 30
0.0
 10
237.0657220669145
 20
-655.6604166644047
 30
0.0
 10
245.7957181213387
 20
-643.8930111893678
 30
0.0
 10
245.7957181213387
 20
-643.8930111893678
 30
0.0
 10
250.6036711030583
 20
-637.4122370987388
 30
0.0
 10
258.1123014453806
 20
-633.4871676214116
 30
0.0
 10
266.1779660765342
 20
-633.2383730355468
 30
0.0
 10
274.2436307076878
 20
-632.9895784496821
 30
0.0
 10
281.9799022200586
 20
-636.4444016153975
 30
0.0
 10
287.1781481370463
 20
-642.6165231367813
 30
0.0
 10
287.1781481370463
 20
-642.6165231367813
 30
0.0
 10
403.4173082666366
 20
-780.6327373214172
 30
0.0
 10
403.4173082666366
 20
-780.6327373214172
 30
0.0
  0
SPLINE
  5
59
330
1F
100
AcDbEntity
  8
Layer 1
370
     0
100
AcDbSpline
210
0.0
220
0.0
230
1.0
 70
    11
 71
     3
 72
    35
 73
    31
 74
     0
 42
0.0000000001
 43
0.0000000001
 12
1.0
 22
0.0
 32
0.0
 13
1.0
 23
0.0
 33
0.0
 40
0.0
 40
0.0
 40
0.0
 40
0.0
 40
1.0
 40
1.0
 40
1.0
 40
2.0
 40
2.0
 40
2.0
 40
3.0
 40
3.0
 40
3.0
 40
4.0
 40
4.0
 40
4.0
 40
5.0
 40
5.0
 40
5.0
 40
6.0
 40
6.0
 40
6.0
 40
7.0
 40
7.0
 40
7.0
 40
8.0
 40
8.0
 40
8.0
 40
9.0
 40
9.0
 40
9.0
 40
10.0
 40
10.0
 40
10.0
 40
10.0
 10
317.0036157822688
 20
-410.6676785260643
 30
0.0
 10
325.2712631662762
 20
-420.4556979410227
 30
0.0
 10
325.3146270553061
 20
-434.767821000758
 30
0.0
 10
317.1064437970508
 20
-444.6057600599706
 30
0.0
 10
317.1064437970508
 20
-444.6057600599706
 30
0.0
 10
307.8309228106027
 20
-455.7229594859637
 30
0.0
 10
307.8309228106027
 20
-455.7229594859637
 30
0.0
 10
302.8344096596948
 20
-461.7115431153252
 30
0.0
 10
295.4449973503433
 20
-465.1835032145918
 30
0.0
 10
287.6457844278657
 20
-465.2070689291941
 30
0.0
 10
279.8465715053881
 20
-465.2306346437963
 30
0.0
 10
272.4363129090116
 20
-461.8033924954598
 30
0.0
 10
267.4037017076444
 20
-455.8451123703799
 30
0.0
 10
267.4037017076444
 20
-455.8451123703799
 30
0.0
 10
147.4966651130162
 20
-313.8830802537705
 30
0.0
 10
147.4966651130162
 20
-313.8830802537705
 30
0.0
 10
138.6222836373317
 20
-303.3763972112629
 30
0.0
 10
139.303871948985
 20
-287.8159509681873
 30
0.0
 10
149.0629424751314
 20
-278.1254619404144
 30
0.0
 10
149.0629424751314
 20
-278.1254619404144
 30
0.0
 10
159.2122282583932
 20
-268.0474998784593
 30
0.0
 10
159.2122282583932
 20
-268.0474998784593
 30
0.0
 10
164.4407881757988
 20
-262.8556834677747
 30
0.0
 10
171.6016935388043
 20
-260.0860318343157
 30
0.0
 10
178.9630022200618
 20
-260.4084150711642
 30
0.0
 10
186.3243109013192
 20
-260.7307983080136
 30
0.0
 10
193.2156750494423
 20
-264.1158590115483
 30
0.0
 10
197.9703439844543
 20
-269.7448837734928
 30
0.0
 10
197.9703439844543
 20
-269.7448837734928
 30
0.0
 10
317.0036157822688
 20
-410.6676785260643
 30
0.0
 10
317.0036157822688
 20
-410.6676785260643
 30
0.0
  0
SPLINE
  5
5A
330
1F
100
AcDbEntity
  8
Layer 1
370
     0
100
AcDbSpline
210
0.0
220
0.0
230
1.0
 70
    11
 71
     3
 72
    35
 73
    31
 74
     0
 42
0.0000000001
 43
0.0000000001
 12
1.0
 22
0.0
 32
0.0
 13
1.0
 23
0.0
 33
0.0
 40
0.0
 40
0.0
 40
0.0
 40
0.0
 40
1.0
 40
1.0
 40
1.0
 40
2.0
 40
2.0
 40
2.0
 40
3.0
 40
3.0
 40
3.0
 40
4.0
 40
4.0
 40
4.0
 40
5.0
 40
5.0
 40
5.0
 40
6.0
 40
6.0
 40
6.0
 40
7.0
 40
7.0
 40
7.0
 40
8.0
 40
8.0
 40
8.0
 40
9.0
 40
9.0
 40
9.0
 40
10.0
 40
10.0
 40
10.0
 40
10.0
 10
496.8564108390783
 20
-623.5974386152793
 30
0.0
 10
504.1190224480633
 20
-632.1957804622707
 30
0.0
 10
505.1296439968319
 20
-644.4538159897711
 30
0.0
 10
499.3733173399269
 20
-654.1255124965755
 30
0.0
 10
499.3733173399269
 20
-654.1255124965755
 30
0.0
 10
491.6603562681121
 20
-667.0847177504857
 30
0.0
 10
491.6603562681121
 20
-667.0847177504857
 30
0.0
 10
487.2957903315364
 20
-674.4179980937533
 30
0.0
 10
479.6547455561049
 20
-679.1883117358411
 30
0.0
 10
471.1497610839488
 20
-679.889507525957
 30
0.0
 10
462.6447766117926
 20
-680.5907033160711
 30
0.0
 10
454.325637128446
 20
-677.1362314663293
 30
0.0
 10
448.8189794646405
 20
-670.6167868748526
 30
0.0
 10
448.8189794646405
 20
-670.6167868748526
 30
0.0
 10
343.6514680241689
 20
-546.1068199368128
 30
0.0
 10
343.6514680241689
 20
-546.1068199368128
 30
0.0
 10
335.7492676733782
 20
-536.7512433814845
 30
0.0
 10
335.3208623697647
 20
-523.1887747549426
 30
0.0
 10
342.6168586667663
 20
-513.3531242375248
 30
0.0
 10
342.6168586667663
 20
-513.3531242375248
 30
0.0
 10
351.3413759601626
 20
-501.591700637804
 30
0.0
 10
351.3413759601626
 20
-501.591700637804
 30
0.0
 10
356.1451857418724
 20
-495.1157387209259
 30
0.0
 10
363.6458250899414
 20
-491.1910344041044
 30
0.0
 10
371.7049729609826
 20
-490.9364626845618
 30
0.0
 10
379.7641208320238
 20
-490.6818909650174
 30
0.0
 10
387.4975062137419
 20
-494.1253841248908
 30
0.0
 10
392.7004556201882
 20
-500.285253331429
 30
0.0
 10
392.7004556201882
 20
-500.285253331429
 30
0.0
 10
496.8564108390783
 20
-623.5974386152793
 30
0.0
 10
496.8564108390783
 20
-623.5974386152793
 30
0.0
  0
SPLINE
  5
5B
330
1F
100
AcDbEntity
  8
Layer 1
370
     0
100
AcDbSpline
210
0.0
220
0.0
230
1.0
 70
    11
 71
     3
 72
    35
 73
    31
 74
     0
 42
0.0000000001
 43
0.0000000001
 12
1.0
 22
0.0
 32
0.0
 13
1.0
 23
0.0
 33
0.0
 40
0.0
 40
0.0
 40
0.0
 40
0.0
 40
1.0
 40
1.0
 40
1.0
 40
2.0
 40
2.0
 40
2.0
 40
3.0
 40
3.0
 40
3.0
 40
4.0
 40
4.0
 40
4.0
 40
5.0
 40
5.0
 40
5.0
 40
6.0
 40
6.0
 40
6.0
 40
7.0
 40
7.0
 40
7.0
 40
8.0
 40
8.0
 40
8.0
 40
9.0
 40
9.0
 40
9.0
 40
10.0
 40
10.0
 40
10.0
 40
10.0
 10
429.0213360025373
 20
-276.3125613448874
 30
0.0
 10
437.3164097383724
 20
-286.0991585038018
 30
0.0
 10
437.3723155456792
 20
-300.4332576731404
 30
0.0
 10
429.1538323156874
 20
-310.2842609536256
 30
0.0
 10
429.1538323156874
 20
-310.2842609536256
 30
0.0
 10
419.8852900806523
 20
-321.3939070291244
 30
0.0
 10
419.8852900806523
 20
-321.3939070291244
 30
0.0
 10
414.8939479631026
 20
-327.3767296738888
 30
0.0
 10
407.5140684783582
 20
-330.8483110844818
 30
0.0
 10
399.7226153657375
 20
-330.8786644527154
 30
0.0
 10
391.9311622531168
 20
-330.909017820949
 30
0.0
 10
384.524458518159
 20
-327.4950408904051
 30
0.0
 10
379.4866537316193
 20
-321.551289056265
 30
0.0
 10
379.4866537316193
 20
-321.551289056265
 30
0.0
 10
269.9611490037942
 20
-192.3298429711713
 30
0.0
 10
269.9611490037942
 20
-192.3298429711713
 30
0.0
 10
261.057569602679
 20
-181.8251353379619
 30
0.0
 10
261.7268360369926
 20
-166.2404863528554
 30
0.0
 10
271.4982027608075
 20
-156.5377547292419
 30
0.0
 10
271.4982027608075
 20
-156.5377547292419
 30
0.0
 10
281.6429777343646
 20
-146.4642377144246
 30
0.0
 10
281.6429777343646
 20
-146.4642377144246
 30
0.0
 10
286.8659804467316
 20
-141.2779219185004
 30
0.0
 10
294.0175176094072
 20
-138.5083788783068
 30
0.0
 10
301.3712867166687
 20
-138.8241458581087
 30
0.0
 10
308.7250558239302
 20
-139.1399128379098
 30
0.0
 10
315.6128618228122
 20
-142.5122978933814
 30
0.0
 10
320.372064013236
 20
-148.1272443204734
 30
0.0
 10
320.372064013236
 20
-148.1272443204734
 30
0.0
 10
429.0213360025373
 20
-276.3125613448874
 30
0.0
 10
429.0213360025373
 20
-276.3125613448874
 30
0.0
  0
SPLINE
  5
5C
330
1F
100
AcDbEntity
  8
Layer 1
370
     0
100
AcDbSpline
210
0.0
220
0.0
230
1.0
 70
    11
 71
     3
 72
    35
 73
    31
 74
     0
 42
0.0000000001
 43
0.0000000001
 12
1.0
 22
0.0
 32
0.0
 13
1.0
 23
0.0
 33
0.0
 40
0.0
 40
0.0
 40
0.0
 40
0.0
 40
1.0
 40
1.0
 40
1.0
 40
2.0
 40
2.0
 40
2.0
 40
3.0
 40
3.0
 40
3.0
 40
4.0
 40
4.0
 40
4.0
 40
5.0
 40
5.0
 40
5.0
 40
6.0
 40
6.0
 40
6.0
 40
7.0
 40
7.0
 40
7.0
 40
8.0
 40
8.0
 40
8.0
 40
9.0
 40
9.0
 40
9.0
 40
10.0
 40
10.0
 40
10.0
 40
10.0
 10
590.2770611895321
 20
-466.5603562818251
 30
0.0
 10
597.5657268700052
 20
-475.159239079554
 30
0.0
 10
598.5885225248949
 20
-487.4380918815586
 30
0.0
 10
592.8229608430884
 20
-497.1243569648632
 30
0.0
 10
592.8229608430884
 20
-497.1243569648632
 30
0.0
 10
585.113261012686
 20
-510.0768150932054
 30
0.0
 10
585.113261012686
 20
-510.0768150932054
 30
0.0
 10
580.7526096074052
 20
-517.4028013159732
 30
0.0
 10
573.1216158497718
 20
-522.1710931410544
 30
0.0
 10
564.6254683129864
 20
-522.8787878829517
 30
0.0
 10
556.129320776201
 20
-523.5864826248489
 30
0.0
 10
547.814602953722
 20
-520.1464041096478
 30
0.0
 10
542.3020042250992
 20
-513.6428197078167
 30
0.0
 10
542.3020042250992
 20
-513.6428197078167
 30
0.0
 10
449.2277755026134
 20
-403.8368766434523
 30
0.0
 10
449.2277755026134
 20
-403.8368766434523
 30
0.0
 10
441.2986483341501
 20
-394.4823507090341
 30
0.0
 10
440.8574473519657
 20
-380.898694777522
 30
0.0
 10
448.1628273012593
 20
-371.0493477480077
 30
0.0
 10
448.1628273012593
 20
-371.0493477480077
 30
0.0
 10
456.8841546015083
 20
-359.2909751877378
 30
0.0
 10
456.8841546015083
 20
-359.2909751877378
 30
0.0
 10
461.6829910363776
 20
-352.8210303370979
 30
0.0
 10
469.1738741244535
 20
-348.8969277797214
 30
0.0
 10
477.22500000937
 20
-348.6354139480673
 30
0.0
 10
485.2761258942883
 20
-348.3739001164131
 30
0.0
 10
493.0058729744233
 20
-351.8036115324303
 30
0.0
 10
498.214459936893
 20
-357.9484987855321
 30
0.0
 10
498.214459936893
 20
-357.9484987855321
 30
0.0
 10
590.2770611895321
 20
-466.5603562818251
 30
0.0
 10
590.2770611895321
 20
-466.5603562818251
 30
0.0
  0
SPLINE
  5
5D
330
1F
100
AcDbEntity
  8
Layer 1
370
     0
100
AcDbSpline
210
0.0
220
0.0
230
1.0
 70
    11
 71
     3
 72
    35
 73
    31
 74
     0
 42
0.0000000001
 43
0.0000000001
 12
1.0
 22
0.0
 32
0.0
 13
1.0
 23
0.0
 33
0.0
 40
0.0
 40
0.0
 40
0.0
 40
0.0
 40
1.0
 40
1.0
 40
1.0
 40
2.0
 40
2.0
 40
2.0
 40
3.0
 40
3.0
 40
3.0
 40
4.0
 40
4.0
 40
4.0
 40
5.0
 40
5.0
 40
5.0
 40
6.0
 40
6.0
 40
6.0
 40
7.0
 40
7.0
 40
7.0
 40
8.0
 40
8.0
 40
8.0
 40
9.0
 40
9.0
 40
9.0
 40
10.0
 40
10.0
 40
10.0
 40
10.0
 10
541.0452638702154
 20
-141.9549568043858
 30
0.0
 10
549.374039749564
 20
-151.7405294151868
 30
0.0
 10
549.4443747672613
 20
-166.1024361302452
 30
0.0
 10
541.211842477298
 20
-175.969114956697
 30
0.0
 10
541.211842477298
 20
-175.969114956697
 30
0.0
 10
531.950777594162
 20
-187.0684887064026
 30
0.0
 10
531.950777594162
 20
-187.0684887064026
 30
0.0
 10
526.965407953101
 20
-193.0434474854237
 30
0.0
 10
519.597318194561
 20
-196.5137710860754
 30
0.0
 10
511.815764040939
 20
-196.5519525380168
 30
0.0
 10
504.0342098873189
 20
-196.5901339899574
 30
0.0
 10
496.6324203122513
 20
-193.1922811871445
 30
0.0
 10
491.5886579257713
 20
-187.266531963819
 30
0.0
 10
491.5886579257713
 20
-187.266531963819
 30
0.0
 10
392.4380348568266
 20
-70.77775183847825
 30
0.0
 10
392.4380348568266
 20
-70.77775183847825
 30
0.0
 10
383.498927582863
 20
-60.27549104048649
 30
0.0
 10
384.1532171190156
 20
-44.66136234611804
 30
0.0
 10
393.9396107972516
 20
-34.94376904844376
 30
0.0
 10
393.9396107972516
 20
-34.94376904844376
 30
0.0
 10
404.0807147383148
 20
-24.87395917477716
 30
0.0
 10
404.0807147383148
 20
-24.87395917477716
 30
0.0
 10
409.2970377601232
 20
-19.69430798743906
 30
0.0
 10
416.4372880080064
 20
-16.92494122297194
 30
0.0
 10
423.7819492432645
 20
-17.23277824093566
 30
0.0
 10
431.1266104785227
 20
-17.54061525889938
 30
0.0
 10
438.0100801136032
 20
-20.8977586370529
 30
0.0
 10
442.7746798591979
 20
-26.49574055508401
 30
0.0
 10
442.7746798591979
 20
-26.49574055508401
 30
0.0
 10
541.0452638702154
 20
-141.9549568043858
 30
0.0
 10
541.0452638702154
 20
-141.9549568043858
 30
0.0
  0
SPLINE
  5
5E
330
1F
100
AcDbEntity
  8
Layer 1
370
     0
100
AcDbSpline
210
0.0
220
0.0
230
1.0
 70
    11
 71
     3
 72
    35
 73
    31
 74
     0
 42
0.0000000001
 43
0.0000000001
 12
1.0
 22
0.0
 32
0.0
 13
1.0
 23
0.0
 33
0.0
 40
0.0
 40
0.0
 40
0.0
 40
0.0
 40
1.0
 40
1.0
 40
1.0
 40
2.0
 40
2.0
 40
2.0
 40
3.0
 40
3.0
 40
3.0
 40
4.0
 40
4.0
 40
4.0
 40
5.0
 40
5.0
 40
5.0
 40
6.0
 40
6.0
 40
6.0
 40
7.0
 40
7.0
 40
7.0
 40
8.0
 40
8.0
 40
8.0
 40
9.0
 40
9.0
 40
9.0
 40
10.0
 40
10.0
 40
10.0
 40
10.0
 10
683.6898530170183
 20
-309.5323299699894
 30
0.0
 10
691.0088702538433
 20
-318.1313917419866
 30
0.0
 10
692.0462937681932
 20
-330.4340802766046
 30
0.0
 10
686.2706196959534
 20
-340.1373511520796
 30
0.0
 10
686.2706196959534
 20
-340.1373511520796
 30
0.0
 10
678.5683059038256
 20
-353.0774229355866
 30
0.0
 10
678.5683059038256
 20
-353.0774229355866
 30
0.0
 10
674.2125641288476
 20
-360.3951735180481
 30
0.0
 10
666.5934587646643
 20
-365.1614999076683
 30
0.0
 10
658.1075989653018
 20
-365.8771419012555
 30
0.0
 10
649.6217391659393
 20
-366.5927838948428
 30
0.0
 10
641.312000199945
 20
-363.1697922033572
 30
0.0
 10
635.7922317939701
 20
-356.6848776517381
 30
0.0
 10
635.7922317939701
 20
-356.6848776517381
 30
0.0
 10
554.824467375689
 20
-261.5596848774103
 30
0.0
 10
554.824467375689
 20
-261.5596848774103
 30
0.0
 10
546.8627983712377
 20
-252.2058969311202
 30
0.0
 10
546.4068377183048
 20
-238.5960200406535
 30
0.0
 10
553.7246124044141
 20
-228.7303373007744
 30
0.0
 10
553.7246124044141
 20
-228.7303373007744
 30
0.0
 10
562.4412540370122
 20
-216.978729114795
 30
0.0
 10
562.4412540370122
 20
-216.978729114795
 30
0.0
 10
567.2345320745499
 20
-210.5165240824199
 30
0.0
 10
574.7138114419467
 20
-206.5937675189434
 30
0.0
 10
582.7551463642885
 20
-206.3244333541743
 30
0.0
 10
590.7964812866303
 20
-206.0550991894052
 30
0.0
 10
598.5214794231251
 20
-209.4686080443871
 30
0.0
 10
603.7364164392093
 20
-215.5956007931873
 30
0.0
 10
603.7364164392093
 20
-215.5956007931873
 30
0.0
 10
683.6898530170183
 20
-309.5323299699894
 30
0.0
 10
683.6898530170183
 20
-309.5323299699894
 30
0.0
  0
SPLINE
  5
5F
330
1F
100
AcDbEntity
  8
Layer 1
370
     0
100
AcDbSpline
210
0.0
220
0.0
230
1.0
 70
    11
 71
     3
 72
    35
 73
    31
 74
     0
 42
0.0000000001
 43
0.0000000001
 12
1.0
 22
0.0
 32
0.0
 13
1.0
 23
0.0
 33
0.0
 40
0.0
 40
0.0
 40
0.0
 40
0.0
 40
1.0
 40
1.0
 40
1.0
 40
2.0
 40
2.0
 40
2.0
 40
3.0
 40
3.0
 40
3.0
 40
4.0
 40
4.0
 40
4.0
 40
5.0
 40
5.0
 40
5.0
 40
6.0
 40
6.0
 40
6.0
 40
7.0
 40
7.0
 40
7.0
 40
8.0
 40
8.0
 40
8.0
 40
9.0
 40
9.0
 40
9.0
 40
10.0
 40
10.0
 40
10.0
 40
10.0
 10
777.0778823654691
 20
-152.5025740311512
 30
0.0
 10
784.4354962879479
 20
-161.1018831597894
 30
0.0
 10
785.4914161884681
 20
-173.4350001057755
 30
0.0
 10
779.7026556369583
 20
-183.1598575031594
 30
0.0
 10
779.7026556369583
 20
-183.1598575031594
 30
0.0
 10
772.0135178888504
 20
-196.0772631280388
 30
0.0
 10
772.0135178888504
 20
-196.0772631280388
 30
0.0
 10
767.663811551336
 20
-203.3845741623109
 30
0.0
 10
760.059557166458
 20
-208.1482719164114
 30
0.0
 10
751.5866317468954
 20
-208.8737197840901
 30
0.0
 10
743.1137063273327
 20
-209.5991676517706
 30
0.0
 10
734.8103349311968
 20
-206.19747329452
 30
0.0
 10
729.2817464131604
 20
-199.7359371944558
 30
0.0
 10
729.2817464131604
 20
-199.7359371944558
 30
0.0
 10
514.9406212799659
 20
50.77518571842029
 30
0.0
 10
514.9406212799659
 20
50.77518571842029
 30
0.0
 10
505.958132711723
 20
61.27346642112843
 30
0.0
 10
506.5928929095408
 20
76.9227239506281
 30
0.0
 10
516.3961300964456
 20
86.65902403067594
 30
0.0
 10
516.3961300964456
 20
86.65902403067594
 30
0.0
 10
526.5292298679014
 20
96.72293437324333
 30
0.0
 10
526.5292298679014
 20
96.72293437324333
 30
0.0
 10
531.7369197719308
 20
101.8950658500989
 30
0.0
 10
538.8632181567955
 20
104.6649584012584
 30
0.0
 10
546.1968720859586
 20
104.3674719348983
 30
0.0
 10
553.5305260151235
 20
104.069985468539
 30
0.0
 10
560.4090607130674
 20
100.731992984387
 30
0.0
 10
565.1807192556207
 20
95.15505359941108
 30
0.0
 10
565.1807192556207
 20
95.15505359941108
 30
0.0
 10
777.0778823654691
 20
-152.5025740311512
 30
0.0
 10
777.0778823654691
 20
-152.5025740311512
 30
0.0
  0
SPLINE
  5
60
330
1F
100
AcDbEntity
  8
Layer 1
370
     0
100
AcDbSpline
210
0.0
220
0.0
230
1.0
 70
    11
 71
     3
 72
    35
 73
    31
 74
     0
 42
0.0000000001
 43
0.0000000001
 12
1.0
 22
0.0
 32
0.0
 13
1.0
 23
0.0
 33
0.0
 40
0.0
 40
0.0
 40
0.0
 40
0.0
 40
1.0
 40
1.0
 40
1.0
 40
2.0
 40
2.0
 40
2.0
 40
3.0
 40
3.0
 40
3.0
 40
4.0
 40
4.0
 40
4.0
 40
5.0
 40
5.0
 40
5.0
 40
6.0
 40
6.0
 40
6.0
 40
7.0
 40
7.0
 40
7.0
 40
8.0
 40
8.0
 40
8.0
 40
9.0
 40
9.0
 40
9.0
 40
10.0
 40
10.0
 40
10.0
 40
10.0
 10
870.4553096100572
 20
4.529638158497619
 30
0.0
 10
877.8622744307322
 20
-4.070099668075272
 30
0.0
 10
878.9415835548334
 20
-16.44240029343655
 30
0.0
 10
873.1355830318425
 20
-26.19478341078411
 30
0.0
 10
873.1355830318425
 20
-26.19478341078411
 30
0.0
 10
865.4457932533132
 20
-39.11138162931547
 30
0.0
 10
865.4457932533132
 20
-39.11138162931547
 30
0.0
 10
861.1035371608777
 20
-46.40510212406571
 30
0.0
 10
853.5181472519507
 20
-51.16508817909835
 30
0.0
 10
845.061822903046
 20
-51.90273656009686
 30
0.0
 10
836.6054985541432
 20
-52.64038494109627
 30
0.0
 10
828.310513845674
 20
-49.26564998841877
 30
0.0
 10
822.770981643278
 20
-42.8339216354434
 30
0.0
 10
822.770981643278
 20
-42.8339216354434
 30
0.0
 10
637.4604866105292
 20
172.3226514214657
 30
0.0
 10
637.4604866105292
 20
172.3226514214657
 30
0.0
 10
628.4214853003141
 20
182.8174728044587
 30
0.0
 10
629.0333420593415
 20
198.514366394952
 30
0.0
 10
638.8618414635021
 20
208.2737424000779
 30
0.0
 10
638.8618414635021
 20
208.2737424000779
 30
0.0
 10
649.0010722542065
 20
218.3416644317304
 30
0.0
 10
649.0010722542065
 20
218.3416644317304
 30
0.0
 10
654.1982796307511
 20
223.5023200800206
 30
0.0
 10
661.306298426789
 20
226.2711841042237
 30
0.0
 10
668.6249029526534
 20
225.9859490625286
 30
0.0
 10
675.9435074785197
 20
225.7007140208352
 30
0.0
 10
682.8144654052994
 20
222.3870338374463
 30
0.0
 10
687.5942555894853
 20
216.8375350285278
 30
0.0
 10
687.5942555894853
 20
216.8375350285278
 30
0.0
 10
870.4553096100572
 20
4.529638158497619
 30
0.0
 10
870.4553096100572
 20
4.529638158497619
 30
0.0
  0
SPLINE
  5
61
330
1F
100
AcDbEntity
  8
Layer 1
370
     0
100
AcDbSpline
210
0.0
220
0.0
230
1.0
 70
    11
 71
     3
 72
    35
 73
    31
 74
     0
 42
0.0000000001
 43
0.0000000001
 12
1.0
 22
0.0
 32
0.0
 13
1.0
 23
0.0
 33
0.0
 40
0.0
 40
0.0
 40
0.0
 40
0.0
 40
1.0
 40
1.0
 40
1.0
 40
2.0
 40
2.0
 40
2.0
 40
3.0
 40
3.0
 40
3.0
 40
4.0
 40
4.0
 40
4.0
 40
5.0
 40
5.0
 40
5.0
 40
6.0
 40
6.0
 40
6.0
 40
7.0
 40
7.0
 40
7.0
 40
8.0
 40
8.0
 40
8.0
 40
9.0
 40
9.0
 40
9.0
 40
10.0
 40
10.0
 40
10.0
 40
10.0
 10
963.7963139645544
 20
161.5528899454084
 30
0.0
 10
971.2674984814075
 20
152.9540638553208
 30
0.0
 10
972.3786495418899
 20
140.5320648623238
 30
0.0
 10
966.5521985396335
 20
130.7437617953601
 30
0.0
 10
966.5521985396335
 20
130.7437617953601
 30
0.0
 10
958.8745428998682
 20
117.845477708408
 30
0.0
 10
958.8745428998682
 20
117.845477708408
 30
0.0
 10
954.5429255200015
 20
110.5684605897804
 30
0.0
 10
946.9823490959825
 20
105.812089514634
 30
0.0
 10
938.5473817665315
 20
105.057627175308
 30
0.0
 10
930.1124144370788
 20
104.303164835982
 30
0.0
 10
921.8277418719517
 20
107.6422638396853
 30
0.0
 10
916.2734353471424
 20
114.035038378086
 30
0.0
 10
916.2734353471424
 20
114.035038378086
 30
0.0
 10
760.024043336769
 20
293.8715544981296
 30
0.0
 10
760.024043336769
 20
293.8715544981296
 30
0.0
 10
750.9115729165878
 20
304.3596268837391
 30
0.0
 10
751.4908905114262
 20
320.1165380200182
 30
0.0
 10
761.3489254602355
 20
329.9071420091768
 30
0.0
 10
761.3489254602355
 20
329.9071420091768
 30
0.0
 10
771.4840643927237
 20
339.9729545345308
 30
0.0
 10
771.4840643927237
 20
339.9729545345308
 30
0.0
 10
776.6670089862382
 20
345.1204467351936
 30
0.0
 10
783.7515809518864
 20
347.8895957291534
 30
0.0
 10
791.0514153323802
 20
347.6212514862364
 30
0.0
 10
798.3512497128722
 20
347.3529072433194
 30
0.0
 10
805.2133855956363
 20
344.0710728151853
 30
0.0
 10
810.004405246902
 20
338.5569345038512
 30
0.0
 10
810.004405246902
 20
338.5569345038512
 30
0.0
 10
963.7963139645544
 20
161.5528899454084
 30
0.0
 10
963.7963139645544
 20
161.5528899454084
 30
0.0
  0
SPLINE
  5
62
330
1F
100
AcDbEntity
  8
Layer 1
370
     0
100
AcDbSpline
210
0.0
220
0.0
230
1.0
 70
    11
 71
     3
 72
    35
 73
    31
 74
     0
 42
0.0000000001
 43
0.0000000001
 12
1.0
 22
0.0
 32
0.0
 13
1.0
 23
0.0
 33
0.0
 40
0.0
 40
0.0
 40
0.0
 40
0.0
 40
1.0
 40
1.0
 40
1.0
 40
2.0
 40
2.0
 40
2.0
 40
3.0
 40
3.0
 40
3.0
 40
4.0
 40
4.0
 40
4.0
 40
5.0
 40
5.0
 40
5.0
 40
6.0
 40
6.0
 40
6.0
 40
7.0
 40
7.0
 40
7.0
 40
8.0
 40
8.0
 40
8.0
 40
9.0
 40
9.0
 40
9.0
 40
10.0
 40
10.0
 40
10.0
 40
10.0
 10
1057.082588902431
 20
318.5616009438236
 30
0.0
 10
1064.64231030697
 20
309.9641709027765
 30
0.0
 10
1065.79709904252
 20
297.4733097761464
 30
0.0
 10
1059.941714977511
 20
287.6356439718948
 30
0.0
 10
1059.941714977511
 20
287.6356439718948
 30
0.0
 10
1052.28229275185
 20
274.7670028591701
 30
0.0
 10
1052.28229275185
 20
274.7670028591701
 30
0.0
 10
1047.96496871982
 20
267.5134409195653
 30
0.0
 10
1040.4384713944
 20
262.7626353129563
 30
0.0
 10
1032.03314307845
 20
261.9855230235944
 30
0.0
 10
1023.6278147625
 20
261.2084107342298
 30
0.0
 10
1015.357874599369
 20
264.4987611106462
 30
0.0
 10
1009.783848497869
 20
270.8378210274614
 30
0.0
 10
1009.783848497869
 20
270.8378210274614
 30
0.0
 10
882.6464162405464
 20
415.4248369605639
 30
0.0
 10
882.6464162405464
 20
415.4248369605639
 30
0.0
 10
873.4319396897681
 20
425.9039983232542
 30
0.0
 10
873.9672852563326
 20
441.7452577755048
 30
0.0
 10
883.8682044293109
 20
451.5784261611407
 30
0.0
 10
883.8682044293109
 20
451.5784261611407
 30
0.0
 10
893.998477133393
 20
461.6393786395256
 30
0.0
 10
893.998477133393
 20
461.6393786395256
 30
0.0
 10
899.1621617989658
 20
466.7677288381092
 30
0.0
 10
906.2143197778751
 20
469.5362343291399
 30
0.0
 10
913.487777150789
 20
469.2904032302804
 30
0.0
 10
920.761234523703
 20
469.04457213142
 30
0.0
 10
927.6103706091326
 20
465.806225377808
 30
0.0
 10
932.416007123531
 20
460.3409282425882
 30
0.0
 10
932.416007123531
 20
460.3409282425882
 30
0.0
 10
1057.082588902431
 20
318.5616009438236
 30
0.0
 10
1057.082588902431
 20
318.5616009438236
 30
0.0
  0
SPLINE
  5
63
330
1F
100
AcDbEntity
  8
Layer 1
370
     0
100
AcDbSpline
210
0.0
220
0.0
230
1.0
 70
    11
 71
     3
 72
    35
 73
    31
 74
     0
 42
0.0000000001
 43
0.0000000001
 12
1.0
 22
0.0
 32
0.0
 13
1.0
 23
0.0
 33
0.0
 40
0.0
 40
0.0
 40
0.0
 40
0.0
 40
1.0
 40
1.0
 40
1.0
 40
2.0
 40
2.0
 40
2.0
 40
3.0
 40
3.0
 40
3.0
 40
4.0
 40
4.0
 40
4.0
 40
5.0
 40
5.0
 40
5.0
 40
6.0
 40
6.0
 40
6.0
 40
7.0
 40
7.0
 40
7.0
 40
8.0
 40
8.0
 40
8.0
 40
9.0
 40
9.0
 40
9.0
 40
10.0
 40
10.0
 40
10.0
 40
10.0
 10
1150.280689190509
 20
475.56782824314
 30
0.0
 10
1157.971290018641
 20
466.9727551213346
 30
0.0
 10
1159.19002981741
 20
454.3793601372872
 30
0.0
 10
1153.290306257641
 20
444.4690682654427
 30
0.0
 10
1153.290306257641
 20
444.4690682654427
 30
0.0
 10
1145.649273339021
 20
431.633743752559
 30
0.0
 10
1145.649273339021
 20
431.633743752559
 30
0.0
 10
1141.352098399249
 20
424.4153957323342
 30
0.0
 10
1133.875206721001
 20
419.6739386025702
 30
0.0
 10
1125.51365651489
 20
418.8647793136715
 30
0.0
 10
1117.15210630878
 20
418.055620024772
 30
0.0
 10
1108.90479198972
 20
421.2754230318369
 30
0.0
 10
1103.303255708921
 20
427.5358584718806
 30
0.0
 10
1103.303255708921
 20
427.5358584718806
 30
0.0
 10
1005.37675392707
 20
536.9812876438
 30
0.0
 10
1005.37675392707
 20
536.9812876438
 30
0.0
 10
996.0127255253537
 20
547.4467907359767
 30
0.0
 10
996.484006944158
 20
563.4123267764007
 30
0.0
 10
1006.44904842486
 20
573.3072613981385
 30
0.0
 10
1006.44904842486
 20
573.3072613981385
 30
0.0
 10
1016.57566865694
 20
583.3626380194646
 30
0.0
 10
1016.57566865694
 20
583.3626380194646
 30
0.0
 10
1021.711364621169
 20
588.4622029235989
 30
0.0
 10
1028.715934886859
 20
591.2289491189404
 30
0.0
 10
1035.95025220356
 20
591.015435162004
 30
0.0
 10
1043.184569520261
 20
590.8019212050704
 30
0.0
 10
1050.01377374279
 20
587.6268843858807
 30
0.0
 10
1054.839774722121
 20
582.2333095235017
 30
0.0
 10
1054.839774722121
 20
582.2333095235017
 30
0.0
 10
1150.280689190509
 20
475.56782824314
 30
0.0
 10
1150.280689190509
 20
475.56782824314
 30
0.0
  0
SPLINE
  5
64
330
1F
100
AcDbEntity
  8
Layer 1
370
     0
100
AcDbSpline
210
0.0
220
0.0
230
1.0
 70
    11
 71
     3
 72
    35
 73
    31
 74
     0
 42
0.0000000001
 43
0.0000000001
 12
1.0
 22
0.0
 32
0.0
 13
1.0
 23
0.0
 33
0.0
 40
0.0
 40
0.0
 40
0.0
 40
0.0
 40
1.0
 40
1.0
 40
1.0
 40
2.0
 40
2.0
 40
2.0
 40
3.0
 40
3.0
 40
3.0
 40
4.0
 40
4.0
 40
4.0
 40
5.0
 40
5.0
 40
5.0
 40
6.0
 40
6.0
 40
6.0
 40
7.0
 40
7.0
 40
7.0
 40
8.0
 40
8.0
 40
8.0
 40
9.0
 40
9.0
 40
9.0
 40
10.0
 40
10.0
 40
10.0
 40
10.0
 10
1243.31188604095
 20
632.5414792934225
 30
0.0
 10
1251.212420486439
 20
623.9551448179318
 30
0.0
 10
1252.537109213799
 20
611.1999193627053
 30
0.0
 10
1246.56961276161
 20
601.1733262053767
 30
0.0
 10
1246.56961276161
 20
601.1733262053767
 30
0.0
 10
1238.963087420159
 20
588.3928351651593
 30
0.0
 10
1238.963087420159
 20
588.3928351651593
 30
0.0
 10
1234.69943540452
 20
581.2290430342664
 30
0.0
 10
1227.301734408451
 20
576.5008789646781
 30
0.0
 10
1219.009733185059
 20
575.6398552039245
 30
0.0
 10
1210.71773196168
 20
574.7788314431709
 30
0.0
 10
1202.50640723063
 20
577.8861874989634
 30
0.0
 10
1196.861842754641
 20
584.021131515131
 30
0.0
 10
1196.861842754641
 20
584.021131515131
 30
0.0
 10
1128.30349301661
 20
658.535585069967
 30
0.0
 10
1128.30349301661
 20
658.535585069967
 30
0.0
 10
1118.699726197259
 20
668.9736927453469
 30
0.0
 10
1119.06375923377
 20
685.1360214445604
 30
0.0
 10
1129.127754896979
 20
695.1311412664563
 30
0.0
 10
1129.127754896979
 20
695.1311412664563
 30
0.0
 10
1139.24446063293
 20
705.178610424593
 30
0.0
 10
1139.24446063293
 20
705.178610424593
 30
0.0
 10
1144.33475109583
 20
710.2340640244893
 30
0.0
 10
1151.263757985409
 20
712.9994338183096
 30
0.0
 10
1158.43610830213
 20
712.838005718002
 30
0.0
 10
1165.60845861885
 20
712.6765776176953
 30
0.0
 10
1172.406031736809
 20
709.6022636651987
 30
0.0
 10
1177.263716697431
 20
704.3229109661788
 30
0.0
 10
1177.263716697431
 20
704.3229109661788
 30
0.0
 10
1243.31188604095
 20
632.5414792934225
 30
0.0
 10
1243.31188604095
 20
632.5414792934225
 30
0.0
  0
SPLINE
  5
65
330
1F
100
AcDbEntity
  8
Layer 1
370
     0
100
AcDbSpline
210
0.0
220
0.0
230
1.0
 70
    11
 71
     3
 72
    35
 73
    31
 74
     0
 42
0.0000000001
 43
0.0000000001
 12
1.0
 22
0.0
 32
0.0
 13
1.0
 23
0.0
 33
0.0
 40
0.0
 40
0.0
 40
0.0
 40
0.0
 40
1.0
 40
1.0
 40
1.0
 40
2.0
 40
2.0
 40
2.0
 40
3.0
 40
3.0
 40
3.0
 40
4.0
 40
4.0
 40
4.0
 40
5.0
 40
5.0
 40
5.0
 40
6.0
 40
6.0
 40
6.0
 40
7.0
 40
7.0
 40
7.0
 40
8.0
 40
8.0
 40
8.0
 40
9.0
 40
9.0
 40
9.0
 40
10.0
 40
10.0
 40
10.0
 40
10.0
 10
1335.95609786804
 20
789.4603729790506
 30
0.0
 10
1344.25084534716
 20
780.8988479390928
 30
0.0
 10
1345.77679999787
 20
767.8398673539514
 30
0.0
 10
1339.67941008132
 20
757.5966069863871
 30
0.0
 10
1339.67941008132
 20
757.5966069863871
 30
0.0
 10
1332.129121258849
 20
744.9125609737093
 30
0.0
 10
1332.129121258849
 20
744.9125609737093
 30
0.0
 10
1327.92643847342
 20
737.8522983691182
 30
0.0
 10
1320.675282859351
 20
733.1521336569022
 30
0.0
 10
1312.514387603091
 20
732.1983835549472
 30
0.0
 10
1304.35349234682
 20
731.2446334529914
 30
0.0
 10
1296.213945395801
 20
734.1461126436234
 30
0.0
 10
1290.496511554069
 20
740.0470279036563
 30
0.0
 10
1290.496511554069
 20
740.0470279036563
 30
0.0
 10
1251.68523903363
 20
780.1038150246977
 30
0.0
 10
1251.68523903363
 20
780.1038150246977
 30
0.0
 10
1241.63103099547
 20
790.4806783662189
 30
0.0
 10
1241.78998359535
 20
807.0131793036107
 30
0.0
 10
1252.0418523443
 20
817.1948088017571
 30
0.0
 10
1252.0418523443
 20
817.1948088017571
 30
0.0
 10
1262.15383647325
 20
827.2375120798979
 30
0.0
 10
1262.15383647325
 20
827.2375120798979
 30
0.0
 10
1267.16049039925
 20
832.2098636138835
 30
0.0
 10
1273.949808167221
 20
834.9702548581672
 30
0.0
 10
1281.00574500776
 20
834.9022944682347
 30
0.0
 10
1288.061681848299
 20
834.8343340783013
 30
0.0
 10
1294.79657068664
 20
831.9436822640491
 30
0.0
 10
1299.70652065409
 20
826.8758173655542
 30
0.0
 10
1299.70652065409
 20
826.8758173655542
 30
0.0
 10
1335.95609786804
 20
789.4603729790506
 30
0.0
 10
1335.95609786804
 20
789.4603729790506
 30
0.0
  0
ENDSEC
  0
SECTION
  2
OBJECTS
  0
DICTIONARY
  5
C
330
0
100
AcDbDictionary
281
     1
  3
ACAD_GROUP
350
D
  3
ACAD_LAYOUT
350
1A
  3
ACAD_MATERIAL
350
3B
  3
ACAD_MLEADERSTYLE
350
67
  3
ACAD_MLINESTYLE
350
17
  3
ACAD_PLOTSETTINGS
350
19
  3
ACAD_PLOTSTYLENAME
350
E
  3
ACAD_TABLESTYLE
350
66
  3
ACAD_VISUALSTYLE
350
2A
  0
SUN
  5
3F
330
29
100
AcDbSun
 90
        1
290
     0
 63
     7
421
 16777215
 40
1.0
291
     1
 91
  2455826
 92
 54000000
292
     0
 70
     2
 71
   256
280
     1
  0
DICTIONARY
  5
D
102
{ACAD_REACTORS
330
C
102
}
330
C
100
AcDbDictionary
281
     1
  0
DICTIONARY
  5
1A
102
{ACAD_REACTORS
330
C
102
}
330
C
100
AcDbDictionary
281
     1
  3
Layout1
350
1E
  3
Layout2
350
26
  3
Model
350
22
  0
DICTIONARY
  5
3B
102
{ACAD_REACTORS
330
C
102
}
330
C
100
AcDbDictionary
281
     1
  3
ByBlock
350
3D
  3
ByLayer
350
3C
  3
Global
350
3E
  0
DICTIONARY
  5
67
102
{ACAD_REACTORS
330
C
102
}
330
C
100
AcDbDictionary
281
     1
  0
DICTIONARY
  5
17
102
{ACAD_REACTORS
330
C
102
}
330
C
100
AcDbDictionary
281
     1
  3
Standard
350
18
  0
DICTIONARY
  5
19
102
{ACAD_REACTORS
330
C
102
}
330
C
100
AcDbDictionary
281
     1
  0
ACDBDICTIONARYWDFLT
  5
E
102
{ACAD_REACTORS
330
C
102
}
330
C
100
AcDbDictionary
281
     1
  3
Normal
350
F
100
AcDbDictionaryWithDefault
340
F
  0
DICTIONARY
  5
66
102
{ACAD_REACTORS
330
C
102
}
330
C
100
AcDbDictionary
281
     1
  0
DICTIONARY
  5
2A
102
{ACAD_REACTORS
330
C
102
}
330
C
100
AcDbDictionary
281
     1
  3
2dWireframe
350
2F
  3
3D Hidden
350
31
  3
3dWireframe
350
30
  3
Basic
350
32
  3
Brighten
350
36
  3
ColorChange
350
3A
  3
Conceptual
350
34
  3
Dim
350
35
  3
Facepattern
350
39
  3
Flat
350
2B
  3
FlatWithEdges
350
2C
  3
Gouraud
350
2D
  3
GouraudWithEdges
350
2E
  3
Linepattern
350
38
  3
Realistic
350
33
  3
Thicken
350
37
  0
LAYOUT
  5
1E
102
{ACAD_REACTORS
330
1A
102
}
330
1A
100
AcDbPlotSettings
  1

  2
none_device
  4

  6

 40
0.0
 41
0.0
 42
0.0
 43
0.0
 44
0.0
 45
0.0
 46
0.0
 47
0.0
 48
0.0
 49
0.0
140
0.0
141
0.0
142
1.0
143
1.0
 70
   688
 72
     0
 73
     0
 74
     5
  7

 75
    16
 76
     0
 77
     2
 78
   300
147
1.0
148
0.0
149
0.0
100
AcDbLayout
  1
Layout1
 70
     1
 71
     1
 10
0.0
 20
0.0
 11
12.0
 21
9.0
 12
0.0
 22
0.0
 32
0.0
 14
1.000000000000000E+20
 24
1.000000000000000E+20
 34
1.000000000000000E+20
 15
-1.000000000000000E+20
 25
-1.000000000000000E+20
 35
-1.000000000000000E+20
146
0.0
 13
0.0
 23
0.0
 33
0.0
 16
1.0
 26
0.0
 36
0.0
 17
0.0
 27
1.0
 37
0.0
 76
     0
330
1B
  0
LAYOUT
  5
26
102
{ACAD_REACTORS
330
1A
102
}
330
1A
100
AcDbPlotSettings
  1

  2
none_device
  4

  6

 40
0.0
 41
0.0
 42
0.0
 43
0.0
 44
0.0
 45
0.0
 46
0.0
 47
0.0
 48
0.0
 49
0.0
140
0.0
141
0.0
142
1.0
143
1.0
 70
   688
 72
     0
 73
     0
 74
     5
  7

 75
    16
 76
     0
 77
     2
 78
   300
147
1.0
148
0.0
149
0.0
100
AcDbLayout
  1
Layout2
 70
     1
 71
     2
 10
0.0
 20
0.0
 11
0.0
 21
0.0
 12
0.0
 22
0.0
 32
0.0
 14
0.0
 24
0.0
 34
0.0
 15
0.0
 25
0.0
 35
0.0
146
0.0
 13
0.0
 23
0.0
 33
0.0
 16
1.0
 26
0.0
 36
0.0
 17
0.0
 27
1.0
 37
0.0
 76
     0
330
23
  0
LAYOUT
  5
22
102
{ACAD_REACTORS
330
1A
102
}
330
1A
100
AcDbPlotSettings
  1

  2
none_device
  4

  6

 40
0.0
 41
0.0
 42
0.0
 43
0.0
 44
0.0
 45
0.0
 46
0.0
 47
0.0
 48
0.0
 49
0.0
140
0.0
141
0.0
142
1.0
143
1.0
 70
  1712
 72
     0
 73
     0
 74
     0
  7

 75
     0
 76
     0
 77
     2
 78
   300
147
1.0
148
0.0
149
0.0
100
AcDbLayout
  1
Model
 70
     1
 71
     0
 10
0.0
 20
0.0
 11
12.0
 21
9.0
 12
0.0
 22
0.0
 32
0.0
 14
1.000000000000000E+20
 24
1.000000000000000E+20
 34
1.000000000000000E+20
 15
-1.000000000000000E+20
 25
-1.000000000000000E+20
 35
-1.000000000000000E+20
146
0.0
 13
0.0
 23
0.0
 33
0.0
 16
1.0
 26
0.0
 36
0.0
 17
0.0
 27
1.0
 37
0.0
 76
     0
330
1F
331
29
  0
MATERIAL
  5
3D
102
{ACAD_REACTORS
330
3B
102
}
330
3B
100
AcDbMaterial
  1
ByBlock
 72
     1
 94
      127
  0
MATERIAL
  5
3C
102
{ACAD_REACTORS
330
3B
102
}
330
3B
100
AcDbMaterial
  1
ByLayer
 72
     1
 94
      127
  0
MATERIAL
  5
3E
102
{ACAD_REACTORS
330
3B
102
}
330
3B
100
AcDbMaterial
  1
Global
 72
     1
 94
      127
  0
MLINESTYLE
  5
18
102
{ACAD_REACTORS
330
17
102
}
330
17
100
AcDbMlineStyle
  2
Standard
 70
     0
  3

 62
   256
 51
90.0
 52
90.0
 71
     2
 49
0.5
 62
   256
  6
BYLAYER
 49
-0.5
 62
   256
  6
BYLAYER
  0
ACDBPLACEHOLDER
  5
F
102
{ACAD_REACTORS
330
E
102
}
330
E
  0
VISUALSTYLE
  5
2F
102
{ACAD_REACTORS
330
2A
102
}
330
2A
100
AcDbVisualStyle
  2
2dWireframe
 70
     4
177
     2
291
     0
 71
     0
176
     1
 72
     2
176
     1
 73
     0
176
     1
 90
        0
176
     1
 40
-0.6
176
     1
 41
-30.0
176
     1
 62
     5
 63
     7
421
 16777215
176
     1
 74
     1
176
     1
 91
        4
176
     1
 64
     7
176
     1
 65
   257
176
     1
 75
     1
176
     1
175
     1
176
     1
 42
1.0
176
     1
 92
        0
176
     1
 66
   257
176
     1
 43
1.0
176
     1
 76
     1
176
     1
 77
     6
176
     1
 78
     2
176
     1
 67
     7
176
     1
 79
     5
176
     1
170
     0
176
     1
171
     0
176
     1
290
     0
176
     1
 93
        1
176
     1
 44
0.0
176
     1
173
     0
176
     1
  0
VISUALSTYLE
  5
31
102
{ACAD_REACTORS
330
2A
102
}
330
2A
100
AcDbVisualStyle
  2
3D Hidden
 70
     6
177
     2
291
     0
 71
     1
176
     1
 72
     2
176
     1
 73
     2
176
     1
 90
        0
176
     1
 40
-0.6
176
     1
 41
-30.0
176
     1
 62
     5
 63
     7
421
 16777215
176
     1
 74
     2
176
     1
 91
        2
176
     1
 64
     7
176
     1
 65
   257
176
     1
 75
     2
176
     1
175
     1
176
     1
 42
40.0
176
     1
 92
        0
176
     1
 66
   257
176
     1
 43
1.0
176
     1
 76
     1
176
     1
 77
     6
176
     1
 78
     2
176
     1
 67
     7
176
     1
 79
     3
176
     1
170
     0
176
     1
171
     0
176
     1
290
     0
176
     1
 93
        1
176
     1
 44
0.0
176
     1
173
     0
176
     1
  0
VISUALSTYLE
  5
30
102
{ACAD_REACTORS
330
2A
102
}
330
2A
100
AcDbVisualStyle
  2
3dWireframe
 70
     5
177
     2
291
     0
 71
     0
176
     1
 72
     2
176
     1
 73
     0
176
     1
 90
        0
176
     1
 40
-0.6
176
     1
 41
-30.0
176
     1
 62
     5
 63
     7
421
 16777215
176
     1
 74
     1
176
     1
 91
        4
176
     1
 64
     7
176
     1
 65
   257
176
     1
 75
     1
176
     1
175
     1
176
     1
 42
1.0
176
     1
 92
        0
176
     1
 66
   257
176
     1
 43
1.0
176
     1
 76
     1
176
     1
 77
     6
176
     1
 78
     2
176
     1
 67
     7
176
     1
 79
     5
176
     1
170
     0
176
     1
171
     0
176
     1
290
     0
176
     1
 93
        1
176
     1
 44
0.0
176
     1
173
     0
176
     1
  0
VISUALSTYLE
  5
32
102
{ACAD_REACTORS
330
2A
102
}
330
2A
100
AcDbVisualStyle
  2
Basic
 70
     7
177
     2
291
     1
 71
     1
176
     1
 72
     0
176
     1
 73
     1
176
     1
 90
        0
176
     1
 40
-0.6
176
     1
 41
-30.0
176
     1
 62
     5
 63
     7
421
 16777215
176
     1
 74
     0
176
     1
 91
        4
176
     1
 64
     7
176
     1
 65
   257
176
     1
 75
     1
176
     1
175
     1
176
     1
 42
1.0
176
     1
 92
        8
176
     1
 66
     7
176
     1
 43
1.0
176
     1
 76
     1
176
     1
 77
     6
176
     1
 78
     2
176
     1
 67
     7
176
     1
 79
     5
176
     1
170
     0
176
     1
171
     0
176
     1
290
     0
176
     1
 93
        1
176
     1
 44
0.0
176
     1
173
     0
176
     1
  0
VISUALSTYLE
  5
36
102
{ACAD_REACTORS
330
2A
102
}
330
2A
100
AcDbVisualStyle
  2
Brighten
 70
    12
177
     2
291
     1
 71
     2
176
     1
 72
     2
176
     1
 73
     0
176
     1
 90
        0
176
     1
 40
-0.6
176
     1
 41
-30.0
176
     1
 62
     5
 63
     7
421
 16777215
176
     1
 74
     1
176
     1
 91
        4
176
     1
 64
     7
176
     1
 65
   257
176
     1
 75
     1
176
     1
175
     1
176
     1
 42
1.0
176
     1
 92
        8
176
     1
 66
     7
176
     1
 43
1.0
176
     1
 76
     1
176
     1
 77
     6
176
     1
 78
     2
176
     1
 67
     7
176
     1
 79
     5
176
     1
170
     0
176
     1
171
     0
176
     1
290
     0
176
     1
 93
        1
176
     1
 44
50.0
176
     1
173
     0
176
     1
  0
VISUALSTYLE
  5
3A
102
{ACAD_REACTORS
330
2A
102
}
330
2A
100
AcDbVisualStyle
  2
ColorChange
 70
    16
177
     2
291
     1
 71
     2
176
     1
 72
     2
176
     1
 73
     3
176
     1
 90
        0
176
     1
 40
-0.6
176
     1
 41
-30.0
176
     1
 62
     5
 63
     8
421
  8421504
176
     1
 74
     1
176
     1
 91
        4
176
     1
 64
     7
176
     1
 65
   257
176
     1
 75
     1
176
     1
175
     1
176
     1
 42
1.0
176
     1
 92
        8
176
     1
 66
     8
424
  8421504
176
     1
 43
1.0
176
     1
 76
     1
176
     1
 77
     6
176
     1
 78
     2
176
     1
 67
     7
176
     1
 79
     5
176
     1
170
     0
176
     1
171
     0
176
     1
290
     0
176
     1
 93
        1
176
     1
 44
0.0
176
     1
173
     0
176
     1
  0
VISUALSTYLE
  5
34
102
{ACAD_REACTORS
330
2A
102
}
330
2A
100
AcDbVisualStyle
  2
Conceptual
 70
     9
177
     2
291
     0
 71
     3
176
     1
 72
     2
176
     1
 73
     0
176
     1
 90
        0
176
     1
 40
-0.6
176
     1
 41
-30.0
176
     1
 62
     5
 63
     7
421
 16777215
176
     1
 74
     2
176
     1
 91
        2
176
     1
 64
     7
176
     1
 65
   257
176
     1
 75
     1
176
     1
175
     1
176
     1
 42
40.0
176
     1
 92
        8
176
     1
 66
     7
176
     1
 43
1.0
176
     1
 76
     1
176
     1
 77
     6
176
     1
 78
     2
176
     1
 67
     7
176
     1
 79
     3
176
     1
170
     0
176
     1
171
     0
176
     1
290
     0
176
     1
 93
        1
176
     1
 44
0.0
176
     1
173
     0
176
     1
  0
VISUALSTYLE
  5
35
102
{ACAD_REACTORS
330
2A
102
}
330
2A
100
AcDbVisualStyle
  2
Dim
 70
    11
177
     2
291
     1
 71
     2
176
     1
 72
     2
176
     1
 73
     0
176
     1
 90
        0
176
     1
 40
-0.6
176
     1
 41
-30.0
176
     1
 62
     5
 63
     7
421
 16777215
176
     1
 74
     1
176
     1
 91
        4
176
     1
 64
     7
176
     1
 65
   257
176
     1
 75
     1
176
     1
175
     1
176
     1
 42
1.0
176
     1
 92
        8
176
     1
 66
     7
176
     1
 43
1.0
176
     1
 76
     1
176
     1
 77
     6
176
     1
 78
     2
176
     1
 67
     7
176
     1
 79
     5
176
     1
170
     0
176
     1
171
     0
176
     1
290
     0
176
     1
 93
        1
176
     1
 44
-50.0
176
     1
173
     0
176
     1
  0
VISUALSTYLE
  5
39
102
{ACAD_REACTORS
330
2A
102
}
330
2A
100
AcDbVisualStyle
  2
Facepattern
 70
    15
177
     2
291
     1
 71
     2
176
     1
 72
     2
176
     1
 73
     0
176
     1
 90
        0
176
     1
 40
-0.6
176
     1
 41
-30.0
176
     1
 62
     5
 63
     7
421
 16777215
176
     1
 74
     1
176
     1
 91
        4
176
     1
 64
     7
176
     1
 65
   257
176
     1
 75
     1
176
     1
175
     1
176
     1
 42
1.0
176
     1
 92
        8
176
     1
 66
     7
176
     1
 43
1.0
176
     1
 76
     1
176
     1
 77
     6
176
     1
 78
     2
176
     1
 67
     7
176
     1
 79
     5
176
     1
170
     0
176
     1
171
     0
176
     1
290
     0
176
     1
 93
        1
176
     1
 44
0.0
176
     1
173
     0
176
     1
  0
VISUALSTYLE
  5
2B
102
{ACAD_REACTORS
330
2A
102
}
330
2A
100
AcDbVisualStyle
  2
Flat
 70
     0
177
     2
291
     1
 71
     2
176
     1
 72
     1
176
     1
 73
     1
176
     1
 90
        2
176
     1
 40
-0.6
176
     1
 41
30.0
176
     1
 62
     5
 63
     7
421
 16777215
176
     1
 74
     0
176
     1
 91
        4
176
     1
 64
     7
176
     1
 65
   257
176
     1
 75
     1
176
     1
175
     1
176
     1
 42
1.0
176
     1
 92
        8
176
     1
 66
     7
176
     1
 43
1.0
176
     1
 76
     1
176
     1
 77
     6
176
     1
 78
     2
176
     1
 67
     7
176
     1
 79
     5
176
     1
170
     0
176
     1
171
     0
176
     1
290
     0
176
     1
 93
       13
176
     1
 44
0.0
176
     1
173
     0
176
     1
  0
VISUALSTYLE
  5
2C
102
{ACAD_REACTORS
330
2A
102
}
330
2A
100
AcDbVisualStyle
  2
FlatWithEdges
 70
     1
177
     2
291
     1
 71
     2
176
     1
 72
     1
176
     1
 73
     1
176
     1
 90
        2
176
     1
 40
-0.6
176
     1
 41
30.0
176
     1
 62
     5
 63
     7
421
 16777215
176
     1
 74
     1
176
     1
 91
        4
176
     1
 64
     7
176
     1
 65
   257
176
     1
 75
     1
176
     1
175
     1
176
     1
 42
1.0
176
     1
 92
        0
176
     1
 66
   257
176
     1
 43
1.0
176
     1
 76
     1
176
     1
 77
     6
176
     1
 78
     2
176
     1
 67
     7
176
     1
 79
     5
176
     1
170
     0
176
     1
171
     0
176
     1
290
     0
176
     1
 93
       13
176
     1
 44
0.0
176
     1
173
     0
176
     1
  0
VISUALSTYLE
  5
2D
102
{ACAD_REACTORS
330
2A
102
}
330
2A
100
AcDbVisualStyle
  2
Gouraud
 70
     2
177
     2
291
     1
 71
     2
176
     1
 72
     2
176
     1
 73
     1
176
     1
 90
        2
176
     1
 40
-0.6
176
     1
 41
30.0
176
     1
 62
     5
 63
     7
421
 16777215
176
     1
 74
     0
176
     1
 91
        4
176
     1
 64
     7
176
     1
 65
   257
176
     1
 75
     1
176
     1
175
     1
176
     1
 42
1.0
176
     1
 92
        0
176
     1
 66
     7
176
     1
 43
1.0
176
     1
 76
     1
176
     1
 77
     6
176
     1
 78
     2
176
     1
 67
     7
176
     1
 79
     5
176
     1
170
     0
176
     1
171
     0
176
     1
290
     0
176
     1
 93
       13
176
     1
 44
0.0
176
     1
173
     0
176
     1
  0
VISUALSTYLE
  5
2E
102
{ACAD_REACTORS
330
2A
102
}
330
2A
100
AcDbVisualStyle
  2
GouraudWithEdges
 70
     3
177
     2
291
     1
 71
     2
176
     1
 72
     2
176
     1
 73
     1
176
     1
 90
        2
176
     1
 40
-0.6
176
     1
 41
30.0
176
     1
 62
     5
 63
     7
421
 16777215
176
     1
 74
     1
176
     1
 91
        4
176
     1
 64
     7
176
     1
 65
   257
176
     1
 75
     1
176
     1
175
     1
176
     1
 42
1.0
176
     1
 92
        0
176
     1
 66
   257
176
     1
 43
1.0
176
     1
 76
     1
176
     1
 77
     6
176
     1
 78
     2
176
     1
 67
     7
176
     1
 79
     5
176
     1
170
     0
176
     1
171
     0
176
     1
290
     0
176
     1
 93
       13
176
     1
 44
0.0
176
     1
173
     0
176
     1
  0
VISUALSTYLE
  5
38
102
{ACAD_REACTORS
330
2A
102
}
330
2A
100
AcDbVisualStyle
  2
Linepattern
 70
    14
177
     2
291
     1
 71
     2
176
     1
 72
     2
176
     1
 73
     0
176
     1
 90
        0
176
     1
 40
-0.6
176
     1
 41
-30.0
176
     1
 62
     5
 63
     7
421
 16777215
176
     1
 74
     1
176
     1
 91
        4
176
     1
 64
     7
176
     1
 65
   257
176
     1
 75
     7
176
     1
175
     7
176
     1
 42
1.0
176
     1
 92
        8
176
     1
 66
     7
176
     1
 43
1.0
176
     1
 76
     1
176
     1
 77
     6
176
     1
 78
     2
176
     1
 67
     7
176
     1
 79
     5
176
     1
170
     0
176
     1
171
     0
176
     1
290
     0
176
     1
 93
        1
176
     1
 44
0.0
176
     1
173
     0
176
     1
  0
VISUALSTYLE
  5
33
102
{ACAD_REACTORS
330
2A
102
}
330
2A
100
AcDbVisualStyle
  2
Realistic
 70
     8
177
     2
291
     0
 71
     2
176
     1
 72
     2
176
     1
 73
     0
176
     1
 90
        0
176
     1
 40
-0.6
176
     1
 41
-30.0
176
     1
 62
     5
 63
     7
421
 16777215
176
     1
 74
     1
176
     1
 91
        0
176
     1
 64
     7
176
     1
 65
   257
176
     1
 75
     1
176
     1
175
     1
176
     1
 42
1.0
176
     1
 92
        8
176
     1
 66
     8
424
  7895160
176
     1
 43
1.0
176
     1
 76
     1
176
     1
 77
     6
176
     1
 78
     2
176
     1
 67
     7
176
     1
 79
     5
176
     1
170
     0
176
     1
171
     0
176
     1
290
     0
176
     1
 93
       13
176
     1
 44
0.0
176
     1
173
     0
176
     1
  0
VISUALSTYLE
  5
37
102
{ACAD_REACTORS
330
2A
102
}
330
2A
100
AcDbVisualStyle
  2
Thicken
 70
    13
177
     2
291
     1
 71
     2
176
     1
 72
     2
176
     1
 73
     0
176
     1
 90
        0
176
     1
 40
-0.6
176
     1
 41
-30.0
176
     1
 62
     5
 63
     7
421
 16777215
176
     1
 74
     1
176
     1
 91
        4
176
     1
 64
     7
176
     1
 65
   257
176
     1
 75
     1
176
     1
175
     1
176
     1
 42
1.0
176
     1
 92
       12
176
     1
 66
     7
176
     1
 43
1.0
176
     1
 76
     1
176
     1
 77
     6
176
     1
 78
     2
176
     1
 67
     7
176
     1
 79
     5
176
     1
170
     0
176
     1
171
     0
176
     1
290
     0
176
     1
 93
        1
176
     1
 44
0.0
176
     1
173
     0
176
     1
  0
ENDSEC
  0
EOF
