  0
SECTION
  2
HEADER
  9
$ACADVER
  1
AC1024
  9
$ACADMAINTVER
 70
     6
  9
$DWGCODEPAGE
  3
ANSI_1252
  9
$INSBASE
 10
0.0
 20
0.0
 30
0.0
  9
$EXTMIN
 10
1.000000000000000E+20
 20
1.000000000000000E+20
 30
1.000000000000000E+20
  9
$EXTMAX
 10
-1.000000000000000E+20
 20
-1.000000000000000E+20
 30
-1.000000000000000E+20
  9
$LIMMIN
 10
0.0
 20
0.0
  9
$LIMMAX
 10
12.0
 20
9.0
  9
$ORTHOMODE
 70
     0
  9
$REGENMODE
 70
     1
  9
$FILLMODE
 70
     1
  9
$QTEXTMODE
 70
     0
  9
$MIRRTEXT
 70
     1
  9
$LTSCALE
 40
1.0
  9
$ATTMODE
 70
     1
  9
$TEXTSIZE
 40
0.2
  9
$TRACEWID
 40
0.05
  9
$TEXTSTYLE
  7
Standard
  9
$CLAYER
  8
0
  9
$CELTYPE
  6
ByLayer
  9
$CECOLOR
 62
   256
  9
$CELTSCALE
 40
1.0
  9
$DISPSILH
 70
     0
  9
$DIMSCALE
 40
1.0
  9
$DIMASZ
 40
0.18
  9
$DIMEXO
 40
0.0625
  9
$DIMDLI
 40
0.38
  9
$DIMRND
 40
0.0
  9
$DIMDLE
 40
0.0
  9
$DIMEXE
 40
0.18
  9
$DIMTP
 40
0.0
  9
$DIMTM
 40
0.0
  9
$DIMTXT
 40
0.18
  9
$DIMCEN
 40
0.09
  9
$DIMTSZ
 40
0.0
  9
$DIMTOL
 70
     0
  9
$DIMLIM
 70
     0
  9
$DIMTIH
 70
     1
  9
$DIMTOH
 70
     1
  9
$DIMSE1
 70
     0
  9
$DIMSE2
 70
     0
  9
$DIMTAD
 70
     0
  9
$DIMZIN
 70
     0
  9
$DIMBLK
  1

  9
$DIMASO
 70
     1
  9
$DIMSHO
 70
     1
  9
$DIMPOST
  1

  9
$DIMAPOST
  1

  9
$DIMALT
 70
     0
  9
$DIMALTD
 70
     2
  9
$DIMALTF
 40
25.4
  9
$DIMLFAC
 40
1.0
  9
$DIMTOFL
 70
     0
  9
$DIMTVP
 40
0.0
  9
$DIMTIX
 70
     0
  9
$DIMSOXD
 70
     0
  9
$DIMSAH
 70
     0
  9
$DIMBLK1
  1

  9
$DIMBLK2
  1

  9
$DIMSTYLE
  2
Standard
  9
$DIMCLRD
 70
     0
  9
$DIMCLRE
 70
     0
  9
$DIMCLRT
 70
     0
  9
$DIMTFAC
 40
1.0
  9
$DIMGAP
 40
0.09
  9
$DIMJUST
 70
     0
  9
$DIMSD1
 70
     0
  9
$DIMSD2
 70
     0
  9
$DIMTOLJ
 70
     1
  9
$DIMTZIN
 70
     0
  9
$DIMALTZ
 70
     0
  9
$DIMALTTZ
 70
     0
  9
$DIMUPT
 70
     0
  9
$DIMDEC
 70
     4
  9
$DIMTDEC
 70
     4
  9
$DIMALTU
 70
     2
  9
$DIMALTTD
 70
     2
  9
$DIMTXSTY
  7
Standard
  9
$DIMAUNIT
 70
     0
  9
$DIMADEC
 70
     0
  9
$DIMALTRND
 40
0.0
  9
$DIMAZIN
 70
     0
  9
$DIMDSEP
 70
    46
  9
$DIMATFIT
 70
     3
  9
$DIMFRAC
 70
     0
  9
$DIMLDRBLK
  1

  9
$DIMLUNIT
 70
     2
  9
$DIMLWD
 70
    -2
  9
$DIMLWE
 70
    -2
  9
$DIMTMOVE
 70
     0
  9
$DIMFXL
 40
1.0
  9
$DIMFXLON
 70
     0
  9
$DIMJOGANG
 40
0.7853981633974483
  9
$DIMTFILL
 70
     0
  9
$DIMTFILLCLR
 70
     0
  9
$DIMARCSYM
 70
     0
  9
$DIMLTYPE
  6

  9
$DIMLTEX1
  6

  9
$DIMLTEX2
  6

  9
$DIMTXTDIRECTION
 70
     0
  9
$LUNITS
 70
     2
  9
$LUPREC
 70
     4
  9
$SKETCHINC
 40
0.1
  9
$FILLETRAD
 40
0.5
  9
$AUNITS
 70
     0
  9
$AUPREC
 70
     0
  9
$MENU
  1
.
  9
$ELEVATION
 40
0.0
  9
$PELEVATION
 40
0.0
  9
$THICKNESS
 40
0.0
  9
$LIMCHECK
 70
     0
  9
$CHAMFERA
 40
0.5
  9
$CHAMFERB
 40
0.5
  9
$CHAMFERC
 40
1.0
  9
$CHAMFERD
 40
0.0
  9
$SKPOLY
 70
     0
  9
$TDCREATE
 40
2457238.670738495
  9
$TDUCREATE
 40
2457238.962405162
  9
$TDUPDATE
 40
2457238.670738565
  9
$TDUUPDATE
 40
2457238.962405231
  9
$TDINDWG
 40
0.0000000116
  9
$TDUSRTIMER
 40
0.0000000116
  9
$USRTIMER
 70
     1
  9
$ANGBASE
 50
0.0
  9
$ANGDIR
 70
     0
  9
$PDMODE
 70
     0
  9
$PDSIZE
 40
0.0
  9
$PLINEWID
 40
0.0
  9
$SPLFRAME
 70
     0
  9
$SPLINETYPE
 70
     6
  9
$SPLINESEGS
 70
     8
  9
$HANDSEED
  5
68
  9
$SURFTAB1
 70
     6
  9
$SURFTAB2
 70
     6
  9
$SURFTYPE
 70
     6
  9
$SURFU
 70
     6
  9
$SURFV
 70
     6
  9
$UCSBASE
  2

  9
$UCSNAME
  2

  9
$UCSORG
 10
0.0
 20
0.0
 30
0.0
  9
$UCSXDIR
 10
1.0
 20
0.0
 30
0.0
  9
$UCSYDIR
 10
0.0
 20
1.0
 30
0.0
  9
$UCSORTHOREF
  2

  9
$UCSORTHOVIEW
 70
     0
  9
$UCSORGTOP
 10
0.0
 20
0.0
 30
0.0
  9
$UCSORGBOTTOM
 10
0.0
 20
0.0
 30
0.0
  9
$UCSORGLEFT
 10
0.0
 20
0.0
 30
0.0
  9
$UCSORGRIGHT
 10
0.0
 20
0.0
 30
0.0
  9
$UCSORGFRONT
 10
0.0
 20
0.0
 30
0.0
  9
$UCSORGBACK
 10
0.0
 20
0.0
 30
0.0
  9
$PUCSBASE
  2

  9
$PUCSNAME
  2

  9
$PUCSORG
 10
0.0
 20
0.0
 30
0.0
  9
$PUCSXDIR
 10
1.0
 20
0.0
 30
0.0
  9
$PUCSYDIR
 10
0.0
 20
1.0
 30
0.0
  9
$PUCSORTHOREF
  2

  9
$PUCSORTHOVIEW
 70
     0
  9
$PUCSORGTOP
 10
0.0
 20
0.0
 30
0.0
  9
$PUCSORGBOTTOM
 10
0.0
 20
0.0
 30
0.0
  9
$PUCSORGLEFT
 10
0.0
 20
0.0
 30
0.0
  9
$PUCSORGRIGHT
 10
0.0
 20
0.0
 30
0.0
  9
$PUCSORGFRONT
 10
0.0
 20
0.0
 30
0.0
  9
$PUCSORGBACK
 10
0.0
 20
0.0
 30
0.0
  9
$USERI1
 70
     0
  9
$USERI2
 70
     0
  9
$USERI3
 70
     0
  9
$USERI4
 70
     0
  9
$USERI5
 70
     0
  9
$USERR1
 40
0.0
  9
$USERR2
 40
0.0
  9
$USERR3
 40
0.0
  9
$USERR4
 40
0.0
  9
$USERR5
 40
0.0
  9
$WORLDVIEW
 70
     1
  9
$SHADEDGE
 70
     3
  9
$SHADEDIF
 70
    70
  9
$TILEMODE
 70
     1
  9
$MAXACTVP
 70
    64
  9
$PINSBASE
 10
0.0
 20
0.0
 30
0.0
  9
$PLIMCHECK
 70
     0
  9
$PEXTMIN
 10
1.000000000000000E+20
 20
1.000000000000000E+20
 30
1.000000000000000E+20
  9
$PEXTMAX
 10
-1.000000000000000E+20
 20
-1.000000000000000E+20
 30
-1.000000000000000E+20
  9
$PLIMMIN
 10
0.0
 20
0.0
  9
$PLIMMAX
 10
12.0
 20
9.0
  9
$UNITMODE
 70
     0
  9
$VISRETAIN
 70
     1
  9
$PLINEGEN
 70
     0
  9
$PSLTSCALE
 70
     1
  9
$TREEDEPTH
 70
  3020
  9
$CMLSTYLE
  2
Standard
  9
$CMLJUST
 70
     0
  9
$CMLSCALE
 40
1.0
  9
$PROXYGRAPHICS
 70
     1
  9
$MEASUREMENT
 70
     0
  9
$CELWEIGHT
370
    -1
  9
$ENDCAPS
280
     0
  9
$JOINSTYLE
280
     0
  9
$LWDISPLAY
290
     1
  9
$INSUNITS
 70
     1
  9
$HYPERLINKBASE
  1

  9
$STYLESHEET
  1

  9
$XEDIT
290
     1
  9
$CEPSNTYPE
380
     0
  9
$PSTYLEMODE
290
     1
  9
$FINGERPRINTGUID
  2
{2177000F-BD5B-43DF-A4F9-E1F02B48A2A2}
  9
$VERSIONGUID
  2
{FAEB1C32-E019-11D5-929B-00C0DF256EC4}
  9
$EXTNAMES
290
     1
  9
$PSVPSCALE
 40
0.0
  9
$OLESTARTUP
290
     0
  9
$SORTENTS
280
   127
  9
$INDEXCTL
280
     0
  9
$HIDETEXT
280
     1
  9
$XCLIPFRAME
280
     2
  9
$HALOGAP
280
     0
  9
$OBSCOLOR
 70
   257
  9
$OBSLTYPE
280
     0
  9
$INTERSECTIONDISPLAY
280
     0
  9
$INTERSECTIONCOLOR
 70
   257
  9
$DIMASSOC
280
     2
  9
$PROJECTNAME
  1

  9
$CAMERADISPLAY
290
     0
  9
$LENSLENGTH
 40
50.0
  9
$CAMERAHEIGHT
 40
0.0
  9
$STEPSPERSEC
 40
2.0
  9
$STEPSIZE
 40
6.0
  9
$3DDWFPREC
 40
2.0
  9
$PSOLWIDTH
 40
0.25
  9
$PSOLHEIGHT
 40
4.0
  9
$LOFTANG1
 40
1.570796326794897
  9
$LOFTANG2
 40
1.570796326794897
  9
$LOFTMAG1
 40
0.0
  9
$LOFTMAG2
 40
0.0
  9
$LOFTPARAM
 70
     7
  9
$LOFTNORMALS
280
     1
  9
$LATITUDE
 40
37.795
  9
$LONGITUDE
 40
-122.394
  9
$NORTHDIRECTION
 40
0.0
  9
$TIMEZONE
 70
 -8000
  9
$LIGHTGLYPHDISPLAY
280
     1
  9
$TILEMODELIGHTSYNCH
280
     1
  9
$CMATERIAL
347
3C
  9
$SOLIDHIST
280
     1
  9
$SHOWHIST
280
     1
  9
$DWFFRAME
280
     2
  9
$DGNFRAME
280
     2
  9
$REALWORLDSCALE
290
     1
  9
$INTERFERECOLOR
 62
   256
  9
$CSHADOW
280
     0
  9
$SHADOWPLANELOCATION
 40
0.0
  0
ENDSEC
  0
SECTION
  2
CLASSES
  0
CLASS
  1
ACDBDICTIONARYWDFLT
  2
AcDbDictionaryWithDefault
  3
ObjectDBX Classes
 90
        0
 91
        4
280
     0
281
     0
  0
CLASS
  1
VISUALSTYLE
  2
AcDbVisualStyle
  3
ObjectDBX Classes
 90
     4095
 91
        4
280
     0
281
     0
  0
CLASS
  1
MATERIAL
  2
AcDbMaterial
  3
ObjectDBX Classes
 90
     1153
 91
        4
280
     0
281
     0
  0
CLASS
  1
SUN
  2
AcDbSun
  3
SCENEOE
 90
     1024
 91
        4
280
     0
281
     0
  0
ENDSEC
  0
SECTION
  2
TABLES
  0
TABLE
  2
VPORT
  5
8
330
0
100
AcDbSymbolTable
 70
     1
  0
VPORT
  5
29
330
8
100
AcDbSymbolTableRecord
100
AcDbViewportTableRecord
  2
*Active
 70
     0
 10
0.0
 20
0.0
 11
1.0
 21
1.0
 12
0.0
 22
0.0
 13
0.0
 23
0.0
 14
0.5
 24
0.5
 15
0.5
 25
0.5
 16
0.0
 26
0.0
 36
1.0
 17
4.430555555555555
 27
-5.375
 37
0.0
 40
45.16666666666666
 41
0.7429274292742928
 42
50.0
 43
0.0
 44
0.0
 50
0.0
 51
0.0
 71
     0
 72
   100
 73
     1
 74
     3
 75
     0
 76
     0
 77
     0
 78
     0
281
     0
 65
     1
110
0.0
120
0.0
130
0.0
111
1.0
121
0.0
131
0.0
112
0.0
122
1.0
132
0.0
 79
     0
146
0.0
 60
     3
 61
     5
292
     1
282
     1
141
0.0
142
0.0
 63
   250
361
3F
  0
ENDTAB
  0
TABLE
  2
LTYPE
  5
5
330
0
100
AcDbSymbolTable
 70
     1
  0
LTYPE
  5
14
330
5
100
AcDbSymbolTableRecord
100
AcDbLinetypeTableRecord
  2
ByBlock
 70
     0
  3

 72
    65
 73
     0
 40
0.0
  0
LTYPE
  5
15
330
5
100
AcDbSymbolTableRecord
100
AcDbLinetypeTableRecord
  2
ByLayer
 70
     0
  3

 72
    65
 73
     0
 40
0.0
  0
LTYPE
  5
16
330
5
100
AcDbSymbolTableRecord
100
AcDbLinetypeTableRecord
  2
Continuous
 70
     0
  3
Solid line
 72
    65
 73
     0
 40
0.0
  0
ENDTAB
  0
TABLE
  2
LAYER
  5
2
330
0
100
AcDbSymbolTable
 70
     2
  0
LAYER
  5
10
330
2
100
AcDbSymbolTableRecord
100
AcDbLayerTableRecord
  2
0
 70
     0
 62
     7
  6
Continuous
370
    -3
390
F
347
3E
  0
LAYER
  5
40
330
2
100
AcDbSymbolTableRecord
100
AcDbLayerTableRecord
  2
Layer 1
 70
     0
 62
     7
  6
Continuous
370
    -3
390
F
347
3E
  0
ENDTAB
  0
TABLE
  2
STYLE
  5
3
330
0
100
AcDbSymbolTable
 70
     1
  0
STYLE
  5
11
330
3
100
AcDbSymbolTableRecord
100
AcDbTextStyleTableRecord
  2
Standard
 70
     0
 40
0.0
 41
1.0
 50
0.0
 71
     0
 42
0.2
  3
txt
  4

  0
ENDTAB
  0
TABLE
  2
VIEW
  5
6
330
0
100
AcDbSymbolTable
 70
     0
  0
ENDTAB
  0
TABLE
  2
UCS
  5
7
330
0
100
AcDbSymbolTable
 70
     0
  0
ENDTAB
  0
TABLE
  2
APPID
  5
9
330
0
100
AcDbSymbolTable
 70
     1
  0
APPID
  5
12
330
9
100
AcDbSymbolTableRecord
100
AcDbRegAppTableRecord
  2
ACAD
 70
     0
  0
ENDTAB
  0
TABLE
  2
DIMSTYLE
  5
A
330
0
100
AcDbSymbolTable
 70
     1
100
AcDbDimStyleTable
  0
DIMSTYLE
105
27
330
A
100
AcDbSymbolTableRecord
100
AcDbDimStyleTableRecord
  2
Standard
 70
     0
178
     0
340
11
  0
ENDTAB
  0
TABLE
  2
BLOCK_RECORD
  5
1
330
0
100
AcDbSymbolTable
 70
     1
  0
BLOCK_RECORD
  5
1F
330
1
100
AcDbSymbolTableRecord
100
AcDbBlockTableRecord
  2
*Model_Space
340
22
 70
     0
280
     1
281
     0
  0
BLOCK_RECORD
  5
1B
330
1
100
AcDbSymbolTableRecord
100
AcDbBlockTableRecord
  2
*Paper_Space
340
1E
 70
     0
280
     1
281
     0
  0
BLOCK_RECORD
  5
23
330
1
100
AcDbSymbolTableRecord
100
AcDbBlockTableRecord
  2
*Paper_Space0
340
26
 70
     0
280
     1
281
     0
  0
ENDTAB
  0
ENDSEC
  0
SECTION
  2
BLOCKS
  0
BLOCK
  5
20
330
1F
100
AcDbEntity
  8
0
100
AcDbBlockBegin
  2
*Model_Space
 70
     0
 10
0.0
 20
0.0
 30
0.0
  3
*Model_Space
  1

  0
ENDBLK
  5
21
330
1F
100
AcDbEntity
  8
0
100
AcDbBlockEnd
  0
BLOCK
  5
1C
330
1B
100
AcDbEntity
 67
     1
  8
0
100
AcDbBlockBegin
  2
*Paper_Space
 70
     0
 10
0.0
 20
0.0
 30
0.0
  3
*Paper_Space
  1

  0
ENDBLK
  5
1D
330
1B
100
AcDbEntity
 67
     1
  8
0
100
AcDbBlockEnd
  0
BLOCK
  5
24
330
23
100
AcDbEntity
  8
0
100
AcDbBlockBegin
  2
*Paper_Space0
 70
     0
 10
0.0
 20
0.0
 30
0.0
  3
*Paper_Space0
  1

  0
ENDBLK
  5
25
330
23
100
AcDbEntity
  8
0
100
AcDbBlockEnd
  0
ENDSEC
  0
SECTION
  2
ENTITIES
  0
POLYLINE
  5
41
330
1F
100
AcDbEntity
  8
Layer 1
370
     0
100
AcDb2dPolyline
 66
     1
 10
0.0
 20
0.0
 30
0.0
  0
VERTEX
  5
42
330
41
100
AcDbEntity
  8
Layer 1
370
     0
100
AcDbVertex
100
AcDb2dVertex
 10
20.44432190039
 20
16.38635583749278
 30
0.0
  0
VERTEX
  5
43
330
41
100
AcDbEntity
  8
Layer 1
370
     0
100
AcDbVertex
100
AcDb2dVertex
 10
20.44432190039
 20
10.94284876894223
 30
0.0
  0
VERTEX
  5
44
330
41
100
AcDbEntity
  8
Layer 1
370
     0
100
AcDbVertex
100
AcDb2dVertex
 10
14.62482518926668
 20
1.148905612922097
 30
0.0
  0
VERTEX
  5
45
330
41
100
AcDbEntity
  8
Layer 1
370
     0
100
AcDbVertex
100
AcDb2dVertex
 10
4.404707172576208
 20
-16.05140540976236
 30
0.0
  0
VERTEX
  5
46
330
41
100
AcDbEntity
  8
Layer 1
370
     0
100
AcDbVertex
100
AcDb2dVertex
 10
-2.355125408225831
 20
-27.42712840298319
 30
0.0
  0
VERTEX
  5
47
330
41
100
AcDbEntity
  8
Layer 1
370
     0
100
AcDbVertex
100
AcDb2dVertex
 10
-11.93598335331764
 20
-15.80850025409861
 30
0.0
  0
VERTEX
  5
48
330
41
100
AcDbEntity
  8
Layer 1
370
     0
100
AcDbVertex
100
AcDb2dVertex
 10
5.934854738689915
 20
1.959796822230512
 30
0.0
  0
VERTEX
  5
49
330
41
100
AcDbEntity
  8
Layer 1
370
     0
100
AcDbVertex
100
AcDb2dVertex
 10
20.44432190039
 20
16.38635583749278
 30
0.0
  0
SEQEND
  5
4A
330
41
100
AcDbEntity
  8
Layer 1
370
     0
  0
SPLINE
  5
4B
330
1F
100
AcDbEntity
  8
Layer 1
370
     0
100
AcDbSpline
210
0.0
220
0.0
230
1.0
 70
    11
 71
     3
 72
    35
 73
    31
 74
     0
 42
0.0000000001
 43
0.0000000001
 12
1.0
 22
0.0
 32
0.0
 13
1.0
 23
0.0
 33
0.0
 40
0.0
 40
0.0
 40
0.0
 40
0.0
 40
1.0
 40
1.0
 40
1.0
 40
2.0
 40
2.0
 40
2.0
 40
3.0
 40
3.0
 40
3.0
 40
4.0
 40
4.0
 40
4.0
 40
5.0
 40
5.0
 40
5.0
 40
6.0
 40
6.0
 40
6.0
 40
7.0
 40
7.0
 40
7.0
 40
8.0
 40
8.0
 40
8.0
 40
9.0
 40
9.0
 40
9.0
 40
10.0
 40
10.0
 40
10.0
 40
10.0
 10
-9.680189152674275
 20
-15.53182164922277
 30
0.0
 10
-9.607077139508533
 20
-15.45922481952124
 30
0.0
 10
-9.506787728777113
 20
-15.4207498245132
 30
0.0
 10
-9.403880128619436
 20
-15.42581855035471
 30
0.0
 10
-9.300972528461745
 20
-15.43088727619624
 30
0.0
 10
-9.204949565333864
 20
-15.4790316600625
 30
0.0
 10
-9.139325665339394
 20
-15.55846194333902
 30
0.0
 10
-9.139325665339394
 20
-15.55846194333902
 30
0.0
 10
-6.489373619149786
 20
-18.76592815177249
 30
0.0
 10
-6.489373619149786
 20
-18.76592815177249
 30
0.0
 10
-6.376989003557317
 20
-18.90195697439918
 30
0.0
 10
-6.377466316856359
 20
-19.09875151931695
 30
0.0
 10
-6.490509465721338
 20
-19.23423358049763
 30
0.0
 10
-6.490509465721338
 20
-19.23423358049763
 30
0.0
 10
-6.617773956829359
 20
-19.38675990114209
 30
0.0
 10
-6.617773956829359
 20
-19.38675990114209
 30
0.0
 10
-6.687631959900298
 20
-19.47048462343665
 30
0.0
 10
-6.791138440127384
 20
-19.51876156230527
 30
0.0
 10
-6.900179208753949
 20
-19.5184778482061
 30
0.0
 10
-7.009219977380503
 20
-19.51819413410693
 30
0.0
 10
-7.112473833503044
 20
-19.46937922376848
 30
0.0
 10
-7.18189520553498
 20
-19.38529210928861
 30
0.0
 10
-7.18189520553498
 20
-19.38529210928861
 30
0.0
 10
-9.842668432706141
 20
-16.16241223224764
 30
0.0
 10
-9.842668432706141
 20
-16.16241223224764
 30
0.0
 10
-9.963273428032569
 20
-16.01632860191833
 30
0.0
 10
-9.952699066119319
 20
-15.80241132281736
 30
0.0
 10
-9.818274824763876
 20
-15.66893430125972
 30
0.0
 10
-9.818274824763876
 20
-15.66893430125972
 30
0.0
 10
-9.680189152674275
 20
-15.53182164922277
 30
0.0
 10
-9.680189152674275
 20
-15.53182164922277
 30
0.0
  0
SPLINE
  5
4C
330
1F
100
AcDbEntity
  8
Layer 1
370
     0
100
AcDbSpline
210
0.0
220
0.0
230
1.0
 70
    11
 71
     3
 72
    35
 73
    31
 74
     0
 42
0.0000000001
 43
0.0000000001
 12
1.0
 22
0.0
 32
0.0
 13
1.0
 23
0.0
 33
0.0
 40
0.0
 40
0.0
 40
0.0
 40
0.0
 40
1.0
 40
1.0
 40
1.0
 40
2.0
 40
2.0
 40
2.0
 40
3.0
 40
3.0
 40
3.0
 40
4.0
 40
4.0
 40
4.0
 40
5.0
 40
5.0
 40
5.0
 40
6.0
 40
6.0
 40
6.0
 40
7.0
 40
7.0
 40
7.0
 40
8.0
 40
8.0
 40
8.0
 40
9.0
 40
9.0
 40
9.0
 40
10.0
 40
10.0
 40
10.0
 40
10.0
 10
-2.200045145213494
 20
-23.95783407569181
 30
0.0
 10
-2.101412113483371
 20
-24.0772207305932
 30
0.0
 10
-2.088446893307946
 20
-24.24571172027112
 30
0.0
 10
-2.167653531435829
 20
-24.37878296732805
 30
0.0
 10
-2.167653531435829
 20
-24.37878296732805
 30
0.0
 10
-2.274956075540836
 20
-24.55905678899153
 30
0.0
 10
-2.274956075540836
 20
-24.55905678899153
 30
0.0
 10
-2.335948894956295
 20
-24.66152787895279
 30
0.0
 10
-2.442976179911018
 20
-24.72792464728875
 30
0.0
 10
-2.561875744792663
 20
-24.73705381861237
 30
0.0
 10
-2.680775309674295
 20
-24.74618298993598
 30
0.0
 10
-2.796684287563178
 20
-24.69690338548361
 30
0.0
 10
-2.872605533119629
 20
-24.60494462966749
 30
0.0
 10
-2.872605533119629
 20
-24.60494462966749
 30
0.0
 10
-5.497719046451544
 20
-21.42530537595361
 30
0.0
 10
-5.497719046451544
 20
-21.42530537595361
 30
0.0
 10
-5.605019739949019
 20
-21.29533861632111
 30
0.0
 10
-5.609870130700212
 20
-21.10895295410834
 30
0.0
 10
-5.509474449799527
 20
-20.97358122629597
 30
0.0
 10
-5.509474449799527
 20
-20.97358122629597
 30
0.0
 10
-5.389111079225763
 20
-20.81128542538388
 30
0.0
 10
-5.389111079225763
 20
-20.81128542538388
 30
0.0
 10
-5.321979668605283
 20
-20.7207666404657
 30
0.0
 10
-5.216941715387065
 20
-20.66615889321404
 30
0.0
 10
-5.104284844027752
 20
-20.66320829149319
 30
0.0
 10
-4.991627972668425
 20
-20.66025768977235
 30
0.0
 10
-4.883875519068283
 20
-20.70929223289543
 30
0.0
 10
-4.81209783207665
 20
-20.79617284272945
 30
0.0
 10
-4.81209783207665
 20
-20.79617284272945
 30
0.0
 10
-2.200045145213494
 20
-23.95783407569181
 30
0.0
 10
-2.200045145213494
 20
-23.95783407569181
 30
0.0
  0
SPLINE
  5
4D
330
1F
100
AcDbEntity
  8
Layer 1
370
     0
100
AcDbSpline
210
0.0
220
0.0
230
1.0
 70
    11
 71
     3
 72
    35
 73
    31
 74
     0
 42
0.0000000001
 43
0.0000000001
 12
1.0
 22
0.0
 32
0.0
 13
1.0
 23
0.0
 33
0.0
 40
0.0
 40
0.0
 40
0.0
 40
0.0
 40
1.0
 40
1.0
 40
1.0
 40
2.0
 40
2.0
 40
2.0
 40
3.0
 40
3.0
 40
3.0
 40
4.0
 40
4.0
 40
4.0
 40
5.0
 40
5.0
 40
5.0
 40
6.0
 40
6.0
 40
6.0
 40
7.0
 40
7.0
 40
7.0
 40
8.0
 40
8.0
 40
8.0
 40
9.0
 40
9.0
 40
9.0
 40
10.0
 40
10.0
 40
10.0
 40
10.0
 10
-7.990395633383892
 20
-13.85373814844156
 30
0.0
 10
-7.917502214941944
 20
-13.78134204134032
 30
0.0
 10
-7.817572898846745
 20
-13.7428589806667
 30
0.0
 10
-7.714949472554596
 20
-13.74766305723
 30
0.0
 10
-7.612326046262448
 20
-13.75246713379331
 30
0.0
 10
-7.516428859087884
 20
-13.80011735589215
 30
0.0
 10
-7.450617511987616
 20
-13.87900660337502
 30
0.0
 10
-7.450617511987616
 20
-13.87900660337502
 30
0.0
 10
-4.932673546887713
 20
-16.89731139978221
 30
0.0
 10
-4.932673546887713
 20
-16.89731139978221
 30
0.0
 10
-4.819231978280237
 20
-17.03329585193278
 30
0.0
 10
-4.819228859473052
 20
-17.23093727598904
 30
0.0
 10
-4.932666136319615
 20
-17.36692530831695
 30
0.0
 10
-4.932666136319615
 20
-17.36692530831695
 30
0.0
 10
-5.06154832248506
 20
-17.52142861962693
 30
0.0
 10
-5.06154832248506
 20
-17.52142861962693
 30
0.0
 10
-5.131190824182164
 20
-17.60491569755638
 30
0.0
 10
-5.234300824742856
 20
-17.65317996808138
 30
0.0
 10
-5.343021430975392
 20
-17.65318203035152
 30
0.0
 10
-5.451742037207938
 20
-17.65318409262181
 30
0.0
 10
-5.554853868699094
 20
-17.60492373382208
 30
0.0
 10
-5.624499537600614
 20
-17.52143929798472
 30
0.0
 10
-5.624499537600614
 20
-17.52143929798472
 30
0.0
 10
-8.154551621948851
 20
-14.48865959707223
 30
0.0
 10
-8.154551621948851
 20
-14.48865959707223
 30
0.0
 10
-8.276354034552392
 20
-14.34265474335749
 30
0.0
 10
-8.266294685589122
 20
-14.12775489452805
 30
0.0
 10
-8.13138593879767
 20
-13.99376655524626
 30
0.0
 10
-8.13138593879767
 20
-13.99376655524626
 30
0.0
 10
-7.990395633383892
 20
-13.85373814844156
 30
0.0
 10
-7.990395633383892
 20
-13.85373814844156
 30
0.0
  0
SPLINE
  5
4E
330
1F
100
AcDbEntity
  8
Layer 1
370
     0
100
AcDbSpline
210
0.0
220
0.0
230
1.0
 70
    11
 71
     3
 72
    35
 73
    31
 74
     0
 42
0.0000000001
 43
0.0000000001
 12
1.0
 22
0.0
 32
0.0
 13
1.0
 23
0.0
 33
0.0
 40
0.0
 40
0.0
 40
0.0
 40
0.0
 40
1.0
 40
1.0
 40
1.0
 40
2.0
 40
2.0
 40
2.0
 40
3.0
 40
3.0
 40
3.0
 40
4.0
 40
4.0
 40
4.0
 40
5.0
 40
5.0
 40
5.0
 40
6.0
 40
6.0
 40
6.0
 40
7.0
 40
7.0
 40
7.0
 40
8.0
 40
8.0
 40
8.0
 40
9.0
 40
9.0
 40
9.0
 40
10.0
 40
10.0
 40
10.0
 40
10.0
 10
-0.8863542183248303
 20
-21.74763810059416
 30
0.0
 10
-0.7867315547036418
 20
-21.86705640492098
 30
0.0
 10
-0.7733075167843076
 20
-22.03633991941832
 30
0.0
 10
-0.8528639002634639
 20
-22.16996696893668
 30
0.0
 10
-0.8528639002634639
 20
-22.16996696893668
 30
0.0
 10
-0.960229757488504
 20
-22.35030426045973
 30
0.0
 10
-0.960229757488504
 20
-22.35030426045973
 30
0.0
 10
-1.02106063723612
 20
-22.45247897762
 30
0.0
 10
-1.127675265951211
 20
-22.51879692915041
 30
0.0
 10
-1.246215165437901
 20
-22.52819698166862
 30
0.0
 10
-1.364755064924591
 20
-22.5375970341868
 30
0.0
 10
-1.480489349167442
 20
-22.48891104850251
 30
0.0
 10
-1.556663336498673
 20
-22.39760063063181
 30
0.0
 10
-1.556663336498673
 20
-22.39760063063181
 30
0.0
 10
-4.023387864873143
 20
-19.44071658991195
 30
0.0
 10
-4.023387864873143
 20
-19.44071658991195
 30
0.0
 10
-4.131801844183782
 20
-19.31075981463083
 30
0.0
 10
-4.137151558486885
 20
-19.12347508667388
 30
0.0
 10
-4.036332627922042
 20
-18.98754165593957
 30
0.0
 10
-4.036332627922042
 20
-18.98754165593957
 30
0.0
 10
-3.915001069088046
 20
-18.82395119771652
 30
0.0
 10
-3.915001069088046
 20
-18.82395119771652
 30
0.0
 10
-3.848051047014299
 20
-18.73368296994181
 30
0.0
 10
-3.743391376495765
 20
-18.67911620325097
 30
0.0
 10
-3.631050998080266
 20
-18.67590718802527
 30
0.0
 10
-3.518710619664779
 20
-18.67269817279945
 30
0.0
 10
-3.411106737533866
 20
-18.72120160783763
 30
0.0
 10
-3.339113045090332
 20
-18.80750089317416
 30
0.0
 10
-3.339113045090332
 20
-18.80750089317416
 30
0.0
 10
-0.8863542183248303
 20
-21.74763810059416
 30
0.0
 10
-0.8863542183248303
 20
-21.74763810059416
 30
0.0
  0
SPLINE
  5
4F
330
1F
100
AcDbEntity
  8
Layer 1
370
     0
100
AcDbSpline
210
0.0
220
0.0
230
1.0
 70
    11
 71
     3
 72
    35
 73
    31
 74
     0
 42
0.0000000001
 43
0.0000000001
 12
1.0
 22
0.0
 32
0.0
 13
1.0
 23
0.0
 33
0.0
 40
0.0
 40
0.0
 40
0.0
 40
0.0
 40
1.0
 40
1.0
 40
1.0
 40
2.0
 40
2.0
 40
2.0
 40
3.0
 40
3.0
 40
3.0
 40
4.0
 40
4.0
 40
4.0
 40
5.0
 40
5.0
 40
5.0
 40
6.0
 40
6.0
 40
6.0
 40
7.0
 40
7.0
 40
7.0
 40
8.0
 40
8.0
 40
8.0
 40
9.0
 40
9.0
 40
9.0
 40
10.0
 40
10.0
 40
10.0
 40
10.0
 10
-6.290252345886832
 20
-12.16536350121512
 30
0.0
 10
-6.217390449351442
 20
-12.09299845342184
 30
0.0
 10
-6.117514260158814
 20
-12.05451576443956
 30
0.0
 10
-6.014933370336128
 20
-12.05928201580115
 30
0.0
 10
-5.912352480513442
 20
-12.06404826716276
 30
0.0
 10
-5.816474961721623
 20
-12.11162632838091
 30
0.0
 10
-5.7506371405191
 20
-12.19043582912897
 30
0.0
 10
-5.7506371405191
 20
-12.19043582912897
 30
0.0
 10
-3.376840872351421
 20
-15.03192868771667
 30
0.0
 10
-3.376840872351421
 20
-15.03192868771667
 30
0.0
 10
-3.263237136188157
 20
-15.16791517035861
 30
0.0
 10
-3.263171934928803
 20
-15.36569596862624
 30
0.0
 10
-3.3766859866445
 20
-15.5017573238843
 30
0.0
 10
-3.3766859866445
 20
-15.5017573238843
 30
0.0
 10
-3.505464558427194
 20
-15.65611519183221
 30
0.0
 10
-3.505464558427194
 20
-15.65611519183221
 30
0.0
 10
-3.575081159191124
 20
-15.73955974257498
 30
0.0
 10
-3.67813444728434
 20
-15.78781309368153
 30
0.0
 10
-3.78680579963754
 20
-15.78784953960583
 30
0.0
 10
-3.895477151990753
 20
-15.78788598553014
 30
0.0
 10
-3.998562783072442
 20
-15.73970176877472
 30
0.0
 10
-4.068235339015675
 20
-15.65630393247834
 30
0.0
 10
-4.068235339015675
 20
-15.65630393247834
 30
0.0
 10
-6.454141779529714
 20
-12.80038122301663
 30
0.0
 10
-6.454141779529714
 20
-12.80038122301663
 30
0.0
 10
-6.576109462113436
 20
-12.65438628013185
 30
0.0
 10
-6.566119358702167
 20
-12.4393493637335
 30
0.0
 10
-6.431141090015886
 20
-12.30529151828894
 30
0.0
 10
-6.431141090015886
 20
-12.30529151828894
 30
0.0
 10
-6.290252345886832
 20
-12.16536350121512
 30
0.0
 10
-6.290252345886832
 20
-12.16536350121512
 30
0.0
  0
SPLINE
  5
50
330
1F
100
AcDbEntity
  8
Layer 1
370
     0
100
AcDbSpline
210
0.0
220
0.0
230
1.0
 70
    11
 71
     3
 72
    35
 73
    31
 74
     0
 42
0.0000000001
 43
0.0000000001
 12
1.0
 22
0.0
 32
0.0
 13
1.0
 23
0.0
 33
0.0
 40
0.0
 40
0.0
 40
0.0
 40
0.0
 40
1.0
 40
1.0
 40
1.0
 40
2.0
 40
2.0
 40
2.0
 40
3.0
 40
3.0
 40
3.0
 40
4.0
 40
4.0
 40
4.0
 40
5.0
 40
5.0
 40
5.0
 40
6.0
 40
6.0
 40
6.0
 40
7.0
 40
7.0
 40
7.0
 40
8.0
 40
8.0
 40
8.0
 40
9.0
 40
9.0
 40
9.0
 40
10.0
 40
10.0
 40
10.0
 40
10.0
 10
0.4115862817234554
 20
-19.5665227316175
 30
0.0
 10
0.5113377405770809
 20
-19.68592718465652
 30
0.0
 10
0.5248410008038162
 20
-19.85529521710348
 30
0.0
 10
0.4452689972796659
 20
-19.98899665017027
 30
0.0
 10
0.4452689972796659
 20
-19.98899665017027
 30
0.0
 10
0.3379796345470317
 20
-20.1692703760393
 30
0.0
 10
0.3379796345470317
 20
-20.1692703760393
 30
0.0
 10
0.2771828439196421
 20
-20.27142462216529
 30
0.0
 10
0.1706222284147745
 20
-20.33775237979042
 30
0.0
 10
0.0521212881261716
 20
-20.34720049615624
 30
0.0
 10
-0.0663796521624312
 20
-20.35664861252222
 30
0.0
 10
-0.1821038852255899
 20
-20.30804369414667
 30
0.0
 10
-0.2583192789400325
 20
-20.21681347156055
 30
0.0
 10
-0.2583192789400325
 20
-20.21681347156055
 30
0.0
 10
-2.557475560516511
 20
-17.4647114472082
 30
0.0
 10
-2.557475560516511
 20
-17.4647114472082
 30
0.0
 10
-2.666039584759081
 20
-17.33475974567139
 30
0.0
 10
-2.671460653729519
 20
-17.14735722379694
 30
0.0
 10
-2.570590214617646
 20
-17.01134712635763
 30
0.0
 10
-2.570590214617646
 20
-17.01134712635763
 30
0.0
 10
-2.44929835601786
 20
-16.84780151624651
 30
0.0
 10
-2.44929835601786
 20
-16.84780151624651
 30
0.0
 10
-2.382376193866536
 20
-16.75756606297404
 30
0.0
 10
-2.277770608305268
 20
-16.70300191990014
 30
0.0
 10
-2.165474292215221
 20
-16.69975381169931
 30
0.0
 10
-2.053177976125173
 20
-16.69650570349834
 30
0.0
 10
-1.945593439060429
 20
-16.74493236583001
 30
0.0
 10
-1.873567503985858
 20
-16.83114882302306
 30
0.0
 10
-1.873567503985858
 20
-16.83114882302306
 30
0.0
 10
0.4115862817234554
 20
-19.5665227316175
 30
0.0
 10
0.4115862817234554
 20
-19.5665227316175
 30
0.0
  0
SPLINE
  5
51
330
1F
100
AcDbEntity
  8
Layer 1
370
     0
100
AcDbSpline
210
0.0
220
0.0
230
1.0
 70
    11
 71
     3
 72
    35
 73
    31
 74
     0
 42
0.0000000001
 43
0.0000000001
 12
1.0
 22
0.0
 32
0.0
 13
1.0
 23
0.0
 33
0.0
 40
0.0
 40
0.0
 40
0.0
 40
0.0
 40
1.0
 40
1.0
 40
1.0
 40
2.0
 40
2.0
 40
2.0
 40
3.0
 40
3.0
 40
3.0
 40
4.0
 40
4.0
 40
4.0
 40
5.0
 40
5.0
 40
5.0
 40
6.0
 40
6.0
 40
6.0
 40
7.0
 40
7.0
 40
7.0
 40
8.0
 40
8.0
 40
8.0
 40
9.0
 40
9.0
 40
9.0
 40
10.0
 40
10.0
 40
10.0
 40
10.0
 10
-4.590068922612532
 20
-10.47695229447572
 30
0.0
 10
-4.517243809710331
 20
-10.40462429493123
 30
0.0
 10
-4.417430072258449
 20
-10.36614262106893
 30
0.0
 10
-4.31489940824243
 20
-10.37086485822533
 30
0.0
 10
-4.212368744226422
 20
-10.37558709538176
 30
0.0
 10
-4.116514750977545
 20
-10.42308060426037
 30
0.0
 10
-4.050646235822746
 20
-10.50179639237578
 30
0.0
 10
-4.050646235822746
 20
-10.50179639237578
 30
0.0
 10
-1.820913828492545
 20
-13.16642521112059
 30
0.0
 10
-1.820913828492545
 20
-13.16642521112059
 30
0.0
 10
-1.707127210287657
 20
-13.30240525117359
 30
0.0
 10
-1.7069811059203
 20
-13.5003345177394
 30
0.0
 10
-1.8205668489437
 20
-13.63648239600838
 30
0.0
 10
-1.8205668489437
 20
-13.63648239600838
 30
0.0
 10
-1.949412473786651
 20
-13.79092130691116
 30
0.0
 10
-1.949412473786651
 20
-13.79092130691116
 30
0.0
 10
-2.018996150192859
 20
-13.87432675598158
 30
0.0
 10
-2.121987092405536
 20
-13.92257621492667
 30
0.0
 10
-2.230607304902125
 20
-13.92265617764805
 30
0.0
 10
-2.339227517398715
 20
-13.92273614036958
 30
0.0
 10
-2.442289387355092
 20
-13.87463837090531
 30
0.0
 10
-2.511995789114482
 20
-13.79133546272919
 30
0.0
 10
-2.511995789114482
 20
-13.79133546272919
 30
0.0
 10
-4.753816144179129
 20
-11.1122392754103
 30
0.0
 10
-4.753816144179129
 20
-11.1122392754103
 30
0.0
 10
-4.875973012950074
 20
-10.96625523139904
 30
0.0
 10
-4.866061410537023
 20
-10.75106082305006
 30
0.0
 10
-4.731002495189942
 20
-10.61692383680439
 30
0.0
 10
-4.731002495189942
 20
-10.61692383680439
 30
0.0
 10
-4.590068922612532
 20
-10.47695229447572
 30
0.0
 10
-4.590068922612532
 20
-10.47695229447572
 30
0.0
  0
SPLINE
  5
52
330
1F
100
AcDbEntity
  8
Layer 1
370
     0
100
AcDbSpline
210
0.0
220
0.0
230
1.0
 70
    11
 71
     3
 72
    35
 73
    31
 74
     0
 42
0.0000000001
 43
0.0000000001
 12
1.0
 22
0.0
 32
0.0
 13
1.0
 23
0.0
 33
0.0
 40
0.0
 40
0.0
 40
0.0
 40
0.0
 40
1.0
 40
1.0
 40
1.0
 40
2.0
 40
2.0
 40
2.0
 40
3.0
 40
3.0
 40
3.0
 40
4.0
 40
4.0
 40
4.0
 40
5.0
 40
5.0
 40
5.0
 40
6.0
 40
6.0
 40
6.0
 40
7.0
 40
7.0
 40
7.0
 40
8.0
 40
8.0
 40
8.0
 40
9.0
 40
9.0
 40
9.0
 40
10.0
 40
10.0
 40
10.0
 40
10.0
 10
1.709565323108146
 20
-17.38547595708665
 30
0.0
 10
1.809490975165128
 20
-17.50489259164874
 30
0.0
 10
1.823067130902991
 20
-17.6744077586882
 30
0.0
 10
1.743420986490681
 20
-17.80820596581154
 30
0.0
 10
1.743420986490681
 20
-17.80820596581154
 30
0.0
 10
1.636193606671643
 20
-17.98833811508472
 30
0.0
 10
1.636193606671643
 20
-17.98833811508472
 30
0.0
 10
1.575417239866081
 20
-18.09043682901569
 30
0.0
 10
1.4689228134479
 20
-18.15674310230209
 30
0.0
 10
1.350483244035369
 20
-18.16622901532138
 30
0.0
 10
1.232043674622837
 20
-18.17571492834056
 30
0.0
 10
1.116353420554181
 20
-18.12720359101834
 30
0.0
 10
1.040101700557759
 20
-18.0360795582607
 30
0.0
 10
1.040101700557759
 20
-18.0360795582607
 30
0.0
 10
-1.091497889673545
 20
-15.48872782776084
 30
0.0
 10
-1.091497889673545
 20
-15.48872782776084
 30
0.0
 10
-1.200242138752148
 20
-15.35877384750029
 30
0.0
 10
-1.205738677057133
 20
-15.17122105195499
 30
0.0
 10
-1.104791550820412
 20
-15.03512172646889
 30
0.0
 10
-1.104791550820412
 20
-15.03512172646889
 30
0.0
 10
-0.983569510609224
 20
-14.87168727794291
 30
0.0
 10
-0.983569510609224
 20
-14.87168727794291
 30
0.0
 10
-0.9166757362269714
 20
-14.78149949437693
 30
0.0
 10
-0.8121351950629029
 20
-14.72694737203751
 30
0.0
 10
-0.6998952944365125
 20
-14.72365828963944
 30
0.0
 10
-0.5876553938101222
 20
-14.7203692072414
 30
0.0
 10
-0.4800997902512512
 20
-14.76870605593583
 30
0.0
 10
-0.4080396067310074
 20
-14.85482192733404
 30
0.0
 10
-0.4080396067310074
 20
-14.85482192733404
 30
0.0
 10
1.709565323108146
 20
-17.38547595708665
 30
0.0
 10
1.709565323108146
 20
-17.38547595708665
 30
0.0
  0
SPLINE
  5
53
330
1F
100
AcDbEntity
  8
Layer 1
370
     0
100
AcDbSpline
210
0.0
220
0.0
230
1.0
 70
    11
 71
     3
 72
    35
 73
    31
 74
     0
 42
0.0000000001
 43
0.0000000001
 12
1.0
 22
0.0
 32
0.0
 13
1.0
 23
0.0
 33
0.0
 40
0.0
 40
0.0
 40
0.0
 40
0.0
 40
1.0
 40
1.0
 40
1.0
 40
2.0
 40
2.0
 40
2.0
 40
3.0
 40
3.0
 40
3.0
 40
4.0
 40
4.0
 40
4.0
 40
5.0
 40
5.0
 40
5.0
 40
6.0
 40
6.0
 40
6.0
 40
7.0
 40
7.0
 40
7.0
 40
8.0
 40
8.0
 40
8.0
 40
9.0
 40
9.0
 40
9.0
 40
10.0
 40
10.0
 40
10.0
 40
10.0
 10
-2.889732918506575
 20
-8.78851228233091
 30
0.0
 10
-2.816949915656904
 20
-8.716226105390433
 30
0.0
 10
-2.717207319522471
 20
-8.677745206408568
 30
0.0
 10
-2.614733757796266
 20
-8.68241703984164
 30
0.0
 10
-2.512260196070075
 20
-8.68708887327471
 30
0.0
 10
-2.416432829298742
 20
-8.73448592853937
 30
0.0
 10
-2.350529230778799
 20
-8.813094913920192
 30
0.0
 10
-2.350529230778799
 20
-8.813094913920192
 30
0.0
 10
-0.2649119382577838
 20
-11.30079305089175
 30
0.0
 10
-0.2649119382577838
 20
-11.30079305089175
 30
0.0
 10
-0.1509159955064913
 20
-11.43676598102694
 30
0.0
 10
-0.15067781530585
 20
-11.6348656467799
 30
0.0
 10
-0.2643464616145366
 20
-11.77111230376515
 30
0.0
 10
-0.2643464616145366
 20
-11.77111230376515
 30
0.0
 10
-0.3932653005930686
 20
-11.92563830019112
 30
0.0
 10
-0.3932653005930686
 20
-11.92563830019112
 30
0.0
 10
-0.4628116819125125
 20
-12.00899868379646
 30
0.0
 10
-0.5657315122461012
 20
-12.05724319277806
 30
0.0
 10
-0.6742931814145802
 20
-12.05737240892821
 30
0.0
 10
-0.7828548505830465
 20
-12.05750162507838
 30
0.0
 10
-0.8858892357472364
 20
-12.0095022542845
 30
0.0
 10
-0.9556338600824826
 20
-11.92630766259855
 30
0.0
 10
-0.9556338600824826
 20
-11.92630766259855
 30
0.0
 10
-3.053311976266829
 20
-9.424100846977606
 30
0.0
 10
-3.053311976266829
 20
-9.424100846977606
 30
0.0
 10
-3.175683988745454
 20
-9.278129889230184
 30
0.0
 10
-3.165862393672872
 20
-9.062756863055029
 30
0.0
 10
-3.030712581148426
 20
-8.928529600107519
 30
0.0
 10
-3.030712581148426
 20
-8.928529600107519
 30
0.0
 10
-2.889732918506575
 20
-8.78851228233091
 30
0.0
 10
-2.889732918506575
 20
-8.78851228233091
 30
0.0
  0
SPLINE
  5
54
330
1F
100
AcDbEntity
  8
Layer 1
370
     0
100
AcDbSpline
210
0.0
220
0.0
230
1.0
 70
    11
 71
     3
 72
    35
 73
    31
 74
     0
 42
0.0000000001
 43
0.0000000001
 12
1.0
 22
0.0
 32
0.0
 13
1.0
 23
0.0
 33
0.0
 40
0.0
 40
0.0
 40
0.0
 40
0.0
 40
1.0
 40
1.0
 40
1.0
 40
2.0
 40
2.0
 40
2.0
 40
3.0
 40
3.0
 40
3.0
 40
4.0
 40
4.0
 40
4.0
 40
5.0
 40
5.0
 40
5.0
 40
6.0
 40
6.0
 40
6.0
 40
7.0
 40
7.0
 40
7.0
 40
8.0
 40
8.0
 40
8.0
 40
9.0
 40
9.0
 40
9.0
 40
10.0
 40
10.0
 40
10.0
 40
10.0
 10
3.007530912959244
 20
-15.20432645346318
 30
0.0
 10
3.107642891461018
 20
-15.32374158527167
 30
0.0
 10
3.121312916783356
 20
-15.49339894316901
 30
0.0
 10
3.041611908566829
 20
-15.62730238313083
 30
0.0
 10
3.041611908566829
 20
-15.62730238313083
 30
0.0
 10
2.934366474270771
 20
-15.80748244476111
 30
0.0
 10
2.934366474270771
 20
-15.80748244476111
 30
0.0
 10
2.873622828234248
 20
-15.90953614950235
 30
0.0
 10
2.767200055698266
 20
-15.97583576841862
 30
0.0
 10
2.648820201554422
 20
-15.98537302788473
 30
0.0
 10
2.530440347410579
 20
-15.9949102873507
 30
0.0
 10
2.414776231939047
 20
-15.94650307327179
 30
0.0
 10
2.338478192293564
 20
-15.85549011632889
 30
0.0
 10
2.338478192293564
 20
-15.85549011632889
 30
0.0
 10
0.3744970542131796
 20
-13.51273358434721
 30
0.0
 10
0.3744970542131796
 20
-13.51273358434721
 30
0.0
 10
0.2655592146262001
 20
-13.38278588254707
 30
0.0
 10
0.2599712490927004
 20
-13.19508049487816
 30
0.0
 10
0.3609859660739655
 20
-13.058882532154
 30
0.0
 10
0.3609859660739655
 20
-13.058882532154
 30
0.0
 10
0.4821985364569374
 20
-12.89545183971558
 30
0.0
 10
0.4821985364569374
 20
-12.89545183971558
 30
0.0
 10
0.5490555706897263
 20
-12.80530861971356
 30
0.0
 10
0.6535238786452484
 20
-12.75076087906475
 30
0.0
 10
0.765704550577867
 20
-12.74742022291917
 30
0.0
 10
0.877885222510473
 20
-12.74407956677358
 30
0.0
 10
0.9854143118836367
 20
-12.79231418417188
 30
0.0
 10
1.057516910965786
 20
-12.87831929067339
 30
0.0
 10
1.057516910965786
 20
-12.87831929067339
 30
0.0
 10
3.007530912959244
 20
-15.20432645346318
 30
0.0
 10
3.007530912959244
 20
-15.20432645346318
 30
0.0
  0
SPLINE
  5
55
330
1F
100
AcDbEntity
  8
Layer 1
370
     0
100
AcDbSpline
210
0.0
220
0.0
230
1.0
 70
    11
 71
     3
 72
    35
 73
    31
 74
     0
 42
0.0000000001
 43
0.0000000001
 12
1.0
 22
0.0
 32
0.0
 13
1.0
 23
0.0
 33
0.0
 40
0.0
 40
0.0
 40
0.0
 40
0.0
 40
1.0
 40
1.0
 40
1.0
 40
2.0
 40
2.0
 40
2.0
 40
3.0
 40
3.0
 40
3.0
 40
4.0
 40
4.0
 40
4.0
 40
5.0
 40
5.0
 40
5.0
 40
6.0
 40
6.0
 40
6.0
 40
7.0
 40
7.0
 40
7.0
 40
8.0
 40
8.0
 40
8.0
 40
9.0
 40
9.0
 40
9.0
 40
10.0
 40
10.0
 40
10.0
 40
10.0
 10
-1.189497372990394
 20
-7.10004600488201
 30
0.0
 10
-1.116760687208246
 20
-7.027805581732663
 30
0.0
 10
-1.017096182303918
 20
-6.989325393429807
 30
0.0
 10
-0.9146852805300796
 20
-6.993941819887318
 30
0.0
 10
-0.8122743787562411
 20
-6.998558246344828
 30
0.0
 10
-0.7164762307332668
 20
-7.045849400539004
 30
0.0
 10
-0.6505341713936003
 20
-7.124341113511845
 30
0.0
 10
-0.6505341713936003
 20
-7.124341113511845
 30
0.0
 10
1.290930634797633
 20
-9.43529257363429
 30
0.0
 10
1.290930634797633
 20
-9.43529257363429
 30
0.0
 10
1.405153403598648
 20
-9.57125345919768
 30
0.0
 10
1.405496619738819
 20
-9.769533602831517
 30
0.0
 10
1.291745221279825
 20
-9.90588910387338
 30
0.0
 10
1.291745221279825
 20
-9.90588910387338
 30
0.0
 10
1.162974640580109
 20
-10.06024832308847
 30
0.0
 10
1.162974640580109
 20
-10.06024832308847
 30
0.0
 10
1.093472621814537
 20
-10.14356143150369
 30
0.0
 10
0.9906332478958448
 20
-10.19180425981739
 30
0.0
 10
0.8821363842550909
 20
-10.19199194683435
 30
0.0
 10
0.7736395206143243
 20
-10.19217963385128
 30
0.0
 10
0.670633853667861
 20
-10.14429289363433
 30
0.0
 10
0.600844007662911
 20
-10.06122074402386
 30
0.0
 10
0.600844007662911
 20
-10.06122074402386
 30
0.0
 10
-1.352737632190383
 20
-7.735836242521751
 30
0.0
 10
-1.352737632190383
 20
-7.735836242521751
 30
0.0
 10
-1.475356442718951
 20
-7.589880795470561
 30
0.0
 10
-1.465638507735295
 20
-7.374303103736641
 30
0.0
 10
-1.330384787352159
 20
-7.239972182717413
 30
0.0
 10
-1.330384787352159
 20
-7.239972182717413
 30
0.0
 10
-1.189497372990394
 20
-7.10004600488201
 30
0.0
 10
-1.189497372990394
 20
-7.10004600488201
 30
0.0
  0
SPLINE
  5
56
330
1F
100
AcDbEntity
  8
Layer 1
370
     0
100
AcDbSpline
210
0.0
220
0.0
230
1.0
 70
    11
 71
     3
 72
    35
 73
    31
 74
     0
 42
0.0000000001
 43
0.0000000001
 12
1.0
 22
0.0
 32
0.0
 13
1.0
 23
0.0
 33
0.0
 40
0.0
 40
0.0
 40
0.0
 40
0.0
 40
1.0
 40
1.0
 40
1.0
 40
2.0
 40
2.0
 40
2.0
 40
3.0
 40
3.0
 40
3.0
 40
4.0
 40
4.0
 40
4.0
 40
5.0
 40
5.0
 40
5.0
 40
6.0
 40
6.0
 40
6.0
 40
7.0
 40
7.0
 40
7.0
 40
8.0
 40
8.0
 40
8.0
 40
9.0
 40
9.0
 40
9.0
 40
10.0
 40
10.0
 40
10.0
 40
10.0
 10
4.305292705451797
 20
-13.02327469753151
 30
0.0
 10
4.405625074352858
 20
-13.14270167834002
 30
0.0
 10
4.419390869167071
 20
-13.31254186739529
 30
0.0
 10
4.33960124430031
 20
-13.44656799827264
 30
0.0
 10
4.33960124430031
 20
-13.44656799827264
 30
0.0
 10
4.232392776294445
 20
-13.62665076201675
 30
0.0
 10
4.232392776294445
 20
-13.62665076201675
 30
0.0
 10
4.171677163915496
 20
-13.7286374379109
 30
0.0
 10
4.065338004647477
 20
-13.79491332421301
 30
0.0
 10
3.947034347480717
 20
-13.80450041696602
 30
0.0
 10
3.828730690313945
 20
-13.81408750971903
 30
0.0
 10
3.713107461642974
 20
-13.765799013256
 30
0.0
 10
3.636762354594616
 20
-13.67491946508226
 30
0.0
 10
3.636762354594616
 20
-13.67491946508226
 30
0.0
 10
1.840559419442899
 20
-11.53675871731522
 30
0.0
 10
1.840559419442899
 20
-11.53675871731522
 30
0.0
 10
1.73139348485923
 20
-11.40680997279858
 30
0.0
 10
1.725708205798014
 20
-11.21891584760738
 30
0.0
 10
1.826817676253262
 20
-11.08260461381044
 30
0.0
 10
1.826817676253262
 20
-11.08260461381044
 30
0.0
 10
1.947984610469184
 20
-10.91925281081909
 30
0.0
 10
1.947984610469184
 20
-10.91925281081909
 30
0.0
 10
2.014804663768283
 20
-10.82916902473491
 30
0.0
 10
2.119190135226303
 20
-10.77463525946362
 30
0.0
 10
2.231299416341219
 20
-10.77124157031307
 30
0.0
 10
2.343408697456147
 20
-10.76784788116255
 30
0.0
 10
2.450901625850482
 20
-10.81596782039143
 30
0.0
 10
2.523048236510148
 20
-10.90184491051726
 30
0.0
 10
2.523048236510148
 20
-10.90184491051726
 30
0.0
 10
4.305292705451797
 20
-13.02327469753151
 30
0.0
 10
4.305292705451797
 20
-13.02327469753151
 30
0.0
  0
SPLINE
  5
57
330
1F
100
AcDbEntity
  8
Layer 1
370
     0
100
AcDbSpline
210
0.0
220
0.0
230
1.0
 70
    11
 71
     3
 72
    35
 73
    31
 74
     0
 42
0.0000000001
 43
0.0000000001
 12
1.0
 22
0.0
 32
0.0
 13
1.0
 23
0.0
 33
0.0
 40
0.0
 40
0.0
 40
0.0
 40
0.0
 40
1.0
 40
1.0
 40
1.0
 40
2.0
 40
2.0
 40
2.0
 40
3.0
 40
3.0
 40
3.0
 40
4.0
 40
4.0
 40
4.0
 40
5.0
 40
5.0
 40
5.0
 40
6.0
 40
6.0
 40
6.0
 40
7.0
 40
7.0
 40
7.0
 40
8.0
 40
8.0
 40
8.0
 40
9.0
 40
9.0
 40
9.0
 40
10.0
 40
10.0
 40
10.0
 40
10.0
 10
0.5107971041239807
 20
-5.411521142719266
 30
0.0
 10
0.5834780913344022
 20
-5.339336211208357
 30
0.0
 10
0.6830484359547123
 20
-5.300857249917954
 30
0.0
 10
0.7853836124880141
 20
-5.305407182116874
 30
0.0
 10
0.8877187890213033
 20
-5.309957114315794
 30
0.0
 10
0.9834813698279529
 20
-5.357120787911551
 30
0.0
 10
1.049469398229689
 20
-5.43547109325089
 30
0.0
 10
1.049469398229689
 20
-5.43547109325089
 30
0.0
 10
2.846822526318306
 20
-7.569542527102789
 30
0.0
 10
2.846822526318306
 20
-7.569542527102789
 30
0.0
 10
2.961312801529314
 20
-7.705481548747078
 30
0.0
 10
2.96178928252876
 20
-7.903967079211017
 30
0.0
 10
2.847952988939344
 20
-8.040454217745467
 30
0.0
 10
2.847952988939344
 20
-8.040454217745467
 30
0.0
 10
2.719158702222178
 20
-8.194875651361473
 30
0.0
 10
2.719158702222178
 20
-8.194875651361473
 30
0.0
 10
2.649711691750566
 20
-8.278141044499003
 30
0.0
 10
2.546964978804226
 20
-8.326389051636498
 30
0.0
 10
2.438540141498884
 20
-8.326649076831144
 30
0.0
 10
2.330115304193542
 20
-8.32690910202579
 30
0.0
 10
2.227138357036754
 20
-8.279154462792677
 30
0.0
 10
2.15729277240876
 20
-8.19622312212002
 30
0.0
 10
2.15729277240876
 20
-8.19622312212002
 30
0.0
 10
0.3477932264022456
 20
-6.047709023538724
 30
0.0
 10
0.3477932264022456
 20
-6.047709023538724
 30
0.0
 10
0.2248835642108639
 20
-5.901771909239465
 30
0.0
 10
0.2344796317888722
 20
-5.685952718036585
 30
0.0
 10
0.3698563994889178
 20
-5.551499911605888
 30
0.0
 10
0.3698563994889178
 20
-5.551499911605888
 30
0.0
 10
0.5107971041239807
 20
-5.411521142719266
 30
0.0
 10
0.5107971041239807
 20
-5.411521142719266
 30
0.0
  0
SPLINE
  5
58
330
1F
100
AcDbEntity
  8
Layer 1
370
     0
100
AcDbSpline
210
0.0
220
0.0
230
1.0
 70
    11
 71
     3
 72
    35
 73
    31
 74
     0
 42
0.0000000001
 43
0.0000000001
 12
1.0
 22
0.0
 32
0.0
 13
1.0
 23
0.0
 33
0.0
 40
0.0
 40
0.0
 40
0.0
 40
0.0
 40
1.0
 40
1.0
 40
1.0
 40
2.0
 40
2.0
 40
2.0
 40
3.0
 40
3.0
 40
3.0
 40
4.0
 40
4.0
 40
4.0
 40
5.0
 40
5.0
 40
5.0
 40
6.0
 40
6.0
 40
6.0
 40
7.0
 40
7.0
 40
7.0
 40
8.0
 40
8.0
 40
8.0
 40
9.0
 40
9.0
 40
9.0
 40
10.0
 40
10.0
 40
10.0
 40
10.0
 10
5.603018170369952
 20
-10.84212135168635
 30
0.0
 10
5.703595968744493
 20
-10.96154209549768
 30
0.0
 10
5.717489634744778
 20
-11.1315656328796
 30
0.0
 10
5.637633888902504
 20
-11.26573070819467
 30
0.0
 10
5.637633888902504
 20
-11.26573070819467
 30
0.0
 10
5.530453930963201
 20
-11.44580299951846
 30
0.0
 10
5.530453930963201
 20
-11.44580299951846
 30
0.0
 10
5.469786759368061
 20
-11.54772948659042
 30
0.0
 10
5.363548593320957
 20
-11.61399951997853
 30
0.0
 10
5.245327750062061
 20
-11.62366112933377
 30
0.0
 10
5.127106906803166
 20
-11.633322738689
 30
0.0
 10
5.011518469366643
 20
-11.58518150499796
 30
0.0
 10
4.935106941958186
 20
-11.49445778728707
 30
0.0
 10
4.935106941958186
 20
-11.49445778728707
 30
0.0
 10
3.306604175119509
 20
-9.560929819441071
 30
0.0
 10
3.306604175119509
 20
-9.560929819441071
 30
0.0
 10
3.197153327856679
 20
-9.430978382700232
 30
0.0
 10
3.19134851673991
 20
-9.24284670901069
 30
0.0
 10
3.292579473151591
 20
-9.106394675894508
 30
0.0
 10
3.292579473151591
 20
-9.106394675894508
 30
0.0
 10
3.413829418351927
 20
-8.942958488741219
 30
0.0
 10
3.413829418351927
 20
-8.942958488741219
 30
0.0
 10
3.480606543098032
 20
-8.852947737482484
 30
0.0
 10
3.584893075630286
 20
-8.798432883630715
 30
0.0
 10
3.696916195507419
 20
-8.794977403271483
 30
0.0
 10
3.808939315384552
 20
-8.791521922912251
 30
0.0
 10
3.916387530834148
 20
-8.839505577991632
 30
0.0
 10
3.988585390792309
 20
-8.925229488010851
 30
0.0
 10
3.988585390792309
 20
-8.925229488010851
 30
0.0
 10
5.603018170369952
 20
-10.84212135168635
 30
0.0
 10
5.603018170369952
 20
-10.84212135168635
 30
0.0
  0
SPLINE
  5
59
330
1F
100
AcDbEntity
  8
Layer 1
370
     0
100
AcDbSpline
210
0.0
220
0.0
230
1.0
 70
    11
 71
     3
 72
    35
 73
    31
 74
     0
 42
0.0000000001
 43
0.0000000001
 12
1.0
 22
0.0
 32
0.0
 13
1.0
 23
0.0
 33
0.0
 40
0.0
 40
0.0
 40
0.0
 40
0.0
 40
1.0
 40
1.0
 40
1.0
 40
2.0
 40
2.0
 40
2.0
 40
3.0
 40
3.0
 40
3.0
 40
4.0
 40
4.0
 40
4.0
 40
5.0
 40
5.0
 40
5.0
 40
6.0
 40
6.0
 40
6.0
 40
7.0
 40
7.0
 40
7.0
 40
8.0
 40
8.0
 40
8.0
 40
9.0
 40
9.0
 40
9.0
 40
10.0
 40
10.0
 40
10.0
 40
10.0
 10
4.402827996975955
 20
-5.703717757306448
 30
0.0
 10
4.517656432864947
 20
-5.839662471403092
 30
0.0
 10
4.518258709101474
 20
-6.038441958343861
 30
0.0
 10
4.404256163847927
 20
-6.175080000832925
 30
0.0
 10
4.404256163847927
 20
-6.175080000832925
 30
0.0
 10
4.275429483480593
 20
-6.329485548416161
 30
0.0
 10
4.275429483480593
 20
-6.329485548416161
 30
0.0
 10
4.20603346749576
 20
-6.412660321046182
 30
0.0
 10
4.103402740976991
 20
-6.460881989091553
 30
0.0
 10
3.995080339275912
 20
-6.46120929068325
 30
0.0
 10
3.886757937574834
 20
-6.461536592274948
 30
0.0
 10
3.783837679291827
 20
-6.413936006881386
 30
0.0
 10
3.71394030149506
 20
-6.331182116255276
 30
0.0
 10
3.71394030149506
 20
-6.331182116255276
 30
0.0
 10
2.048564793236336
 20
-4.359487225746812
 30
0.0
 10
2.048564793236336
 20
-4.359487225746812
 30
0.0
 10
1.925309494962941
 20
-4.213561072378651
 30
0.0
 10
1.934775999291459
 20
-3.997443763447045
 30
0.0
 10
2.070318645487936
 20
-3.862853638061311
 30
0.0
 10
2.070318645487936
 20
-3.862853638061311
 30
0.0
 10
2.211280948033239
 20
-3.72288194275638
 30
0.0
 10
2.211280948033239
 20
-3.72288194275638
 30
0.0
 10
2.283899835774984
 20
-3.650773381496871
 30
0.0
 10
2.383356854705615
 20
-3.612305997698829
 30
0.0
 10
2.485597253056413
 20
-3.616783542655058
 30
0.0
 10
2.587837651407211
 20
-3.6212610876113
 30
0.0
 10
2.683551042353365
 20
-3.668275819604837
 30
0.0
 10
2.749588110895199
 20
-3.746456719076289
 30
0.0
 10
2.749588110895199
 20
-3.746456719076289
 30
0.0
 10
4.402827996975955
 20
-5.703717757306448
 30
0.0
 10
4.402827996975955
 20
-5.703717757306448
 30
0.0
  0
SPLINE
  5
5A
330
1F
100
AcDbEntity
  8
Layer 1
370
     0
100
AcDbSpline
210
0.0
220
0.0
230
1.0
 70
    11
 71
     3
 72
    35
 73
    31
 74
     0
 42
0.0000000001
 43
0.0000000001
 12
1.0
 22
0.0
 32
0.0
 13
1.0
 23
0.0
 33
0.0
 40
0.0
 40
0.0
 40
0.0
 40
0.0
 40
1.0
 40
1.0
 40
1.0
 40
2.0
 40
2.0
 40
2.0
 40
3.0
 40
3.0
 40
3.0
 40
4.0
 40
4.0
 40
4.0
 40
5.0
 40
5.0
 40
5.0
 40
6.0
 40
6.0
 40
6.0
 40
7.0
 40
7.0
 40
7.0
 40
8.0
 40
8.0
 40
8.0
 40
9.0
 40
9.0
 40
9.0
 40
10.0
 40
10.0
 40
10.0
 40
10.0
 10
6.900783483876087
 20
-8.661075536323324
 30
0.0
 10
7.001653089556434
 20
-8.78049695086487
 30
0.0
 10
7.015689499955998
 20
-8.950747444302376
 30
0.0
 10
6.935740518610095
 20
-9.085076562452437
 30
0.0
 10
6.935740518610095
 20
-9.085076562452437
 30
0.0
 10
6.828616059279334
 20
-9.2650655243123
 30
0.0
 10
6.828616059279334
 20
-9.2650655243123
 30
0.0
 10
6.767997087938006
 20
-9.366916640191018
 30
0.0
 10
6.661871466057012
 20
-9.433170996331127
 30
0.0
 10
6.54374668172151
 20
-9.442909826749402
 30
0.0
 10
6.425621897386009
 20
-9.452648657167654
 30
0.0
 10
6.310078293450639
 20
-9.404669881476794
 30
0.0
 10
6.233596937008896
 20
-9.314122039928508
 30
0.0
 10
6.233596937008896
 20
-9.314122039928508
 30
0.0
 10
4.772937055891235
 20
-7.584816943566844
 30
0.0
 10
4.772937055891235
 20
-7.584816943566844
 30
0.0
 10
4.663184273241364
 20
-7.454878380298396
 30
0.0
 10
4.657234199580064
 20
-7.266510760485314
 30
0.0
 10
4.758567481482865
 20
-7.129904503298954
 30
0.0
 10
4.758567481482865
 20
-7.129904503298954
 30
0.0
 10
4.879741332780037
 20
-6.966551397747278
 30
0.0
 10
4.879741332780037
 20
-6.966551397747278
 30
0.0
 10
4.946460913081561
 20
-6.876607482235082
 30
0.0
 10
5.050636459582519
 20
-6.822097700057005
 30
0.0
 10
5.162569068902536
 20
-6.818561981730024
 30
0.0
 10
5.274501678222552
 20
-6.815026263403019
 30
0.0
 10
5.381909808524193
 20
-6.86285255729015
 30
0.0
 10
5.454172994724837
 20
-6.948406296269846
 30
0.0
 10
5.454172994724837
 20
-6.948406296269846
 30
0.0
 10
6.900783483876087
 20
-8.661075536323324
 30
0.0
 10
6.900783483876087
 20
-8.661075536323324
 30
0.0
  0
SPLINE
  5
5B
330
1F
100
AcDbEntity
  8
Layer 1
370
     0
100
AcDbSpline
210
0.0
220
0.0
230
1.0
 70
    11
 71
     3
 72
    35
 73
    31
 74
     0
 42
0.0000000001
 43
0.0000000001
 12
1.0
 22
0.0
 32
0.0
 13
1.0
 23
0.0
 33
0.0
 40
0.0
 40
0.0
 40
0.0
 40
0.0
 40
1.0
 40
1.0
 40
1.0
 40
2.0
 40
2.0
 40
2.0
 40
3.0
 40
3.0
 40
3.0
 40
4.0
 40
4.0
 40
4.0
 40
5.0
 40
5.0
 40
5.0
 40
6.0
 40
6.0
 40
6.0
 40
7.0
 40
7.0
 40
7.0
 40
8.0
 40
8.0
 40
8.0
 40
9.0
 40
9.0
 40
9.0
 40
10.0
 40
10.0
 40
10.0
 40
10.0
 10
5.958629666701906
 20
-3.837674463123436
 30
0.0
 10
6.073839024144061
 20
-3.973599423663914
 30
0.0
 10
6.074615493689988
 20
-4.172684134349171
 30
0.0
 10
5.960469893273435
 20
-4.30950362435591
 30
0.0
 10
5.960469893273435
 20
-4.30950362435591
 30
0.0
 10
5.83174014000906
 20
-4.463804264293395
 30
0.0
 10
5.83174014000906
 20
-4.463804264293395
 30
0.0
 10
5.76241594393198
 20
-4.546899023248455
 30
0.0
 10
5.659917617754975
 20
-4.595115431728914
 30
0.0
 10
5.551702991190798
 20
-4.595537006287714
 30
0.0
 10
5.443488364626622
 20
-4.595958580846514
 30
0.0
 10
5.340617479418875
 20
-4.548542234588959
 30
0.0
 10
5.270647968494712
 20
-4.465990125781458
 30
0.0
 10
5.270647968494712
 20
-4.465990125781458
 30
0.0
 10
3.749460402830474
 20
-2.671247819044045
 30
0.0
 10
3.749460402830474
 20
-2.671247819044045
 30
0.0
 10
3.625799577814986
 20
-2.525349101916138
 30
0.0
 10
3.63509494495823
 20
-2.308895643789659
 30
0.0
 10
3.770808371677882
 20
-2.174135482350582
 30
0.0
 10
3.770808371677882
 20
-2.174135482350582
 30
0.0
 10
3.911708024088398
 20
-2.034225523811453
 30
0.0
 10
3.911708024088398
 20
-2.034225523811453
 30
0.0
 10
3.984249728426827
 20
-1.962193359979172
 30
0.0
 10
4.083576633463988
 20
-1.923727484420927
 30
0.0
 10
4.185712315509287
 20
-1.928113136918177
 30
0.0
 10
4.287847997554587
 20
-1.932498789415414
 30
0.0
 10
4.383511969761281
 20
-1.979337470741408
 30
0.0
 10
4.449612000183834
 20
-2.057322837784353
 30
0.0
 10
4.449612000183834
 20
-2.057322837784353
 30
0.0
 10
5.958629666701906
 20
-3.837674463123436
 30
0.0
 10
5.958629666701906
 20
-3.837674463123436
 30
0.0
  0
SPLINE
  5
5C
330
1F
100
AcDbEntity
  8
Layer 1
370
     0
100
AcDbSpline
210
0.0
220
0.0
230
1.0
 70
    11
 71
     3
 72
    35
 73
    31
 74
     0
 42
0.0000000001
 43
0.0000000001
 12
1.0
 22
0.0
 32
0.0
 13
1.0
 23
0.0
 33
0.0
 40
0.0
 40
0.0
 40
0.0
 40
0.0
 40
1.0
 40
1.0
 40
1.0
 40
2.0
 40
2.0
 40
2.0
 40
3.0
 40
3.0
 40
3.0
 40
4.0
 40
4.0
 40
4.0
 40
5.0
 40
5.0
 40
5.0
 40
6.0
 40
6.0
 40
6.0
 40
7.0
 40
7.0
 40
7.0
 40
8.0
 40
8.0
 40
8.0
 40
9.0
 40
9.0
 40
9.0
 40
10.0
 40
10.0
 40
10.0
 40
10.0
 10
8.19829251652128
 20
-6.480004948358681
 30
0.0
 10
8.299523984305626
 20
-6.599433876104917
 30
0.0
 10
8.313729479512428
 20
-6.769973498354981
 30
0.0
 10
8.233652233931782
 20
-6.904504957845321
 30
0.0
 10
8.233652233931782
 20
-6.904504957845321
 30
0.0
 10
8.126573069620639
 20
-7.084400209627852
 30
0.0
 10
8.126573069620639
 20
-7.084400209627852
 30
0.0
 10
8.066008466769517
 20
-7.186150018277405
 30
0.0
 10
7.960022442357942
 20
-7.252376293625755
 30
0.0
 10
7.842020393235922
 20
-7.262205387263217
 30
0.0
 10
7.724018344113902
 20
-7.272034480900679
 30
0.0
 10
7.608536152135027
 20
-7.224255612633997
 30
0.0
 10
7.531972280904155
 20
-7.133928051497453
 30
0.0
 10
7.531972280904155
 20
-7.133928051497453
 30
0.0
 10
6.23927465975852
 20
-5.608845508936838
 30
0.0
 10
6.23927465975852
 20
-5.608845508936838
 30
0.0
 10
6.129147893529862
 20
-5.478921537625474
 30
0.0
 10
6.123020102110634
 20
-5.290259649687806
 30
0.0
 10
6.22448371251749
 20
-5.153463163166773
 30
0.0
 10
6.22448371251749
 20
-5.153463163166773
 30
0.0
 10
6.345613258354281
 20
-4.990152433163025
 30
0.0
 10
6.345613258354281
 20
-4.990152433163025
 30
0.0
 10
6.412263764394133
 20
-4.900292088015249
 30
0.0
 10
6.516303807284076
 20
-4.845790663607241
 30
0.0
 10
6.628125000130138
 20
-4.84215852705649
 30
0.0
 10
6.739946192976226
 20
-4.838526390505737
 30
0.0
 10
6.847303791311433
 20
-4.886161271283754
 30
0.0
 10
6.919645276901292
 20
-4.971506927576835
 30
0.0
 10
6.919645276901292
 20
-4.971506927576835
 30
0.0
 10
8.19829251652128
 20
-6.480004948358681
 30
0.0
 10
8.19829251652128
 20
-6.480004948358681
 30
0.0
  0
SPLINE
  5
5D
330
1F
100
AcDbEntity
  8
Layer 1
370
     0
100
AcDbSpline
210
0.0
220
0.0
230
1.0
 70
    11
 71
     3
 72
    35
 73
    31
 74
     0
 42
0.0000000001
 43
0.0000000001
 12
1.0
 22
0.0
 32
0.0
 13
1.0
 23
0.0
 33
0.0
 40
0.0
 40
0.0
 40
0.0
 40
0.0
 40
1.0
 40
1.0
 40
1.0
 40
2.0
 40
2.0
 40
2.0
 40
3.0
 40
3.0
 40
3.0
 40
4.0
 40
4.0
 40
4.0
 40
5.0
 40
5.0
 40
5.0
 40
6.0
 40
6.0
 40
6.0
 40
7.0
 40
7.0
 40
7.0
 40
8.0
 40
8.0
 40
8.0
 40
9.0
 40
9.0
 40
9.0
 40
10.0
 40
10.0
 40
10.0
 40
10.0
 10
7.514517553752992
 20
-1.971596622283136
 30
0.0
 10
7.630194996521722
 20
-2.107507352988705
 30
0.0
 10
7.631171871767517
 20
-2.306978279586739
 30
0.0
 10
7.516831145518027
 20
-2.444015485509681
 30
0.0
 10
7.516831145518027
 20
-2.444015485509681
 30
0.0
 10
7.388205244363361
 20
-2.598173454255591
 30
0.0
 10
7.388205244363361
 20
-2.598173454255591
 30
0.0
 10
7.318963999348625
 20
-2.681158992853107
 30
0.0
 10
7.216629419368902
 20
-2.729357931751047
 30
0.0
 10
7.108552278346375
 20
-2.729888229694678
 30
0.0
 10
7.000475137323873
 20
-2.730418527638297
 30
0.0
 10
6.897672504336823
 20
-2.68322612759923
 30
0.0
 10
6.827620248969045
 20
-2.600924055053042
 30
0.0
 10
6.827620248969045
 20
-2.600924055053042
 30
0.0
 10
5.450528261900368
 20
-0.9830243310899757
 30
0.0
 10
5.450528261900368
 20
-0.9830243310899757
 30
0.0
 10
5.326373994206429
 20
-0.8371595977845345
 30
0.0
 10
5.335461348875216
 20
-0.6202966992516394
 30
0.0
 10
5.471383483295161
 20
-0.4853301256728299
 30
0.0
 10
5.471383483295161
 20
-0.4853301256728299
 30
0.0
 10
5.612232149143261
 20
-0.3454716552052383
 30
0.0
 10
5.612232149143261
 20
-0.3454716552052383
 30
0.0
 10
5.68468108000171
 20
-0.273532055381098
 30
0.0
 10
5.783851222333421
 20
-0.2350686280968325
 30
0.0
 10
5.885860406156452
 20
-0.2393441422352175
 30
0.0
 10
5.987869589979482
 20
-0.2436196563736025
 30
0.0
 10
6.083473334911155
 20
-0.2902466477368458
 30
0.0
 10
6.149648331377748
 20
-0.3679963965983891
 30
0.0
 10
6.149648331377748
 20
-0.3679963965983891
 30
0.0
 10
7.514517553752992
 20
-1.971596622283136
 30
0.0
 10
7.514517553752992
 20
-1.971596622283136
 30
0.0
  0
SPLINE
  5
5E
330
1F
100
AcDbEntity
  8
Layer 1
370
     0
100
AcDbSpline
210
0.0
220
0.0
230
1.0
 70
    11
 71
     3
 72
    35
 73
    31
 74
     0
 42
0.0000000001
 43
0.0000000001
 12
1.0
 22
0.0
 32
0.0
 13
1.0
 23
0.0
 33
0.0
 40
0.0
 40
0.0
 40
0.0
 40
0.0
 40
1.0
 40
1.0
 40
1.0
 40
2.0
 40
2.0
 40
2.0
 40
3.0
 40
3.0
 40
3.0
 40
4.0
 40
4.0
 40
4.0
 40
5.0
 40
5.0
 40
5.0
 40
6.0
 40
6.0
 40
6.0
 40
7.0
 40
7.0
 40
7.0
 40
8.0
 40
8.0
 40
8.0
 40
9.0
 40
9.0
 40
9.0
 40
10.0
 40
10.0
 40
10.0
 40
10.0
 10
9.495692403014143
 20
-4.299060138472075
 30
0.0
 10
9.597345420192267
 20
-4.418491551972036
 30
0.0
 10
9.611754080113794
 20
-4.589362226063953
 30
0.0
 10
9.531536384666019
 20
-4.724129877112217
 30
0.0
 10
9.531536384666019
 20
-4.724129877112217
 30
0.0
 10
9.424559804219799
 20
-4.903853096327591
 30
0.0
 10
9.424559804219799
 20
-4.903853096327591
 30
0.0
 10
9.364063390678439
 20
-5.005488521084001
 30
0.0
 10
9.25824248284256
 20
-5.071687498717615
 30
0.0
 10
9.140383318962524
 20
-5.081626970850771
 30
0.0
 10
9.02252415508249
 20
-5.091566442983927
 30
0.0
 10
8.907111113888124
 20
-5.044024891713295
 30
0.0
 10
8.83044766380514
 20
-4.953956634051918
 30
0.0
 10
8.83044766380514
 20
-4.953956634051918
 30
0.0
 10
7.705895380217902
 20
-3.632773401075143
 30
0.0
 10
7.705895380217902
 20
-3.632773401075143
 30
0.0
 10
7.595316644044967
 20
-3.502859679598891
 30
0.0
 10
7.588983857198677
 20
-3.313833611675742
 30
0.0
 10
7.690619616727973
 20
-3.176810240288533
 30
0.0
 10
7.690619616727973
 20
-3.176810240288533
 30
0.0
 10
7.811684083847391
 20
-3.013593459927708
 30
0.0
 10
7.811684083847391
 20
-3.013593459927708
 30
0.0
 10
7.878257389924303
 20
-2.923840612255832
 30
0.0
 10
7.982136270027038
 20
-2.869357882207547
 30
0.0
 10
8.093821477281784
 20
-2.865617129919087
 30
0.0
 10
8.205506684536532
 20
-2.861876377630627
 30
0.0
 10
8.312798325321182
 20
-2.90928622283871
 30
0.0
 10
8.385228006100128
 20
-2.994383344349823
 30
0.0
 10
8.385228006100128
 20
-2.994383344349823
 30
0.0
 10
9.495692403014143
 20
-4.299060138472075
 30
0.0
 10
9.495692403014143
 20
-4.299060138472075
 30
0.0
  0
SPLINE
  5
5F
330
1F
100
AcDbEntity
  8
Layer 1
370
     0
100
AcDbSpline
210
0.0
220
0.0
230
1.0
 70
    11
 71
     3
 72
    35
 73
    31
 74
     0
 42
0.0000000001
 43
0.0000000001
 12
1.0
 22
0.0
 32
0.0
 13
1.0
 23
0.0
 33
0.0
 40
0.0
 40
0.0
 40
0.0
 40
0.0
 40
1.0
 40
1.0
 40
1.0
 40
2.0
 40
2.0
 40
2.0
 40
3.0
 40
3.0
 40
3.0
 40
4.0
 40
4.0
 40
4.0
 40
5.0
 40
5.0
 40
5.0
 40
6.0
 40
6.0
 40
6.0
 40
7.0
 40
7.0
 40
7.0
 40
8.0
 40
8.0
 40
8.0
 40
9.0
 40
9.0
 40
9.0
 40
10.0
 40
10.0
 40
10.0
 40
10.0
 10
10.79274836618707
 20
-2.118091305988211
 30
0.0
 10
10.89493744844372
 20
-2.237526154997075
 30
0.0
 10
10.90960300261761
 20
-2.408819445913549
 30
0.0
 10
10.82920355051331
 20
-2.543886909766103
 30
0.0
 10
10.82920355051331
 20
-2.543886909766103
 30
0.0
 10
10.72240997067848
 20
-2.723295321222761
 30
0.0
 10
10.72240997067848
 20
-2.723295321222761
 30
0.0
 10
10.66199738265744
 20
-2.824785752254317
 30
0.0
 10
10.55638273842303
 20
-2.89094822106127
 30
0.0
 10
10.43870321870688
 20
-2.90102388589014
 30
0.0
 10
10.32102369899073
 20
-2.911099550719036
 30
0.0
 10
10.20569909626662
 20
-2.863853795757223
 30
0.0
 10
10.12891314462723
 20
-2.774110238811886
 30
0.0
 10
10.12891314462723
 20
-2.774110238811886
 30
0.0
 10
7.151953073332859
 20
0.7052109127558374
 30
0.0
 10
7.151953073332859
 20
0.7052109127558374
 30
0.0
 10
7.027196287662819
 20
0.8510203669601171
 30
0.0
 10
7.036012401521399
 20
1.068371165980946
 30
0.0
 10
7.172168473561745
 20
1.20359755598161
 30
0.0
 10
7.172168473561745
 20
1.20359755598161
 30
0.0
 10
7.312905970387519
 20
1.343374088517268
 30
0.0
 10
7.312905970387519
 20
1.343374088517268
 30
0.0
 10
7.385234996832373
 20
1.415209247918041
 30
0.0
 10
7.484211363288826
 20
1.453679977795256
 30
0.0
 10
7.586067667860536
 20
1.449548221318032
 30
0.0
 10
7.687923972432271
 20
1.44541646484082
 30
0.0
 10
7.783459176570381
 20
1.399055458116486
 30
0.0
 10
7.84973221188362
 20
1.321597966658487
 30
0.0
 10
7.84973221188362
 20
1.321597966658487
 30
0.0
 10
10.79274836618707
 20
-2.118091305988211
 30
0.0
 10
10.79274836618707
 20
-2.118091305988211
 30
0.0
  0
SPLINE
  5
60
330
1F
100
AcDbEntity
  8
Layer 1
370
     0
100
AcDbSpline
210
0.0
220
0.0
230
1.0
 70
    11
 71
     3
 72
    35
 73
    31
 74
     0
 42
0.0000000001
 43
0.0000000001
 12
1.0
 22
0.0
 32
0.0
 13
1.0
 23
0.0
 33
0.0
 40
0.0
 40
0.0
 40
0.0
 40
0.0
 40
1.0
 40
1.0
 40
1.0
 40
2.0
 40
2.0
 40
2.0
 40
3.0
 40
3.0
 40
3.0
 40
4.0
 40
4.0
 40
4.0
 40
5.0
 40
5.0
 40
5.0
 40
6.0
 40
6.0
 40
6.0
 40
7.0
 40
7.0
 40
7.0
 40
8.0
 40
8.0
 40
8.0
 40
9.0
 40
9.0
 40
9.0
 40
10.0
 40
10.0
 40
10.0
 40
10.0
 10
12.08965707791746
 20
0.0629116410902447
 30
0.0
 10
12.19253158931572
 20
-0.056529162056601
 30
0.0
 10
12.20752199381713
 20
-0.2283666707421743
 30
0.0
 10
12.12688309766448
 20
-0.3638164362608904
 30
0.0
 10
12.12688309766448
 20
-0.3638164362608904
 30
0.0
 10
12.02008046185157
 20
-0.5432136337404927
 30
0.0
 10
12.02008046185157
 20
-0.5432136337404927
 30
0.0
 10
11.95977134945663
 20
-0.6445153072786903
 30
0.0
 10
11.85441871183265
 20
-0.7106262247096993
 30
0.0
 10
11.73696976254231
 20
-0.7208713411124563
 30
0.0
 10
11.61952081325199
 20
-0.7311164575152259
 30
0.0
 10
11.50431269230103
 20
-0.6842451387280385
 30
0.0
 10
11.42737474504553
 20
-0.5949155782700473
 30
0.0
 10
11.42737474504553
 20
-0.5949155782700473
 30
0.0
 10
8.853617869590682
 20
2.393370158631468
 30
0.0
 10
8.853617869590682
 20
2.393370158631468
 30
0.0
 10
8.728076184726584
 20
2.539131566728593
 30
0.0
 10
8.736574195268632
 20
2.757143977707667
 30
0.0
 10
8.873081131437528
 20
2.892690866667749
 30
0.0
 10
8.873081131437528
 20
2.892690866667749
 30
0.0
 10
9.013903781308423
 20
3.032523117107366
 30
0.0
 10
9.013903781308423
 20
3.032523117107366
 30
0.0
 10
9.086087217093764
 20
3.104198890000286
 30
0.0
 10
9.18480970037207
 20
3.142655334780885
 30
0.0
 10
9.286456985453519
 20
3.138693736979563
 30
0.0
 10
9.388104270534996
 20
3.134732139178267
 30
0.0
 10
9.48353424174027
 20
3.088708803297866
 30
0.0
 10
9.54992021652063
 20
3.011632430951775
 30
0.0
 10
9.54992021652063
 20
3.011632430951775
 30
0.0
 10
12.08965707791746
 20
0.0629116410902447
 30
0.0
 10
12.08965707791746
 20
0.0629116410902447
 30
0.0
  0
SPLINE
  5
61
330
1F
100
AcDbEntity
  8
Layer 1
370
     0
100
AcDbSpline
210
0.0
220
0.0
230
1.0
 70
    11
 71
     3
 72
    35
 73
    31
 74
     0
 42
0.0000000001
 43
0.0000000001
 12
1.0
 22
0.0
 32
0.0
 13
1.0
 23
0.0
 33
0.0
 40
0.0
 40
0.0
 40
0.0
 40
0.0
 40
1.0
 40
1.0
 40
1.0
 40
2.0
 40
2.0
 40
2.0
 40
3.0
 40
3.0
 40
3.0
 40
4.0
 40
4.0
 40
4.0
 40
5.0
 40
5.0
 40
5.0
 40
6.0
 40
6.0
 40
6.0
 40
7.0
 40
7.0
 40
7.0
 40
8.0
 40
8.0
 40
8.0
 40
9.0
 40
9.0
 40
9.0
 40
10.0
 40
10.0
 40
10.0
 40
10.0
 10
13.38605991617437
 20
2.243790138130672
 30
0.0
 10
13.48982636779733
 20
2.124361997990566
 30
0.0
 10
13.50525902141514
 20
1.951834234198941
 30
0.0
 10
13.42433609082824
 20
1.815885580491113
 30
0.0
 10
13.42433609082824
 20
1.815885580491113
 30
0.0
 10
13.31770198472039
 20
1.636742745950111
 30
0.0
 10
13.31770198472039
 20
1.636742745950111
 30
0.0
 10
13.25754063222224
 20
1.53567306374695
 30
0.0
 10
13.15253262633309
 20
1.469612354369916
 30
0.0
 10
13.03538030231294
 20
1.459133710768166
 30
0.0
 10
12.91822797829276
 20
1.448655067166416
 30
0.0
 10
12.80316308155489
 20
1.495031442217851
 30
0.0
 10
12.72601993537698
 20
1.583819977473417
 30
0.0
 10
12.72601993537698
 20
1.583819977473417
 30
0.0
 10
10.55588949078846
 20
4.081549368029578
 30
0.0
 10
10.55588949078846
 20
4.081549368029578
 30
0.0
 10
10.42932740161928
 20
4.227217040051932
 30
0.0
 10
10.43737347932536
 20
4.446063028055808
 30
0.0
 10
10.57429063139216
 20
4.582043639016344
 30
0.0
 10
10.57429063139216
 20
4.582043639016344
 30
0.0
 10
10.71505644989894
 20
4.721846590757372
 30
0.0
 10
10.71505644989894
 20
4.721846590757372
 30
0.0
 10
10.78704179147553
 20
4.7933395379888
 30
0.0
 10
10.88543862433175
 20
4.831799940682686
 30
0.0
 10
10.98682521294973
 20
4.828072937308838
 30
0.0
 10
11.08821180156767
 20
4.824345933934991
 30
0.0
 10
11.18351924438384
 20
4.778764900210906
 30
0.0
 10
11.25006118398475
 20
4.702179645886821
 30
0.0
 10
11.25006118398475
 20
4.702179645886821
 30
0.0
 10
13.38605991617437
 20
2.243790138130672
 30
0.0
 10
13.38605991617437
 20
2.243790138130672
 30
0.0
  0
SPLINE
  5
62
330
1F
100
AcDbEntity
  8
Layer 1
370
     0
100
AcDbSpline
210
0.0
220
0.0
230
1.0
 70
    11
 71
     3
 72
    35
 73
    31
 74
     0
 42
0.0000000001
 43
0.0000000001
 12
1.0
 22
0.0
 32
0.0
 13
1.0
 23
0.0
 33
0.0
 40
0.0
 40
0.0
 40
0.0
 40
0.0
 40
1.0
 40
1.0
 40
1.0
 40
2.0
 40
2.0
 40
2.0
 40
3.0
 40
3.0
 40
3.0
 40
4.0
 40
4.0
 40
4.0
 40
5.0
 40
5.0
 40
5.0
 40
6.0
 40
6.0
 40
6.0
 40
7.0
 40
7.0
 40
7.0
 40
8.0
 40
8.0
 40
8.0
 40
9.0
 40
9.0
 40
9.0
 40
10.0
 40
10.0
 40
10.0
 40
10.0
 10
14.68170262364487
 20
4.424466679775327
 30
0.0
 10
14.78669875426347
 20
4.305057929205228
 30
0.0
 10
14.80273748670167
 20
4.131573746890922
 30
0.0
 10
14.72141270802098
 20
3.994939499609649
 30
0.0
 10
14.72141270802098
 20
3.994939499609649
 30
0.0
 10
14.61503184377569
 20
3.816208373044029
 30
0.0
 10
14.61503184377569
 20
3.816208373044029
 30
0.0
 10
14.5550690099975
 20
3.715464457216184
 30
0.0
 10
14.45053432492222
 20
3.649481046013281
 30
0.0
 10
14.33379365386736
 20
3.638687819772144
 30
0.0
 10
14.2170529828125
 20
3.627894593530969
 30
0.0
 10
14.10219270276902
 20
3.673593904314531
 30
0.0
 10
14.02477567358152
 20
3.761636403159185
 30
0.0
 10
14.02477567358152
 20
3.761636403159185
 30
0.0
 10
12.25897800334092
 20
5.769789402230054
 30
0.0
 10
12.25897800334092
 20
5.769789402230054
 30
0.0
 10
12.13099916235789
 20
5.915333310045197
 30
0.0
 10
12.13843451744906
 20
6.135350802437566
 30
0.0
 10
12.27594728374043
 20
6.271922585571398
 30
0.0
 10
12.27594728374043
 20
6.271922585571398
 30
0.0
 10
12.41664551574157
 20
6.411658036660078
 30
0.0
 10
12.41664551574157
 20
6.411658036660078
 30
0.0
 10
12.48836335831897
 20
6.482885122751516
 30
0.0
 10
12.58630999691493
 20
6.52133658790472
 30
0.0
 10
12.6873302382054
 20
6.517922267087227
 30
0.0
 10
12.78835047949588
 20
6.514507946269721
 30
0.0
 10
12.88347736957128
 20
6.469530908025111
 30
0.0
 10
12.95022232116015
 20
6.393624003369281
 30
0.0
 10
12.95022232116015
 20
6.393624003369281
 30
0.0
 10
14.68170262364487
 20
4.424466679775327
 30
0.0
 10
14.68170262364487
 20
4.424466679775327
 30
0.0
  0
SPLINE
  5
63
330
1F
100
AcDbEntity
  8
Layer 1
370
     0
100
AcDbSpline
210
0.0
220
0.0
230
1.0
 70
    11
 71
     3
 72
    35
 73
    31
 74
     0
 42
0.0000000001
 43
0.0000000001
 12
1.0
 22
0.0
 32
0.0
 13
1.0
 23
0.0
 33
0.0
 40
0.0
 40
0.0
 40
0.0
 40
0.0
 40
1.0
 40
1.0
 40
1.0
 40
2.0
 40
2.0
 40
2.0
 40
3.0
 40
3.0
 40
3.0
 40
4.0
 40
4.0
 40
4.0
 40
5.0
 40
5.0
 40
5.0
 40
6.0
 40
6.0
 40
6.0
 40
7.0
 40
7.0
 40
7.0
 40
8.0
 40
8.0
 40
8.0
 40
9.0
 40
9.0
 40
9.0
 40
10.0
 40
10.0
 40
10.0
 40
10.0
 10
15.97612068320152
 20
6.605108725599166
 30
0.0
 10
16.08293458359223
 20
6.485732710018535
 30
0.0
 10
16.0998615252418
 20
6.310824446351211
 30
0.0
 10
16.01792092024501
 20
6.173181503686704
 30
0.0
 10
16.01792092024501
 20
6.173181503686704
 30
0.0
 10
15.91179546304195
 20
5.99491310767443
 30
0.0
 10
15.91179546304195
 20
5.99491310767443
 30
0.0
 10
15.85211247776735
 20
5.894658274060197
 30
0.0
 10
15.7482667600139
 20
5.828804702813474
 30
0.0
 10
15.63213411826236
 20
5.817566379356549
 30
0.0
 10
15.51600147651084
 20
5.806328055899611
 30
0.0
 10
15.40145544430167
 20
5.851047542108845
 30
0.0
 10
15.32365632929057
 20
5.937998034331675
 30
0.0
 10
15.32365632929057
 20
5.937998034331675
 30
0.0
 10
13.96356602676486
 20
7.458073439497221
 30
0.0
 10
13.96356602676486
 20
7.458073439497221
 30
0.0
 10
13.83351007674102
 20
7.603427649110787
 30
0.0
 10
13.84005565200219
 20
7.825171205227788
 30
0.0
 10
13.97845900590083
 20
7.962600852751923
 30
0.0
 10
13.97845900590083
 20
7.962600852751923
 30
0.0
 10
14.11910650912417
 20
8.102258861381452
 30
0.0
 10
14.11910650912417
 20
8.102258861381452
 30
0.0
 10
14.19043561973846
 20
8.17308615171665
 30
0.0
 10
14.28772131787304
 20
8.211513182207504
 30
0.0
 10
14.38819794727167
 20
8.208547710583389
 30
0.0
 10
14.48867457667029
 20
8.20558223895931
 30
0.0
 10
14.58352463531653
 20
8.161484505359454
 30
0.0
 10
14.65055242669612
 20
8.086573743381967
 30
0.0
 10
14.65055242669612
 20
8.086573743381967
 30
0.0
 10
15.97612068320152
 20
6.605108725599166
 30
0.0
 10
15.97612068320152
 20
6.605108725599166
 30
0.0
  0
SPLINE
  5
64
330
1F
100
AcDbEntity
  8
Layer 1
370
     0
100
AcDbSpline
210
0.0
220
0.0
230
1.0
 70
    11
 71
     3
 72
    35
 73
    31
 74
     0
 42
0.0000000001
 43
0.0000000001
 12
1.0
 22
0.0
 32
0.0
 13
1.0
 23
0.0
 33
0.0
 40
0.0
 40
0.0
 40
0.0
 40
0.0
 40
1.0
 40
1.0
 40
1.0
 40
2.0
 40
2.0
 40
2.0
 40
3.0
 40
3.0
 40
3.0
 40
4.0
 40
4.0
 40
4.0
 40
5.0
 40
5.0
 40
5.0
 40
6.0
 40
6.0
 40
6.0
 40
7.0
 40
7.0
 40
7.0
 40
8.0
 40
8.0
 40
8.0
 40
9.0
 40
9.0
 40
9.0
 40
10.0
 40
10.0
 40
10.0
 40
10.0
 10
17.26822063945765
 20
8.785298323519758
 30
0.0
 10
17.37795028453388
 20
8.66604367802683
 30
0.0
 10
17.39634873908054
 20
8.488887768926462
 30
0.0
 10
17.31346684391125
 20
8.349629530630231
 30
0.0
 10
17.31346684391125
 20
8.349629530630231
 30
0.0
 10
17.20782065861332
 20
8.172122710627212
 30
0.0
 10
17.20782065861332
 20
8.172122710627212
 30
0.0
 10
17.14860326950722
 20
8.072625597698144
 30
0.0
 10
17.0458574223396
 20
8.006956652287196
 30
0.0
 10
16.93069073868138
 20
7.994997988943396
 30
0.0
 10
16.81552405502334
 20
7.983039325599596
 30
0.0
 10
16.7014778782032
 20
8.026197048596714
 30
0.0
 10
16.62308114937001
 20
8.111404604376819
 30
0.0
 10
16.62308114937001
 20
8.111404604376819
 30
0.0
 10
15.67088184745292
 20
9.146327570416208
 30
0.0
 10
15.67088184745292
 20
9.146327570416208
 30
0.0
 10
15.53749619718415
 20
9.291301288129818
 30
0.0
 10
15.54255221158014
 20
9.515778075618893
 30
0.0
 10
15.68232992912471
 20
9.654599184256337
 30
0.0
 10
15.68232992912471
 20
9.654599184256337
 30
0.0
 10
15.82283973101292
 20
9.794147367008236
 30
0.0
 10
15.82283973101292
 20
9.794147367008236
 30
0.0
 10
15.89353820966431
 20
9.864362000340128
 30
0.0
 10
15.98977441646401
 20
9.902769914143189
 30
0.0
 10
16.08939039308514
 20
9.900527857194472
 30
0.0
 10
16.18900636970625
 20
9.898285800245768
 30
0.0
 10
16.28341710745568
 20
9.855586995349983
 30
0.0
 10
16.35088495413098
 20
9.782262652308038
 30
0.0
 10
16.35088495413098
 20
9.782262652308038
 30
0.0
 10
17.26822063945765
 20
8.785298323519758
 30
0.0
 10
17.26822063945765
 20
8.785298323519758
 30
0.0
  0
SPLINE
  5
65
330
1F
100
AcDbEntity
  8
Layer 1
370
     0
100
AcDbSpline
210
0.0
220
0.0
230
1.0
 70
    11
 71
     3
 72
    35
 73
    31
 74
     0
 42
0.0000000001
 43
0.0000000001
 12
1.0
 22
0.0
 32
0.0
 13
1.0
 23
0.0
 33
0.0
 40
0.0
 40
0.0
 40
0.0
 40
0.0
 40
1.0
 40
1.0
 40
1.0
 40
2.0
 40
2.0
 40
2.0
 40
3.0
 40
3.0
 40
3.0
 40
4.0
 40
4.0
 40
4.0
 40
5.0
 40
5.0
 40
5.0
 40
6.0
 40
6.0
 40
6.0
 40
7.0
 40
7.0
 40
7.0
 40
8.0
 40
8.0
 40
8.0
 40
9.0
 40
9.0
 40
9.0
 40
10.0
 40
10.0
 40
10.0
 40
10.0
 10
18.55494580372278
 20
10.96472740248681
 30
0.0
 10
18.67015062982167
 20
10.8458173324874
 30
0.0
 10
18.69134444441486
 20
10.66444260213821
 30
0.0
 10
18.60665847335167
 20
10.52217509703315
 30
0.0
 10
18.60665847335167
 20
10.52217509703315
 30
0.0
 10
18.50179335081735
 20
10.34600779130152
 30
0.0
 10
18.50179335081735
 20
10.34600779130152
 30
0.0
 10
18.44342275657527
 20
10.24794858845998
 30
0.0
 10
18.34271226193543
 20
10.18266852301253
 30
0.0
 10
18.22936649448737
 20
10.16942199381871
 30
0.0
 10
18.11602072703916
 20
10.15617546462488
 30
0.0
 10
18.00297146383057
 20
10.19647378671699
 30
0.0
 10
17.92356266047318
 20
10.27843094310634
 30
0.0
 10
17.92356266047318
 20
10.27843094310634
 30
0.0
 10
17.38451720880041
 20
10.83477520867636
 30
0.0
 10
17.38451720880041
 20
10.83477520867636
 30
0.0
 10
17.24487543049263
 20
10.97889831064193
 30
0.0
 10
17.24708310549098
 20
11.20851637921682
 30
0.0
 10
17.38947017144861
 20
11.3499279000244
 30
0.0
 10
17.38947017144861
 20
11.3499279000244
 30
0.0
 10
17.5299143954618
 20
11.48940988999858
 30
0.0
 10
17.5299143954618
 20
11.48940988999858
 30
0.0
 10
17.59945125554514
 20
11.5584703279706
 30
0.0
 10
17.69374733565585
 20
11.59680909525232
 30
0.0
 10
17.79174645844111
 20
11.5958652009477
 30
0.0
 10
17.88974558122638
 20
11.59492130664307
 30
0.0
 10
17.98328570398111
 20
11.55477336477846
 30
0.0
 10
18.05147945352903
 20
11.48438635229936
 30
0.0
 10
18.05147945352903
 20
11.48438635229936
 30
0.0
 10
18.55494580372278
 20
10.96472740248681
 30
0.0
 10
18.55494580372278
 20
10.96472740248681
 30
0.0
  0
ENDSEC
  0
SECTION
  2
OBJECTS
  0
DICTIONARY
  5
C
330
0
100
AcDbDictionary
281
     1
  3
ACAD_GROUP
350
D
  3
ACAD_LAYOUT
350
1A
  3
ACAD_MATERIAL
350
3B
  3
ACAD_MLEADERSTYLE
350
67
  3
ACAD_MLINESTYLE
350
17
  3
ACAD_PLOTSETTINGS
350
19
  3
ACAD_PLOTSTYLENAME
350
E
  3
ACAD_TABLESTYLE
350
66
  3
ACAD_VISUALSTYLE
350
2A
  0
SUN
  5
3F
330
29
100
AcDbSun
 90
        1
290
     0
 63
     7
421
 16777215
 40
1.0
291
     1
 91
  2455826
 92
 54000000
292
     0
 70
     2
 71
   256
280
     1
  0
DICTIONARY
  5
D
102
{ACAD_REACTORS
330
C
102
}
330
C
100
AcDbDictionary
281
     1
  0
DICTIONARY
  5
1A
102
{ACAD_REACTORS
330
C
102
}
330
C
100
AcDbDictionary
281
     1
  3
Layout1
350
1E
  3
Layout2
350
26
  3
Model
350
22
  0
DICTIONARY
  5
3B
102
{ACAD_REACTORS
330
C
102
}
330
C
100
AcDbDictionary
281
     1
  3
ByBlock
350
3D
  3
ByLayer
350
3C
  3
Global
350
3E
  0
DICTIONARY
  5
67
102
{ACAD_REACTORS
330
C
102
}
330
C
100
AcDbDictionary
281
     1
  0
DICTIONARY
  5
17
102
{ACAD_REACTORS
330
C
102
}
330
C
100
AcDbDictionary
281
     1
  3
Standard
350
18
  0
DICTIONARY
  5
19
102
{ACAD_REACTORS
330
C
102
}
330
C
100
AcDbDictionary
281
     1
  0
ACDBDICTIONARYWDFLT
  5
E
102
{ACAD_REACTORS
330
C
102
}
330
C
100
AcDbDictionary
281
     1
  3
Normal
350
F
100
AcDbDictionaryWithDefault
340
F
  0
DICTIONARY
  5
66
102
{ACAD_REACTORS
330
C
102
}
330
C
100
AcDbDictionary
281
     1
  0
DICTIONARY
  5
2A
102
{ACAD_REACTORS
330
C
102
}
330
C
100
AcDbDictionary
281
     1
  3
2dWireframe
350
2F
  3
3D Hidden
350
31
  3
3dWireframe
350
30
  3
Basic
350
32
  3
Brighten
350
36
  3
ColorChange
350
3A
  3
Conceptual
350
34
  3
Dim
350
35
  3
Facepattern
350
39
  3
Flat
350
2B
  3
FlatWithEdges
350
2C
  3
Gouraud
350
2D
  3
GouraudWithEdges
350
2E
  3
Linepattern
350
38
  3
Realistic
350
33
  3
Thicken
350
37
  0
LAYOUT
  5
1E
102
{ACAD_REACTORS
330
1A
102
}
330
1A
100
AcDbPlotSettings
  1

  2
none_device
  4

  6

 40
0.0
 41
0.0
 42
0.0
 43
0.0
 44
0.0
 45
0.0
 46
0.0
 47
0.0
 48
0.0
 49
0.0
140
0.0
141
0.0
142
1.0
143
1.0
 70
   688
 72
     0
 73
     0
 74
     5
  7

 75
    16
 76
     0
 77
     2
 78
   300
147
1.0
148
0.0
149
0.0
100
AcDbLayout
  1
Layout1
 70
     1
 71
     1
 10
0.0
 20
0.0
 11
12.0
 21
9.0
 12
0.0
 22
0.0
 32
0.0
 14
1.000000000000000E+20
 24
1.000000000000000E+20
 34
1.000000000000000E+20
 15
-1.000000000000000E+20
 25
-1.000000000000000E+20
 35
-1.000000000000000E+20
146
0.0
 13
0.0
 23
0.0
 33
0.0
 16
1.0
 26
0.0
 36
0.0
 17
0.0
 27
1.0
 37
0.0
 76
     0
330
1B
  0
LAYOUT
  5
26
102
{ACAD_REACTORS
330
1A
102
}
330
1A
100
AcDbPlotSettings
  1

  2
none_device
  4

  6

 40
0.0
 41
0.0
 42
0.0
 43
0.0
 44
0.0
 45
0.0
 46
0.0
 47
0.0
 48
0.0
 49
0.0
140
0.0
141
0.0
142
1.0
143
1.0
 70
   688
 72
     0
 73
     0
 74
     5
  7

 75
    16
 76
     0
 77
     2
 78
   300
147
1.0
148
0.0
149
0.0
100
AcDbLayout
  1
Layout2
 70
     1
 71
     2
 10
0.0
 20
0.0
 11
0.0
 21
0.0
 12
0.0
 22
0.0
 32
0.0
 14
0.0
 24
0.0
 34
0.0
 15
0.0
 25
0.0
 35
0.0
146
0.0
 13
0.0
 23
0.0
 33
0.0
 16
1.0
 26
0.0
 36
0.0
 17
0.0
 27
1.0
 37
0.0
 76
     0
330
23
  0
LAYOUT
  5
22
102
{ACAD_REACTORS
330
1A
102
}
330
1A
100
AcDbPlotSettings
  1

  2
none_device
  4

  6

 40
0.0
 41
0.0
 42
0.0
 43
0.0
 44
0.0
 45
0.0
 46
0.0
 47
0.0
 48
0.0
 49
0.0
140
0.0
141
0.0
142
1.0
143
1.0
 70
  1712
 72
     0
 73
     0
 74
     0
  7

 75
     0
 76
     0
 77
     2
 78
   300
147
1.0
148
0.0
149
0.0
100
AcDbLayout
  1
Model
 70
     1
 71
     0
 10
0.0
 20
0.0
 11
12.0
 21
9.0
 12
0.0
 22
0.0
 32
0.0
 14
1.000000000000000E+20
 24
1.000000000000000E+20
 34
1.000000000000000E+20
 15
-1.000000000000000E+20
 25
-1.000000000000000E+20
 35
-1.000000000000000E+20
146
0.0
 13
0.0
 23
0.0
 33
0.0
 16
1.0
 26
0.0
 36
0.0
 17
0.0
 27
1.0
 37
0.0
 76
     0
330
1F
331
29
  0
MATERIAL
  5
3D
102
{ACAD_REACTORS
330
3B
102
}
330
3B
100
AcDbMaterial
  1
ByBlock
 72
     1
 94
      127
  0
MATERIAL
  5
3C
102
{ACAD_REACTORS
330
3B
102
}
330
3B
100
AcDbMaterial
  1
ByLayer
 72
     1
 94
      127
  0
MATERIAL
  5
3E
102
{ACAD_REACTORS
330
3B
102
}
330
3B
100
AcDbMaterial
  1
Global
 72
     1
 94
      127
  0
MLINESTYLE
  5
18
102
{ACAD_REACTORS
330
17
102
}
330
17
100
AcDbMlineStyle
  2
Standard
 70
     0
  3

 62
   256
 51
90.0
 52
90.0
 71
     2
 49
0.5
 62
   256
  6
BYLAYER
 49
-0.5
 62
   256
  6
BYLAYER
  0
ACDBPLACEHOLDER
  5
F
102
{ACAD_REACTORS
330
E
102
}
330
E
  0
VISUALSTYLE
  5
2F
102
{ACAD_REACTORS
330
2A
102
}
330
2A
100
AcDbVisualStyle
  2
2dWireframe
 70
     4
177
     2
291
     0
 71
     0
176
     1
 72
     2
176
     1
 73
     0
176
     1
 90
        0
176
     1
 40
-0.6
176
     1
 41
-30.0
176
     1
 62
     5
 63
     7
421
 16777215
176
     1
 74
     1
176
     1
 91
        4
176
     1
 64
     7
176
     1
 65
   257
176
     1
 75
     1
176
     1
175
     1
176
     1
 42
1.0
176
     1
 92
        0
176
     1
 66
   257
176
     1
 43
1.0
176
     1
 76
     1
176
     1
 77
     6
176
     1
 78
     2
176
     1
 67
     7
176
     1
 79
     5
176
     1
170
     0
176
     1
171
     0
176
     1
290
     0
176
     1
 93
        1
176
     1
 44
0.0
176
     1
173
     0
176
     1
  0
VISUALSTYLE
  5
31
102
{ACAD_REACTORS
330
2A
102
}
330
2A
100
AcDbVisualStyle
  2
3D Hidden
 70
     6
177
     2
291
     0
 71
     1
176
     1
 72
     2
176
     1
 73
     2
176
     1
 90
        0
176
     1
 40
-0.6
176
     1
 41
-30.0
176
     1
 62
     5
 63
     7
421
 16777215
176
     1
 74
     2
176
     1
 91
        2
176
     1
 64
     7
176
     1
 65
   257
176
     1
 75
     2
176
     1
175
     1
176
     1
 42
40.0
176
     1
 92
        0
176
     1
 66
   257
176
     1
 43
1.0
176
     1
 76
     1
176
     1
 77
     6
176
     1
 78
     2
176
     1
 67
     7
176
     1
 79
     3
176
     1
170
     0
176
     1
171
     0
176
     1
290
     0
176
     1
 93
        1
176
     1
 44
0.0
176
     1
173
     0
176
     1
  0
VISUALSTYLE
  5
30
102
{ACAD_REACTORS
330
2A
102
}
330
2A
100
AcDbVisualStyle
  2
3dWireframe
 70
     5
177
     2
291
     0
 71
     0
176
     1
 72
     2
176
     1
 73
     0
176
     1
 90
        0
176
     1
 40
-0.6
176
     1
 41
-30.0
176
     1
 62
     5
 63
     7
421
 16777215
176
     1
 74
     1
176
     1
 91
        4
176
     1
 64
     7
176
     1
 65
   257
176
     1
 75
     1
176
     1
175
     1
176
     1
 42
1.0
176
     1
 92
        0
176
     1
 66
   257
176
     1
 43
1.0
176
     1
 76
     1
176
     1
 77
     6
176
     1
 78
     2
176
     1
 67
     7
176
     1
 79
     5
176
     1
170
     0
176
     1
171
     0
176
     1
290
     0
176
     1
 93
        1
176
     1
 44
0.0
176
     1
173
     0
176
     1
  0
VISUALSTYLE
  5
32
102
{ACAD_REACTORS
330
2A
102
}
330
2A
100
AcDbVisualStyle
  2
Basic
 70
     7
177
     2
291
     1
 71
     1
176
     1
 72
     0
176
     1
 73
     1
176
     1
 90
        0
176
     1
 40
-0.6
176
     1
 41
-30.0
176
     1
 62
     5
 63
     7
421
 16777215
176
     1
 74
     0
176
     1
 91
        4
176
     1
 64
     7
176
     1
 65
   257
176
     1
 75
     1
176
     1
175
     1
176
     1
 42
1.0
176
     1
 92
        8
176
     1
 66
     7
176
     1
 43
1.0
176
     1
 76
     1
176
     1
 77
     6
176
     1
 78
     2
176
     1
 67
     7
176
     1
 79
     5
176
     1
170
     0
176
     1
171
     0
176
     1
290
     0
176
     1
 93
        1
176
     1
 44
0.0
176
     1
173
     0
176
     1
  0
VISUALSTYLE
  5
36
102
{ACAD_REACTORS
330
2A
102
}
330
2A
100
AcDbVisualStyle
  2
Brighten
 70
    12
177
     2
291
     1
 71
     2
176
     1
 72
     2
176
     1
 73
     0
176
     1
 90
        0
176
     1
 40
-0.6
176
     1
 41
-30.0
176
     1
 62
     5
 63
     7
421
 16777215
176
     1
 74
     1
176
     1
 91
        4
176
     1
 64
     7
176
     1
 65
   257
176
     1
 75
     1
176
     1
175
     1
176
     1
 42
1.0
176
     1
 92
        8
176
     1
 66
     7
176
     1
 43
1.0
176
     1
 76
     1
176
     1
 77
     6
176
     1
 78
     2
176
     1
 67
     7
176
     1
 79
     5
176
     1
170
     0
176
     1
171
     0
176
     1
290
     0
176
     1
 93
        1
176
     1
 44
50.0
176
     1
173
     0
176
     1
  0
VISUALSTYLE
  5
3A
102
{ACAD_REACTORS
330
2A
102
}
330
2A
100
AcDbVisualStyle
  2
ColorChange
 70
    16
177
     2
291
     1
 71
     2
176
     1
 72
     2
176
     1
 73
     3
176
     1
 90
        0
176
     1
 40
-0.6
176
     1
 41
-30.0
176
     1
 62
     5
 63
     8
421
  8421504
176
     1
 74
     1
176
     1
 91
        4
176
     1
 64
     7
176
     1
 65
   257
176
     1
 75
     1
176
     1
175
     1
176
     1
 42
1.0
176
     1
 92
        8
176
     1
 66
     8
424
  8421504
176
     1
 43
1.0
176
     1
 76
     1
176
     1
 77
     6
176
     1
 78
     2
176
     1
 67
     7
176
     1
 79
     5
176
     1
170
     0
176
     1
171
     0
176
     1
290
     0
176
     1
 93
        1
176
     1
 44
0.0
176
     1
173
     0
176
     1
  0
VISUALSTYLE
  5
34
102
{ACAD_REACTORS
330
2A
102
}
330
2A
100
AcDbVisualStyle
  2
Conceptual
 70
     9
177
     2
291
     0
 71
     3
176
     1
 72
     2
176
     1
 73
     0
176
     1
 90
        0
176
     1
 40
-0.6
176
     1
 41
-30.0
176
     1
 62
     5
 63
     7
421
 16777215
176
     1
 74
     2
176
     1
 91
        2
176
     1
 64
     7
176
     1
 65
   257
176
     1
 75
     1
176
     1
175
     1
176
     1
 42
40.0
176
     1
 92
        8
176
     1
 66
     7
176
     1
 43
1.0
176
     1
 76
     1
176
     1
 77
     6
176
     1
 78
     2
176
     1
 67
     7
176
     1
 79
     3
176
     1
170
     0
176
     1
171
     0
176
     1
290
     0
176
     1
 93
        1
176
     1
 44
0.0
176
     1
173
     0
176
     1
  0
VISUALSTYLE
  5
35
102
{ACAD_REACTORS
330
2A
102
}
330
2A
100
AcDbVisualStyle
  2
Dim
 70
    11
177
     2
291
     1
 71
     2
176
     1
 72
     2
176
     1
 73
     0
176
     1
 90
        0
176
     1
 40
-0.6
176
     1
 41
-30.0
176
     1
 62
     5
 63
     7
421
 16777215
176
     1
 74
     1
176
     1
 91
        4
176
     1
 64
     7
176
     1
 65
   257
176
     1
 75
     1
176
     1
175
     1
176
     1
 42
1.0
176
     1
 92
        8
176
     1
 66
     7
176
     1
 43
1.0
176
     1
 76
     1
176
     1
 77
     6
176
     1
 78
     2
176
     1
 67
     7
176
     1
 79
     5
176
     1
170
     0
176
     1
171
     0
176
     1
290
     0
176
     1
 93
        1
176
     1
 44
-50.0
176
     1
173
     0
176
     1
  0
VISUALSTYLE
  5
39
102
{ACAD_REACTORS
330
2A
102
}
330
2A
100
AcDbVisualStyle
  2
Facepattern
 70
    15
177
     2
291
     1
 71
     2
176
     1
 72
     2
176
     1
 73
     0
176
     1
 90
        0
176
     1
 40
-0.6
176
     1
 41
-30.0
176
     1
 62
     5
 63
     7
421
 16777215
176
     1
 74
     1
176
     1
 91
        4
176
     1
 64
     7
176
     1
 65
   257
176
     1
 75
     1
176
     1
175
     1
176
     1
 42
1.0
176
     1
 92
        8
176
     1
 66
     7
176
     1
 43
1.0
176
     1
 76
     1
176
     1
 77
     6
176
     1
 78
     2
176
     1
 67
     7
176
     1
 79
     5
176
     1
170
     0
176
     1
171
     0
176
     1
290
     0
176
     1
 93
        1
176
     1
 44
0.0
176
     1
173
     0
176
     1
  0
VISUALSTYLE
  5
2B
102
{ACAD_REACTORS
330
2A
102
}
330
2A
100
AcDbVisualStyle
  2
Flat
 70
     0
177
     2
291
     1
 71
     2
176
     1
 72
     1
176
     1
 73
     1
176
     1
 90
        2
176
     1
 40
-0.6
176
     1
 41
30.0
176
     1
 62
     5
 63
     7
421
 16777215
176
     1
 74
     0
176
     1
 91
        4
176
     1
 64
     7
176
     1
 65
   257
176
     1
 75
     1
176
     1
175
     1
176
     1
 42
1.0
176
     1
 92
        8
176
     1
 66
     7
176
     1
 43
1.0
176
     1
 76
     1
176
     1
 77
     6
176
     1
 78
     2
176
     1
 67
     7
176
     1
 79
     5
176
     1
170
     0
176
     1
171
     0
176
     1
290
     0
176
     1
 93
       13
176
     1
 44
0.0
176
     1
173
     0
176
     1
  0
VISUALSTYLE
  5
2C
102
{ACAD_REACTORS
330
2A
102
}
330
2A
100
AcDbVisualStyle
  2
FlatWithEdges
 70
     1
177
     2
291
     1
 71
     2
176
     1
 72
     1
176
     1
 73
     1
176
     1
 90
        2
176
     1
 40
-0.6
176
     1
 41
30.0
176
     1
 62
     5
 63
     7
421
 16777215
176
     1
 74
     1
176
     1
 91
        4
176
     1
 64
     7
176
     1
 65
   257
176
     1
 75
     1
176
     1
175
     1
176
     1
 42
1.0
176
     1
 92
        0
176
     1
 66
   257
176
     1
 43
1.0
176
     1
 76
     1
176
     1
 77
     6
176
     1
 78
     2
176
     1
 67
     7
176
     1
 79
     5
176
     1
170
     0
176
     1
171
     0
176
     1
290
     0
176
     1
 93
       13
176
     1
 44
0.0
176
     1
173
     0
176
     1
  0
VISUALSTYLE
  5
2D
102
{ACAD_REACTORS
330
2A
102
}
330
2A
100
AcDbVisualStyle
  2
Gouraud
 70
     2
177
     2
291
     1
 71
     2
176
     1
 72
     2
176
     1
 73
     1
176
     1
 90
        2
176
     1
 40
-0.6
176
     1
 41
30.0
176
     1
 62
     5
 63
     7
421
 16777215
176
     1
 74
     0
176
     1
 91
        4
176
     1
 64
     7
176
     1
 65
   257
176
     1
 75
     1
176
     1
175
     1
176
     1
 42
1.0
176
     1
 92
        0
176
     1
 66
     7
176
     1
 43
1.0
176
     1
 76
     1
176
     1
 77
     6
176
     1
 78
     2
176
     1
 67
     7
176
     1
 79
     5
176
     1
170
     0
176
     1
171
     0
176
     1
290
     0
176
     1
 93
       13
176
     1
 44
0.0
176
     1
173
     0
176
     1
  0
VISUALSTYLE
  5
2E
102
{ACAD_REACTORS
330
2A
102
}
330
2A
100
AcDbVisualStyle
  2
GouraudWithEdges
 70
     3
177
     2
291
     1
 71
     2
176
     1
 72
     2
176
     1
 73
     1
176
     1
 90
        2
176
     1
 40
-0.6
176
     1
 41
30.0
176
     1
 62
     5
 63
     7
421
 16777215
176
     1
 74
     1
176
     1
 91
        4
176
     1
 64
     7
176
     1
 65
   257
176
     1
 75
     1
176
     1
175
     1
176
     1
 42
1.0
176
     1
 92
        0
176
     1
 66
   257
176
     1
 43
1.0
176
     1
 76
     1
176
     1
 77
     6
176
     1
 78
     2
176
     1
 67
     7
176
     1
 79
     5
176
     1
170
     0
176
     1
171
     0
176
     1
290
     0
176
     1
 93
       13
176
     1
 44
0.0
176
     1
173
     0
176
     1
  0
VISUALSTYLE
  5
38
102
{ACAD_REACTORS
330
2A
102
}
330
2A
100
AcDbVisualStyle
  2
Linepattern
 70
    14
177
     2
291
     1
 71
     2
176
     1
 72
     2
176
     1
 73
     0
176
     1
 90
        0
176
     1
 40
-0.6
176
     1
 41
-30.0
176
     1
 62
     5
 63
     7
421
 16777215
176
     1
 74
     1
176
     1
 91
        4
176
     1
 64
     7
176
     1
 65
   257
176
     1
 75
     7
176
     1
175
     7
176
     1
 42
1.0
176
     1
 92
        8
176
     1
 66
     7
176
     1
 43
1.0
176
     1
 76
     1
176
     1
 77
     6
176
     1
 78
     2
176
     1
 67
     7
176
     1
 79
     5
176
     1
170
     0
176
     1
171
     0
176
     1
290
     0
176
     1
 93
        1
176
     1
 44
0.0
176
     1
173
     0
176
     1
  0
VISUALSTYLE
  5
33
102
{ACAD_REACTORS
330
2A
102
}
330
2A
100
AcDbVisualStyle
  2
Realistic
 70
     8
177
     2
291
     0
 71
     2
176
     1
 72
     2
176
     1
 73
     0
176
     1
 90
        0
176
     1
 40
-0.6
176
     1
 41
-30.0
176
     1
 62
     5
 63
     7
421
 16777215
176
     1
 74
     1
176
     1
 91
        0
176
     1
 64
     7
176
     1
 65
   257
176
     1
 75
     1
176
     1
175
     1
176
     1
 42
1.0
176
     1
 92
        8
176
     1
 66
     8
424
  7895160
176
     1
 43
1.0
176
     1
 76
     1
176
     1
 77
     6
176
     1
 78
     2
176
     1
 67
     7
176
     1
 79
     5
176
     1
170
     0
176
     1
171
     0
176
     1
290
     0
176
     1
 93
       13
176
     1
 44
0.0
176
     1
173
     0
176
     1
  0
VISUALSTYLE
  5
37
102
{ACAD_REACTORS
330
2A
102
}
330
2A
100
AcDbVisualStyle
  2
Thicken
 70
    13
177
     2
291
     1
 71
     2
176
     1
 72
     2
176
     1
 73
     0
176
     1
 90
        0
176
     1
 40
-0.6
176
     1
 41
-30.0
176
     1
 62
     5
 63
     7
421
 16777215
176
     1
 74
     1
176
     1
 91
        4
176
     1
 64
     7
176
     1
 65
   257
176
     1
 75
     1
176
     1
175
     1
176
     1
 42
1.0
176
     1
 92
       12
176
     1
 66
     7
176
     1
 43
1.0
176
     1
 76
     1
176
     1
 77
     6
176
     1
 78
     2
176
     1
 67
     7
176
     1
 79
     5
176
     1
170
     0
176
     1
171
     0
176
     1
290
     0
176
     1
 93
        1
176
     1
 44
0.0
176
     1
173
     0
176
     1
  0
ENDSEC
  0
EOF
